<?xml version="1.0" encoding="UTF-8" standalone="no"?>
<!-- Created with Inkscape (http://www.inkscape.org/) -->

<svg
   width="264.58334mm"
   height="299.95648mm"
   viewBox="0 0 264.58334 299.95648"
   version="1.1"
   id="svg1"
   sodipodi:docname="Toy_Story_5.svg"
   inkscape:version="1.4.3 (0d15f75, 2025-12-25)"
   xmlns:inkscape="http://www.inkscape.org/namespaces/inkscape"
   xmlns:sodipodi="http://sodipodi.sourceforge.net/DTD/sodipodi-0.dtd"
   xmlns="http://www.w3.org/2000/svg"
   xmlns:svg="http://www.w3.org/2000/svg">
  <sodipodi:namedview
     id="namedview1"
     pagecolor="#ffffff"
     bordercolor="#666666"
     borderopacity="1.0"
     inkscape:showpageshadow="2"
     inkscape:pageopacity="0.0"
     inkscape:pagecheckerboard="0"
     inkscape:deskcolor="#d1d1d1"
     inkscape:document-units="mm"
     inkscape:zoom="1"
     inkscape:cx="500.5"
     inkscape:cy="567"
     inkscape:window-width="1920"
     inkscape:window-height="1094"
     inkscape:window-x="-11"
     inkscape:window-y="-11"
     inkscape:window-maximized="1"
     inkscape:current-layer="layer1" />
  <defs
     id="defs1">
    <clipPath
       id="clipPath5088"
       clipPathUnits="userSpaceOnUse">
      <path
         inkscape:connector-curvature="0"
         id="path5086"
         d="M 92.644,171.014 H 248.249 V 373.301 H 92.644 Z" />
    </clipPath>
  </defs>
  <g
     inkscape:label="Layer 1"
     inkscape:groupmode="layer"
     id="layer1"
     transform="translate(-211.1375,-295.58658)">
    <g
       clip-path="url(#clipPath5088)"
       id="g5084"
       transform="matrix(1.7003535,0,0,-1.7003535,53.609781,886.74168)">
      <g
         transform="translate(188.7747,264.0972)"
         id="g5090">
        <path
           inkscape:connector-curvature="0"
           id="path5092"
           style="fill:#ef3e42;fill-opacity:1;fill-rule:nonzero;stroke:none"
           d="M 0,0 C 0.001,0.827 -0.418,1.915 -2.038,1.918 H -2.561 L -2.565,-1.803 H -2.33 C -0.765,-1.805 -0.004,-1.239 0,0" />
      </g>
      <g
         transform="translate(163.0595,262.9306)"
         id="g5094">
        <path
           inkscape:connector-curvature="0"
           id="path5096"
           style="fill:#ef3e42;fill-opacity:1;fill-rule:nonzero;stroke:none"
           d="m 0,0 c -1.125,0.002 -1.937,-0.848 -1.939,-2.012 0.001,-1.163 0.807,-2.018 1.93,-2.021 1.124,-0.002 1.936,0.85 1.94,2.014 C 1.93,-0.856 1.125,-0.003 0,0" />
      </g>
      <g
         transform="translate(153.0729,260.4164)"
         id="g5098">
        <path
           inkscape:connector-curvature="0"
           id="path5100"
           style="fill:#ef3e42;fill-opacity:1;fill-rule:nonzero;stroke:none"
           d="M 0,0 C 0.01,5.557 4.408,9.918 9.998,9.907 15.588,9.898 19.971,5.521 19.962,-0.038 19.951,-5.618 15.555,-9.981 9.964,-9.972 4.371,-9.96 -0.01,-5.583 0,0 m -2.753,1.09 -4.337,0.008 -0.019,-10.725 -8.622,0.016 0.019,10.725 -4.337,0.007 0.017,8.531 17.295,-0.031 z M -31.851,-9.893 c -3.241,0.004 -6.139,0.398 -8.907,1.464 l 2.129,6.431 c 1.144,-1.811 3.156,-3.082 4.88,-3.082 0.81,-0.002 1.437,0.458 1.439,1.079 0.005,2.301 -7.626,1.694 -7.615,7.535 0.008,4.267 3.199,6.458 9.337,6.448 2.639,-0.005 5.722,-0.527 7.787,-1.306 l -2.156,-6.07 c -1.301,1.783 -3.051,2.822 -4.826,2.824 -1.049,0.002 -1.517,-0.463 -1.52,-1.134 -10e-4,-1.396 5.273,-2.106 7.464,-4.28 0.889,-0.88 1.357,-2.094 1.353,-3.595 -0.007,-4.006 -3.042,-6.327 -9.365,-6.314 M 24.526,9.571 37.25,9.547 c 4.914,-0.009 7.075,-2.908 7.069,-5.778 -0.003,-1.783 -0.788,-3.28 -2.228,-4.259 2.087,-2.358 3.359,-5.54 3.75,-9.235 l -8.939,0.017 c -0.36,5.118 -1.45,7.134 -3.774,7.14 l -0.013,-7.134 -8.622,0.014 z m 29.703,-0.056 2.999,-4.374 3.012,4.365 8.728,-0.017 -7.44,-10.842 -0.016,-8.401 -8.622,0.016 0.014,8.4 -7.399,10.87 z m 28.914,-25.952 -8.638,39.541 -8.584,0.328 -0.731,-7.637 -27.048,2.946 0.676,6.387 C 33.189,17.547 24.19,12.642 14.055,12.652 3.389,12.662 -6.006,18.113 -11.536,26.389 l -0.068,0.003 1.186,-9.988 -27.752,-2.824 -1.523,13.884 -10.082,0.385 -6.713,-54.105 z" />
      </g>
      <g
         transform="translate(167.3072,308.4525)"
         id="g5102">
        <path
           inkscape:connector-curvature="0"
           id="path5104"
           style="fill:#0060a9;fill-opacity:1;fill-rule:nonzero;stroke:none"
           d="M 0,0 C 2.137,-0.002 3.867,-1.745 3.865,-3.892 3.863,-6.04 2.129,-7.779 -0.008,-7.777 -2.144,-7.775 -3.875,-6.032 -3.873,-3.885 -3.871,-1.737 -2.137,0.002 0,0 m -0.012,-11.666 c 4.274,-0.004 7.742,3.475 7.746,7.77 0.005,4.295 -3.456,7.78 -7.73,7.785 -4.274,0.004 -7.742,-3.475 -7.746,-7.77 -0.004,-4.295 3.457,-7.78 7.73,-7.785" />
      </g>
      <g
         transform="translate(114.5471,324.697)"
         id="g5106">
        <path
           inkscape:connector-curvature="0"
           id="path5108"
           style="fill:#0060a9;fill-opacity:1;fill-rule:nonzero;stroke:none"
           d="m 0,0 -14.714,-3.559 -1.6,14.061 47.291,5.113 1.725,-13.75 -15.731,0.614 5.302,-45.547 0.095,0.009 -0.091,-0.042 -0.004,0.033 -17.31,-1.714 z M 52.636,5.125 C 66.791,5.112 78.254,-6.432 78.24,-20.658 78.226,-34.884 66.74,-46.405 52.586,-46.391 c -14.155,0.014 -25.618,11.558 -25.604,25.784 0.007,6.846 2.676,13.062 7.016,17.671 l 4.654,-0.224 -0.504,3.79 c 4.124,2.839 9.112,4.501 14.488,4.495 m 34.134,10.498 7.064,-25.502 12.817,23.88 18.297,-1.658 -23.803,-35.142 -2.058,-19.88 -16.896,1.785 1.086,16.945 c 0.09,0.857 0.146,1.723 0.166,2.599 l 0.03,0.474 -0.023,0.057 c 0,0.052 0.002,0.104 0.002,0.156 0.009,8.55 -3.428,16.294 -8.992,21.907 l -6.549,16.072 z m -64.063,-18.016 4.8,-0.231 c -1.612,-2.266 -2.928,-4.76 -3.891,-7.424 z m 5.4,-45.484 -1.186,9.989 -0.014,0.124 c 0.027,-0.043 0.055,-0.085 0.083,-0.127 5.53,-8.277 14.925,-13.728 25.591,-13.738 10.135,-0.01 19.133,4.895 24.763,12.477 l -0.676,-6.387 27.048,-2.947 2.248,23.495 27.738,41.442 -30.107,2.608 L 95.57,3.638 91.172,20.131 59.936,22.969 66.622,6.987 C 62.427,9.141 57.676,10.359 52.642,10.364 47.096,10.369 41.89,8.902 37.39,6.33 l -1.931,14.527 -57.362,-6.206 2.72,-24.577 14.682,3.509 4.857,-44.283 z" />
      </g>
      <g
         transform="translate(174.0978,357.4481)"
         id="g5110" />
      <g
         transform="translate(185.1657,366.9141)"
         id="g5114" />
      <g
         transform="translate(195.3308,356.4637)"
         id="g5118" />
      <g
         transform="translate(209.8921,366.1709)"
         id="g5122" />
      <g
         transform="translate(222.3242,362.6618)"
         id="g5126" />
      <g
         transform="translate(167.4205,360.5182)"
         id="g5130" />
      <g
         transform="translate(128.9006,364.028)"
         id="g5134" />
      <g
         transform="translate(147.327,357.5671)"
         id="g5138" />
      <g
         transform="translate(157.609,358.1583)"
         id="g5142" />
      <g
         transform="translate(127.2884,368.0596)"
         id="g5146" />
      <g
         transform="translate(140.5949,356.1107)"
         id="g5150" />
      <g
         transform="translate(130.8247,361.6571)"
         id="g5154" />
      <g
         transform="translate(112.5553,357.2099)"
         id="g5158" />
      <g
         transform="translate(121.7697,264.7123)"
         id="g5162">
        <path
           inkscape:connector-curvature="0"
           id="path5164"
           style="fill:#ffdd00;fill-opacity:1;fill-rule:nonzero;stroke:none"
           d="M 0,0 C 0.003,0.671 0.472,1.136 1.52,1.134 3.295,1.132 5.045,0.093 6.346,-1.69 L 8.502,4.38 C 6.437,5.159 3.354,5.681 0.716,5.686 c -6.139,0.01 -9.329,-2.181 -9.337,-6.448 -0.012,-5.841 7.619,-5.234 7.614,-7.535 -0.002,-0.62 -0.629,-1.081 -1.439,-1.08 -1.724,0.001 -3.736,1.272 -4.879,3.083 l -2.13,-6.431 c 2.768,-1.066 5.667,-1.46 8.907,-1.464 6.323,-0.013 9.358,2.308 9.365,6.314 C 8.821,-6.374 8.353,-5.16 7.465,-4.281 5.274,-2.106 -0.001,-1.395 0,0" />
      </g>
      <g
         transform="translate(133.0239,261.5379)"
         id="g5166">
        <path
           inkscape:connector-curvature="0"
           id="path5168"
           style="fill:#ffdd00;fill-opacity:1;fill-rule:nonzero;stroke:none"
           d="m 0,0 4.337,-0.008 -0.019,-10.725 8.622,-0.016 0.019,10.726 4.337,-0.008 0.016,8.53 L 0.016,8.53 Z" />
      </g>
      <g
         transform="translate(163.05,258.8973)"
         id="g5170">
        <path
           inkscape:connector-curvature="0"
           id="path5172"
           style="fill:#ffdd00;fill-opacity:1;fill-rule:nonzero;stroke:none"
           d="M 0,0 C -1.122,0.003 -1.929,0.858 -1.93,2.021 -1.928,3.185 -1.116,4.035 0.009,4.033 1.135,4.03 1.94,3.178 1.94,2.014 1.936,0.851 1.124,-0.002 0,0 m 9.985,1.481 c 0.008,5.559 -4.374,9.936 -9.964,9.945 -5.59,0.011 -9.989,-4.35 -9.998,-9.907 -0.011,-5.583 4.371,-9.96 9.963,-9.972 5.592,-0.009 9.988,4.354 9.999,9.934" />
      </g>
      <g
         transform="translate(186.214,266.0152)"
         id="g5174">
        <path
           inkscape:connector-curvature="0"
           id="path5176"
           style="fill:#ffdd00;fill-opacity:1;fill-rule:nonzero;stroke:none"
           d="M 0,0 H 0.523 C 2.143,-0.003 2.561,-1.09 2.561,-1.918 2.557,-3.157 1.796,-3.723 0.231,-3.721 h -0.236 z m -0.013,-8.167 c 2.324,-0.006 3.414,-2.022 3.774,-7.14 l 8.938,-0.017 c -0.391,3.695 -1.662,6.878 -3.749,9.235 1.44,0.979 2.225,2.476 2.228,4.259 0.006,2.87 -2.155,5.769 -7.069,5.778 l -12.724,0.024 -0.033,-19.258 8.622,-0.015 z" />
      </g>
      <g
         transform="translate(205.9628,250.6786)"
         id="g5178">
        <path
           inkscape:connector-curvature="0"
           id="path5180"
           style="fill:#ffdd00;fill-opacity:1;fill-rule:nonzero;stroke:none"
           d="M 0,0 8.622,-0.017 8.638,8.386 16.078,19.227 7.35,19.244 4.338,14.879 1.339,19.253 -7.385,19.27 0.014,8.4 Z" />
      </g>
      <g
         transform="translate(197.9993,304.0339)"
         id="g5182">
        <path
           inkscape:connector-curvature="0"
           id="path5184"
           style="fill:#ffdd00;fill-opacity:1;fill-rule:nonzero;stroke:none"
           d="M 0,0 C 0,-0.052 -0.002,-0.104 -0.002,-0.156 L 0.021,-0.213 -0.01,-0.687 c -0.019,-0.876 -0.075,-1.742 -0.166,-2.598 l -1.085,-16.946 16.896,-1.785 2.057,19.88 23.804,35.142 -18.297,1.658 -12.817,-23.88 -7.064,25.503 -18.859,1.692 6.549,-16.072 C -3.428,16.294 0.008,8.55 0,0" />
      </g>
      <g
         transform="translate(167.311,312.3412)"
         id="g5186">
        <path
           inkscape:connector-curvature="0"
           id="path5188"
           style="fill:#ffdd00;fill-opacity:1;fill-rule:nonzero;stroke:none"
           d="M 0,0 C 4.274,-0.004 7.735,-3.489 7.731,-7.785 7.726,-12.08 4.258,-15.558 -0.015,-15.554 -4.289,-15.55 -7.75,-12.065 -7.746,-7.77 -7.742,-3.474 -4.274,0.004 0,0 m -18.766,9.42 c -4.34,-4.61 -7.009,-10.825 -7.016,-17.672 -0.014,-14.225 11.449,-25.769 25.604,-25.783 14.154,-0.014 25.64,11.507 25.654,25.733 0.014,14.226 -11.449,25.769 -25.603,25.783 -5.377,0.006 -10.365,-1.656 -14.489,-4.495 l 0.504,-3.79 z" />
      </g>
      <g
         transform="translate(136.8202,281.6288)"
         id="g5190">
        <path
           inkscape:connector-curvature="0"
           id="path5192"
           style="fill:#ffdd00;fill-opacity:1;fill-rule:nonzero;stroke:none"
           d="m 0,0 -5.303,45.548 15.732,-0.614 -1.725,13.749 -47.291,-5.113 1.6,-14.061 14.714,3.559 4.963,-44.782 z" />
      </g>
      <g
         transform="translate(164.5151,218.4275)"
         id="g5194">
        <path
           inkscape:connector-curvature="0"
           id="path5196"
           style="fill:#ffdd00;fill-opacity:1;fill-rule:nonzero;stroke:none"
           d="m 0,0 c 4.372,-0.094 15.497,-1.26 21.825,-7.781 3.239,-3.337 4.802,-7.585 4.645,-12.629 0.001,-0.455 -0.027,-2.778 -0.664,-5.233 -1.244,-5.046 -6.111,-16.767 -24.431,-16.73 -8.231,0.057 -13.653,1.315 -20.215,4.985 l 0.992,12.431 c 3.509,-1.626 10.351,-3.706 16.096,-3.717 6.68,-0.014 10.269,2.572 10.67,7.686 0.188,2.409 -0.467,4.37 -2.002,5.995 -3.875,4.103 -12.558,4.731 -17.389,4.74 -1.363,0.003 -3.257,-0.106 -4.774,-0.203 L -12.413,24.146 25.056,21.09 24.094,9.717 0.97,11.604 Z" />
      </g>
      <g
         transform="translate(190.9848,198.0179)"
         id="g5198">
        <path
           inkscape:connector-curvature="0"
           id="path5200"
           style="fill:#0060a9;fill-opacity:1;fill-rule:nonzero;stroke:none"
           d="M 0,0 C 0.001,-0.455 -0.027,-2.778 -0.664,-5.233 -1.907,-10.279 -6.775,-22 -25.095,-21.964 c -8.231,0.058 -13.653,1.315 -20.214,4.985 l 0.992,12.432 c 3.508,-1.626 10.35,-3.706 16.095,-3.718 6.68,-0.013 10.27,2.573 10.67,7.686 0.189,2.41 -0.466,4.371 -2.001,5.996 -3.876,4.102 -12.559,4.73 -17.39,4.74 -1.363,0.003 -3.257,-0.106 -4.774,-0.204 L -38.882,44.555 -1.413,41.499 -2.376,30.126 -25.5,32.014 -26.47,20.41 c 4.372,-0.094 15.497,-1.26 21.825,-7.781 C -1.406,9.292 0.157,5.044 0,0 m -1.095,15.927 c -5.706,5.879 -13.884,8.009 -20.094,8.799 l 0.162,2.116 23.062,-1.882 1.706,20.925 -47.032,3.837 -3.703,-45.005 c 10.482,1.122 14.723,0.513 18.665,-0.217 3.041,-0.563 6.335,-1.881 5.947,-4.876 -0.366,-2.816 -3.636,-3.203 -5.834,-3.129 -8.588,0.289 -16.69,4.286 -20.341,6.11 l -1.848,-22.222 c 0,0 9.986,-7.387 25.301,-7.137 22.416,-0.044 28.016,15.597 29.185,20.343 0.739,2.852 0.812,5.484 0.814,6.333 0.182,6.339 -1.833,11.723 -5.99,16.005" />
      </g>
    </g>
  </g>
</svg>
