<?xml version="1.0" encoding="utf-8"?>
<!-- Generator: Adobe Illustrator 29.8.7, SVG Export Plug-In . SVG Version: 9.03 Build 0)  -->
<svg version="1.0" id="BUZZ_EXTRA" xmlns="http://www.w3.org/2000/svg" xmlns:xlink="http://www.w3.org/1999/xlink" x="0px" y="0px"
	 viewBox="0 0 866 1122" style="enable-background:new 0 0 866 1122;" xml:space="preserve">
<style type="text/css">
	.st0{fill:#3E3E3D;}
	.st1{fill:#9CA0A0;}
	.st2{fill:#E0D9CE;}
	.st3{fill:#52A4C1;}
	.st4{fill:#DC961F;}
	.st5{fill:#E72E20;}
	.st6{fill:#699F58;}
	.st7{fill:#562E6B;}
	.st8{fill:#E0B090;}
</style>
<path id="CONTORNO" fill="#000000" d="M663.1,311c-5.9-2.2-5.9-2.2-6.3-11.5c-0.4-11.3-1.3-12.6-10.4-15.1c-5.5-1.4-6.5-2.1-7-4.3
	c-2.6-11.5-4.7-15-10.4-17.1c-3.6-1.3-4.4-2.2-6.5-7.4c-3.2-7.9-5.7-10.3-13.3-12.6c-11.3-3.5-17.9-1.9-22.7,5.7
	c-2,3.2-3,3.6-11.5,4.9c-6,0.9-11.4,6.2-12.3,12c-0.7,4.1-0.7,4.1-14.4,6.7c-20.7,3.9-54.3,9-55,8.4c-1.2-1.3-4.2-34-4.3-46.7
	c0-14.9-0.9-22.7-4.2-37.3c-2-9.1-2-10.3-0.7-14.5c3.6-12,1.3-27.6-5.1-34c-1.4-1.5-4.1-5.4-5.9-8.8c-5.3-10-14.9-19.7-23.8-24.1
	c-7.5-3.7-7.8-3.8-20.7-4c-29.7-0.4-45.8,5.5-58.7,21.7c-7.6,9.5-9.2,13.6-8.4,21.6c0.6,5.4,0.5,6.4-0.8,6.4
	c-4.8,0-6.7,18.3-2.9,27.7c1.4,3.3,1.6,6,1.1,14c-1.3,19.9,1.9,45.2,8,64.4c1.6,4.9,2.7,9,2.4,9.2c-2.1,2.2-44.7-11.3-50.6-15.9
	c-2.3-1.8-6.4-3.8-9.2-4.5c-3.7-0.9-6.3-2.4-10.2-6c-6.4-6-9.7-6.3-20.5-2c-9.4,3.8-13.1,6.8-16.2,13.5c-1.8,3.8-3.3,5.6-5,6
	c-1.4,0.3-2.8,1.5-3.1,2.6c-0.4,1.1-2.8,3.1-5.3,4.4c-9,4.5-19,17.6-21,27.3c-0.8,3.8-0.8,3.8-9.2,4.3c-15.6,1.1-24.3,6-30.4,17.3
	c-6.5,11.8-16,21.8-23,24.1c-3.5,1.2-8,3.5-10.1,5c-3.8,2.9-3.8,2.9-3.2,9.7c0.5,5.9,0.3,6.9-1.5,8.6c-1.1,1-3.1,3.4-4.3,5.3
	c-1.2,1.9-6.2,6.2-11,9.5c-13.8,9.4-18.5,18-18.5,34c0,21.1,13.1,40.5,33,48.8c2,0.8,5.9,3.6,8.6,6.3c7.2,7,15.8,11.4,22.3,11.4
	c4.4,0,7.3-1.1,19.9-7.4c35.6-17.9,39.1-19,39.2-12.4c0,9.3,6.3,32.4,11.5,42.8c9.7,19.3,31.9,41.1,44.3,43.6c4.3,0.9,4,1.4-2.1,4.9
	c-5.2,3-5.2,3-5.5,15.1c-0.3,12.2-0.3,12.2,3.8,15.4c5,3.9,5,3.8-0.7,10.8c-11.8,14.5-15.2,28.2-18.8,74.7
	c-2.9,38.5-3.5,50.2-3.5,74.2c0,24.1,0,24.2-2.9,33c-3.1,9-5.2,24.3-4.4,31.8c0.2,2.2,1,8.7,1.9,14.5c1.5,10.2,1.5,11.5-1.5,45
	c-6.4,71.8-6.2,70.3-8.6,72.6c-2.6,2.4-6.8,18.2-6.3,24c0.3,3.4,0.8,4.2,4.6,6.2c2.9,1.6,4.2,3,4.2,4.5c0,1.2,1.1,4.8,2.4,8
	c2.8,6.7,4.2,4.9-10.7,13.6c-5.1,2.9-10.1,5.1-11.8,5.1c-12.9,0-30.6,17.1-33.5,32.5c-0.4,2.2-1.5,4.6-2.6,5.3
	c-1.5,1.1-1.8,2.7-1.8,8.8c0,8.7,1.2,10,12.4,12.7c19.7,5,69.7,7.2,84.1,3.8c2.8-0.7,6.6-1.2,8.6-1.1c3.7,0.1,28.1-4.4,29.9-5.5
	c0.6-0.3,3.8-0.8,7.3-0.9c3.4-0.2,10.3-1.3,15.2-2.6c5-1.2,11-2.3,13.4-2.6c6.6-0.7,24.3-5.3,27-7.1c3.1-2,2.8-16.6-0.4-18.9
	c-2.6-2-1.4-18.5,2-25.2c4-8,5.4-15.8,6.1-34.2c0.9-22.5-1.5-32.8-9.6-41.5c-2.9-3.1-9.1-27-21.5-82.5c-2.8-12.6-5.3-21.5-6.4-23.1
	c-1.9-2.6-1.9-2.6,0.6-7.7c4.7-9.6,4-27.6-1.3-36c-1.3-2-1.4-3.8-0.4-11.5c2.1-18.1,10.8-75.6,11.6-76.5c0.1-0.2,2.9,1,6.2,2.7
	c8.8,4.4,19.8,7.2,29.6,7.4c8.5,0.2,8.5,0.2,17.4,25.7c14.4,40.9,27.9,84.3,31.2,100.5c1.9,9.2,5.5,51.1,9,104
	c1.1,16.5,2.5,34.2,3.1,39.3c1.2,10.3,0.9,12.2-1.9,12.2c-1.1,0-3.2,1-4.7,2.1c-3.3,2.7-3,10.3,1.1,30.2
	c5.2,24.7,8.7,31.4,15.8,30.3c8.2-1.3,9-2.6,8.3-12.6c-0.4-4.8-1.1-9.9-1.6-11.3c-0.9-2.4,0.1-4.7,2.1-4.7c0.4,0,0.8,7.7,0.8,17
	c0,17,0,17-2.4,18c-3.9,1.5-4.9,4.5-4.2,12.7c0.8,9.7,1.2,10.4,10.6,15.7c23.8,13.4,32.9,15.6,67.1,16.3
	c39.3,0.8,70.5-4.4,72.5-12.3c2.5-10-4-28.3-13.9-39.1c-3-3.2-8.6-10.6-12.6-16.6c-7.1-10.7-7.1-10.7-4-10.7c2.1,0,4-1,6.1-3.1
	c3-3,3.1-3.1,2.4-10.7c-0.8-9.5-3.5-21.4-8.2-35.2c-3.8-11.6-4.9-13.5-8.5-14.8c-2.7-1-2.5-0.4-20-63.7c-6.1-22-12.9-46.5-15.1-54.5
	s-5.5-18.6-7.4-23.6c-2.9-7.8-3.2-9.5-2.3-12.5c1.1-3.6,1.2-3-12.2-61.4c-10-42.9-17.4-71.4-24.1-92.3c-3-9.4-3-9.4,0.6-16.5
	c1.9-4,3.8-8.3,4.1-9.7c0.8-3.3,7.8-6.2,21.5-8.9c27.8-5.6,26.5-4.7,34-23.1c2.9-6.9,5.7-13.4,6.4-14.5c2.1-3.3,12.3-28.6,14.1-34.9
	c1-3.2,3.2-9,5.1-13c4.5-9.6,20.8-51.5,25.2-64.9c3.5-10.7,3.5-10.7,7.6-10.7c54.7-0.5,90.4-65.7,61.2-111.5
	C688.7,327.2,674.8,315.4,663.1,311z"/>
<g id="GRIS_OSCURO">
	<path class="st0" d="M439.27,130c-8.7,2.1-22,8.8-22,11.2c0,2.5,1,2.3,12.9-2.3c16.3-6.4,24.4-5.4,28.1,3.6
		c0.8,1.8,0.9,1.7,0.9-0.8C459.47,132.3,450.77,127.3,439.27,130z"/>
	<path class="st0" d="M366.27,158.5c0.6-0.3,1-2.2,1-4.1c0-8.5,3.6-9.9,20-7.7c9.7,1.3,12.2,1.4,13.5,0.3c4.2-3.5,1.8-4.1-22-5.6
		c-8.3-0.6-9.2-0.4-11.2,1.5C365.17,145.2,363.97,159.9,366.27,158.5z"/>
	<path class="st0" d="M569.57,269.4c11.6,1.4,10.7,1.6,10.7-2.3c0.1-2,0.7-5.4,1.5-7.6c0.8-2.1,1.3-4,1.2-4
		c-0.1-0.1-2.2,0.2-4.7,0.5c-6,0.9-9.3,2.6-11.3,6C564.07,266.9,564.67,268.8,569.57,269.4z"/>
	<path class="st0" d="M299.77,284.1c-0.8,5.6-0.9,5.6,15.1,6.5c12.8,0.8,11.9,2,8.7-12.1c-3.4-14.8-7.1-19.6-12.8-16.3
		C306.27,264.8,301.17,275,299.77,284.1z"/>
	<path class="st0" d="M195.57,321.3c4.6-4.5,7.7-5.4,13.9-4.3c2.8,0.6,5.3,0.8,5.6,0.5c0.3-0.2-1.4-0.7-3.7-1.1s-4.3-1-4.6-1.4
		c-0.2-0.4,1.8-0.3,4.4,0.1c5.6,0.9,12.6,4.1,13.9,6.5c0.6,1.1,1.1-0.2,1.5-4.6c0.4-3.4,0.4-6.6,0.1-7.1c-1-1.7-14.7-0.9-20.2,1.3
		c-5.5,2-14.2,9.4-14.2,11.8C192.27,323.8,193.67,323.1,195.57,321.3z"/>
	<path class="st0" d="M649.47,310.5c-3.1-0.3-6.8-0.7-8.2-0.9c-1.4-0.1-5.2,0.1-8.5,0.4c-17.1,1.7-42,17.2-48.6,30.2
		c-3.9,7.7-0.4,6.4,14.5-5.2c15.5-12,24.4-15.7,40.5-17.1c35.2-2.9,60.2,19.3,64.5,57.1c0.2,1.9,0.2-0.3,0-5
		C702.47,341.6,676.47,313.1,649.47,310.5z"/>
	<path class="st0" d="M599.77,320.8c-3.7,3.1-2.9,2.8,6-2.2c3.8-2.2,9.6-5,13-6.2c6-2.3,5.9-2.9-0.3-1.4
		C614.17,312,603.67,317.5,599.77,320.8z"/>
	<path class="st0" d="M200.67,320.4c-2.7,1.2-5.4,3.6-4,3.6c1,0,9.6-4,9.6-4.5C206.27,318.6,203.97,319,200.67,320.4z"/>
	<path class="st0" d="M137.67,434.6c-0.3-0.8-0.9-7-1.3-13.7c-0.7-12.4-0.7-12.4-1.9-7.1c-1.6,6.9-1.6,19.4,0,21
		C136.07,436.4,138.37,436.3,137.67,434.6z"/>
	<path class="st0" d="M136.97,441.1c2.1,1.9,2.5,2,2,0.6c-0.4-1-0.7-2.2-0.7-2.7c0-0.4-0.9-1-2-1.3c-1.1-0.3-2-0.2-2,0.2
		S135.47,439.7,136.97,441.1z"/>
	<path class="st0" d="M321.27,467.2c0.3,0.2,8.4,0.1,18-0.2c16.7-0.5,17.3-0.6,13-1.9c-2.5-0.7-7.5-2.9-11.2-4.7
		c-8.6-4.3-8.5-4.3-14.9,1.5C323.17,464.6,320.97,467,321.27,467.2z"/>
	<path class="st0" d="M308.57,478.8c0.7,0.5,17.8,1.4,41.2,2.1c22,0.6,44.3,1.4,49.5,1.6c11,0.5,11.9,0.9-15.8-7.2
		c-18.3-5.3-18.3-5.3-41.5-5.2s-23.2,0.1-27.7,3c-2.4,1.6-5,2.9-5.7,2.9C306.87,476,306.87,477.5,308.57,478.8z"/>
	<path class="st0" d="M318.97,485c6.3,0,79.9,2,93.3,2.5c10.8,0.4,13.9,0.2,12-0.6c-4.1-1.7-106.5-4.5-107.5-2.9
		C316.37,484.6,317.37,485,318.97,485z"/>
	<path class="st0" d="M304.67,498.9c3.8,3.2,39.7,5.4,168.6,10.6c13.5,0.5,13.5,0.5,9-3.6c-7-6.3-7.4-6.5-27-10.8
		c-18.5-4-18.5-4-71-5.6c-55.7-1.6-67.3-1.7-73.2-0.5C304.57,490.2,300.97,495.8,304.67,498.9z"/>
	<path class="st0" d="M353.07,507c-19.6-1.1-35.9-2-36.2-2s-0.6,0.4-0.6,0.9c0,1.9,130.9,8.3,162.5,8c17.7-0.2,13.8-0.6-18-1.9
		C415.67,510.2,390.47,509,353.07,507z"/>
	<path class="st0" d="M312.47,522.5c33.5,8.6,196.3,14.3,196.3,6.9c0-0.6-3-3.7-6.6-6.8c-6.6-5.6-6.6-5.6-22.7-5.6
		c-16.3,0-84.1-2.8-134.5-5.5c-30.8-1.7-32-1.7-36-0.5C299.97,513.7,301.77,519.8,312.47,522.5z"/>
	<path class="st0" d="M317.57,526.5c-1.8-0.3-3.3-0.2-3.3,0.3c0,1.1,2.2,1.4,33,4.7c50.1,5.3,148.4,9,150.5,5.5
		c0.4-0.7-8.6-1-26.3-1C421.67,536,346.47,531.3,317.57,526.5z"/>
	<path class="st0" d="M307.67,541c19.3,8.6,93.4,16.3,158.1,16.4c32.6,0.1,36.4-0.1,40.8-1.7c7-2.7,7.9-8.3,2-12.3
		c-3.1-2-4.4-2.1-46-2.7c-59.1-0.9-97-3.4-149.3-10.1c-1.9-0.3-4.2-0.2-5,0.1C301.87,533.1,301.57,538.4,307.67,541z"/>
	<path class="st0" d="M315.37,548c12.4,7.2,138.4,17.4,177.7,14.3c14.6-1.1,8.8-1.8-12-1.4c-46,0.8-123.1-5.3-156.8-12.4
		C315.77,546.7,312.87,546.6,315.37,548z"/>
	<path class="st0" d="M389.27,580.9c1.4-0.1-5.6-1.2-15.5-2.5c-33.3-4.4-61.4-10.3-68-14.4c-3.5-2.2-4.5-2.4-4.5-1.2
		c0,3.5,11.3,6.9,39,11.7C356.57,577.3,385.47,581.1,389.27,580.9z"/>
	<path class="st0" d="M446.77,593c17.5-2,58-7.3,58.5-7.7c1.4-1.3-2.9-1.9-7.8-1c-6.1,1-42.2,0.3-66.2-1.2
		c-27.3-1.8-39.5-2.4-39-1.8c0.3,0.3,9.5,1,20.5,1.6c29.2,1.7,59.8,4.1,60.4,4.6c1.3,1.4-61.1-1.9-87.4-4.6
		c-29.5-3-68.2-9.8-78.8-13.8c-4.3-1.7-4.4-1.4-0.6,2.5c5,5.2,15.8,10.1,28.4,12.9C370.07,592.3,418.97,596.1,446.77,593z"/>
	<path class="st0" d="M512.87,569.4c-1.3-4.9-3.6-5.4-21.1-4.3c-40,2.4-125.6-3.7-169.3-12.1c-12.4-2.4-16.6-2.5-18.6-0.4
		c-5.2,5.2,0.1,8.9,20.5,14.3c28.8,7.6,65.5,11.7,127,14.2C500.27,583,515.57,580.1,512.87,569.4z"/>
	<path class="st0" d="M362.87,788.9c-0.4,3.3-0.4,7.2,0,8.7c0.5,1.8,0.3,2.5-0.4,2c-1.4-0.8-4.2,4.5-4.1,7.6c0.1,2,0.2,2.1,0.6,0.3
		c0.3-1.1,0.9-2.4,1.4-2.9s0.4,0.6-0.2,2.5c-0.6,1.9-1.3,4.2-1.6,5.2c-0.8,2.7-2.3,0.1-2.3-3.9c0-2.9-0.3-3.2-4.2-3.7
		c-2.4-0.3-9.2-3.1-15.2-6.2c-5.9-3.1-11-5.4-11.3-5.1c-0.3,0.2,3,4,7.4,8.4c7.9,7.9,25.3,18.2,28.7,16.9c4.4-1.7,7.3-20.6,4.6-30.3
		C364.47,782.1,363.57,782.2,362.87,788.9z"/>
	<path class="st0" d="M468.57,826.9c2-3.4,7.9-17.9,7.3-17.9c0,0-2.3,2.7-4.9,6c-2.7,3.3-5.6,6-6.4,6c-1.1,0-1.3,0.7-0.7,3.2
		C465.37,831.6,465.77,831.8,468.57,826.9z"/>
	<circle class="st0" cx="394.42" cy="160.85" r="3.55"/>
	<circle class="st0" cx="436.55" cy="156.6" r="3.55"/>
</g>
<g id="GRIS_MEDIO">
	<path class="st1" d="M586.97,270c3.5,0,11.6,1.1,17.9,2.5c1.7,0.4,2.3-0.1,2.8-1.9c1.3-5.1,6-8.7,10.5-8c4.1,0.7,4.1,0.7,2.7-4
		c-3-10-7.5-13.1-20.1-14.3c-6.1-0.5-6.1-0.5-9.4,3.3c-4.3,4.8-7,11-7.8,17.4C582.97,270,582.97,270,586.97,270z"/>
	<path class="st1" d="M271.27,283.8c1.5-2.9,3.6-7.1,4.8-9.3c1.1-2.2,2.8-5.8,3.8-8c1-2.2,4-6.2,6.6-8.9c4.5-4.7,4.9-4.9,9-4.3
		c4.3,0.6,4.3,0.6,1-2.4c-4.6-4.1-9.5-3.9-19.2,1c-13,6.5-17.1,17.4-11.5,30.7C268.57,289.1,268.57,289.1,271.27,283.8z"/>
	<path class="st1" d="M290.07,262.2c4.9-5.9,3.1-7.5-2.8-2.6c-3.3,2.8-7.4,9.8-6.7,11.7C280.97,272.5,283.27,270.4,290.07,262.2z"/>
	<path class="st1" d="M292.97,261.6c-2.3,2.5-7.4,7.8-11.3,11.7c-5.4,5.6-7.3,8.3-8.4,12.1c-1.7,6-1.9,5.9,12.7,7.4
		c6.5,0.7,17.9,1.9,25.3,2.8c11.4,1.3,20.3,1.4,57.5,0.6c64.1-1.3,61.5-2.9-4.6-2.8c-53.4,0.1-53.4,0.1-70.9-2.8
		c-17.8-3-18.7-3.2-17.8-4.1c0.6-0.6,16.9,1.1,19.9,2.1c1.3,0.3,1.9-0.8,2.8-5.6c1.8-8.8,7.8-20.1,11.8-22.1
		c3.3-1.6,3.3-1.6-2.4-2.8C298.67,256.3,297.67,256.6,292.97,261.6z"/>
	<path class="st1" d="M348.17,277.5c17.9,5.1,21.6,5.7,21.6,3.5c0-1-3.5-2.2-12.4-4.2c-10.1-2.2-23.9-6.3-32.8-9.6
		c-0.7-0.2-1.3,0.1-1.3,0.7C323.27,269.7,330.97,272.6,348.17,277.5z"/>
	<path class="st1" d="M359.27,282.4c-5.2-1.4-15.2-4.4-22.2-6.7c-7.1-2.4-12.8-4.3-12.8-4.2c0,0,0.9,4.2,2,9.4c1,5.1,2.2,9.6,2.5,10
		c0.4,0.3,9.5,0.6,20.3,0.6c19.7,0,19.7,0,19.7-3.3C368.77,284.8,368.77,284.8,359.27,282.4z"/>
	<path class="st1" d="M537.97,287.5c17-0.2,17-0.2,27.6-7.2c13.1-8.6,11.1-10.3-7.8-6.8c-3.8,0.7-14.5,2.6-23.7,4.1
		c-16.6,2.8-16.6,2.8-14.8,6.4C521.07,287.6,521.07,287.6,537.97,287.5z"/>
	<path class="st1" d="M372.87,281.5c-0.8,2.3-0.8,9.3,0.2,9.8c0.4,0.3,2.4,0.2,4.4-0.2c3.7-0.6,3.7-0.6-0.1-5.9
		C374.37,281.1,373.37,280.3,372.87,281.5z"/>
	<path class="st1" d="M190.57,337.3c13.2-2,24.4-1.8,30.7,0.6c6.5,2.5,5.9,3.1,5.1-5.4c-0.6-7-0.6-7-6-9.8
		c-6.5-3.2-8.5-3.3-12.8-0.8c-1.7,1.1-5.1,2.5-7.5,3.1c-6.5,1.8-11.1,4.5-14.6,8.5C180.97,338.5,181.27,338.7,190.57,337.3z"/>
	<path class="st1" d="M666.67,384.4c0.9,3.3,1.8,6.1,2.1,6.4c2.1,2.1,26-8,29.6-12.6c5.7-7.3-2.7-30-15.9-42.4
		c-12.2-11.4-32.5-19.3-37-14.3c-1.5,1.8-6.8,2-7.8,0.4c-1.9-3.2-17.7,2-29.5,9.6c-9.4,6.1-9.3,6.3,1.9,6.3
		C636.57,337.7,659.47,356.6,666.67,384.4z"/>
	<path class="st1" d="M694.07,383.9c-3.1,2.1-9.7,5.1-14.5,6.5c-4.8,1.5-9.4,2.9-10,3.1c-0.8,0.3-1.3,2.2-1.3,4.8
		c0,15.5-7.9,25.6-31.2,40.1c-4.3,2.6-7.8,5-7.8,5.3c0,1.4,26.7-0.6,31.5-2.3c22.4-7.9,39-29.7,40.3-52.7
		C701.57,378.8,701.77,378.9,694.07,383.9z"/>
	<path class="st1" d="M143.77,453.5c-1.5-2.8-4.3-6.6-6.1-8.5c-8.7-9.2-8.9-21.6-0.9-44.4c3-8.6,5.1-15.6,4.7-15.6
		c-0.4,0.1-3,1.7-5.9,3.6c-24.3,16.5-19.3,57.1,9.1,73.3c6.7,3.9,7.3,3.9,4.3-0.2C147.67,460,145.37,456.2,143.77,453.5z"/>
	<path class="st1" d="M539.57,399.7c-6.4-3-7.5-3.2-19.3-3.4c-6.9-0.1-13.6,0.1-14.9,0.5c-5.5,1.7-13.1,27.7-13.1,44.8
		c0,5.6,1.6,6.3,15.5,7.1c29.7,1.6,59.9-6.8,57.9-16.2C563.17,420.2,551.27,405.2,539.57,399.7z"/>
	<path class="st1" d="M565.17,453c2.9-13.2,2.6-13.7-6.9-9.3c-6.8,3.1-21.5,6.9-29.5,7.6c-4.2,0.4-4.9,0.3-2.5-0.2
		c2.1-0.5-1.1-0.6-8-0.4c-6.3,0.3-14.8,0.1-18.9-0.4c-7.3-1-7.3-1-6.6,5.1c1.7,15.7,7.2,23.7,18.7,27.1
		C533.07,488.9,560.47,473.8,565.17,453z"/>
	<path class="st1" d="M633.47,446.4c-6.7-0.2-7.1-0.1-3.2,0.6c5.8,1.1,11,1.2,11,0.2C641.27,446.8,637.77,446.4,633.47,446.4z"/>
	<path class="st1" d="M620.47,449.3c-0.5,0.7-1.9,4.6-3.1,8.7c-1.2,4.1-5.1,15.1-8.6,24.5c-3.5,9.3-7.8,21-9.6,26
		c-1.7,4.9-4.4,11.6-6,14.8c-2.7,5.3-2.8,5.8-1.2,6.4c1,0.3,2.5,1.2,3.4,2c2.2,1.8,2.6,0.7,23.7-53.7c5.9-15.1,9.7-26.9,9-27.4
		C626.37,449.1,621.27,448.3,620.47,449.3z"/>
	<path class="st1" d="M599.77,499.7c2.1-5.6,5.5-14.5,7.5-19.7c3.2-8,10.1-29,9.6-29c0,0-5.6,3.3-12.4,7.2c-6.7,4-12.2,7.7-12.2,8.3
		c0,0.5-3.2,8.2-7,16.9c-7.7,17.9-7.8,16.8,0.7,21.6C596.47,510.9,595.57,511.3,599.77,499.7z"/>
	<path class="st1" d="M576.57,498c0.4,0,6-12.7,12.4-27.8c1.7-4.2,1.3-4.1-8.2,1.5c-4.4,2.6-11.9,6.3-16.7,8.3
		c-8.8,3.6-8.8,3.6-6,5.7C562.47,489,576.07,498,576.57,498z"/>
	<path class="st1" d="M561.87,549.8c7.4-7.1,7.4-7.1,1-10.8c-6-3.5-35.1-24.4-48-34.4c-6.8-5.3-6.1-5.1-10.5-2
		c-4.1,2.9-4.6,2.9-14.1,0.4c-9.3-2.4-11.3-2.5-7.8-0.2c4,2.6,36.6,29.4,50.3,41.3C551.97,560.9,550.47,560.6,561.87,549.8z"/>
	<path class="st1" d="M565.97,563.5c2.4-6.1,5.2-13.1,6.2-15.8c2.9-7.1,0-6.3-7.5,2.1c-3.4,3.7-8.2,7.9-10.7,9.2
		c-5.3,2.8-4.8,3.1-27-16.3c-13.8-12-14.2-12.3-15.1-10.8c-0.3,0.4-2.6,1.4-5.1,2.1c-5.9,1.7-6.3,2.5-1.6,3.9
		c5.2,1.5,10.1,7.1,10.1,11.5c0,3.7-5.4,9.6-8.8,9.6c-1,0.1-0.1,0.9,2,2.1c4.5,2.3,7.1,6.9,6.6,11.5c-0.5,4.3,2.4,5,15.6,3.9
		c5-0.4,14-1.1,20-1.4C561.67,574.5,561.67,574.5,565.97,563.5z"/>
	<path class="st1" d="M571.07,573.5c-5.1-0.6-5.7-0.5-6.8,1.4c-0.6,1.2-2.4,2.4-4,2.8c-2.5,0.4-2.8,0.8-2,2.4
		c2.5,4.5-0.3,14.1-5.9,20.7c-2.5,2.9-10.4,6.4-20.9,9.2c-4.5,1.2-8.2,2.6-8.2,3.1c0,1.2,2.3,1.2,3.6,0c0.9-0.8,22.1-5.9,34.2-8.2
		c7.2-1.4,6.6-0.5,14.2-18.6C580.67,573.7,580.97,574.6,571.07,573.5z"/>
	<path class="st1" d="M554.27,579c-2.7-2.7-4.4-2.6-3.6,0.2c0.3,1.3,0.6,3.7,0.6,5.4c0,2.6,0.5,3.3,2.6,3.7
		C558.17,589.1,558.37,583.1,554.27,579z"/>
	<path class="st1" d="M507.67,582.5c2.2,1.7,7.3,2,9.5,0.6c1.7-1.1,0.7-4.1-1.4-4.1c-0.9,0-1.3,0.5-0.9,1.1c0.3,0.6-0.1,1-1.2,0.9
		c-1.1-0.1-3.2-0.2-4.9-0.1C505.87,581.1,505.87,581.1,507.67,582.5z"/>
	<path class="st1" d="M524.27,606.1c0,3.8,0,3.8,4,2.4c2.3-0.8,7.2-2.4,11-3.5c7.9-2.3,12.2-5.5,15.1-11.1c2.2-4.4,1.9-4.6-3.3-1.8
		c-2.1,1-8.4,3-14,4.4C525.77,599.1,524.27,600.3,524.27,606.1z"/>
	<path class="st1" d="M246.97,1008c5.2,1.7,14.9,6.6,20.3,10.4c10.3,7,29,27.4,29,31.5c0,1.7,3.4,1.4,28.2-2.9
		c25.7-4.3,48.8-9,58.8-11.8c6.5-1.9,6.5-1.9,6.8-10c0.2-4.5,0.1-8.2,0-8.2c-0.2,0-2.1,0.9-4.3,2c-11.6,5.9-25.5-1.7-28.6-15.7
		c-0.7-2.9-1.7-5.3-2.2-5.3c-6.3,0-39.3-6.6-62.9-12.5c-11.4-2.9-9.3-3.1-15,1.1c-2.6,1.9-11.3,7.3-19.3,11.9
		C243.17,1006.8,243.17,1006.8,246.97,1008z"/>
	<path class="st1" d="M585.17,1000.5c-3.4,1.7-3.4,1.7-0.7-0.7c2.6-2.3,4.8-5.8,4.8-7.7c0-1.1-5-1.2-11.5-0.4
		c-16.1,2-16.2,2-15.7,7.7c0.3,3.3,0,5.6-0.7,6c-0.8,0.5-1.1-1-1.1-5c0-5.7,0-5.7-5.2-5c-15.2,2-55,16.4-58,21
		c-0.4,0.6-0.8,9.5-0.8,19.7c0,22.1,0,22.1,12.1,30.6c7.7,5.3,7.7,5.3,10.2,1c9.7-16.5,36-31.1,60-33.3c8.5-0.7,20.6,1.3,30,5.1
		c3.1,1.2,5.7,2.1,5.7,1.9c0-0.3-3.2-5.2-7-10.9c-3.9-5.8-9-14.4-11.4-19.2C589.37,998.4,589.37,998.4,585.17,1000.5z"/>
	<path class="st1" d="M275.27,765.6c3.8-3.1,8.8-4.1,14-2.8c4.5,1.1,4.4,1.4,5.5-20.8c0.3-6.3,1.2-19.6,2-29.5
		c0.8-9.9,1.9-26.1,2.5-36c1.5-25.6,3.8-42.4,7.2-53.9c4.5-15.5,4.7-14.2-2-21.5c-5.9-6.5-5.9-6.5-10.1-1.1
		c-8.6,10.9-13.2,23.3-15.6,41.9c-3.5,28.3-6.5,76.6-6.5,106.9C272.27,768.2,272.27,768.2,275.27,765.6z"/>
	<path class="st1" d="M284.37,862c4.7,2.5,4.7,2.6,2-10.5c-4.8-22.7-5.2-46.9-1.1-73.3c1.1-7.4,2-13.6,2-13.8c0-0.6-3.2-0.3-6.7,0.7
		c-12.5,3.6-18.9,35.9-12.9,64.9C271.67,849.5,275.97,857.8,284.37,862z"/>
	<path class="st1" d="M261.57,943.4c1.2,0.2,6.9,1.3,12.6,2.5c5.8,1.1,10.7,1.9,10.9,1.6c0.2-0.2,0.8-14.2,1.2-31.2
		c0.5-16.9,1.2-35.3,1.6-40.9c0.7-10.1,0.7-10.1-4-12.4c-5.2-2.5-9.6-7.6-13-15.3c-1.2-2.6-2.5-4.5-2.9-4.1s-0.7,2.6-0.7,4.9
		c0,4.3-5.2,62.6-7,78.5C258.67,940.6,258.87,942.9,261.57,943.4z"/>
	<path class="st1" d="M510.17,603c-5.7,1-19.2,3.1-29.9,4.5c-27.5,3.7-26.4,3.4-27.1,7.5c-0.6,3.5-0.6,3.5-0.8,0.2
		c-0.1-3.1-0.3-3.3-2.8-2.8c-1.6,0.3-4.6,0.7-6.8,1c-2.2,0.3-16.1,2.6-31,5c-38,6.3-38.6,6.3-42.9,3.6c-2-1.2-3.9-2.8-4.4-3.6
		c-0.6-1.1-1.6-1.1-6,0.6c-6.8,2.6-7.9,2.5-14.3-0.8c-6.8-3.5-34.4-19.2-38.4-21.8c-3-1.9-3-1.9-0.8,1.1c1.2,1.6,8.4,10.2,16,19
		c15.5,18.1,20.6,24.7,34.9,45.4c5.4,8,12.3,17,15.1,20.2c9.3,10,26.2,16.9,41.5,16.9c7.7,0,7.7,0,6.7-2.8c-0.5-1.6-3-4.4-5.5-6.3
		c-8.8-6.5-10.9-13.6-7.9-26.6c2.1-9.1,3.8-12.3,9.7-17.9c18.6-17.8,48.6-29.4,76.9-29.8c11.4-0.1,14.9,1.4,14.9,6.5
		c0,3.6,3.9,11.1,5.4,10.6c2.9-0.9,10.5-29.1,8.5-31.2C520.87,601.3,515.97,601.9,510.17,603z M448.37,622.5
		c-37.9,15.6-58.4,42.2-48.7,63c2.2,4.8,8.5,11.5,10.8,11.5c0.6,0,0.9,0.3,0.6,0.6c-1.8,1.7-9.3-4.7-12.2-10.4
		c-7.6-15-0.4-33.9,18.3-48c12.6-9.5,32.2-20,37.6-20.1C455.87,619.1,452.97,620.6,448.37,622.5z M510.87,615.5
		c-2.1-0.9-6.3-2-9.4-2.5c-5.7-0.9-5.7-0.9,0.8-0.6c3.6,0.2,8.1,1.1,9.9,2C516.57,616.7,515.57,617.4,510.87,615.5z"/>
	<path class="st1" d="M407.97,666.9c-1.1,5.4-0.8,11,0.7,13.9c1.5,2.9,5.3,6.8,6,6.1c0.4-0.3-3.8-16.6-5.6-22.1
		C408.77,664.1,408.27,665,407.97,666.9z"/>
</g>
<g id="GRIS_CLARO">
	<path class="st2" d="M399.29,155.51c-0.14-0.07-0.28-0.14-0.42-0.2c-0.07-0.03-0.15-0.07-0.23-0.1c-0.01,0-0.01-0.01-0.02-0.01
		c-0.03-0.01-0.06-0.02-0.09-0.04c-0.03-0.01-0.05-0.03-0.08-0.04c-1.86-0.33-5.47-0.61-8.79-0.52c-16.1,0.2-23.8,11.6-13.8,20.3
		c6.2,5.5,19.8,4.1,26-2.6c0.58-0.63,2.43-2.34,2.82-2.84c0.08-0.1,0.15-0.22,0.23-0.33c0.02-0.34,0.04-0.68,0.05-1.03
		c0.18-3.23,0.43-5.67,0.71-7.3c-0.21-0.16-0.39-0.36-0.56-0.56c-0.2-0.25-0.42-0.47-0.65-0.7c-0.45-0.44-0.9-0.87-1.37-1.29
		c-0.24-0.21-0.48-0.42-0.72-0.63c-0.12-0.1-0.25-0.21-0.38-0.31c-0.07-0.05-0.14-0.11-0.2-0.16c-0.03-0.02-0.06-0.05-0.09-0.07
		c-0.01-0.01-0.03-0.02-0.04-0.03c0.02,0.02,0.01,0.01,0.02,0.02c0,0,0,0,0,0c0.02,0.01,0.03,0.03,0,0
		c-0.51-0.39-1.03-0.76-1.58-1.09C399.84,155.81,399.57,155.66,399.29,155.51z M392.47,170c-3.1,0-7.2-4.3-7.2-7.5
		c0-6.2,10.2-9.2,13.6-4C401.97,163.2,398.27,170,392.47,170z"/>
	<path class="st2" d="M453.77,165.8c8.8-10.5-5.3-20.3-23-15.8c-9,2.2-10.8,3.7-10.1,8.2C423.17,173.8,443.17,178.4,453.77,165.8z
		 M440.67,152.1c4.4,3.5,3,9.6-2.7,11.8c-3.2,1.2-7.1,0-8.1-2.4C426.77,153.4,434.07,146.9,440.67,152.1z"/>
	<path class="st2" d="M402.97,219c4,0.5,4.3,0.7,1.9,1c-7.5,1.2-0.9,6,8.1,6c8.4,0,20.3-4.2,20.3-7c0-0.6-1.3-1-3-1
		c-1.6,0-3-0.5-3-1c0-0.6,2.2-1,5-1c3.8,0,5.2-0.4,6-1.9c1.9-3.6,2.8-3.6-15.5-1.5C400.17,215.2,392.17,217.8,402.97,219z"/>
	<path class="st2" d="M622.27,302.9c-14.1-4.3-44.3,17.1-72.9,51.6c-6.3,7.7-15.6,18.2-20.5,23.3c-10.6,10.9-9.9,10.9,11.1-1.2
		c10-5.7,15.4-9.4,16.5-11.4c2.1-3.5,12.2-11,17.9-13.2c2.2-0.9,3.9-1.8,3.8-2.1c-2.8-5.2,13.6-27.1,26.4-35.3
		c9.5-6.1,14.1-7.1,33-7.1c16.7,0,16.7,0,16.7-7.3c0-9.3-0.8-10.8-7.2-12.7c-7.2-2.1-7.8-2-7.8,1.7
		C639.17,300,631.97,305.8,622.27,302.9z"/>
	<path class="st2" d="M178.17,347.1c9.7,5.9,3.8,13.8-13.4,18c-2.8,0.6-5.3,1.5-5.8,1.8c-0.4,0.4,11.8,0.6,27,0.6
		c26.4-0.2,43-1.1,43.7-2.4c0.2-0.3-0.3-4.7-1-9.6c-0.7-5-1.3-9.8-1.3-10.7c-0.1-2.4-6.6-5.5-13-6.4c-4.1-0.5-5.1-0.4-4.9,0.7
		c0.4,1.6-17.4,12.6-21.7,13.4c-2.5,0.5-3.2,0.2-4.2-1.9c-1.3-3-0.7-3.3,1.7-1.1c1.7,1.6,5.5,1,4.5-0.6c-0.3-0.5-2.5-1.4-4.8-2
		c-4.2-1.1-4.2-1.1-1.7-3.1c2.8-2.3,12.1-2.2,14.3,0.2c1,1,0.8,1.1-0.8,0.5c-3.1-1.3-10.6-1.8-11.6-0.8c-0.5,0.5,1,1.8,3.6,3.2
		c4.7,2.5,6.1,2,16.8-6.6c2.8-2.3,2.8-2.3,0.5-2.3c-1.3,0-3.2,0.7-4.2,1.5c-2.6,1.9-4.2,1.9-2.6,0c1.5-1.8-0.4-1.9-10.1-0.1
		c-3.7,0.6-8.2,2.2-10.2,3.6C175.47,345.4,175.47,345.4,178.17,347.1z"/>
	<path class="st2" d="M592.27,434.3c-2.1-12.9-10.4-24.6-22-30.9c-1.01-0.53-1.88-1.02-2.57-1.43c-0.22-0.08-0.44-0.16-0.66-0.24
		c-0.5-0.18-0.99-0.38-1.48-0.61c-0.24-0.11-0.48-0.22-0.72-0.33c-0.06-0.03-0.12-0.05-0.18-0.08c-0.03-0.01-0.06-0.03-0.09-0.04
		c-0.12-0.05-0.24-0.1-0.35-0.14c-0.23-0.09-0.47-0.16-0.71-0.22c-0.12-0.03-0.25-0.05-0.37-0.07c-0.02,0-0.05-0.01-0.07-0.01
		c-0.01,0-0.01,0-0.02,0c-0.02,0.01-0.04,0.03-0.06,0.04c-0.04,0.02-0.09,0.03-0.14,0.03c0,0,0,0,0,0c0.01,0,0.02,0,0.03,0
		c-0.02,0-0.03,0.01-0.05,0.01c-0.01,0.01-0.02,0.01-0.03,0.02c-0.02,0.02-0.04,0.04-0.07,0.07c-0.02,0.03-0.04,0.06-0.06,0.09
		c0,0.02-0.01,0.03-0.01,0.05c0,0,0,0,0,0c0,0,0,0,0,0c0,0,0,0.01,0,0.01c0,0.01,0,0.02,0.01,0.03c0.02,0.03,0.04,0.05,0.05,0.09
		c0.01,0.04,0.01,0.09,0.02,0.13c0,0,0,0.01,0,0.01c0.55,0.78,1.68,1.88,3.33,3.21c8.7,6.9,19.2,20.4,19.2,24.4
		c0,0.6-1.6-1.5-3.6-4.8c-11-18.3-25.4-27.2-48.4-30c-5.5-0.7-5.5-0.7,1,1.6c38.7,13.6,47.1,61.5,14.7,83.3
		c-6.1,4.1-4.8,4.5,6.7,1.5C581.07,473.5,595.57,455.3,592.27,434.3z"/>
	<path class="st2" d="M647.37,355c-12.2-12.1-37.4-18.9-50.1-13.4c-1.9,0.8-3.7,1.8-4,2.3c-0.3,0.4-3.3,1.8-6.8,3
		c-3.4,1.3-6.5,2.8-6.9,3.4c-0.4,0.7,0,0.8,1.3,0.2c1-0.4,4.4-1.7,7.4-2.8c3-1.2,5.8-2.5,6.1-2.9c0.8-1.2,15.6-4.1,17.4-3.4
		c2.5,0.9,4.2,5.9,4.8,13.7c0.5,7.7,0.5,7.7-9.1,11.9c-5.4,2.3-11.6,5.1-13.9,6.1c-5.6,2.5-6.4,2.4-9.8-1.1
		c-9.4-9.8-19.3-7.4-52.5,13c-2.5,1.6-6.1,3.1-8,3.5c-8.1,1.6-14.2,5.6-8.2,5.4c3.3-0.1,7.8-1.7,5-1.8c-1-0.1-1.8-0.6-1.8-1.2
		c0-2.6,27.2,1.8,36.5,5.9c3.3,1.5,6.7,2.6,7.5,2.5c0.25-0.06,0.43-0.08,0.56-0.08c0.02,0,0.05-0.01,0.07-0.01
		c0.6,0.02,1.18,0.19,1.73,0.41c0.52,0.2,1.02,0.44,1.52,0.67c0.12,0.06,0.24,0.11,0.36,0.17c0.05,0.02,0.11,0.05,0.16,0.07
		c0.12,0.05,0.03,0.01,0,0c0,0,0,0,0,0c0,0,0,0-0.01,0c0.03,0.01,0.05,0.02,0.08,0.03c0.26,0.11,0.52,0.19,0.79,0.29
		c0.73,0.26,1.45,0.55,2.14,0.9c22.46,8.83,32.65,42.41,17.4,61.76c-2.6,3.3-3.1,3.6,22.2-11.5c43.2-25.9,47.4-29,52.7-39.6
		C670.07,396,663.87,371.4,647.37,355z"/>
	<path class="st2" d="M315.27,418.5c7.8-3.6,8.1-4.1,3.8-6.4c-7.3-3.9-13.6-16.3-12.4-24.4c1-6.4,5.8-14.1,10.1-16.1
		c2-1,3.5-1.9,3.3-2.1c-2.2-2.2-43.5-4.3-55.5-2.8c-2.1,0.3-3,0.9-2.7,1.7c0.8,2-4.9,3.6-12.7,3.6c-7.5,0-12.4-1.4-11.3-3.1
		c0.8-1.4-14.4-0.5-27.5,1.6c-35.4,5.7-51.6,45.8-31.2,77.2c9.6,14.8,25.9,23.3,37.2,19.6c5.4-1.8,53.1-25.1,75.7-37
		C301.27,425.5,311.67,420.2,315.27,418.5z"/>
	<path class="st2" d="M310.97,390.1c-0.1,19.6,14.5,27.3,34.3,18.2c3.6-1.7,8.7-3.5,11.4-4.2c2.7-0.7,7.5-2.3,10.6-3.6
		c7-3,23.8-5.5,36.3-5.5c14.7,0,15.9-0.4,15.5-5.3c-0.3-4-0.3-4-13.8-6.9c-7.4-1.5-18.2-4-23.9-5.4c-12.3-3.1-15.3-3.2-25.1-0.5
		c-10.6,3-18.6,2.8-21.9-0.3c-4.4-4.2-9-5.6-13.4-4.1C313.37,375.1,311.07,379.2,310.97,390.1z M329.27,377c1.4,1,2.1,2.2,1.7,2.6
		c-0.4,0.4-2-0.4-3.5-1.9C324.37,374.6,325.57,374.1,329.27,377z"/>
	<path class="st2" d="M425.67,392.4c1.6-0.7,3.7-1.4,4.7-1.4c3.9,0,0.9-4.6-3.9-5.9c-2.4-0.7-3.4-0.7-3.7,0.2
		C420.67,392.5,421.47,394.6,425.67,392.4z"/>
	<path class="st2" d="M460.77,492.8c0.2-0.2,0-3.3-0.5-6.8c-0.5-3.6-1.4-11.6-1.9-17.8c-0.5-6.3-1.1-11.5-1.3-11.8
		c-0.2-0.2-6.2-1-13.4-1.9c-33-3.9-39.4-4.8-39.4-5.3c0-0.3,2.6-0.2,5.8,0.1c20.4,2.3,42.1,4.8,44.5,5.3c2.7,0.6,2.7,0.6,2.7-5.8
		c0-19.3-3.5-38.8-9.1-50.3c-3.5-7.4-5-7.8-15.4-4.9c-2.7,0.7-9.9,2.2-16,3.3c-6,1.1-17.5,3.8-25.5,6.1c-17.9,5.1-29.9,6.9-33.4,5.1
		c-5.2-2.8-17,3.9-21,12.1c-5.3,10.8-5.6,20.8-1.1,30.6c3.2,6.9,10.7,10.6,39,19C413.77,481.5,459.87,493.8,460.77,492.8z
		 M335.47,441.1c0.9-0.1,9.4,0.8,19,1.8c9.5,1.1,22.7,2.5,29.3,3.2c12.5,1.2,19,2.7,12.6,2.8c-1.9,0.1-8.4-0.6-14.5-1.4
		c-6.1-0.8-17.8-2.2-26.1-3C341.67,443,331.77,441.3,335.47,441.1z"/>
	<path class="st2" d="M389.77,401.1c14-4,14-4,6.5-3.9c-4.1,0.1-8.8,0.3-10.5,0.5c-11.2,1.6-25.5,6.7-23.8,8.4
		C363.37,407.5,373.37,405.7,389.77,401.1z"/>
	<path class="st2" d="M333.57,450.1c-4.2-8.4-3.3-22.1,2.1-31.7c3.6-6.4,1.1-5.5-5.7,2.1c-10,11.2-9.8,24.1,0.5,31.5
		C335.97,456,336.37,455.8,333.57,450.1z"/>
	<path class="st2" d="M328.17,419.2c8.3-6.1,1.1-5.4-11.4,1.1c-9.2,4.8-10.1,5.5-11.3,9.2c-7.9,25-13.1,31.5-24.7,31.5
		c-5.64,0-8.34-2.38-8.39-7.39c-0.06-0.09-0.11-0.19-0.11-0.29c0-0.78-0.01-1.56-0.03-2.34c-0.04-2.14-0.07-4.28,0.09-6.41
		c-1.89,1.26-3.17,2.23-3.46,2.72c-2.4,4.2-2.2,15.7,0.4,20.7c3,5.9,4.6,6.4,21.5,6.5c18.1,0,19.4-0.5,30.9-11.5
		c7.9-7.6,7.9-7.6,5.2-10.3C318.57,444.4,319.27,425.8,328.17,419.2z"/>
	<path class="st2" d="M263.77,452.2c-1.5,11.2-1,16.1,1.9,19.5c3.4,3.9,4,2.6,1.3-2.8c-1.8-3.5-2.2-6-2.1-12.7
		C264.97,447,264.67,446,263.77,452.2z"/>
	<path class="st2" d="M260.57,449.7c-0.7,0.3-1.3,1.6-1.3,2.9c0,1.4-0.9,4.3-2.1,6.6c-5.9,11.5,3.8,26.2,13.7,20.9
		c3.5-1.8,3.6-2,1.4-2.1c-9.2-0.1-15.2-14.3-11-25.6C262.47,449.4,262.37,449.1,260.57,449.7z"/>
	<path class="st2" d="M356.27,667.3c-15-22-28.1-39.3-40.7-53.6c-3.4-3.8-3.4-3.8-4.9-0.1c-5.3,12.7-8.7,38.5-11.4,85.9
		c-0.5,9.3-1.4,23.3-1.9,31c-2.5,35.7-2.7,33.5,3.9,38.5c3.2,2.5,9.6,7.9,14.2,12.1c8.9,8.2,32.9,21.9,38.3,21.9c3.8,0,5-4,6.9-22.5
		c2.1-19.8,5.8-46.7,9.7-69c3.8-22.4,3.9-21.7-1.9-28C365.77,680.6,360.27,673.3,356.27,667.3z M359.47,738
		c-5.2,0-6.1-10.3-1.3-15.1c3.5-3.5,4.7-3.6,6.2-0.8C366.87,726.8,363.37,738,359.47,738z"/>
	<path class="st2" d="M358.27,725.2c-2.3,3.9-2.6,7.7-0.6,10.3c2.8,3.8,7.5-4.3,6.1-10.5C362.87,721.1,360.77,721.2,358.27,725.2z"
		/>
	<path class="st2" d="M477.77,619.1c-13,2.4-15.5,3.1-15.5,4.4c0,0.7,2,8.4,4.5,17c2.5,8.7,6.1,21.9,8,29.4
		c1.9,7.5,5.8,21.9,8.8,32.1c5.6,19,16.3,56.1,19.1,66.1c1.6,5.6,1.6,5.6,6,4.6c10.4-2.4,26.1,6.3,36.6,20.2
		c3.3,4.4,5.6,6.7,5.8,5.8c0.4-1.9-17.9-80.5-25.9-111.2c-10.6-40.7-17.8-60.5-24.4-67.1C498.07,617.7,488.27,617.2,477.77,619.1z"
		/>
	<path class="st2" d="M480.27,798.5c5.7-9.2,9.4-13.5,16.8-19.5c6.5-5.3,7.5,0.8-8.4-53.5c-6.9-23.7-15-52.5-18-64
		c-9.5-36.2-10.2-38.5-11.7-38.5c-0.7,0.1-3.9,1.1-7.2,2.4c-13.7,5.3-28.3,14.4-35.5,22.2c-7.2,7.9-5.6,17.4,11.1,63
		c14.7,40.3,26.8,77.7,33,102.1c0.8,3.4,1.8,5.3,2.7,5.3C465.37,818,474.87,807.3,480.27,798.5z"/>
	<path class="st2" d="M352.97,818.4c-14.5-7.3-19.5-11.4-29.6-23.9c-15-18.6-32.9-33.3-34.6-28.3c-4.7,14.7-5.5,61.8-1.2,83.1
		c1.5,7.6,2.7,14,2.7,14.1c0,2.1,14.4-3,20.5-7.2c4-2.8,4.5-3,2.7-1c-3.3,3.6-10.8,7.4-17.4,8.8c-5.1,1.2-5.7,1.5-6.2,4.4
		c-1.3,6.4-2.6,80-1.4,80.7c0.6,0.4,3.8,1.2,7.2,1.9c5.5,1.1,32.8,9.3,61.1,18.4c6.4,2.1,11.1,3.1,11.3,2.6c1-3,7.3-10.8,10.3-12.8
		c3.5-2.4,8.8-2.7,13.3-0.7c3.5,1.5,1.3-12.4-7.9-50.5c-4.7-19.5-10.8-45.6-13.5-57.9c-2.7-12.3-5.7-23.4-6.5-24.7
		C362.87,824.1,358.07,820.9,352.97,818.4z"/>
	<path class="st2" d="M529.97,780.8c-8.2-5.3-21.6-8.6-20.2-5.1c2.6,6.7,11.5,54.9,15.5,84.3c2.7,19.9,2.1,18.6,7.1,15.8
		C562.27,859,560.87,800.7,529.97,780.8z"/>
	<path class="st2" d="M483.57,988.9c10.4-9.8,31.4-20.6,50.5-26.1c4.2-1.2,7.8-2.2,8-2.4c0.3-0.2-3.2-18.5-8.8-45.9
		c-4.5-22.3-8-42.1-11.5-67c-4.4-30.9-13-72.5-15-72.5c-0.6,0-3.2,1.4-5.8,3.1c-12.4,8.2-25.7,31.1-25.7,44.1
		c0.1,13.7,10.8,36,22.1,46.2c7.8,7,11.1,8.4,25.9,11c1.4,0.3-0.5,0.3-4.2,0.1c-19-1.2-36.2-19.8-43-46.6c-2.2-8.7-2.2-8.7-6.3-2.8
		c-4,5.8-4,5.8-2.3,24.6c0.9,10.3,2.8,35.2,4.3,55.3c2.6,37.9,6.2,78.3,7.1,81.2C479.27,992.5,480.07,992.1,483.57,988.9z"/>
	<path class="st2" d="M533.57,876.2c-2.9,1.7-5.3,3.5-5.3,4.1c0,0.7,1.6,8.8,3.6,18.2c1.9,9.3,5.4,26.8,7.7,38.7
		c2.4,11.9,4.5,21.9,4.8,22.2c0.2,0.3,4.7-0.2,9.9-1c10.7-1.8,26.9-2.3,34.7-1.1c5.2,0.8,5.2,0.8,3.3-4.8
		c-3.9-11.2-20.9-72.1-28.5-102c-7.7-29.9-8.3-31.5-8.4-20C555.07,852.1,547.37,868.4,533.57,876.2z"/>
</g>
<g id="CELESTE">
	<path class="st3" d="M407.97,297.3c-1.2,0.1-15.6,0.6-32.2,1c-16.5,0.4-37,0.6-45.7,0.5c-14.3-0.3-15.5-0.2-14.7,1.4
		c1.2,2.3,1.2,23.4,0,34.8c-1.8,16.5-2.2,15.4,6.2,17.8c27.5,7.8,23.4,7.6,43.1,2.7c18.5-4.5,20.2-5.3,21.8-9.5
		c3.4-8.7,6.5-18.2,5.5-16.6c-1.78,2.78-2.68,4.31-3.89,4.98c-0.03,0.03-0.07,0.06-0.1,0.09c-0.11,0.12-0.21,0.24-0.32,0.36
		c-0.4,0.43-0.81,0.85-1.23,1.25c-0.45,0.42-0.92,0.82-1.41,1.2c-0.02,0.01-0.04,0.01-0.06,0.02c-1.49,1.54-5.3,4.14-6.69,4.21
		c-0.3,0.1-2.2,0.7-4.4,1.4c-2.1,0.7-7.4,1.4-11.7,1.5c-7.9,0.1-7.9,0.1-7.9,4.3c0,2.3-0.5,4.5-1.1,4.8c-1.7,1.1-4.9-2.6-4.9-5.7
		c0-1.5-0.5-2.8-1.1-2.8c-0.8,0-1,1.2-0.6,3.5c0.3,1.9,0.2,3.5-0.3,3.5c-1.3,0-2.1-4.9-1.1-6.9c0.9-1.6,0.5-1.5-3.6,0.5
		c-2.5,1.2-5.2,3.2-5.9,4.5c-1.3,2.4-1.3,2.4-1.4,0.2c0-1.2,0.9-2.7,2-3.3c3.1-1.6,2.4-3-1.5-3c-6.5,0-9.9-2.2-12.4-7.9
		c-3-7.1-4.7-15.9-3.3-17.3c0.6-0.6,0.8-2.3,0.5-3.9c-0.4-2.3,0-3,2.8-4.4c10.8-5.6,56.5-7.2,70.4-2.4c7.7,2.7,9.1,2.9,7.1,1.4
		s-1.9-1.5,0.1-1.5c1.3,0,3.5-1.9,6.1-5.4C409.67,297.7,409.87,297.2,407.97,297.3z"/>
	<path class="st3" d="M384.53,336.05c0.05-0.04,0.11-0.08,0.16-0.13c0.12-0.11,0.24-0.23,0.36-0.35c0.08-0.08,0.15-0.16,0.23-0.25
		c0.05-0.07,0.1-0.15,0.14-0.23c0.02-0.07,0.04-0.13,0.06-0.2c0-0.04,0-0.08,0-0.12c0-0.02-0.01-0.03-0.01-0.05
		c-1.42-0.15-3.36-0.64-6.28-1.33c-8.5-2.1-11.3-2.1-10.6,0c0.2,0.6-0.3,1.7-1,2.5c-1.6,1.5,1.7,6.1,4.4,6.1c2.1,0,1.5-1.7-1.3-3.9
		c-3.8-3-1.5-2.6,2.6,0.4c2.3,1.7,3.7,2.2,4.5,1.5c0.7-0.5,1.5-0.7,1.8-0.3c0.4,0.3,0.7,0.2,0.7-0.4c0-0.5-1.8-1.6-4-2.3
		c-2.2-0.7-3.8-1.5-3.6-1.8c0.3-0.2,2.5,0.3,4.9,1.1c3.1,1,4.8,1.2,5.5,0.5c0.32-0.32,0.76-0.51,1.21-0.6
		C384.37,336.15,384.45,336.11,384.53,336.05z"/>
	<path class="st3" d="M393.37,323.5c3.9-1.8,4.4-5.5,0.8-5.5c-2.9,0-2.9,0-1.2-2.8c1-1.5,2.2-3,2.8-3.4c0.5-0.4-0.2-0.8-1.7-0.8
		c-2.9,0-4.5,1.4-2.8,2.5c2.2,1.4-2.3,5.3-5.8,4.9c-4.7-0.4-4.9-0.8-2.4-5.9c1.6-3.2,1.8-4.5,0.9-4.5c-0.7,0-2.1,2.2-3.1,5
		c-1,2.7-2.3,5-2.8,5c-0.6,0-0.7-0.8-0.3-1.8c1.5-3.6,1.5-5.6,0.1-2.4c-1.2,2.7-2,3.2-3.6,2.7c-1.1-0.4-2-0.2-2,0.4
		s-0.5,1.1-1.1,1.1c-0.6,0-0.8-0.8-0.5-1.8c0.6-1.6,0.5-1.6-0.7,0c-2.1,2.6-2.8,1-1.2-2.3c1.9-3.6,1.9-4.5,0-2.9
		c-0.8,0.7-1.5,2.1-1.5,3.1c0,2-4.5,4.8-5.7,3.5c-0.4-0.3,0.3-2.9,1.4-5.6c2.4-5.6,2.2-6-2.3-6c-2.9,0-3.4,0.4-4.2,3.2
		c-0.6,1.8-1.3,4.1-1.7,5c-0.5,1.3,0,2,2,2.8c2.9,1.1,3,2.8,0.9,13.8c-0.7,3.4-0.7,3.4,2.5,1.8c3.4-1.8,3.9-3.7,1.6-5.6
		c-0.8-0.7-1.5-1.8-1.5-2.4c0-0.6,1.2,0.1,2.5,1.7c2.5,2.8,2.5,2.8,6.5,0.2c2.2-1.4,3.9-3,3.7-3.6c-0.1-0.6,0.4-1.4,1.1-1.6
		c3.1-1.2,0.5,3.2-3.7,6.1c-2.4,1.7-4.7,3.8-5.1,4.6c-0.4,0.8-1.7,3.5-2.9,5.9c-2.6,4.9-1.7,6.5,2.9,5.4c3.3-0.8,3.5-1,2-2.8
		c-1.8-2.1-3-1.9-3,0.7c0,1.6-0.3,1.9-1.1,1.1c-0.8-0.8-0.5-2,1.4-4.5c1.3-1.8,2.3-3.8,2.1-4.3c-1.3-3.4,15.7-8.9,22.2-7.2
		c1,0.2-0.2,0.5-2.8,0.6c-2.7,0-4.8,0.5-4.8,1.1c0,0.5-1.5,1-3.2,1c-6.6,0-6,1.6,1.1,3c7.4,1.4,10.1,0.7,10.1-2.7
		c0-0.7,0.6-1.6,1.4-1.9c0.8-0.3,1.3-1.1,1-1.7C391.47,325,392.27,324,393.37,323.5z M388.77,322.1c-2.7,0.5-5.8,1.4-6.7,1.9
		c-1,0.6-2.8,1-4,0.9c-1.7,0-1-0.5,2.2-1.9c2.5-1,6.5-1.9,9-1.8C393.77,321.2,393.77,321.2,388.77,322.1z"/>
	<path class="st3" d="M352.07,351.7c0.8,0.3,1.2-0.9,1.2-4.4c0-2.6,0.9-8.5,2-13.1c2.1-8.9,2.7-17.9,1-15.2c-0.8,1.3-1,1.2-1-0.3
		c0-1.3-0.8-1.7-3.5-1.7c-3.1,0-3.5-0.3-3.5-2.5c0-1.4,0.3-2.5,0.8-2.5c0.4,0,1.2-1.1,1.8-2.4c1.1-2.3,1-2.5-1.7-2.4
		c-1.6,0.1-2.6,0.5-2.2,1.1c0.7,1.1,0.6,8.8-0.2,9.5c-0.2,0.3-1.1,0-1.9-0.7c-1.1-0.9-1.5-0.9-1.9,0.1c-0.9,2.3-0.7-3.6,0.2-7
		c0.9-2.9,0.7-3.2-1.1-3.2c-1.7,0-1.9,0.4-1.4,2.6c1.1,4.4-0.2,8.4-2.8,8.4c-1.9,0-2.2-0.4-1.8-2.5c0.2-1.5,0-2.5-0.7-2.5
		c-0.6,0-1.1,0.9-1.1,1.9c0,1.1-0.5,2.3-1.1,2.7c-0.8,0.4-0.9,0-0.4-1.5c0.3-1.1,0.2-2.9-0.4-3.8c-0.8-1.5-1-1.1-1.1,1.9
		c0,2.8-0.4,3.8-1.6,3.8c-0.8,0-1.3-0.3-1.1-0.8c0.3-0.4,0.1-1.6-0.4-2.7c-0.8-1.8-0.8-1.7-0.6,0.5c0.2,2-0.3,2.6-2.8,3.1
		c-3,0.6-3,0.6,2,2.8c9.6,4.1,9.3,4,6.5,4c-1.4,0-4.9-1.2-7.7-2.8c-6-3.3-6.2-3.1-3.9,5.4c1.1,4.4,1.6,5,3.7,4.8
		c1.3-0.2,6.1-0.4,10.6-0.5c7-0.3,8.3-0.6,8.7-2.1c0.3-1.4-0.4-2.2-2.9-3.3c-1.9-0.7-3.7-1.8-4-2.4c-0.7-1.2,6.4,1.6,7.9,3
		c1.2,1.2,4.5-0.5,7.4-3.8c1.8-2.2,2.1-2.3,1.6-0.7c-1.3,4.2-2.8,6.5-3.4,5.4c-1.6-2.5-7,5-7,9.7s1.9,6,3.9,2.6c0.9-1.4,1-1,0.8,1.8
		c-0.1,2.2,0.2,3.4,0.9,3.3c0.7-0.1,1.1,1,1,2.9C350.87,349.9,351.37,351.5,352.07,351.7z M336.87,328.7c-0.7,0.7-9.7,0.5-10.5-0.3
		c-0.2-0.2,2.2-0.4,5.4-0.4C334.97,328,337.27,328.3,336.87,328.7z"/>
	<path class="st3" d="M371.57,307.1c-1.5,0.1-2.1,0.3-1.2,0.6c1.1,0.3,1.5,1.2,1.2,3.1c-0.1,1.5,0,2,0.3,1.2
		c0.4-0.8,1.1-2.3,1.6-3.3C374.17,307.3,373.87,307,371.57,307.1z"/>
	<path class="st3" d="M379.47,309.5c0.3,0,1-0.4,1.5-0.9s0.3-0.6-0.4-0.2s-1.3,0.2-1.3-0.3c0-0.6-0.9-1.1-2-1.1c-1.3,0-2,0.7-2,2
		c0,1.1-0.4,2-0.9,2s-1.1,0.9-1.4,2c-0.3,1.1-0.1,1.8,0.4,1.4c0.5-0.3,0.9,0,0.9,0.6c0,0.6,0.5,0.8,1,0.5c0.6-0.3,1-1.1,1-1.6
		c0-0.6-0.4-0.7-1-0.4c-0.5,0.3-1,0.2-1-0.4C374.27,312.1,377.97,309.6,379.47,309.5z"/>
	<path class="st3" d="M333.07,309.9c1.3,0.3,2.9,1.7,3.6,3c1.3,2.4,1.3,2.4,1.8-0.2c0.7-3.4,0.2-3.7-4.1-3.6
		C331.47,309.2,331.17,309.3,333.07,309.9z"/>
	<path class="st3" d="M326.67,313.2c0.6-1.9,1-2.1,2.2-1.1c1.1,0.9,1.4,0.8,1.4-0.5c0-1.7-1.4-1.9-4.1-0.8c-1.1,0.5-1.4,1.3-0.9,2.7
		C325.97,315.4,325.97,315.4,326.67,313.2z"/>
	<path class="st3" d="M384.77,315c0.8-0.7,1.5-1.9,1.5-2.8c0-1.1,0.5-1,1.9,0.7c1.9,2.2,1.9,2.2,1.7-0.3c-0.1-3-3.1-3.1-5.2-0.2
		C382.87,315.1,382.87,316.6,384.77,315z"/>
	<path class="st3" d="M251.87,364c4.4,0,4.4,0,4.6-5.3c0.1-5.2,0.1-5.2,0.7,0.3c1.2,11.2,2.6,0.1,2.6-20.7c0-9.4-0.2-10.3-2.4-12.7
		c-3.4-3.6-6.7-3.4-9.1,0.6c-3.4,5.5-4.3,10.6-3.7,21.3C245.37,361.8,246.27,364,251.87,364z"/>
	<path class="st3" d="M338.57,342c2.2-2,4.7-7.2,4.1-8.2c-0.6-0.9-13.9-0.9-17,0c-3.9,1.2-1,5.6,5.4,8.2c2.9,1.1,3.5,1,5.3-0.6
		c1.9-1.7,2-1.7,1.3,0.2C337.07,343.3,337.17,343.3,338.57,342z M336.07,337.4c-0.4-0.2-2.5,0-4.7,0.5c-2.3,0.5-4.1,0.5-4.1,0.1
		c0-0.5,2.1-1.2,4.8-1.5c2.6-0.4,5.2-0.8,5.7-1c2.7-0.9,3.7-0.3,1.5,0.9C337.87,337.2,336.47,337.6,336.07,337.4z"/>
	<path class="st3" d="M360.67,339c3.7-5.7,3.4-7.2-0.9-4.8c-2.9,1.5-4.5,3.9-4.5,6.5C355.27,344.2,357.67,343.5,360.67,339z"/>
	<path class="st3" d="M342.67,341.2c1-3.1-0.6-2.8-2.1,0.5c-0.7,1.5-1.2,2.8-1,2.9C340.17,345.3,342.07,343.3,342.67,341.2z"/>
	<path class="st3" d="M563.97,366c1.2,0,2.5-0.5,2.8-1c2-3.3,12.5-0.1,18.7,5.8c2.7,2.5,2.7,2.5,11.8-1.3c4.9-2.1,9.5-4.4,10.1-5.1
		c0.6-0.8,1.5-1.1,2.1-0.8c0.5,0.3,2-0.2,3.3-1c2.3-1.5,2.5-2.1,1.9-7.4c-1.3-12.2-2.6-13.6-10.7-11.2
		c-13.9,4.2-27.7,11.4-27.7,14.5c0,2.5-3.1,4.5-6.8,4.5c-2,0-4.6,0.7-5.6,1.5C561.97,366,561.97,366,563.97,366z M609.07,344.1
		c0.6-0.1,1.2,0.3,1.2,0.8s-1.1,1.2-2.5,1.5c-1.4,0.4-2.4,1-2.4,1.4c0.3,1.8-0.2,2.6-0.9,1.4c-0.7-0.9-1.8-0.5-4.7,1.8
		c-2.1,1.6-4.2,3-4.8,3C592.97,354,606.77,344.2,609.07,344.1z M577.57,361.9c0.9-0.6,1.7-1.8,1.7-2.8c0-2.3,2.6-4.5,6.9-6
		c4.1-1.3,5.4-0.7,1.8,1c-2.5,1.2-2.5,1.2,0.6,4c2.9,2.7,3.2,2.7,4.9,1.2c2.5-2.2,2.3-3.3-0.7-3.3c-1.4,0-2.5-0.4-2.5-0.9
		s2.3-0.8,5-0.8c5.5,0.1,6.5,1.5,2.8,4.1c-2.2,1.6-2.2,1.6,1.2,1.5c3.9,0,12.4-1.6,9.8-1.8c-0.9,0-2.8-1.5-4.2-3.2
		c-1.6-1.8-3.1-2.8-3.8-2.3c-0.7,0.4-0.5-0.2,0.5-1.2c1.8-1.9,1.9-1.8,4.9,1.8c4.5,5.6,6.5,4.6,3.3-1.6c-1.3-2.4-1.3-3.1-0.3-3.7
		c1.5-1,2.5,1.9,3,8.4c0.3,4.2,0.3,4.2-7.7,4.7c-7.8,0.5-8,0.6-8.3,3.3c-0.2,1.8-1.3,3.2-3.4,4.3c-3.8,2-4.3,1.4-2.1-2.4
		c2.4-4.1,0.8-5.4-2.3-1.9c-1.3,1.6-2.9,2.5-3.4,2.2c-1.7-1.1-1.1-2.5,1.5-3.7c2.9-1.3,3.2-2.3,0.9-3.2c-0.9-0.4-3.6,0.5-6.2,1.9
		c-2.5,1.4-4.8,2.3-5.1,1.9C576.07,363.1,576.57,362.4,577.57,361.9z"/>
	<path class="st3" d="M584.27,356.9c0-1.6-2.8-1-3.4,0.7c-0.4,0.9-0.4,1.9-0.1,2.2C581.37,360.4,584.27,358,584.27,356.9z"/>
	<path class="st3" d="M564.67,360.5c-3.6,3.4-3.7,3.5-0.9,2.2c1.7-0.8,3.6-1.2,4.3-1c0.7,0.3,1.2-0.5,1.2-2.1
		C569.27,356.3,569.37,356.3,564.67,360.5z"/>
	<path class="st3" d="M439.97,161.7c2.3-2.9,2.3-5.1,0-2.3c-4.7,5.8-11.2,0.5-6.8-5.5c2.5-3.3,2.4-3.5-0.7-1.3
		c-2.5,1.7-3.1,7.1-1,9.2C433.07,163.4,438.77,163.3,439.97,161.7z"/>
	<path class="st3" d="M396.67,164.4c-1.6,1.7-3.3,2-5.8,1c-1.9-0.7-2.1-5.5-0.4-7.2c0.9-0.9,0.9-1.2,0-1.2c-0.6,0-1.6,0.9-2.2,1.9
		c-2.3,4.3,0.2,9.1,4.8,9.1c2.1,0,5.2-2.4,5.2-4.1C398.27,163.3,397.57,163.6,396.67,164.4z"/>
</g>
<g id="ORO">
	<path class="st4" d="M474.07,314.6c0.7-0.4,1.2-1.4,1.2-2.2s0.5-1.4,1-1.4c1.6,0,1.2-2.6-0.8-4.3c-1.7-1.6-26.9-2.1-51.3-1
		c-7.7,0.4-7.7,0.4-9.8,5.5c-2.7,6.6-2.7,7,1.1,6.6c2.9-0.3,3.4-0.8,4.7-5.1c0.8-2.6,2-4.7,2.8-4.7c1.7,0,1.7-0.3-1.2,5.8
		c-2.5,5.1-2.5,5.2-7.1,5.2c-5.1,0-5.4-1.2-1.8-8.4c1.5-3.1,1.3-4.5-0.3-2.4c-1.5,2-4.3,10.7-3.5,11.2c0.4,0.2,16.2,0.1,35-0.2
		c36.2-0.5,36.4-0.5,34.7-5c-0.6-1.6-0.8-1.5-2.3,0.3c-1.3,1.6-3.1,2.1-7.4,2.3c-6.5,0.3-6.5,0.3-4-5.5c1.7-4.2,1.8-4.3,6.2-4.2
		c4.5,0.1,4.5,0.1,0.8,1.1c-3.1,0.8-5.7,3.1-3,2.7c1.9-0.3,2.3,0.2,1.2,1.6c-1.5,1.8-3.5,2-2.4,0.3c0.4-0.7,0.3-0.8-0.4-0.4
		c-2.2,1.3-1.2,2.6,1.8,2.6c2,0,3-0.5,3-1.5c0-0.8,0.4-1.5,1-1.5c0.5,0,0.6,0.7,0.3,1.7C473.17,314.8,473.27,315.1,474.07,314.6z
		 M432.67,313.3c0.1,0.7,0.1,0.9-0.1,0.5c-0.2-0.4-1-0.5-1.8-0.2c-0.7,0.3-1.6,0.1-2-0.5c-0.3-0.7,0.2-1.1,1.4-1.1
		c1.2,0,2.1-0.6,2.1-1.4c0-3.3-5.4-0.2-5.8,3.3c-0.3,2.7,0,3.3,1.2,2.7c5.3-2.1,5.2-2.1,3.7-0.3c-3.3,4.1-9,1.4-7.7-3.7
		c1-4.2,10.6-7.5,10.6-3.7c0,1.1-0.4,2.2-1,2.6C432.77,311.8,432.47,312.6,432.67,313.3z M438.87,310.6c-0.8,3.2-3.5,7.4-4.7,7.4
		c-1.4,0-1.1-1.1,1.3-5.8C438.07,307.5,439.87,306.6,438.87,310.6z M451.67,309.7c-1.3,1.4-2.7,3.7-3,5c-0.4,1.3-1,2.3-1.5,2.3
		c-1.3,0-1.1-1.7,0.6-4.9c0.8-1.6,1.1-3.1,0.8-3.5c-1.6-1.5-3.1-0.2-5.4,4.4c-2.8,5.7-3.9,6.3-3.6,1.8c0.3-5.1,3.3-7.6,9.4-7.7
		C454.17,307,454.17,307,451.67,309.7z M456.47,317c-1,0-1.2-0.5-0.6-1.8c0.4-0.9,0.8-3.2,0.8-5c0.1-4.2,2.2-4.2,2.8,0
		C460.07,313.8,458.57,317,456.47,317z"/>
	<path class="st4" d="M512.47,285.6c-1.2,0.8-2.2,2-2.2,2.6c0,0.6,1.2,0.1,2.8-1.3c2.7-2.4,2.7-2.4,0.3,0.3
		c-1.4,1.6-2.7,2.6-3,2.3c-0.2-0.3-2.6,1.5-5.1,4c-5.1,5.1-5.5,5.1-24.6,1.1c-3.5-0.7-6.4-1.2-6.4-1.1c0,0.6,10.3,17,11.6,18.6
		c1.2,1.4,1.1,2-0.9,5c-4,6-9.9,17-9.3,17.6c0.5,0.6,19.8-1.4,23-2.4c1.3-0.4,3.9,1.6,9.8,7.6c4.4,4.5,8.3,8.1,8.8,8.1
		c0.9,0,2.8-7.7,3.7-15.2c0.6-5.1,1.3-5.5,19.7-12.3c3.8-1.4,4.5-2,3.3-2.7c-1.1-0.6-3.6,0-7.7,1.6c-3.3,1.4-6,2.1-6,1.6
		s2.3-1.6,5.2-2.6c6-2,5.8-2.3-5.4-8c-3.6-1.8-7-3.9-7.4-4.5c-0.4-0.7-0.9-0.8-1.3-0.1c-0.3,0.6-0.6-1-0.7-3.4
		c-0.1-2.5-0.6-5-1.2-5.6c-0.7-0.7-1.2-2.1-1.2-3.2c0-2.5,3,2.8,4.9,8.6c0.7,2.1,1.7,3.8,2.3,3.8c0.7,0,0.7-0.5,0.1-1.3
		c-0.5-0.6-2.7-5.6-4.8-11C516.77,283.6,516.17,283,512.47,285.6z"/>
</g>
<g id="ROJO">
	<path class="st5" d="M435.87,379.8c20.8,1.3,34.2-16.5,23.1-31c-6.6-8.6-20.5-13-29.9-9.4C404.97,348.3,409.97,378.1,435.87,379.8z
		"/>
	<path class="st5" d="M288.27,334.6c-3,4.9-3.7,7.9-4.3,20.5c-0.4,7.7-0.4,7.7,7.1,8.3c4.7,0.5,7.9,0.3,8.5-0.3
		c0.6-0.6,1.1-6.8,1.1-14.5c0.1-12.9,0-13.5-2.3-16C294.57,328.6,291.77,329.2,288.27,334.6z"/>
	<path class="st5" d="M177.37,357.9c8.1-5.7-1.3-11.4-12.3-7.5c-9.5,3.4-11.8,7.5-7.9,13.5C158.27,365.6,172.47,361.4,177.37,357.9z
		"/>
	<path class="st5" d="M249.37,371c5,0,10.9-1.7,10.9-3.1c0-0.9-13.4-1-17.7-0.2C236.97,368.8,241.57,371,249.37,371z"/>
	<path class="st5" d="M592.27,532c-1.7-0.9-2-0.6-2.9,2.7c-0.5,2.1-2.1,8.5-3.6,14.3c-1.5,5.8-3,11.4-3.5,12.5
		c-1.9,4.2-2.8,9.5-1.9,10.1c1.4,0.8,1.3,1,5.9-10.1C595.57,539.4,596.57,534.3,592.27,532z"/>
	<path class="st5" d="M572.37,558.1c1.5,0.9,8.9,1.2,8.9,0.4c0-0.3,1.6-6.1,3.5-12.7c2-6.7,3.4-12.5,3.3-13c-0.2-0.5-3.1,2-6.5,5.4
		C574.57,545.3,569.47,556.3,572.37,558.1z"/>
</g>
<g id="VERDE">
	<path class="st6" d="M238.97,364.8c6.1,0.3,6.1,0.3,4.5-4.5c-2.7-8.4-2.3-44.9,0.6-53.3c3.9-11.1,12.4-21.1,17.6-20.9
		c1.2,0,1.5,0.3,0.8,0.6c-1.5,0.6-0.6,2.3,1.3,2.3c1.1,0,1.2-0.7,0.4-3.3c-2.4-7.4-4.1-11.7-4.7-11.6c-0.4,0.1-2.6,0.5-5,1.1
		c-9.5,2.1-20.2,15.5-23.8,29.8c-2,7.7-1.4,41.7,0.8,53C232.77,364.5,232.77,364.5,238.97,364.8z"/>
	<path class="st6" d="M550.87,349c19.1-24,45.3-43.9,63.1-48c4.7-1.1,5.2-1.4,4.7-3.4c-0.3-1.2-0.6-4.5-0.7-7.4
		c-0.2-6.2-0.8-6.3-10.7-2.9c-19.4,6.9-41,26.1-69.8,62.2c-5.3,6.6-14.7,17.3-21,23.7c-10,10.3-11.4,12-10.8,14.3
		C507.57,395.2,527.57,378.3,550.87,349z"/>
	<path class="st6" d="M542.57,299.4c5.2-5.1,9.2-9.5,8.9-9.8c-0.6-0.6-19.3-0.5-25.4,0.1c-2.1,0.2-3.8,0.8-3.8,1.3
		c0,1,4.7,15.1,5.2,15.5c1.7,1.4,16,9.6,16.3,9.3c0.3-0.2-2.1-1.9-5.2-3.8C533.07,308.6,533.07,308.6,542.57,299.4z"/>
	<path class="st6" d="M312.67,365.5c8.3,1.1,17.3,4.4,22.1,8.1c6.5,4.9,7.6,4.4,9.3-4.4c1.7-8.7,2.5-7.7-7.9-10.2
		c-17.8-4.3-23.7-6.2-24.1-7.9c-0.2-0.9-0.1-6.6,0.3-12.6c2.9-44.7,5.2-40-20.2-42.6c-10.2-1-22.1-2.5-26.5-3.4
		c-9.8-1.9-9-1.9-11.4,0.5c-5.1,5.1-9.5,17.9-10.3,30c-0.6,7.5-0.6,7.5,1.4,3.8c2.2-4.3,4.5-5.8,8.7-5.8c3.4,0,8.2,4.8,8.2,8.1
		c0,2.7,0.5,2.4,4.5-2c1.9-2.1,4.9-4.4,6.6-5.1c7.1-3,8.7,4.1,6.6,30.7c-0.5,6-0.4,10.3,0.1,10.3s1.2-4.4,1.6-9.8
		c1-14.2,1.9-16.6,8.6-23.3c6.4-6.5,6.6-6.6,9.6-4c3.4,2.8,4.8,11.6,4,25.8C303.07,365.6,302.17,364.2,312.67,365.5z"/>
	<path class="st6" d="M204.47,470c-3.1,0-13.9-5.8-18.2-9.6c-9.1-8.3-16.2-22.3-18.2-36.3c-2.9-19.7,8.1-41.3,25.7-50.8
		c6-3.2,6-3.2-13.5-3.1c-10.7,0-20.6,0.3-22,0.5c-4.6,0.9-7.8,4.2-11.8,12.5c-14.3,29.6-8.2,67.1,14.6,89.3
		c12.9,12.5,18.7,13.3,36.2,4.6C208.27,471.6,209.87,470,204.47,470z"/>
	<path class="st6" d="M477.57,496.9c7.2,1.8,14,3.5,14.9,3.8c1.4,0.3,1.1-0.9-1.7-6.9c-12.2-26-10.2-86.6,3.6-105.9
		c2.6-3.6,2.3-3.6-21.6-0.3c-9.3,1.3-18.9,2.3-21.2,2.4c-2.4,0-4.3,0.2-4.3,0.4s1.5,3.5,3.4,7.3c5.8,11.7,8,23.4,9.1,49.3
		c0.6,13.5,3.1,42.1,4.1,45.1C464.17,493.2,468.27,494.7,477.57,496.9z"/>
	<path class="st6" d="M507.07,484c-1.8-0.8-4.1-2-5.1-2.8c-3.4-2.9-3.2,0,0.5,6.9c4.3,8.1,4.2,8.6-0.6,2.3
		c-6.8-8.9-11.7-27.7-11.7-44.7c0-18.4,2.3-30.1,9.4-47.1c3-7.4,3.8-10.2,3-11.5c-1.9-2.9-4.1-2.4-6.8,1.7
		c-15,22.7-14.8,92.1,0.4,110.2c3.9,4.7,7,3.7,11-3.4C511.27,488.5,511.27,485.6,507.07,484z"/>
	<path class="st6" d="M347.07,617.4c3.5,1.8,8.8,1,12.6-1.9c2-1.5,2-1.5,0-1.5c-8.1-0.1-32.9-17.6-36.5-25.7c-1.4-3.3-3-4.9-7-7
		c-7.9-4.3-14.4-9.7-16.2-13.6c-2-4.1-2.2-8.3-0.4-9c0.6-0.3,0.8-0.5,0.2-0.5c-0.5,0-2.7,1-4.8,2.2c-5.6,3.1-5,6.9,1.8,11.3
		c5.8,3.8,5,4.4-1.1,0.9c-4.2-2.4-4.2-2.4-4.7,3.8c-0.5,6.1-0.5,6.1,3.6,9.9c2.3,2.1,6,4.8,8.2,6.1
		C315.57,599.8,344.27,616,347.07,617.4z"/>
	<path class="st6" d="M573.97,560.4c-4.4-0.6-4.4-0.6-6.2,4c-2.1,5.6-2.1,5.5,4.8,6.5c5.5,0.7,5.5,0.7,6.5-4.1
		C580.17,561.3,580.07,561.2,573.97,560.4z"/>
	<path class="st6" d="M533.37,579.4c-7.3,1.1-7.3,1.1-5.3,3.6c1.9,2.4,1.9,2.4,11.2,0.8c10.3-1.9,10.3-1.9,9.4-4.2
		C547.97,577.7,544.57,577.7,533.37,579.4z"/>
	<path class="st6" d="M525.27,586c-1-1.8-1-2.1,0.2-1.4c0.7,0.4,0.4-0.2-0.6-1.4c-2.4-2.8-2.9-2.7-4.1,0
		c-2.1,4.8-67,13.2-101.5,13.3c-19.6,0-19.6,0-19.2,5.8c0.6,7.6,0.2,7.8-31.2,12.4c-3.8,0.5-3.8,0.5-0.7,3.6c4,4,5.9,4,37.5-1.3
		c27.4-4.6,37.9-6.3,80.1-12.5c29-4.3,35.5-5.5,38.3-7.4C525.97,595.9,526.77,588.7,525.27,586z"/>
	<path class="st6" d="M391.07,595.5c-22.1-2-46.8-5.8-60.5-9.4c-4-1.1-7.3-1.6-7.3-1.2c0,2.9,7.9,11.1,15.2,15.9
		c17.8,11.7,23.1,12.9,43.3,9.8c16.5-2.5,17.8-3.1,17.1-7.4c-0.3-2-0.6-4.4-0.6-5.3C398.27,596.5,396.77,596.1,391.07,595.5z"/>
	<path class="st6" d="M537.27,585.5c-4.1,0.8-7.6,1.4-7.6,1.4c-0.1,0.1-0.4,2.1-0.6,4.5c-0.4,5.2-0.8,5.2,14.2,0.9
		c8.1-2.3,10.6-3.3,8.2-3.3c-0.6,0-1.2-1-1.4-2.3C549.67,584,547.47,583.7,537.27,585.5z"/>
	<path class="st6" d="M395.67,951c1.1,9.6,4,18,6.3,18c0.3,0,0.3-4.2,0-9.3c-0.6-10.1-3.6-20.8-6.8-24.7c-2-2.5-2-2.5-1.3,1.5
		C394.27,938.7,395.07,945.2,395.67,951z"/>
	<path class="st6" d="M276.57,978.6c1.5,0.5,1.7-0.2,1.7-5.8c0-5.6,2.7-18.9,4.3-21.5c0.7-1.2-11.9-4.1-21-5
		c-4.8-0.5-6.4-0.3-6.8,0.8c-1.2,3.4-4.5,18.7-4.5,21c0,3,2.8,4.3,16.5,7.9C271.17,977.1,275.57,978.3,276.57,978.6z"/>
	<path class="st6" d="M284.37,954.3c-1.8,4.7-4.2,18.4-3.9,21.9c0.4,3.8,1.2,4.1,42.3,13.4c10.2,2.3,28.7,5.3,35,5.6
		c6,0.3,6,0.3,8.1-9.7c1.2-5.5,2.1-10,2-10.1c-0.6-0.3-47.2-14.6-59.1-18.1C288.47,951.3,285.57,951,284.37,954.3z"/>
	<path class="st6" d="M380.67,960.4c-3,1.3-6.9,5.6-9.3,10.3c-0.6,1.2-2.3,7.5-3.6,13.9c-2.8,12.8-2.6,15.7,1.4,26.3
		c1,2.8,1.5,4.9,1.1,4.6c-1-0.6-3.5-7.2-5-13.3c-1-3.8-1.4-4.2-4.1-4.2c-3.2,0-3.3,1.4-0.4,8.5c3.1,7.7,13.1,13.8,19.9,12.1
		c6.2-1.5,14.4-12.1,17.7-22.7c2.5-8,2.6-23.3,0.3-28.3C395.77,961.7,386.37,957.9,380.67,960.4z M389.97,1009.3
		c-12.4,16.8-24.1-10-14.2-32.2c4.5-10,9.5-12.6,16.2-8.5C400.87,974.2,399.77,995.8,389.97,1009.3z"/>
	<path class="st6" d="M380.37,972.5c-10.6,12.1-7.6,42,4.1,40.3c6.9-1,14-24.1,10.9-35.6C392.87,968.3,385.97,966.1,380.37,972.5z"
		/>
	<path class="st6" d="M565.27,959.5c-0.8,0.2-5.4,0.9-10.2,1.5c-5.3,0.7-8.8,1.7-8.8,2.4c0,1.6,6.6,28.6,7.2,29.1
		c0.2,0.2,4.6-0.4,9.8-1.5c11.2-2.3,30.8-3.5,36.4-2.3c4.3,0.9,6.1,3.3,2.6,3.3c-1.8,0-2.1,0.4-1.7,2.2c0.3,1.3,1.1,6.7,1.8,12.1
		c1.2,9.9,1.2,9.9,4.3,9.3c6.1-1.2,6.9-5.8,3.7-21.1c-3.2-14.9-9.1-30.8-12.1-32.2C593.07,959.8,572.47,958.1,565.27,959.5z"/>
	<path class="st6" d="M546.07,994.3c2.8-0.4,4.1-1,3.8-1.8c-0.2-0.7-1.7-7.1-3.1-14.1c-3.3-15.7-3.3-15.4-4.2-15.3
		c-0.4,0-3.5,0.8-6.8,1.8c-21.1,6.2-36.7,14.3-50.2,26c-6.7,5.7-6.9,6.4-4.3,15.8c3.3,12.2,3,12,14.1,6.5
		C510.97,1005.4,537.57,995.5,546.07,994.3z"/>
	<path class="st6" d="M267.77,983.8c-0.6-4-1.1-4.8-3.8-5.7c-3.6-1.3-4.7-1.4-4.7-0.3c0,2.3,3.2,11.1,4.3,12.1
		C266.37,992.1,268.57,988.9,267.77,983.8z"/>
	<path class="st6" d="M274.17,981.1c-4.3-1.5-5.2-1.4-4.5,0.5c0.3,0.9,0.6,2.2,0.6,3c0,1.9,1.7,1.8,4.6-0.5
		C277.27,982.2,277.27,982.2,274.17,981.1z"/>
	<path class="st6" d="M485.67,1021c-3,0-8-14.6-9.9-29.3c-0.7-5.2-3.6-6.5-6.9-3.1c-1.9,1.9-1.9,3.2-0.1,15.9
		c2.5,17.9,7.3,35.5,9.7,35.5c0.6,0,0.7-1.6,0.4-3.8c-0.3-2-0.8-6.5-1.1-9.9c-0.4-3.4-2.4-12.9-4.4-21.2c-2.1-8.3-3.6-15.1-3.4-15.1
		c1.9,0,9.1,28.7,10.7,42.6c0.6,5.7,1.5,10.5,1.9,10.5c5.3,0.7,6.7-0.9,6.7-7.8C489.27,1027,487.77,1021,485.67,1021z"/>
	<path class="st6" d="M599.77,1002.1c-1.2-9.1-2.2-11-5.4-11.1c-0.8,0-1.1,0.7-0.8,1.7s1.6,5.5,3,10.1
		C600.47,1015.9,601.47,1015.6,599.77,1002.1z"/>
	<path class="st6" d="M217.87,1049.4c21.2,4.2,76.4,5.1,76.4,1.2c0-4.3-16.9-22.7-27.3-29.8c-16-10.9-29.5-14.1-39.2-9.5
		c-9.5,4.6-17,13.1-20.5,23.3C203.37,1045.7,204.07,1046.6,217.87,1049.4z"/>
	<path class="st6" d="M567.77,1038.5c-14.9,3.2-30.2,11.2-39.5,20.5c-4.4,4.3-11,15.3-9.9,16.4c3.3,3.4,55.9,5.8,77.6,3.6
		c13.2-1.3,29.4-4.5,33.5-6.6c2.6-1.4,2.6-1.4,1.3-6.4c-3.8-14.3-13.8-22.7-32.6-27.4C590.37,1036.7,576.27,1036.6,567.77,1038.5z"
		/>
	<path class="st6" d="M612.27,278.2c-12.9-5.9-26.3-6.8-35.1-2.4c-11,5.6-21.1,13.3-34.1,25.9c-8,7.8-7.9,7.1-2.5,10.5
		c10.2,6.4,9.8,7.3-6,12.6c-10,3.4-10.8,3.9-10.6,6.2c0.2,3-2.6,21.6-3.8,24.7c-1.3,3.5-2.2,3-13.1-7.7
		c-10.3-10.1-10.3-10.1-15.8-9.5c-15.3,1.5-22.7,1.7-23.4,0.6c-0.4-0.6,1.3-4.8,3.9-9.2c1.95-3.5,3.47-6.65,3.91-8.05
		c0.12-0.4-0.17-0.8-0.59-0.82c-6.03-0.31-50.09-0.2-62.82,0.27c-5.7,0.2-6.3-2.1-2.6-10.5c3.2-7.2,3-7.1,37.8-7.2
		c25.7-0.1,25.7-0.1,22.8-5.3c-1.41-2.4-2.54-5.88-2.89-7.04c-0.06-0.21,0.07-0.42,0.29-0.45l0.84-0.14
		c0.32-0.05,0.63,0.13,0.72,0.44c0.7,2.38,2.75,6.36,6.04,11.69c2.2,3.5,4,7.2,4,8.2c0,1.3,0.5,1.7,1.5,1.4c2.4-1,1.8,0.8-4.5,12.9
		c-3.3,6.2-6,11.7-6,12c0,1,5.1,0.9,17.2-0.5c10.9-1.2,10.9-1.2,20.7,8.6c4.24,4.24,8.05,7.61,9.63,8.68
		c0.37,0.25,0.86,0.07,0.98-0.36c0.24-0.87,0.59-2.32,0.89-3.72c0.5-2.8,0.4-3.1-0.4-1.3c-1.4,3.3-1.6,3.2-11.1-6.3
		c-8.6-8.6-8.6-8.6-17.5-7.5c-4.9,0.6-11,1.1-13.7,1.1c-4.8,0-4.8,0-0.6-7.8c2.4-4.2,5.1-8.9,6.1-10.4c2.3-3.3,2.3-4.2,0-7.6
		c-1.1-1.5-4.2-6.4-7-11c-6-9.7-6.7-9.4,11.6-5.6c12.6,2.5,12.6,2.5,18.9-4.1c3.5-3.6,7.4-7,8.6-7.5c3.2-1.3,0.2-1.1-9.8,0.5
		c-17.2,2.9-34.1,5.8-35.3,6.1c-0.01,0-0.02,0.01-0.02,0.01l-3.94,0.65c-0.02,0-0.04,0.01-0.06,0.01c-0.49,0.03-1.11,0.11-1.88,0.23
		c-2.1,0.3-12.1,1.4-22.3,2.6c-24.7,2.7-26.2,3.1-31,8.8c-4.9,5.6-12.3,20.6-18,36.5c-2.4,6.6-5.1,12.7-6.1,13.7s-8.7,3.4-19,5.9
		c-9.34,2.24-17.44,4.57-18.53,5.25c-0.05,0.03-0.09,0.07-0.13,0.12c-0.91,1.23-3.01,10.77-3.06,13.51
		c-0.01,0.41,0.38,0.7,0.77,0.62c1.38-0.28,4.75-1.1,8.54-2.11c11.2-2.9,15-3,25.1-0.3c17,4.5,38.1,8.9,42.5,8.9
		c5.8,0,11.6,2.3,12.4,5c0.5,1.7,1.2,2,3.3,1.6c7.3-1.6,49.8-6.8,57.7-7.2c8.9-0.4,8.9-0.4,19.3-10.6c5.7-5.7,13.8-14.6,18-19.8
		c33.1-41,54.4-59.8,76.5-67.6C618.77,281.2,618.77,281.2,612.27,278.2z M445.77,381.5c-15.1,4.4-31.3-3.3-34.5-16.3
		c-4.8-20.4,17.9-35.9,39-26.5C472.77,348.7,470.17,374.5,445.77,381.5z"/>
	<path class="st6" d="M275.57,326.7c-1-0.2-2.5-0.8-3.4-1.2c-1.2-0.4-2.4,0.3-4.1,2.7c-1.4,1.8-2.8,4.2-3.2,5.3
		c-1.1,2.9-3.6,28.7-2.9,29.8c0.6,0.9,13.1,0.3,14.1-0.8c0.8-0.8,2.5-30.3,1.8-32.9C277.57,328.3,276.47,327,275.57,326.7z"/>
	<path class="st6" d="M273.37,444c-0.04,0.37-0.06,0.74-0.09,1.12c-0.15,2.57-0.04,5.15-0.02,7.72c0.06,0.27,0.13,0.55,0.21,0.87
		c1.1,4.9,3,5.9,10.4,5c5.3-0.6,8.6-3.2,11.9-9.7c2.9-5.7,7.9-19.9,7.3-20.5c-0.94-1.02-20.58,9.53-29.69,15.39
		C273.38,443.93,273.37,443.96,273.37,444z"/>
</g>
<g id="VIOLETA">
	<path class="st7" d="M398.87,125c33-5,34.7-5.2,40.8-4.6c16,1.6,24.6,12.1,31.2,38.2c1.8,7.4,4.6,16.4,6.2,20
		c2.9,6.6,2.9,6.6,4.6,1.8c4.9-14.3-1.9-37.7-8.6-29.4c-2.1,2.5-2.3,1.7-0.7-2.8c1.5-4.4-3.5-13.6-12.1-22.2
		c-12.3-12.4-23.4-15-49.3-11.5c-9.9,1.4-17.6,3.5-23.2,6.3c-3.6,1.8-9.7,6.3-9.2,6.8C378.77,127.8,387.87,126.6,398.87,125z
		 M478.17,159c0.5,2.5,1.1,8.1,1.4,12.5c0.4,5.1,0.3,6.7-0.3,4.5c-0.4-1.9-1-7.6-1.3-12.5C477.67,157.7,477.67,156.1,478.17,159z"/>
	<path class="st7" d="M468.87,282.8c-3.6,3.9-3.8,4.3-1.5,3.8c1.3-0.3,6.7-1.3,11.9-2.2c5.2-0.9,9.8-1.9,10.3-2.3
		c0.4-0.4,0-7.2-0.8-15.2c-1.9-18.1-2-18.1-2.9-13.9C483.77,261.8,476.67,274.3,468.87,282.8z"/>
	<path class="st7" d="M613.47,265.7c-1.6,0.6-4.6,6.3-3.7,7.1c0.3,0.3,2.7,1.8,5.3,3.2c4.7,2.5,4.7,2.5,5.3,11.2
		c0.8,12.3,4.7,17.2,10.5,13.3c8.6-5.6,7.3-32.1-1.6-34.6C626.37,265.1,615.37,264.9,613.47,265.7z"/>
	<path class="st7" d="M595.07,512.6c-0.2-0.2-3.3-1.9-7-3.8c-6.8-3.6-6.8-3.6-11.9,6.3c-2.9,5.4-6.5,11-8.2,12.6
		c-3.1,2.9-2.9,1.9,0.9-3.2c3.6-5,10.4-18,10.4-20.1c0-1.2-1.8-3-4.8-4.9c-2.6-1.6-8.7-5.8-13.6-9.2c-4.9-3.5-9.4-6.2-10-6.2
		c-0.6,0.1-6,0.6-12.1,1.1c-6,0.5-14.1,1-17.8,1.1c-6.8,0.2-6.8,0.2-8.7,5.7c-2.4,7-3.7,5.5,21.5,23.4c39.3,28,39.8,28.2,48.3,19.3
		C586.27,530.2,596.17,513.4,595.07,512.6z M557.37,509.6c2.3-3,2.5-3,6.7-1.5c6.4,2.2,6.3,10.4-0.2,13.6
		C556.67,525.1,551.97,516.4,557.37,509.6z"/>
	<path class="st7" d="M295.27,1053.9c-30.8,3.5-70.5,1.3-88.6-4.8c-5.5-1.8-5.5-1.8-5.2,4.3s0.3,6.1,5.4,7.8
		c14.2,4.7,40.8,7.3,65.9,6.4c22.8-0.8,25.5-1.2,25.5-3.7c0-2.9,2.2-3.4,4.2-0.9s3.4,2.4,18.8-0.6c10.5-2.1,11-2.3,11-4.4
		c0-3,2.1-3.5,4-1c2,2.6,4.4,2.5,19.3-0.6c6.1-1.4,7.7-2.1,7.7-3.5c0-2.8,2-3.3,4.2-1.2c1.9,2,2.2,2,9.6,0.3
		c17.4-3.8,18.2-4.3,18.2-11.6c0-3.5-0.1-6.4-0.2-6.4c-0.2,0-1,0.5-1.8,0.9C387.57,1038.3,322.67,1050.8,295.27,1053.9z"/>
	<path class="st7" d="M496.37,1066.7c-7.4-5-7.4-5-6.7,0.4c0.9,6.8,2.4,8.4,13.6,14.3c9,4.7,9,4.7,9,0.1c0-2.8,0.4-4.4,1-4
		c0.6,0.3,1,2,1,3.6c0,4.9,1.6,6.6,8.2,8.8c25.3,8.2,95.1,6,109.5-3.4c3.5-2.3,3.5-13.1,0.1-12c-18.3,5.9-34.5,7.8-64.8,7.9
		C527.37,1082.5,516.07,1080,496.37,1066.7z"/>
	<path class="st7" d="M505.17,1070.1c10.5,6.3,11.4,5.7,1.9-1.3c-4-3-8.7-7.1-10.5-9.1c-3.3-3.8-5.6-4.6-6.9-2.5
		C488.67,1058.8,494.97,1064.1,505.17,1070.1z"/>
	<path class="st7" d="M362.37,167.7c-0.1-3.9-1.6-5-2.9-2c-0.9,2.4-0.8,16,0.2,19.8C361.27,191.5,362.67,182.5,362.37,167.7z"/>
	<path class="st7" d="M301.07,549.8c0.7-0.6,3.6-1.7,6.5-2.3c4-1,4.7-1.4,3.2-1.9c-11.8-4.1-13.9-10.9-5-16.2
		c4.4-2.5,5.8-4.4,3.2-4.4c-2.4,0-8.7-6.1-8.7-8.4c0-3.7,3.5-7.2,8.5-8.6c5.4-1.5,4.8-2.6-2.6-5.4c-10-3.6-7.6-14.1,3.7-16.2
		c3.4-0.6,4.8-2.4,1.9-2.4c-0.8,0-3-1.4-4.8-3c-3.4-2.9-3.8-3-13.4-3c-10,0-10,0-12.9,4.2c-14.4,20.4-6.8,49.2,16.1,61.7
		c3.7,2,3.7,2.1,1,1.6c-14.5-2.9-29.2-27.5-27-45.1c0.7-5.9,4.9-15.4,8.9-20.2c3.9-4.5,2-3.9-9.9,3.3c-4.3,2.6-7.1,3.1-9.5,1.5
		c-1.2-0.8-1.3-1.1-0.1-1.9c0.8-0.5,0.9-1.1,0.3-1.5c-0.6-0.3-1.5,0.6-2.1,2.1c-1,2.8-1,2.8-0.9-0.7c0-1.9-1.2-5.7-2.6-8.4
		c-3.1-5.9-3.2-8.9-0.6-15.7c2.8-7,2.5-7.2-5.2-3.7c-7.9,3.6-7.7,2.6-4.8,18.9c2.6,14.3,6.1,25.2,11.3,35.1c4,7.6,5.7,9.7,3.7,4.4
		c-0.5-1.5-1-3.5-0.9-4.4c0-0.9,0.6-0.1,1.2,1.8c4.8,14.3,20.2,31.6,32.7,36.8C297.77,550,300.07,550.6,301.07,549.8z"/>
	<path class="st7" d="M565.37,511.9c-2.8-2.3-3.1-2.3-5.9-0.3c-3.7,2.6-2.1,10.4,2.1,10.4c0.8,0,0.7-0.4-0.2-0.9
		c-1.1-0.7-0.9-1,1-1.3C566.37,519.3,568.37,514.3,565.37,511.9z"/>
</g>
<g id="PIEL">
<path class="st8" d="M477.67,186c-5.7-13.6-7.3-18.8-9.8-30.6c-2.1-9.5-7-22.4-8.1-21.2c-0.2,0.2,0.3,3.7,1.1,7.8
	c1.8,9.6,1.8,12-0.1,12c-0.9,0-1.5-0.9-1.5-2.3c0-3.6-4.5-12.1-7.3-14c-4.6-3-7.4-2.5-28,5.2c-6.4,2.4-8.7,1.8-8.7-2.3
	c0-1.7,1.4-2.9,5.8-5c14.3-7.1,24.7-9.1,31.9-6.1c3.6,1.5,3.6,1.5,1.7-0.6c-5.6-6.2-19-8.2-34.9-5.4c-4.4,0.8-14.7,2.4-23,3.5
	c-16.6,2.4-22.1,4.3-25.3,8.8c-1.2,1.6-2.2,3.2-2.2,3.4c0,0.1,3.3,0.3,7.3,0.4c3.9,0,11.9,0.5,17.5,0.9c10.9,0.8,12.3,1.6,10.3,5.4
	c-2.2,4.1-4.4,4.4-17.5,2.5c-6.7-1-13-1.5-14-1.1c-2.4,1-4.6,6.8-4.5,12.4c0,4.8,0,4.8,1.7,2.3c3-4.6,8.9-10,10.8-10
	c1.2,0.1,0.8,0.6-1.3,1.5c-5.3,2.3-3.8,2.4,3,0.3c5.35-1.65,10.56-1.68,14.4-0.42c0.92,0.3,3.39,1.56,3.8,1.82
	c1.12,0.7,2.16,1.54,3.14,2.42c0.47,0.42,0.92,0.86,1.37,1.3c0.21,0.2,0.4,0.41,0.58,0.64c0.01,0.02,0.03,0.04,0.05,0.05
	c0.77-3.22,1.6-0.63,1.46,7.98c-0.1,7.8-1,13.1-3.7,22.6c-0.9,3.1-1.4,6.3-1.1,7.2c0.9,2.3,9.2,3.2,12.2,1.2
	c2.6-1.7,7.5-2.2,7.5-0.7c0,2.6-19.1,3.4-21.6,0.9c-1.7-1.6-1.6-2.2,1-10.5c1.77-5.76,2.68-10.59,3.14-17.46
	c-0.07,0.08-0.13,0.16-0.2,0.24c-0.16,0.17-0.63,0.92-0.79,1.09c-3.97,4.4-10.69,7.24-18.06,7.33c-8.8,0-12.3-2.2-16-10
	c-3.3-7.2-4.5-6.9-4.5,0.8c0,3.5-0.7,11.5-1.5,17.8c-4.8,36,1.2,73.7,14.9,94.4c5.7,8.5,5.7,8.5,31.4,8c17.7-0.3,29.9-1,39.2-2.3
	c13.5-1.9,13.5-1.9,18.3-7.3c6.9-7.6,11.1-15.1,14.9-26C488.57,237.2,486.47,207.4,477.67,186z M418.07,268c-1.9,0-1.8-0.3,1.2-1.8
	c4.5-2.2,6.1-6.3,3.5-9.2c-4-4.5-17.8-1.1-14.9,3.7c1.4,2.3,6.7,2.9,8.7,0.9c0.9-0.9,1.9-1.6,2.4-1.6c2.5,0.1-4.5,4-7.2,4
	c-5.8,0-7.4-6.3-2.3-8.8c3.4-1.6,11-1.4,13.6,0.4C427.67,258.8,423.97,268,418.07,268z M455.67,207.1c-0.4,0.6-1.4,0.4-3-0.5
	c-3.5-2.3-4-2.1-8,3.9c-11.9,18.1-34.1,22.7-50.3,10.5c-5.7-4.2-7.9-4.8-9.9-2.8c-0.6,0.6-1.5,0.9-1.9,0.5c-1-1,1.8-5.7,3.4-5.7
	c0.8,0,1.2,0.4,0.8,0.9c-1.1,1.9,3.3,2.1,11.6,0.6c8-1.5,22.5-3.5,35.1-5c7.2-0.8,17.3-7.5,11.4-7.5c-0.9,0-1.6-0.5-1.6-1
	c0-1.5,4.8-0.1,9.3,2.7C454.67,205,456.07,206.5,455.67,207.1z M436.87,175c-9.8,0-19.4-11.5-17.2-20.4c1.4-5.6,15.8-9,27.5-6.5
	C466.57,152.2,457.87,175,436.87,175z"/>
</g>
</svg>
