<svg version="1.0" xmlns="http://www.w3.org/2000/svg"
 width="866.000000pt" height="1122.000000pt" viewBox="0 0 866.000000 1122.000000"
 preserveAspectRatio="xMidYMid meet" style="background:transparent;">
<metadata>
Created by potrace 1.16, written by Peter Selinger 2001-2019
</metadata>
<g transform="translate(0.000000,1122.000000) scale(0.100000,-0.100000)"
fill="#000000" stroke="none">
<path d="M0 5610 l0 -5610 4330 0 4330 0 0 5610 0 5610 -4330 0 -4330 0 0
-5610z m4493 4457 c89 -44 185 -141 238 -241 18 -34 45 -73 59 -88 64 -64 87
-220 51 -340 -13 -42 -13 -54 7 -145 33 -146 42 -224 42 -373 1 -127 31 -454
43 -467 7 -6 343 45 550 84 137 26 137 26 144 67 9 58 63 111 123 120 85 13
95 17 115 49 48 76 114 92 227 57 76 -23 101 -47 133 -126 21 -52 29 -61 65
-74 57 -21 78 -56 104 -171 5 -22 15 -29 70 -43 91 -25 100 -38 104 -151 4
-93 4 -93 63 -115 117 -44 256 -162 335 -285 292 -458 -65 -1110 -612 -1115
-41 0 -41 0 -76 -107 -44 -134 -207 -553 -252 -649 -19 -40 -41 -98 -51 -130
-18 -63 -120 -316 -141 -349 -7 -11 -35 -76 -64 -145 -75 -184 -62 -175 -340
-231 -137 -27 -207 -56 -215 -89 -3 -14 -22 -57 -41 -97 -36 -71 -36 -71 -6
-165 67 -209 141 -494 241 -923 134 -584 133 -578 122 -614 -9 -30 -6 -47 23
-125 19 -50 52 -156 74 -236 22 -80 90 -325 151 -545 175 -633 173 -627 200
-637 36 -13 47 -32 85 -148 47 -138 74 -257 82 -352 7 -76 6 -77 -24 -107 -21
-21 -40 -31 -61 -31 -31 0 -31 0 40 -107 40 -60 96 -134 126 -166 99 -108 164
-291 139 -391 -20 -79 -332 -131 -725 -123 -342 7 -433 29 -671 163 -94 53
-98 60 -106 157 -7 82 3 112 42 127 24 10 24 10 24 180 0 93 -4 170 -8 170
-20 0 -30 -23 -21 -47 5 -14 12 -65 16 -113 7 -100 -1 -113 -83 -126 -71 -11
-106 56 -158 303 -41 199 -44 275 -11 302 15 11 36 21 47 21 28 0 31 19 19
122 -6 51 -20 228 -31 393 -35 529 -71 948 -90 1040 -33 162 -168 596 -312
1005 -89 255 -89 255 -174 257 -98 2 -208 30 -296 74 -33 17 -61 29 -62 27 -8
-9 -95 -584 -116 -765 -10 -77 -9 -95 4 -115 53 -84 60 -264 13 -360 -25 -51
-25 -51 -6 -77 11 -16 36 -105 64 -231 124 -555 186 -794 215 -825 81 -87 105
-190 96 -415 -7 -184 -21 -262 -61 -342 -34 -67 -46 -232 -20 -252 32 -23 35
-169 4 -189 -27 -18 -204 -64 -270 -71 -24 -3 -84 -14 -134 -26 -49 -13 -118
-24 -152 -26 -35 -1 -67 -6 -73 -9 -18 -11 -262 -56 -299 -55 -20 1 -58 -4
-86 -11 -144 -34 -644 -12 -841 38 -112 27 -124 40 -124 127 0 61 3 77 18 88
11 7 22 31 26 53 29 154 206 325 335 325 17 0 67 22 118 51 149 87 135 69 107
136 -13 32 -24 68 -24 80 0 15 -13 29 -42 45 -38 20 -43 28 -46 62 -5 58 37
216 63 240 24 23 22 8 86 726 30 335 30 348 15 450 -9 58 -17 123 -19 145 -8
75 13 228 44 318 29 88 29 89 29 330 0 240 6 357 35 742 36 465 70 602 188
747 57 70 57 69 7 108 -41 32 -41 32 -38 154 3 121 3 121 55 151 61 35 64 40
21 49 -124 25 -346 243 -443 436 -52 104 -115 335 -115 428 -1 66 -36 55 -392
-124 -126 -63 -155 -74 -199 -74 -65 0 -151 44 -223 114 -27 27 -66 55 -86 63
-199 83 -330 277 -330 488 0 160 47 246 185 340 48 33 98 76 110 95 12 19 32
43 43 53 18 17 20 27 15 86 -6 68 -6 68 32 97 21 15 66 38 101 50 70 23 165
123 230 241 61 113 148 162 304 173 84 5 84 5 92 43 20 97 120 228 210 273 25
13 49 33 53 44 3 11 17 23 31 26 17 4 32 22 50 60 31 67 68 97 162 135 108 43
141 40 205 -20 39 -36 65 -51 102 -60 28 -7 69 -27 92 -45 59 -46 485 -181
506 -159 3 2 -8 43 -24 92 -61 192 -93 445 -80 644 5 80 3 107 -11 140 -38 94
-19 277 29 277 13 0 14 10 8 64 -8 80 8 121 84 216 129 162 290 221 587 217
129 -2 132 -3 207 -40z"/>
<path d="M4107 10075 c-99 -14 -176 -35 -232 -63 -36 -18 -97 -63 -92 -68 2
-2 93 10 203 26 330 50 347 52 408 46 160 -16 246 -121 312 -382 18 -74 46
-164 62 -200 29 -66 29 -66 46 -18 49 143 -19 377 -86 294 -21 -25 -23 -17 -7
28 15 44 -35 136 -121 222 -123 124 -234 150 -493 115z m686 -570 c4 -51 3
-67 -3 -45 -4 19 -10 76 -13 125 -3 58 -3 74 2 45 5 -25 11 -81 14 -125z"/>
<path d="M4195 9985 c-44 -8 -147 -24 -230 -35 -166 -24 -221 -43 -253 -88
-12 -16 -22 -32 -22 -34 0 -1 33 -3 73 -4 39 0 119 -5 175 -9 109 -8 123 -16
103 -54 -22 -41 -44 -44 -175 -25 -67 10 -130 15 -140 11 -24 -10 -46 -68 -45
-124 0 -48 0 -48 17 -23 30 46 89 100 108 100 12 -1 8 -6 -13 -15 -53 -23 -38
-24 30 -3 68 21 135 18 172 -9 19 -14 19 -15 -5 -6 -14 4 -57 8 -96 7 -161 -2
-238 -116 -138 -203 62 -55 198 -41 260 26 13 14 24 22 24 16 0 -39 -101 -87
-185 -88 -88 0 -123 22 -160 100 -33 72 -45 69 -45 -8 0 -35 -7 -115 -15 -178
-48 -360 12 -737 149 -944 57 -85 57 -85 314 -80 177 3 299 10 392 23 135 19
135 19 183 73 69 76 111 151 149 260 61 177 40 475 -48 689 -57 136 -73 188
-98 306 -21 95 -70 224 -81 212 -2 -2 3 -37 11 -78 18 -96 18 -120 -1 -120 -9
0 -15 9 -15 23 0 36 -45 121 -73 140 -46 30 -74 25 -280 -52 -64 -24 -87 -18
-87 23 0 17 14 29 58 50 143 71 247 91 319 61 36 -15 36 -15 17 6 -56 62 -190
82 -349 54z m274 -246 c194 -41 107 -269 -103 -269 -98 0 -194 115 -172 204
14 56 158 90 275 65z m-483 -104 c31 -47 -6 -115 -64 -115 -31 0 -72 43 -72
75 0 62 102 92 136 40z m85 -91 c-1 -78 -10 -131 -37 -226 -9 -31 -14 -63 -11
-72 9 -23 92 -32 122 -12 26 17 75 22 75 7 0 -26 -191 -34 -216 -9 -17 16 -16
22 10 105 20 65 29 118 33 202 7 128 26 132 24 5z m452 -361 c21 -13 35 -28
31 -34 -4 -6 -14 -4 -30 5 -35 23 -40 21 -80 -39 -119 -181 -341 -227 -503
-105 -57 42 -79 48 -99 28 -6 -6 -15 -9 -19 -5 -10 10 18 57 34 57 8 0 12 -4
8 -9 -11 -19 33 -21 116 -6 80 15 225 35 351 50 72 8 173 75 114 75 -9 0 -16
5 -16 10 0 15 48 1 93 -27z m-295 -519 c46 -32 9 -124 -50 -124 -19 0 -18 3
12 18 45 22 61 63 35 92 -40 45 -178 11 -149 -37 14 -23 67 -29 87 -9 9 9 19
16 24 16 25 -1 -45 -40 -72 -40 -58 0 -74 63 -23 88 34 16 110 14 136 -4z"/>
<path d="M4305 9720 c-90 -22 -108 -37 -101 -82 25 -156 225 -202 331 -76 88
105 -53 203 -230 158z m99 -21 c44 -35 30 -96 -27 -118 -32 -12 -71 0 -81 24
-31 81 42 146 108 94z"/>
<path d="M4322 9694 c-25 -17 -31 -71 -10 -92 16 -16 73 -15 85 1 23 29 23 51
0 23 -47 -58 -112 -5 -68 55 25 33 24 35 -7 13z"/>
<path d="M3880 9631 c-23 -43 2 -91 48 -91 21 0 52 24 52 41 0 6 -7 3 -16 -5
-16 -17 -33 -20 -58 -10 -19 7 -21 55 -4 72 9 9 9 12 0 12 -6 0 -16 -9 -22
-19z"/>
<path d="M4225 9094 c-226 -26 -306 -52 -198 -64 40 -5 43 -7 19 -10 -75 -12
-9 -60 81 -60 84 0 203 42 203 70 0 6 -13 10 -30 10 -16 0 -30 5 -30 10 0 6
22 10 50 10 38 0 52 4 60 19 19 36 28 36 -155 15z"/>
<path d="M4390 9920 c-87 -21 -220 -88 -220 -112 0 -25 10 -23 129 23 163 64
244 54 281 -36 8 -18 9 -17 9 8 3 94 -84 144 -199 117z"/>
<path d="M3673 9791 c-24 -23 -36 -170 -13 -156 6 3 10 22 10 41 0 85 36 99
200 77 97 -13 122 -14 135 -3 42 35 18 41 -220 56 -83 6 -92 4 -112 -15z"/>
<path d="M3592 9563 c-9 -24 -8 -160 2 -198 16 -60 30 30 27 178 -1 39 -16 50
-29 20z"/>
<path d="M5911 8744 c-43 -48 -70 -110 -78 -174 -6 -50 -6 -50 34 -50 35 0
116 -11 179 -25 17 -4 23 1 28 19 13 51 60 87 105 80 41 -7 41 -7 27 40 -30
100 -75 131 -201 143 -61 5 -61 5 -94 -33z"/>
<path d="M2770 8701 c-130 -65 -171 -174 -115 -307 28 -65 28 -65 55 -12 15
29 36 71 48 93 11 22 28 58 38 80 10 22 40 62 66 89 45 47 49 49 90 43 43 -6
43 -6 10 24 -46 41 -95 39 -192 -10z"/>
<path d="M4856 8690 c-21 -88 -92 -213 -170 -298 -36 -39 -38 -43 -15 -38 13
3 67 13 119 22 52 9 98 19 103 23 4 4 0 72 -8 152 -19 181 -20 181 -29 139z"/>
<path d="M5780 8660 c-60 -9 -93 -26 -113 -60 -29 -49 -23 -68 26 -74 116 -14
107 -16 107 23 1 20 7 54 15 76 8 21 13 40 12 40 -1 1 -22 -2 -47 -5z"/>
<path d="M2870 8624 c-33 -28 -74 -98 -67 -117 4 -12 27 9 95 91 49 59 31 75
-28 26z"/>
<path d="M2927 8604 c-23 -25 -74 -78 -113 -117 -54 -56 -73 -83 -84 -121 -17
-60 -19 -59 127 -74 65 -7 179 -19 253 -28 114 -13 203 -14 575 -6 641 13 615
29 -46 28 -534 -1 -534 -1 -709 28 -178 30 -187 32 -178 41 6 6 169 -11 199
-21 13 -3 19 8 28 56 18 88 78 201 118 221 33 16 33 16 -24 28 -89 18 -99 15
-146 -35z"/>
<path d="M3105 8598 c-45 -26 -96 -128 -110 -219 -8 -56 -9 -56 151 -65 128
-8 119 -20 87 121 -34 148 -71 196 -128 163z"/>
<path d="M6132 8563 c-16 -6 -46 -63 -37 -71 3 -3 27 -18 53 -32 47 -25 47
-25 53 -112 8 -123 47 -172 105 -133 86 56 73 321 -16 346 -29 8 -139 10 -158
2z"/>
<path d="M3230 8541 c0 -18 77 -47 249 -96 179 -51 216 -57 216 -35 0 10 -35
22 -124 42 -101 22 -239 63 -328 96 -7 2 -13 -1 -13 -7z"/>
<path d="M3240 8505 c0 0 9 -42 20 -94 10 -51 22 -96 25 -100 4 -3 95 -6 203
-6 197 0 197 0 197 33 0 34 0 34 -95 58 -52 14 -152 44 -222 67 -71 24 -128
43 -128 42z"/>
<path d="M5575 8485 c-38 -7 -145 -26 -237 -41 -166 -28 -166 -28 -148 -64 18
-36 18 -36 187 -35 170 2 170 2 276 72 131 86 111 103 -78 68z"/>
<path d="M5769 8462 c-110 -56 -211 -133 -341 -259 -80 -78 -79 -71 -25 -105
102 -64 98 -73 -60 -126 -100 -34 -108 -39 -106 -62 2 -30 -26 -216 -38 -247
-13 -35 -22 -30 -131 77 -103 101 -103 101 -158 95 -153 -15 -227 -17 -234 -6
-4 6 13 48 39 92 25 45 43 84 40 88 -5 4 -499 3 -635 -2 -57 -2 -63 21 -26
105 32 72 30 71 378 72 257 1 257 1 228 53 -17 29 -30 62 -30 73 0 18 -5 20
-37 15 -21 -3 -121 -14 -223 -26 -247 -27 -262 -31 -310 -88 -49 -56 -123
-206 -180 -365 -24 -66 -51 -127 -61 -137 -10 -10 -87 -34 -190 -59 -96 -23
-179 -47 -186 -53 -10 -10 -37 -137 -30 -143 1 -1 43 9 92 22 112 29 150 30
251 3 170 -45 381 -89 425 -89 58 0 116 -23 124 -50 5 -17 12 -20 33 -16 73
16 498 68 577 72 89 4 89 4 193 106 57 57 138 146 180 198 331 410 544 598
765 676 92 32 92 32 27 62 -129 59 -263 68 -351 24z m-430 -505 c-21 -17 -99
-54 -99 -47 0 5 19 18 43 29 37 17 68 27 56 18z m-839 -124 c225 -100 199
-358 -45 -428 -151 -44 -313 33 -345 163 -48 204 179 359 390 265z"/>
<path d="M4288 7826 c-241 -89 -191 -387 68 -404 208 -13 342 165 231 310 -66
86 -205 130 -299 94z"/>
<path d="M2542 8468 c-95 -21 -202 -155 -238 -298 -20 -77 -14 -417 8 -530 13
-65 13 -65 75 -68 61 -3 61 -3 45 45 -27 84 -23 449 6 533 39 111 124 211 176
209 12 0 15 -3 8 -6 -15 -6 -6 -23 13 -23 11 0 12 7 4 33 -24 74 -41 117 -47
116 -4 -1 -26 -5 -50 -11z"/>
<path d="M3726 8405 c-8 -23 -8 -93 2 -98 4 -3 24 -2 44 2 37 6 37 6 -1 59
-30 41 -40 49 -45 37z"/>
<path d="M5045 8395 c-172 -29 -341 -58 -353 -61 -16 -5 5 -56 58 -142 22 -35
40 -72 40 -82 0 -13 5 -17 15 -14 24 10 18 -8 -45 -129 -33 -62 -60 -117 -60
-120 0 -10 51 -9 172 5 109 12 109 12 207 -86 54 -54 101 -94 104 -90 2 5 7
25 11 44 5 28 4 31 -4 13 -14 -33 -16 -32 -111 63 -86 86 -86 86 -175 75 -49
-6 -110 -11 -137 -11 -48 0 -48 0 -6 78 24 42 51 89 61 104 23 33 23 42 0 76
-11 15 -42 64 -70 110 -60 97 -67 94 116 56 126 -25 126 -25 189 41 35 36 74
70 86 75 32 13 2 11 -98 -5z"/>
<path d="M5122 8364 c-12 -8 -22 -20 -22 -26 0 -6 12 -1 28 13 27 24 27 24 3
-3 -14 -16 -27 -26 -30 -23 -2 3 -26 -15 -51 -40 -51 -51 -55 -51 -246 -11
-35 7 -64 12 -64 11 0 -6 103 -170 116 -186 12 -14 11 -20 -9 -50 -40 -60 -99
-170 -93 -176 5 -6 198 14 230 24 13 4 39 -16 98 -76 44 -45 83 -81 88 -81 9
0 28 77 37 152 6 51 13 55 197 123 38 14 45 20 33 27 -11 6 -36 0 -77 -16 -33
-14 -60 -21 -60 -16 0 5 23 16 52 26 60 20 58 23 -54 80 -36 18 -70 39 -74 45
-4 7 -9 8 -13 1 -3 -6 -6 10 -7 34 -1 25 -6 50 -12 56 -7 7 -12 21 -12 32 0
25 30 -28 49 -86 7 -21 17 -38 23 -38 7 0 7 5 1 13 -5 6 -27 56 -48 110 -40
101 -46 107 -83 81z"/>
<path d="M6070 8347 c-194 -69 -410 -261 -698 -622 -53 -66 -147 -173 -210
-237 -100 -103 -114 -120 -108 -143 19 -77 219 92 452 385 191 240 453 439
631 480 47 11 52 14 47 34 -3 12 -6 45 -7 74 -2 62 -8 63 -107 29z"/>
<path d="M6390 8328 c-1 -108 -73 -166 -170 -137 -141 43 -443 -171 -729 -516
-63 -77 -156 -182 -205 -233 -106 -109 -99 -109 111 12 100 57 154 94 165 114
21 35 122 110 179 132 22 9 39 18 38 21 -28 52 136 271 264 353 95 61 141 71
330 71 167 0 167 0 167 73 0 93 -8 108 -72 127 -72 21 -78 20 -78 -17z"/>
<path d="M5258 8323 c-21 -2 -38 -8 -38 -13 0 -10 47 -151 52 -155 17 -14 160
-96 163 -93 3 2 -21 19 -52 38 -55 34 -55 34 40 126 52 51 92 95 89 98 -6 6
-193 5 -254 -1z"/>
<path d="M2540 8290 c-51 -51 -95 -179 -103 -300 -6 -75 -6 -75 14 -38 22 43
45 58 87 58 34 0 82 -48 82 -81 0 -27 5 -24 45 20 19 21 49 44 66 51 71 30 87
-41 66 -307 -5 -60 -4 -103 1 -103 5 0 12 44 16 98 10 142 19 166 86 233 64
65 66 66 96 40 34 -28 48 -116 40 -258 -8 -139 -17 -125 88 -138 83 -11 173
-44 221 -81 65 -49 76 -44 93 44 17 87 25 77 -79 102 -178 43 -237 62 -241 79
-2 9 -1 66 3 126 29 447 52 400 -202 426 -102 10 -221 25 -265 34 -98 19 -90
19 -114 -5z"/>
<path d="M3755 8237 c-165 -4 -370 -6 -457 -5 -143 3 -155 2 -147 -14 12 -23
12 -234 0 -348 -18 -165 -22 -154 62 -178 275 -78 234 -76 431 -27 185 45 202
53 218 95 34 87 65 182 55 166 -41 -64 -35 -62 -128 -40 -85 21 -113 21 -106
0 2 -6 -3 -17 -10 -25 -16 -15 17 -61 44 -61 21 0 15 17 -13 39 -38 30 -15 26
26 -4 23 -17 37 -22 45 -15 7 5 15 7 18 3 4 -3 7 -2 7 4 0 5 -18 16 -40 23
-22 7 -38 15 -36 18 3 2 25 -3 49 -11 31 -10 48 -12 55 -5 6 6 16 8 24 6 11
-4 -53 -52 -72 -53 -3 -1 -22 -7 -44 -14 -21 -7 -74 -14 -117 -15 -79 -1 -79
-1 -79 -43 0 -23 -5 -45 -11 -48 -17 -11 -49 26 -49 57 0 15 -5 28 -11 28 -8
0 -10 -12 -6 -35 3 -19 2 -35 -3 -35 -13 0 -21 49 -11 69 9 16 5 15 -36 -5
-25 -12 -52 -32 -59 -45 -13 -24 -13 -24 -14 -2 0 12 9 27 20 33 31 16 24 30
-15 30 -65 0 -99 22 -124 79 -30 71 -47 159 -33 173 6 6 8 23 5 39 -4 23 0 30
28 44 108 56 565 72 704 24 77 -27 91 -29 71 -14 -20 15 -19 15 1 15 13 0 35
19 61 54 36 49 38 54 19 53 -12 -1 -156 -6 -322 -10z"/>
<path d="M4239 8163 c-77 -4 -77 -4 -98 -55 -27 -66 -27 -70 11 -66 29 3 34 8
47 51 8 26 20 47 28 47 17 0 17 3 -12 -58 -25 -51 -25 -52 -71 -52 -51 0 -54
12 -18 84 15 31 13 45 -3 24 -15 -20 -43 -107 -35 -112 4 -2 162 -1 350 2 362
5 364 5 347 50 -6 16 -8 15 -23 -3 -13 -16 -31 -21 -74 -23 -65 -3 -65 -3 -40
55 17 42 18 43 62 42 45 -1 45 -1 8 -11 -31 -8 -57 -31 -30 -27 19 3 23 -2 12
-16 -15 -18 -35 -20 -24 -3 4 7 3 8 -4 4 -22 -13 -12 -26 18 -26 20 0 30 5 30
15 0 8 4 15 10 15 5 0 6 -7 3 -17 -4 -11 -3 -14 5 -9 7 4 12 14 12 22 0 8 5
14 10 14 16 0 12 26 -8 43 -17 16 -269 21 -513 10z m101 -32 c0 -11 -4 -22
-10 -26 -5 -3 -8 -11 -6 -18 1 -7 1 -9 -1 -5 -2 4 -10 5 -18 2 -7 -3 -16 -1
-20 5 -3 7 2 11 14 11 12 0 21 6 21 14 0 33 -54 2 -58 -33 -3 -27 0 -33 12
-27 53 21 52 21 37 3 -33 -41 -90 -14 -77 37 10 42 106 75 106 37z m174 -8
c-13 -14 -27 -37 -30 -50 -4 -13 -10 -23 -15 -23 -13 0 -11 17 6 49 8 16 11
31 8 35 -16 15 -31 2 -54 -44 -28 -57 -39 -63 -36 -18 3 51 33 76 94 77 52 1
52 1 27 -26z m78 -5 c6 -36 -9 -68 -30 -68 -10 0 -12 5 -6 18 4 9 8 32 8 50 1
42 22 42 28 0z m-206 -4 c-8 -32 -35 -74 -47 -74 -14 0 -11 11 13 58 26 47 44
56 34 16z"/>
<path d="M3562 8128 c-6 -18 -13 -41 -17 -50 -5 -13 0 -20 20 -28 29 -11 30
-28 9 -138 -7 -34 -7 -34 25 -18 34 18 39 37 16 56 -8 7 -15 18 -15 24 0 6 12
-1 25 -17 25 -28 25 -28 65 -2 22 14 39 30 37 36 -1 6 4 14 11 16 31 12 5 -32
-37 -61 -24 -17 -47 -38 -51 -46 -4 -8 -17 -35 -29 -59 -26 -49 -17 -65 29
-54 33 8 35 10 20 28 -18 21 -30 19 -30 -7 0 -16 -3 -19 -11 -11 -8 8 -5 20
14 45 13 18 23 38 21 43 -13 34 157 89 222 72 10 -2 -2 -5 -28 -6 -27 0 -48
-5 -48 -11 0 -5 -15 -10 -32 -10 -66 0 -60 -16 11 -30 74 -14 101 -7 101 27 0
7 6 16 14 19 8 3 13 11 10 17 -2 7 6 17 17 22 39 18 44 55 8 55 -29 0 -29 0
-12 28 10 15 22 30 28 34 5 4 -2 8 -17 8 -29 0 -45 -14 -28 -25 22 -14 -23
-53 -58 -49 -47 4 -49 8 -24 59 16 32 18 45 9 45 -7 0 -21 -22 -31 -50 -10
-27 -23 -50 -28 -50 -6 0 -7 8 -3 18 15 36 15 56 1 24 -12 -27 -20 -32 -36
-27 -11 4 -20 2 -20 -4 0 -6 -5 -11 -11 -11 -6 0 -8 8 -5 18 6 16 5 16 -7 0
-21 -26 -28 -10 -12 23 19 36 19 45 0 29 -8 -7 -15 -21 -15 -31 0 -20 -45 -48
-57 -35 -4 3 3 29 14 56 24 56 22 60 -23 60 -29 0 -34 -4 -42 -32z m323 -129
c-27 -5 -58 -14 -67 -19 -10 -6 -28 -10 -40 -9 -17 0 -10 5 22 19 25 10 65 19
90 18 45 0 45 0 -5 -9z"/>
<path d="M3404 8124 c11 -44 -2 -84 -28 -84 -19 0 -22 4 -18 25 2 15 0 25 -7
25 -6 0 -11 -9 -11 -19 0 -11 -5 -23 -11 -27 -8 -4 -9 0 -4 15 3 11 2 29 -4
38 -8 15 -10 11 -11 -19 0 -28 -4 -38 -16 -38 -8 0 -13 3 -11 8 3 4 1 16 -4
27 -8 18 -8 17 -6 -5 2 -20 -3 -26 -28 -31 -30 -6 -30 -6 20 -28 96 -41 93
-40 65 -40 -14 0 -49 12 -77 28 -60 33 -62 31 -39 -54 11 -44 16 -50 37 -48
13 2 61 4 106 5 70 3 83 6 87 21 3 14 -4 22 -29 33 -19 7 -37 18 -40 24 -7 12
64 -16 79 -30 12 -12 45 5 74 38 18 22 21 23 16 7 -13 -42 -28 -65 -34 -54
-16 25 -70 -50 -70 -97 0 -47 19 -60 39 -26 9 14 10 10 8 -18 -1 -22 2 -34 9
-33 7 1 11 -10 10 -29 0 -17 5 -33 12 -35 8 -3 12 9 12 44 0 26 9 85 20 131
21 89 27 179 10 152 -8 -13 -10 -12 -10 3 0 13 -8 17 -35 17 -31 0 -35 3 -35
25 0 14 3 25 8 25 4 0 12 11 18 24 11 23 10 25 -17 24 -16 -1 -26 -5 -22 -11
7 -11 6 -88 -2 -95 -2 -3 -11 0 -19 7 -11 9 -15 9 -19 -1 -9 -23 -7 36 2 70 9
29 7 32 -11 32 -17 0 -19 -4 -14 -26z m-38 -191 c-7 -7 -97 -5 -105 3 -2 2 22
4 54 4 32 0 55 -3 51 -7z"/>
<path d="M3701 8143 c11 -3 15 -12 12 -31 -1 -15 0 -20 3 -12 4 8 11 23 16 33
7 14 4 17 -19 16 -15 -1 -21 -3 -12 -6z"/>
<path d="M3750 8130 c0 -11 -4 -20 -9 -20 -5 0 -11 -9 -14 -20 -3 -11 -1 -18
4 -14 5 3 9 0 9 -6 0 -6 5 -8 10 -5 6 3 10 11 10 16 0 6 -4 7 -10 4 -5 -3 -10
-2 -10 4 0 10 37 35 52 36 3 0 10 4 15 9 5 5 3 6 -4 2 -7 -4 -13 -2 -13 3 0 6
-9 11 -20 11 -13 0 -20 -7 -20 -20z"/>
<path d="M2062 8108 c-55 -20 -142 -94 -142 -118 0 -8 14 -1 33 17 46 45 77
54 139 43 28 -6 53 -8 56 -5 3 2 -14 7 -37 11 -23 4 -43 10 -46 14 -2 4 18 3
44 -1 56 -9 126 -41 139 -65 6 -11 11 2 15 46 4 34 4 66 1 71 -10 17 -147 9
-202 -13z"/>
<path d="M3328 8121 c13 -3 29 -17 36 -30 13 -24 13 -24 18 2 7 34 2 37 -41
36 -29 -1 -32 -2 -13 -8z"/>
<path d="M6325 8120 c-171 -17 -420 -172 -486 -302 -39 -77 -4 -64 145 52 155
120 244 157 405 171 352 29 602 -193 645 -571 2 -19 2 3 0 50 -12 284 -272
569 -542 595 -31 3 -68 7 -82 9 -14 1 -52 -1 -85 -4z m214 -50 c35 -6 84 -22
110 -36 47 -25 38 -24 -34 5 -29 11 -74 16 -167 16 -69 0 -125 1 -124 2 3 4
106 20 131 22 11 0 49 -4 84 -9z"/>
<path d="M3259 8112 c-11 -5 -14 -13 -9 -27 7 -19 7 -19 14 3 6 19 10 21 22
11 11 -9 14 -8 14 5 0 17 -14 19 -41 8z"/>
<path d="M3844 8096 c-18 -27 -18 -42 1 -26 8 7 15 19 15 28 0 11 5 10 19 -7
19 -22 19 -22 17 3 -1 30 -31 31 -52 2z"/>
<path d="M6182 8110 c-43 -10 -148 -65 -187 -98 -37 -31 -29 -28 60 22 38 22
96 50 130 62 60 23 59 29 -3 14z"/>
<path d="M2004 8016 c-27 -12 -54 -36 -40 -36 10 0 96 40 96 45 0 9 -23 5 -56
-9z"/>
<path d="M2073 8001 c-17 -11 -51 -25 -75 -31 -65 -18 -111 -45 -146 -85 -45
-50 -42 -52 51 -38 132 20 244 18 307 -6 65 -25 59 -31 51 54 -6 70 -6 70 -60
98 -65 32 -85 33 -128 8z"/>
<path d="M6452 8005 c-15 -18 -68 -20 -78 -4 -19 32 -177 -20 -295 -96 -94
-61 -93 -63 19 -63 265 1 494 -188 566 -466 9 -33 18 -61 21 -64 21 -21 260
80 296 126 57 73 -27 300 -159 424 -122 114 -325 193 -370 143z"/>
<path d="M2480 7958 c-34 -55 -43 -106 -37 -213 8 -143 17 -165 73 -165 44 0
44 0 46 53 1 52 1 52 7 -3 12 -112 26 -1 26 207 0 94 -2 103 -24 127 -34 36
-67 34 -91 -6z"/>
<path d="M2678 7938 c-14 -18 -28 -42 -32 -53 -11 -29 -36 -287 -29 -298 6 -9
131 -3 141 8 8 8 25 303 18 329 -3 13 -14 26 -23 29 -10 2 -25 8 -34 12 -12 4
-24 -3 -41 -27z"/>
<path d="M2880 7874 c-30 -49 -37 -79 -43 -205 -4 -77 -4 -77 71 -83 47 -5 79
-3 85 3 6 6 11 68 11 145 1 129 0 135 -23 160 -38 40 -66 34 -101 -20z"/>
<path d="M3254 7882 c-39 -12 -10 -56 54 -82 29 -11 35 -10 53 6 19 17 20 17
13 -2 -6 -17 -5 -17 9 -4 22 20 47 72 41 82 -6 9 -139 9 -170 0z m136 -26
c-14 -8 -28 -12 -32 -10 -4 2 -25 0 -47 -5 -23 -5 -41 -5 -41 -1 0 5 21 12 48
15 26 4 52 8 57 10 27 9 37 3 15 -9z"/>
<path d="M3595 7878 c-29 -15 -45 -39 -45 -65 0 -35 24 -28 54 17 37 57 34 72
-9 48z"/>
<path d="M1889 7826 c-37 -6 -82 -22 -102 -36 -35 -24 -35 -24 -8 -41 97 -59
38 -138 -134 -180 -28 -6 -53 -15 -58 -18 -4 -4 118 -6 270 -6 264 2 430 11
437 24 2 3 -3 47 -10 96 -7 50 -13 98 -13 107 -1 24 -66 55 -130 64 -41 5 -51
4 -49 -7 4 -16 -174 -126 -217 -134 -25 -5 -32 -2 -42 19 -13 30 -7 33 17 11
17 -16 55 -10 45 6 -3 5 -25 14 -48 20 -42 11 -42 11 -17 31 28 23 121 22 143
-2 10 -10 8 -11 -8 -5 -31 13 -106 18 -116 8 -5 -5 10 -18 36 -32 47 -25 61
-20 168 66 28 23 28 23 5 23 -13 0 -32 -7 -42 -15 -26 -19 -42 -19 -26 0 15
18 -4 19 -101 1z"/>
<path d="M3403 7803 c-7 -15 -12 -28 -10 -29 6 -7 25 13 31 34 10 31 -6 28
-21 -5z"/>
<path d="M5970 7804 c-19 -8 -37 -18 -40 -23 -3 -4 -33 -18 -68 -30 -34 -13
-65 -28 -69 -34 -4 -7 0 -8 13 -2 10 4 44 17 74 28 30 12 58 25 61 29 8 12
156 41 174 34 25 -9 42 -59 48 -137 5 -77 5 -77 -91 -119 -54 -23 -116 -51
-139 -61 -56 -25 -64 -24 -98 11 -94 98 -193 74 -525 -130 -25 -16 -61 -31
-80 -35 -81 -16 -142 -56 -82 -54 33 1 78 17 50 18 -10 1 -18 6 -18 12 0 26
272 -18 365 -59 33 -15 67 -26 75 -25 9 2 10 0 3 -3 -8 -3 5 -20 35 -44 87
-69 192 -204 192 -244 0 -6 -16 15 -36 48 -110 183 -254 272 -484 300 -55 7
-55 7 10 -16 387 -136 471 -615 147 -833 -61 -41 -48 -45 67 -15 254 65 399
247 366 457 -21 129 -104 246 -220 309 -36 19 -54 32 -40 28 248 -66 368 -426
208 -629 -26 -33 -31 -36 222 115 432 259 474 290 527 396 81 164 19 410 -146
574 -122 121 -374 189 -501 134z"/>
<path d="M6037 7780 c-139 -42 -277 -114 -277 -145 0 -25 -31 -45 -68 -45 -20
0 -46 -7 -56 -15 -19 -15 -19 -15 1 -15 12 0 25 5 28 10 20 33 125 1 187 -58
27 -25 27 -25 118 13 49 21 95 44 101 51 6 8 15 11 21 8 5 -3 20 2 33 10 23
15 25 21 19 74 -13 122 -26 136 -107 112z m63 -9 c0 -5 -11 -12 -25 -15 -14
-4 -24 -10 -24 -14 3 -18 -2 -26 -9 -14 -7 9 -18 5 -47 -18 -21 -16 -42 -30
-48 -30 -20 0 118 98 141 99 6 1 12 -3 12 -8z m22 -114 c3 -42 3 -42 -77 -47
-78 -5 -80 -6 -83 -33 -2 -18 -13 -32 -34 -43 -38 -20 -43 -14 -21 24 24 41 8
54 -23 19 -13 -16 -29 -25 -34 -22 -17 11 -11 25 15 37 29 13 32 23 9 32 -9 4
-36 -5 -62 -19 -25 -14 -48 -23 -51 -19 -3 3 2 10 12 15 9 6 17 18 17 28 0 23
26 45 69 60 41 13 54 7 18 -10 -25 -12 -25 -12 6 -40 29 -27 32 -27 49 -12 25
22 23 33 -7 33 -14 0 -25 4 -25 9 0 5 23 8 50 8 55 -1 65 -15 28 -41 -22 -16
-22 -16 12 -15 39 0 124 16 98 18 -9 0 -28 15 -42 32 -16 18 -31 28 -38 23 -7
-4 -5 2 5 12 18 19 19 18 49 -18 45 -56 65 -46 33 16 -13 24 -13 31 -3 37 15
10 25 -19 30 -84z"/>
<path d="M5806 7644 c-4 -9 -4 -19 -1 -22 6 -6 35 18 35 29 0 16 -28 10 -34
-7z"/>
<path d="M1648 7716 c-95 -34 -118 -75 -79 -135 11 -17 153 25 202 60 81 57
-13 114 -123 75z"/>
<path d="M5644 7615 c-36 -34 -37 -35 -9 -22 17 8 36 12 43 10 7 -3 12 5 12
21 0 33 1 33 -46 -9z"/>
<path d="M2643 7553 c-21 -3 -30 -9 -27 -17 8 -20 -49 -36 -127 -36 -75 0
-124 14 -113 31 8 14 -144 5 -275 -16 -354 -57 -516 -458 -312 -772 96 -148
259 -233 372 -196 54 18 531 251 757 370 92 48 196 101 232 118 78 36 81 41
38 64 -73 39 -136 163 -124 244 10 64 58 141 101 161 20 10 35 19 33 21 -22
22 -435 43 -555 28z"/>
<path d="M2423 7543 c-56 -11 -10 -33 68 -33 50 0 109 17 109 31 0 9 -134 10
-177 2z"/>
<path d="M1580 7513 c-46 -9 -78 -42 -118 -125 -143 -296 -82 -671 146 -893
129 -125 187 -133 362 -46 110 55 126 71 72 71 -31 0 -139 58 -182 96 -91 83
-162 223 -182 363 -29 197 81 413 257 508 60 32 60 32 -135 31 -107 0 -206 -3
-220 -5z"/>
<path d="M3207 7495 c-76 -26 -99 -67 -100 -176 -1 -196 145 -273 343 -182 36
17 87 35 114 42 27 7 75 23 106 36 70 30 238 55 363 55 147 0 159 4 155 53 -3
40 -3 40 -138 69 -74 15 -182 40 -239 54 -123 31 -153 32 -251 5 -106 -30
-186 -28 -219 3 -44 42 -90 56 -134 41z m83 -45 c14 -10 21 -22 17 -26 -4 -4
-20 4 -35 19 -31 31 -19 36 18 7z"/>
<path d="M6938 7381 c-31 -21 -97 -51 -145 -65 -48 -15 -94 -29 -100 -31 -8
-3 -13 -22 -13 -48 0 -155 -79 -256 -312 -401 -43 -26 -78 -50 -78 -53 0 -14
267 6 315 23 224 79 390 297 403 527 5 99 7 98 -70 48z"/>
<path d="M4225 7367 c-21 -72 -13 -93 29 -71 16 7 37 14 47 14 39 0 9 46 -39
59 -24 7 -34 7 -37 -2z"/>
<path d="M1353 7334 c-243 -165 -193 -571 91 -733 67 -39 73 -39 43 2 -13 17
-36 55 -52 82 -15 28 -43 66 -61 85 -87 92 -89 216 -9 444 30 86 51 156 47
156 -4 -1 -30 -17 -59 -36z"/>
<path d="M4725 7344 c-93 -13 -189 -23 -212 -24 -24 0 -43 -2 -43 -4 0 -2 15
-35 34 -73 58 -117 80 -234 91 -493 6 -135 31 -421 41 -451 3 -11 44 -26 137
-48 72 -18 140 -35 149 -38 14 -3 11 9 -17 69 -122 260 -102 866 36 1059 26
36 23 36 -216 3z"/>
<path d="M4955 7332 c-150 -227 -148 -921 4 -1102 39 -47 70 -37 110 34 41 71
41 100 -1 116 -18 8 -41 20 -51 28 -34 29 -32 0 5 -69 43 -81 42 -86 -6 -23
-68 89 -117 277 -117 447 0 184 23 301 94 471 30 74 38 102 30 115 -19 29 -41
24 -68 -17z"/>
<path d="M4325 7284 c-27 -7 -99 -22 -160 -33 -60 -11 -175 -38 -255 -61 -179
-51 -299 -69 -334 -51 -52 28 -170 -39 -210 -121 -53 -108 -56 -208 -11 -306
32 -69 107 -106 390 -190 390 -117 851 -240 860 -230 2 2 0 33 -5 68 -5 36
-14 116 -19 178 -5 63 -11 115 -13 118 -2 2 -62 10 -134 19 -330 39 -394 48
-394 53 0 3 26 2 58 -1 204 -23 421 -48 445 -53 27 -6 27 -6 27 58 0 193 -35
388 -91 503 -35 74 -50 78 -154 49z m-783 -493 c95 -11 227 -25 293 -32 125
-12 190 -27 126 -28 -19 -1 -84 6 -145 14 -61 8 -178 22 -261 30 -141 15 -240
32 -203 34 9 1 94 -8 190 -18z"/>
<path d="M5051 7252 c-55 -17 -131 -277 -131 -448 0 -56 16 -63 155 -71 297
-16 599 68 579 162 -25 123 -144 273 -261 328 -64 30 -75 32 -193 34 -69 1
-136 -1 -149 -5z"/>
<path d="M3855 7243 c-112 -16 -255 -67 -238 -84 14 -14 114 4 278 50 140 40
140 40 65 39 -41 -1 -88 -3 -105 -5z"/>
<path d="M1342 7082 c-16 -69 -16 -194 0 -210 16 -16 39 -15 32 2 -3 8 -9 70
-13 137 -7 124 -7 124 -19 71z"/>
<path d="M3297 7015 c-100 -112 -98 -241 5 -315 55 -40 59 -38 31 19 -42 84
-33 221 21 317 36 64 11 55 -57 -21z"/>
<path d="M3165 7017 c-92 -48 -101 -55 -113 -92 -79 -250 -131 -315 -247 -315
-58 0 -85 25 -84 78 1 37 1 37 11 -5 11 -49 30 -59 104 -50 53 6 86 32 119 97
29 57 79 199 73 205 -12 13 -326 -161 -342 -188 -24 -42 -22 -157 4 -207 30
-59 46 -64 215 -65 181 0 194 5 309 115 79 76 79 76 52 103 -83 83 -76 269 13
335 83 61 11 54 -114 -11z"/>
<path d="M1340 6841 c0 -4 12 -18 27 -32 21 -19 25 -20 20 -6 -4 10 -7 22 -7
27 0 4 -9 10 -20 13 -11 3 -20 2 -20 -2z"/>
<path d="M5580 6783 c-68 -31 -215 -69 -295 -76 -42 -4 -49 -3 -25 2 21 5 -11
6 -80 4 -63 -3 -148 -1 -189 4 -73 10 -73 10 -66 -51 17 -157 72 -237 187
-271 216 -64 490 87 537 295 29 132 26 137 -69 93z"/>
<path d="M6300 6750 c58 -11 110 -12 110 -2 0 4 -35 8 -78 8 -67 2 -71 1 -32
-6z"/>
<path d="M2635 6698 c-15 -112 -10 -161 19 -195 34 -39 40 -26 13 28 -18 35
-22 60 -21 127 1 92 -2 102 -11 40z"/>
<path d="M6202 6727 c-5 -7 -19 -46 -31 -87 -12 -41 -51 -151 -86 -245 -35
-93 -78 -210 -96 -260 -17 -49 -44 -116 -60 -148 -27 -53 -28 -58 -12 -64 10
-3 25 -12 34 -20 22 -18 26 -7 237 537 59 151 97 269 90 274 -17 15 -68 23
-76 13z"/>
<path d="M2603 6723 c-7 -3 -13 -16 -13 -29 0 -14 -9 -43 -21 -66 -59 -115 38
-262 137 -209 35 18 36 20 14 21 -92 1 -152 143 -110 256 12 30 11 33 -7 27z"/>
<path d="M6042 6638 c-67 -40 -122 -77 -122 -83 0 -5 -32 -82 -70 -169 -77
-179 -78 -168 7 -216 105 -59 96 -63 138 53 21 56 55 145 75 197 32 80 101
290 96 290 0 0 -56 -33 -124 -72z"/>
<path d="M2488 6668 c-79 -36 -77 -26 -48 -189 26 -143 61 -252 113 -351 40
-76 57 -97 37 -44 -5 15 -10 35 -9 44 0 9 6 1 12 -18 48 -143 202 -316 327
-368 55 -22 78 -28 88 -20 7 6 36 17 65 23 40 10 47 14 32 19 -118 41 -139
109 -50 162 44 25 58 44 32 44 -24 0 -87 61 -87 84 0 37 35 72 85 86 54 15 48
26 -26 54 -100 36 -76 141 37 162 34 6 48 24 19 24 -8 0 -30 14 -48 30 -34 29
-38 30 -134 30 -100 0 -100 0 -129 -42 -144 -204 -68 -492 161 -617 37 -20 37
-21 10 -16 -145 29 -292 275 -270 451 7 59 49 154 89 202 39 45 20 39 -99 -33
-43 -26 -71 -31 -95 -15 -12 8 -13 11 -1 19 8 5 9 11 3 15 -6 3 -15 -6 -21
-21 -10 -28 -10 -28 -9 7 0 19 -12 57 -26 84 -31 59 -32 89 -6 157 28 70 25
72 -52 37z"/>
<path d="M3259 6601 c-30 -27 -52 -51 -49 -53 3 -2 84 -1 180 2 167 5 173 6
130 19 -25 7 -75 29 -112 47 -86 43 -85 43 -149 -15z"/>
<path d="M5805 6503 c-44 -26 -119 -63 -167 -83 -88 -36 -88 -36 -60 -57 44
-33 180 -123 185 -123 4 0 60 127 124 278 17 42 13 41 -82 -15z"/>
<path d="M3140 6489 c-24 -16 -50 -29 -57 -29 -17 0 -17 -15 0 -28 7 -5 178
-14 412 -21 220 -6 443 -14 495 -16 110 -5 119 -9 -158 72 -183 53 -183 53
-415 52 -232 -1 -232 -1 -277 -30z"/>
<path d="M3165 6380 c-4 -6 6 -10 22 -10 63 0 799 -20 933 -25 108 -4 139 -2
120 6 -41 17 -1065 45 -1075 29z"/>
<path d="M5385 6368 c-60 -5 -141 -10 -178 -11 -68 -2 -68 -2 -87 -57 -24 -70
-37 -55 215 -234 393 -280 398 -282 483 -193 42 45 141 213 130 221 -2 2 -33
19 -70 38 -68 36 -68 36 -119 -63 -29 -54 -65 -110 -82 -126 -31 -29 -29 -19
9 32 36 50 104 180 104 201 0 12 -18 30 -48 49 -26 16 -87 58 -136 92 -49 35
-94 62 -100 62 -6 -1 -60 -6 -121 -11z m253 -229 c64 -22 63 -104 -2 -136 -72
-34 -119 53 -65 121 23 30 25 30 67 15z"/>
<path d="M5592 6104 c-37 -26 -21 -104 21 -104 8 0 7 4 -2 9 -11 7 -9 10 10
13 40 5 60 55 30 79 -28 23 -31 23 -59 3z"/>
<path d="M3108 6330 c-65 -12 -101 -68 -64 -99 38 -32 397 -54 1686 -106 135
-5 135 -5 90 36 -70 63 -74 65 -270 108 -185 40 -185 40 -710 56 -557 16 -673
17 -732 5z"/>
<path d="M5041 6194 c-41 -29 -46 -29 -141 -4 -93 24 -113 25 -78 2 40 -26
366 -294 503 -413 192 -168 177 -165 291 -57 74 71 74 71 10 108 -60 35 -351
244 -480 344 -68 53 -61 51 -105 20z"/>
<path d="M3160 6161 c0 -19 1309 -83 1625 -80 177 2 138 6 -180 19 -451 18
-703 30 -1077 50 -196 11 -359 20 -362 20 -3 0 -6 -4 -6 -9z"/>
<path d="M3087 6110 c-90 -27 -72 -88 35 -115 335 -86 1963 -143 1963 -69 0 6
-30 37 -66 68 -66 56 -66 56 -227 56 -163 0 -841 28 -1345 55 -308 17 -320 17
-360 5z"/>
<path d="M3140 5952 c0 -11 22 -14 330 -47 501 -53 1484 -90 1505 -55 4 7 -86
10 -263 10 -498 0 -1250 47 -1539 95 -18 3 -33 2 -33 -3z"/>
<path d="M3080 5913 c-64 -24 -67 -77 -6 -103 193 -86 934 -163 1581 -164 326
-1 364 1 408 17 70 27 79 83 20 123 -31 20 -44 21 -460 27 -591 9 -970 34
-1493 101 -19 3 -42 2 -50 -1z"/>
<path d="M5116 5901 c-3 -4 -26 -14 -51 -21 -59 -17 -63 -25 -16 -39 52 -15
101 -71 101 -115 0 -37 -54 -96 -88 -96 -10 -1 -1 -9 20 -21 45 -23 71 -69 66
-115 -5 -43 24 -50 156 -39 50 4 140 11 200 14 110 6 110 6 153 116 24 61 52
131 62 158 29 71 0 63 -75 -21 -34 -37 -82 -79 -107 -92 -53 -28 -48 -31 -270
163 -138 120 -142 123 -151 108z"/>
<path d="M5891 5873 c-5 -21 -21 -85 -36 -143 -15 -58 -30 -114 -35 -125 -19
-42 -28 -95 -19 -101 14 -8 13 -10 59 101 93 221 103 272 60 295 -17 9 -20 6
-29 -27z"/>
<path d="M5813 5838 c-70 -71 -121 -181 -92 -199 15 -9 89 -12 89 -4 0 3 16
61 35 127 20 67 34 125 33 130 -2 5 -31 -20 -65 -54z"/>
<path d="M3151 5740 c124 -72 1384 -174 1777 -143 146 11 88 18 -120 14 -460
-8 -1231 53 -1568 124 -85 18 -114 19 -89 5z"/>
<path d="M3036 5694 c-52 -52 1 -89 205 -143 288 -76 655 -117 1270 -142 489
-19 642 10 615 117 -13 49 -36 54 -211 43 -400 -24 -1256 37 -1693 121 -124
24 -166 25 -186 4z"/>
<path d="M2947 5616 c-56 -31 -50 -69 18 -113 58 -38 50 -44 -11 -9 -42 24
-42 24 -47 -38 -5 -61 -5 -61 36 -99 23 -21 60 -48 82 -61 128 -74 415 -236
443 -250 35 -18 88 -10 126 19 20 15 20 15 0 15 -81 1 -329 176 -365 257 -14
33 -30 49 -70 70 -79 43 -144 97 -162 136 -20 41 -22 83 -4 90 6 3 8 5 2 5 -5
0 -27 -10 -48 -22z"/>
<path d="M5675 5576 c-21 -56 -21 -55 48 -65 55 -7 55 -7 65 41 11 55 10 56
-51 64 -44 6 -44 6 -62 -40z"/>
<path d="M3010 5592 c0 -35 113 -69 390 -117 163 -28 452 -66 490 -64 14 1
-56 12 -155 25 -333 44 -614 103 -680 144 -35 22 -45 24 -45 12z"/>
<path d="M3061 5504 c50 -52 158 -101 284 -129 353 -78 842 -116 1120 -85 175
20 580 73 585 77 14 13 -29 19 -78 10 -61 -10 -422 -3 -662 12 -273 18 -395
24 -390 18 3 -3 95 -10 205 -16 292 -17 598 -41 604 -46 13 -14 -611 19 -874
46 -295 30 -682 98 -788 138 -43 17 -44 14 -6 -25z"/>
<path d="M5640 5471 c-6 -12 -24 -24 -40 -28 -25 -4 -28 -8 -20 -24 25 -45 -3
-141 -59 -207 -25 -29 -104 -64 -209 -92 -45 -12 -82 -26 -82 -31 0 -12 23
-12 36 0 9 8 221 59 342 82 72 14 66 5 142 186 54 126 57 117 -42 128 -51 6
-57 5 -68 -14z"/>
<path d="M5504 5428 c3 -13 6 -37 6 -54 0 -26 5 -33 26 -37 43 -8 45 52 4 93
-27 27 -44 26 -36 -2z"/>
<path d="M5331 5426 c-73 -11 -73 -11 -53 -36 19 -24 19 -24 112 -8 103 19
103 19 94 42 -7 19 -41 19 -153 2z"/>
<path d="M5146 5419 c3 -6 -1 -10 -12 -9 -11 1 -32 2 -49 1 -29 -2 -29 -2 -11
-16 22 -17 73 -20 95 -6 17 11 7 41 -14 41 -9 0 -13 -5 -9 -11z"/>
<path d="M5205 5388 c-21 -48 -670 -132 -1015 -133 -196 0 -196 0 -192 -58 6
-76 2 -78 -312 -124 -38 -5 -38 -5 -7 -36 40 -40 59 -40 375 13 274 46 379 63
801 125 290 43 355 55 383 74 19 12 27 84 12 111 -10 18 -10 21 2 14 7 -4 4 2
-6 14 -24 28 -29 27 -41 0z"/>
<path d="M3230 5371 c0 -29 79 -111 152 -159 178 -117 231 -129 433 -98 165
25 178 31 171 74 -3 20 -6 44 -6 53 0 14 -15 18 -72 24 -221 20 -468 58 -605
94 -40 11 -73 16 -73 12z"/>
<path d="M5370 5365 c-41 -8 -76 -14 -76 -14 -1 -1 -4 -21 -6 -45 -4 -52 -8
-52 142 -9 81 23 106 33 82 33 -6 0 -12 10 -14 23 -4 27 -26 30 -128 12z"/>
<path d="M5508 5299 c-21 -10 -84 -30 -140 -44 -113 -26 -128 -38 -128 -96 0
-38 0 -38 40 -24 23 8 72 24 110 35 79 23 122 55 151 111 22 44 19 46 -33 18z"/>
<path d="M2941 5220 c-86 -109 -132 -233 -156 -419 -35 -283 -65 -766 -65
-1069 0 -194 0 -194 30 -168 38 31 88 41 140 28 45 -11 44 -14 55 208 3 63 12
196 20 295 8 99 19 261 25 360 15 256 38 424 72 539 45 155 47 142 -20 215
-59 65 -59 65 -101 11z"/>
<path d="M3047 5245 c12 -16 84 -102 160 -190 155 -181 206 -247 349 -454 54
-80 123 -170 151 -202 93 -100 262 -169 415 -169 77 0 77 0 67 28 -5 16 -30
44 -55 63 -88 65 -109 136 -79 266 21 91 38 123 97 179 186 178 486 294 769
298 114 1 149 -14 149 -65 0 -36 39 -111 54 -106 29 9 105 291 85 312 -3 2
-52 -4 -110 -15 -57 -10 -192 -31 -299 -45 -275 -37 -264 -34 -271 -75 -6 -35
-6 -35 -8 -2 -1 31 -3 33 -28 28 -16 -3 -46 -7 -68 -10 -22 -3 -161 -26 -310
-50 -380 -63 -386 -63 -429 -36 -20 12 -39 28 -44 36 -6 11 -16 11 -60 -6 -68
-26 -79 -25 -143 8 -68 35 -344 192 -384 218 -30 19 -30 19 -8 -11z m2072
-169 c44 -23 34 -30 -13 -11 -21 9 -63 20 -94 25 -57 9 -57 9 8 6 36 -2 81
-11 99 -20z m-638 -81 c-379 -156 -584 -422 -487 -630 22 -48 85 -115 108
-115 6 0 9 -3 6 -6 -18 -17 -93 47 -122 104 -76 150 -4 339 183 480 126 95
322 200 376 201 11 0 -18 -15 -64 -34z"/>
<path d="M3104 5084 c-53 -127 -87 -385 -114 -859 -5 -93 -14 -233 -19 -310
-25 -357 -27 -335 39 -385 32 -25 96 -79 142 -121 89 -82 329 -219 383 -219
38 0 50 40 69 225 21 198 58 467 97 690 38 224 39 217 -19 280 -27 29 -82 102
-122 162 -150 220 -281 393 -407 536 -34 38 -34 38 -49 1z m537 -1085 c25 -47
-10 -159 -49 -159 -52 0 -61 103 -13 151 35 35 47 36 62 8z"/>
<path d="M3580 3968 c-23 -39 -26 -77 -6 -103 28 -38 75 43 61 105 -9 39 -30
38 -55 -2z"/>
<path d="M4775 5029 c-130 -24 -155 -31 -155 -44 0 -7 20 -84 45 -170 25 -87
61 -219 80 -294 19 -75 58 -219 88 -321 56 -190 163 -561 191 -661 16 -56 16
-56 60 -46 104 24 261 -63 366 -202 33 -44 56 -67 58 -58 4 19 -179 805 -259
1112 -106 407 -178 605 -244 671 -27 27 -125 32 -230 13z"/>
<path d="M4515 4966 c-137 -53 -283 -144 -355 -222 -72 -79 -56 -174 111 -630
147 -403 268 -777 330 -1021 8 -34 18 -53 27 -53 23 0 118 107 172 195 57 92
94 135 168 195 65 53 75 -8 -84 535 -69 237 -150 525 -180 640 -95 362 -102
385 -117 385 -7 -1 -39 -11 -72 -24z"/>
<path d="M4077 4551 c-11 -54 -8 -110 7 -139 15 -29 53 -68 60 -61 4 3 -38
166 -56 221 -3 7 -8 -2 -11 -21z"/>
<path d="M2803 3569 c-125 -36 -189 -359 -129 -649 40 -195 83 -278 167 -320
47 -25 47 -26 20 105 -48 227 -52 469 -11 733 11 74 20 136 20 138 0 6 -32 3
-67 -7z"/>
<path d="M2885 3558 c-47 -147 -55 -618 -12 -831 15 -76 27 -140 27 -141 0
-21 144 30 205 72 40 28 45 30 27 10 -33 -36 -108 -74 -174 -88 -51 -12 -57
-15 -62 -44 -13 -64 -26 -800 -14 -807 6 -4 38 -12 72 -19 55 -11 328 -93 611
-184 64 -21 111 -31 113 -26 10 30 73 108 103 128 35 24 88 27 133 7 35 -15
13 124 -79 505 -47 195 -108 456 -135 579 -27 123 -57 234 -65 247 -9 13 -57
45 -108 70 -145 73 -195 114 -296 239 -150 186 -329 333 -346 283z"/>
<path d="M5095 3463 c26 -67 115 -549 155 -843 27 -199 21 -186 71 -158 299
168 285 751 -24 950 -82 53 -216 86 -202 51z"/>
<path d="M5007 3439 c-124 -82 -257 -311 -257 -441 1 -137 108 -360 221 -462
78 -70 111 -84 259 -110 14 -3 -5 -3 -42 -1 -190 12 -362 198 -430 466 -22 87
-22 87 -63 28 -40 -58 -40 -58 -23 -246 9 -103 28 -352 43 -553 26 -379 62
-783 71 -812 4 -13 12 -9 47 23 104 98 314 206 505 261 42 12 78 22 80 24 3 2
-32 185 -88 459 -45 223 -80 421 -115 670 -44 309 -130 725 -150 725 -6 0 -32
-14 -58 -31z"/>
<path d="M3626 3331 c-4 -33 -4 -72 0 -87 5 -18 3 -25 -4 -20 -14 8 -42 -45
-41 -76 1 -20 2 -21 6 -3 3 11 9 24 14 29 5 5 4 -6 -2 -25 -6 -19 -13 -42 -16
-52 -8 -27 -23 -1 -23 39 0 29 -3 32 -42 37 -24 3 -92 31 -152 62 -59 31 -110
54 -113 51 -3 -2 30 -40 74 -84 79 -79 253 -182 287 -169 44 17 73 206 46 303
-18 63 -27 62 -34 -5z"/>
<path d="M4707 3070 c-27 -33 -56 -60 -64 -60 -11 0 -13 -7 -7 -32 15 -74 19
-76 47 -27 20 34 79 179 73 179 0 0 -23 -27 -49 -60z"/>
<path d="M5551 2915 c-3 -216 -80 -379 -218 -457 -29 -17 -53 -35 -53 -41 0
-7 16 -88 36 -182 19 -93 54 -268 77 -387 24 -119 45 -219 48 -222 2 -3 47 2
99 10 107 18 269 23 347 11 52 -8 52 -8 33 48 -39 112 -209 721 -285 1020 -77
299 -83 315 -84 200z"/>
<path d="M2677 2784 c-4 -4 -7 -26 -7 -49 0 -43 -52 -626 -70 -785 -16 -136
-14 -159 13 -164 12 -2 69 -13 126 -25 58 -11 107 -19 109 -16 2 2 8 142 12
312 5 169 12 353 16 409 7 101 7 101 -40 124 -52 25 -96 76 -130 153 -12 26
-25 45 -29 41z"/>
<path d="M3936 1855 c4 -22 12 -87 18 -145 11 -96 40 -180 63 -180 3 0 3 42 0
93 -6 101 -36 208 -68 247 -20 25 -20 25 -13 -15z"/>
<path d="M2545 1749 c-12 -34 -45 -187 -45 -210 0 -30 28 -43 165 -79 44 -11
88 -23 98 -26 15 -5 17 2 17 58 0 56 27 189 43 215 7 12 -119 41 -210 50 -48
5 -64 3 -68 -8z"/>
<path d="M2841 1677 c-18 -47 -42 -184 -39 -219 4 -38 12 -41 423 -134 102
-23 287 -53 350 -56 60 -3 60 -3 81 97 12 55 21 100 20 101 -6 3 -472 146
-591 181 -203 60 -232 63 -244 30z"/>
<path d="M3804 1616 c-30 -13 -69 -56 -93 -103 -6 -12 -23 -75 -36 -139 -28
-128 -26 -157 14 -263 10 -28 15 -49 11 -46 -10 6 -35 72 -50 133 -10 38 -14
42 -41 42 -32 0 -33 -14 -4 -85 31 -77 131 -138 199 -121 62 15 144 121 177
227 25 80 26 233 3 283 -29 59 -123 97 -180 72z m113 -82 c89 -56 78 -272 -20
-407 -124 -168 -241 100 -142 322 45 100 95 126 162 85z"/>
<path d="M3801 1495 c-106 -121 -76 -420 41 -403 69 10 140 241 109 356 -25
89 -94 111 -150 47z"/>
<path d="M5650 1625 c-8 -2 -54 -9 -102 -15 -53 -7 -88 -17 -88 -24 0 -16 66
-286 72 -291 2 -2 46 4 98 15 112 23 308 35 364 23 43 -9 61 -33 26 -33 -18 0
-21 -4 -17 -22 3 -13 11 -67 18 -121 12 -99 12 -99 43 -93 61 12 69 58 37 211
-32 149 -91 308 -121 322 -52 25 -258 42 -330 28z"/>
<path d="M5355 1571 c-211 -62 -367 -143 -502 -260 -67 -57 -69 -64 -43 -158
33 -122 30 -120 141 -65 156 78 422 177 507 189 28 4 41 10 38 18 -2 7 -17 71
-31 141 -33 157 -33 154 -42 153 -4 0 -35 -8 -68 -18z"/>
<path d="M2590 1442 c0 -23 32 -111 43 -121 28 -22 50 10 42 61 -6 40 -11 48
-38 57 -36 13 -47 14 -47 3z"/>
<path d="M2694 1404 c3 -9 6 -22 6 -30 0 -19 17 -18 46 5 24 19 24 19 -7 30
-43 15 -52 14 -45 -5z"/>
<path d="M2768 1354 c-26 -19 -113 -73 -193 -119 -146 -83 -146 -83 -108 -95
52 -17 149 -66 203 -104 103 -70 290 -274 290 -315 0 -17 34 -14 282 29 257
43 488 90 588 118 65 19 65 19 68 100 2 45 1 82 0 82 -2 0 -21 -9 -43 -20
-116 -59 -255 17 -286 157 -7 29 -17 53 -22 53 -63 0 -393 66 -629 125 -114
29 -93 31 -150 -11z"/>
<path d="M4686 1334 c-19 -19 -19 -32 -1 -159 25 -179 73 -355 97 -355 6 0 7
16 4 38 -3 20 -8 65 -11 99 -4 34 -24 129 -44 212 -21 83 -36 151 -34 151 19
0 91 -287 107 -426 6 -57 15 -105 19 -105 53 -7 67 9 67 78 0 83 -15 143 -36
143 -30 0 -80 146 -99 293 -7 52 -36 65 -69 31z"/>
<path d="M5775 1303 c-161 -20 -162 -20 -157 -77 3 -33 0 -56 -7 -60 -8 -5
-11 10 -11 50 0 57 0 57 -52 50 -152 -20 -550 -164 -580 -210 -4 -6 -8 -95 -8
-197 0 -221 0 -221 121 -306 77 -53 77 -53 102 -10 97 165 360 311 600 333 85
7 206 -13 300 -51 31 -12 57 -21 57 -19 0 3 -32 52 -70 109 -39 58 -90 144
-114 192 -65 129 -65 129 -107 108 -34 -17 -34 -17 -7 7 26 23 48 58 48 77 0
11 -50 12 -115 4z"/>
<path d="M5933 1293 c3 -10 16 -55 30 -101 39 -131 49 -128 32 7 -12 91 -22
110 -54 111 -8 0 -11 -7 -8 -17z"/>
<path d="M2275 1107 c-95 -46 -170 -131 -205 -233 -39 -111 -32 -120 106 -148
212 -42 764 -51 764 -12 0 43 -169 227 -273 298 -160 109 -295 141 -392 95z"/>
<path d="M3930 871 c-57 -34 -706 -159 -980 -190 -308 -35 -705 -13 -886 48
-55 18 -55 18 -52 -43 3 -61 3 -61 54 -78 142 -47 408 -73 659 -64 228 8 255
12 255 37 0 29 22 34 42 9 20 -25 34 -24 188 6 105 21 110 23 110 44 0 30 21
35 40 10 20 -26 44 -25 193 6 61 14 77 21 77 35 0 28 20 33 42 12 19 -20 22
-20 96 -3 174 38 182 43 182 116 0 35 -1 64 -2 64 -2 0 -10 -5 -18 -9z"/>
<path d="M5675 835 c-149 -32 -302 -112 -395 -205 -44 -43 -110 -153 -99 -164
33 -34 559 -58 776 -36 132 13 294 45 335 66 26 14 26 14 13 64 -38 143 -138
227 -326 274 -78 19 -219 20 -304 1z"/>
<path d="M4894 648 c-10 -16 53 -69 155 -129 105 -63 114 -57 19 13 -40 30
-87 71 -105 91 -33 38 -56 46 -69 25z"/>
<path d="M4894 549 c9 -68 24 -84 136 -143 90 -47 90 -47 90 -1 0 28 4 44 10
40 6 -3 10 -20 10 -36 0 -49 16 -66 82 -88 253 -82 951 -60 1095 34 35 23 35
131 1 120 -183 -59 -345 -78 -648 -79 -399 -1 -512 24 -709 157 -74 50 -74 50
-67 -4z"/>
</g>
</svg>
