<?xml version="1.0" encoding="utf-8"?>
<!-- Generator: Adobe Illustrator 29.8.7, SVG Export Plug-In . SVG Version: 9.03 Build 0)  -->
<svg version="1.0" id="JESSIE" xmlns="http://www.w3.org/2000/svg" xmlns:xlink="http://www.w3.org/1999/xlink" x="0px" y="0px"
	 viewBox="0 0 962 1010" style="enable-background:new 0 0 962 1010;" xml:space="preserve">
<style type="text/css">
	.st0{fill:#AA622D;}
	.st1{fill:#291617;}
	.st2{fill:#D9D8C7;}
	.st3{fill:#EECF00;}
	.st4{fill:#0A3061;}
	.st5{fill:#E1B3A5;}
	.st6{fill:#A6120C;}
</style>
<path id="CONTORNO" d="M898.6,627.9c-12.4-16.9-29.4-23.4-48.5-18.4c-7.6,1.9-9.2,1.1-11-6c-0.8-3.2-2.2-5.3-5.2-7.7
	c-15.2-12.1-19.2-17.5-31.9-42.5c-13.5-26.8-17.3-29.8-37.5-29.8c-16.2,0-20.3,1.2-46.7,14.2c-10.4,5.1-19.2,9.3-19.4,9.3
	c-0.2,0,0.7-1.7,2-3.8c4.6-7,6.9-15.8,7-26.8c0.1-10.2,0.1-10.2,3.6-9.6c2,0.3,4.3,1.6,5.4,2.9c2.1,2.8,5,4.1,11.6,5.3
	c2.5,0.5,7,1.8,10.1,2.9c3,1.1,8.5,2.3,12.2,2.7c6.5,0.7,6.7,0.6,9.6-2.5c3-3.2,3-3.2,9.8-2.3c9.5,1.3,10.8,0.6,13.2-7.4
	c3.2-10,2.8-15-1.3-19.9c-3.4-4-3.4-4-1.1-8.5c6.4-12.7,9.8-35.7,5.7-39.3c-4-3.6-10.2-2-13.7,3.6c-5.6,9-11,14.9-16.6,18.4
	c-5.7,3.5-5.7,3.5-13.8-3.1c-4.5-3.6-13.3-9.6-19.4-13.2c-6.2-3.7-11.3-6.8-11.5-7c-0.2-0.1,0.5-4.4,1.6-9.6c5.5-25.9,6.2-55.6,2-91
	c-1.5-12.1-2-19.4-1.3-19.1c0.5,0.4,2.8,1.8,5,3.3c21.8,14.7,40.5,19.3,59,14.5c26.8-7,38-32.1,23.5-52.6c-2.2-2.9-2.2-2.9,1.6-8.7
	c9.6-14.3,1.4-34.5-21.5-53.5c-4.7-3.9-12.5-10.8-17.2-15.4c-6.2-6-9.4-8.3-11.2-8.3c-3.2,0-8.3,4.2-9.1,7.6
	c-0.4,1.4-1.2,2.4-1.9,2.1c-0.7-0.2-4.9-1.7-9.4-3.3c-6.6-2.3-8.3-3.4-8.8-5.2c-0.8-3.3-9-11.8-14.3-14.9c-10.2-6-21.3-7.6-32.5-4.7
	c-7.7,2-11.7,0.9-11.7-3.2c0-4.3-3-14.4-6-20.4c-11.2-22.2-59.6-39.8-52.9-19.3c0.6,2.1,2.9,7.6,5,12.2c3.1,6.6,3.7,8.7,2.8,10.3
	c-0.9,1.7-1.3,1.4-3.5-2.9c-3.4-6.9-7.6-10.8-10.2-9.4c-6.5,3.5-6.6,20.7-0.1,31.9c1.8,3.2,1.8,3.2-0.1,2.2c-4.7-2.5-15-0.5-15,2.9
	c0,1.8,4.5,6.3,12.3,12.4c4.5,3.5,10.1,8.7,12.4,11.5c4.3,5,4.3,5,2,9.9c-2.3,4.9-2.3,4.9-4.1-0.8c-3.8-12-15.9-26-27.8-32
	c-7.3-3.7-23-8.9-26.7-8.9c-7.5,0-7.7,9.9-0.7,24.7c9.9,20.8,21.4,30.6,43.1,36.8c12.7,3.6,13.7,6.2,4.7,11.8
	c-11.8,7.3-22.4,21.6-22.6,30.6c-0.1,4.4,1.1,4.5,10.4,0.5c6.7-2.8,15.6-3.7,21.3-2.1c4.8,1.3,3.7,5.5-2.9,10
	c-12.7,8.8-26.4,31.6-26.4,43.9c0,4.1,2.3,3.6,12-2.2c4.6-2.8,8.9-5,9.6-5s1.9-0.3,2.8-0.6c1.4-0.5,1.6,0.4,1.6,6c0,6.6,0,6.6-3,6.6
	c-5.2,0-9.7,2.5-12.1,6.8c-2.3,3.9-2.4,3.9-11.8,5.6c-19.2,3.3-23.1,2.8-43.6-5.1c-9.9-3.8-20.8-8-24.2-9.3
	c-3.5-1.2-6.3-2.8-6.3-3.4c0-3.1-23.5-14.6-36.8-18c-7.5-2-10.1-2-12.2-0.1c-1.5,1.4-2.7,0.9-11.8-4.6c-6-3.5-10.9-5.9-11.8-5.5
	c-0.9,0.4-1.8-0.2-2.3-1.7c-0.8-1.9,0.3-3.3,8.3-10.8c7.1-6.7,10-10.3,12.6-15.5c1.9-3.8,4-7.4,4.7-7.9c2.7-2.2,4.5-8.7,3.8-13.9
	c-0.9-6.5-4.2-14.4-6.4-15.1c-1.4-0.4-1.6-2.4-1.8-13.2c-0.1-13.9-2.3-28.6-5.3-36.6c-7.6-20.1-30.1-28.4-49.9-18.6
	c-6.4,3.2-6.9,3.3-9.7,1.9c-1.9-1-5.9-1.5-12-1.5c-29.9,0-53.8,34.2-49.6,71c0.9,7.9,0.8,10.1-0.4,13c-4.2,10.1,1.8,22.2,13.2,26.5
	c3,1.1,5.8,1.9,6.3,1.7c0.5-0.1,2.4,2,4.3,4.8c1.9,2.7,8.2,9.3,13.9,14.5c9.6,8.7,15.3,14.9,14.6,15.7c-0.2,0.2-6.4-1.7-13.8-4.1
	c-7.4-2.4-17.1-5-21.7-5.6c-7.4-1.1-8.9-1.7-13.5-5.4c-2.9-2.3-10.7-8.4-17.4-13.4c-12-9.1-12.2-9.2-10.9-11.8c2-3.8,1-6-4.5-9.5
	c-2.7-1.7-5.9-4.3-7-5.7c-0.4-0.51-0.82-0.89-1.24-1.17c-0.03-0.03-0.05-0.07-0.08-0.1c-0.06-0.06-0.14-0.1-0.22-0.13
	c-0.01-0.01-0.03-0.01-0.04-0.02c-0.7-0.3-1.32-0.74-1.92-1.2c-0.67-0.52-1.33-1.06-2.07-1.47c-1.84-2.12-6.91-6.11-8.13-6.11
	c-0.5,0-3-1.8-5.5-4c-5.4-4.8-6.6-4.9-11.1-0.9c-3.5,3-3.5,3-6.5-2.9c-3-6-3-6,4.3-13.3c4-4.1,8.6-8.3,10.1-9.5
	c2.2-1.6,2.9-3.1,3.6-7.8c0.4-3.1,2.2-8.7,3.9-12.3c2.7-5.5,3.1-7.3,2.5-10.7c-0.4-2.3-0.9-5.6-1.2-7.5c-0.3-1.9,0-5.7,0.7-8.5
	c1.1-4.8,1-5.6-1.4-11.3c-2-4.9-2.7-8.3-3-16.1c-0.3-8-0.9-10.8-2.9-14.8c-3.2-6.4-5.5-13.7-6.7-20.7c-0.5-3.6-2.3-8-4.8-12.2
	c-2.2-3.6-5.9-10.9-8.2-16.3c-2.4-5.3-6.5-12.6-9.1-16.2c-2.7-3.6-6.5-9.8-8.5-13.8c-2.9-6-4.2-7.6-7-8.8c-1.9-0.8-5.2-3-7.2-4.8
	C201.7,27.4,199.9,26,197.5,26c-1.4,0-7.1-2.3-12.7-5c-8.1-4-11.2-5-15.3-5c-6.5,0-20.4-2.5-25.1-4.5c-4.4-1.8-3.8-1.8-9.4,0.8
	c-3.7,1.7-6.7,2.1-16.8,2.3c-11.8,0.2-12.5,0.3-17.2,3.2c-2.6,1.6-5.9,3.3-7.2,3.7c-1.2,0.4-4.1,1.5-6.3,2.6c-2.2,1-6,2.3-8.4,2.9
	c-4.2,1.1-9.1,5.1-9.1,7.5c0,1.2-8.3,8.7-18.8,17.2C48.4,54,47,56,46.5,58.6c-0.3,2.1-2,5.7-3.6,8C41.3,69,40,71.2,40,71.7
	s-1.2,2.6-2.7,4.8c-1.6,2.3-2.8,5.6-2.9,8c-0.4,5.4-3.6,16.4-5.8,19.7c-1.4,2.1-1.6,3.6-1.1,6c1,4.3,0.8,17.6-0.4,22.9
	c-0.8,3.6-0.7,4.7,1,7c2.6,3.6,6.2,15.3,6.4,20.8c0.1,2.8,0.8,4.7,1.8,5.3c2.8,1.5,12.3,14.1,13.1,17.3c1.2,5,3.4,7.4,7.7,8.5
	c4.6,1.3,14.3,8.3,19.2,14c3.6,4.3,7.1,6,12,6c3.8,0,17.6,5.3,22.9,8.8c2.6,1.7,6,2.7,11,3.2c4,0.5,8.7,1.3,10.3,1.9
	c1.7,0.5,6.4,2.2,10.5,3.7c5.8,2.1,10.3,2.8,19.5,3.4c6.6,0.4,13.6,1.3,15.5,2c9.4,3.5,12.2,4,20.6,4c9,0,9,0,10.2,4.4
	c2.6,9.9,14.8,20.2,26.2,22.1c3.8,0.6,3.8,0.6,2.3,3.5c-1.1,2.4-1.2,3.4-0.2,5.2c3.4,6.5,21.6,29,27.4,34c2.7,2.3,3.4,2.2,6.6-0.8
	c2.8-2.7,2.8-2.7,6.2,0.3c5.8,5.1,17.7,11.9,33.7,19.3c8.5,3.9,19.3,9.1,24,11.5c11.8,6,24.2,10.9,32.8,13c7.2,1.7,7.2,1.7,3.5,6
	c-3.5,4-12.4,9.4-18.2,11c-2.4,0.7-2.4,0.7-0.3-2c5.7-7.2,2.2-11.3-8.6-10.1c-4.2,0.4-6.2,0.2-7.6-0.9c-2.6-2-5.1-1.9-8.7,0.2
	c-3.6,2.2-3.7,4.8-0.3,9.8c2.1,3.1,2.2,3.6,0.7,3c-1-0.4-5.2-1-9.4-1.2c-9.2-0.6-10.6,0.6-11.3,9.7c-0.2,3-0.7,6.3-1.1,7.3
	c-1.6,3.9,15,7.9,22.5,5.3c2.1-0.7,1.9-0.2-1.8,3.6c-9.1,9.4-7.4,13.8,5.4,13.7c4.3-0.1,10,0.2,12.5,0.6c8.3,1.2,10.5-6.1,4.4-14.1
	c-3.3-4.3-3.2-4.4,1.2-3.2c15.6,4.3,37.3-6.5,49.9-24.7c3.8-5.5,3.8-5.5,6.8-1.8c6.5,7.9,10.4,11.4,18.9,16.7c4.8,3,9.2,5.6,9.7,5.8
	c0.5,0.2,0.3,2.6-0.5,5.3c-3.3,12.9,1.9,21.5,13.1,21.5c4.4,0,4.4,0,4.4,4.3c0,2.4,0.5,4.8,1.1,5.4c0.9,0.9,0.8,2-0.1,4.5
	c-1.9,5.3-2.4,23.4-0.7,29.4c1.3,5.2,1.3,5.2-5.4,5.6c-17.4,1.3-31.9,14.6-31.9,29.4c0,3.7-11.5,15.8-17.3,18.2
	c-4.3,1.8-7.7,5.1-7.7,7.5c0,1.1-1.3,3.5-3,5.4c-3,3.4-4.1,8.5-2,9.8c0.6,0.4-0.3,2.2-2.1,4.3c-3.1,3.7-3.1,3.7-13.7-1.5
	c-36.8-18.1-74.7-10.7-99.9,19.6c-7.6,9.2-9.2,12.6-7,14.9c1.7,1.6,2.2,1.5,10.8-1.5c9-3.2,9-3.2,6.1,0.5
	c-21.6,27.7-28.5,75.4-13.5,93.2c5.3,6.4,5.9,5.6,14.8-21.5c5.3-16.3,13.5-36.5,14.8-36.5c0.2,0-0.7,4.6-2,10.3
	c-1.6,6.9-2.2,12.6-2.1,17.7c0.4,11.7,2.1,10.8,14.8-8.2c14.4-21.6,22.4-30.4,33.9-37.1c3-1.8,3-1.8,0.3,4c-3,6.4-3.9,19.2-1.5,20
	c1.9,0.7,11.3-8.7,20-19.9c7.8-10,7.8-10,8.5-0.9c2,29.3,13.2,52.5,33.9,70.5c3.5,3.1,8.7,6.6,11.6,7.8c6.2,2.7,6.2,2.4,2.3,14.5
	c-7.6,23.7-5.9,72.3,3.3,93.7c1.5,3.6,1.8,5.1,0.9,5.4c-12.3,4.1-54.8,36.5-66.8,51c-10.5,12.6-13,23.7-6.7,30
	c1.8,1.7,2.6,3.6,2.5,5.2c-0.5,4.9-2.5,11.6-5.3,17.5c-4.8,9.9-6.7,31.6-3.1,34.7c9.8,8.7,87.5,15.3,107.5,9.2
	c7.8-2.3,8.4-3.7,6.9-16c-2.4-19.1-10.1-32.2-22.2-37.8c-2.8-1.3-6.6-4.1-8.4-6.2c-3.4-3.9-3.4-3.9-0.9-6.8c2.1-2.5,2.4-3.7,2-7.6
	c-0.5-4.5-0.5-4.5,8.2-13.5c25.2-26.2,37-53.3,35.8-82.5c-0.9-23-8.7-59.1-16.2-75.6c-1.9-4.2-3.5-7.8-3.5-8s4.9-0.4,10.9-0.4
	c10.9,0,10.9,0,11.6,9.8c2,26.1,20.5,55.8,44.3,70.9c3.1,2,5.9,3.7,6.1,3.9c0.1,0.1-3.8,4.9-8.8,10.6
	c-18.3,20.5-35.1,50.1-35.1,61.5c0,4.8,2.1,10.4,4.6,12.8c2.9,2.7,2.1,9.9-2.2,19.7c-5.2,12-7.1,29-3.5,32.2
	c7.7,7,54.4,14.4,83.9,13.3c22.3-0.8,26.2-2.6,26.2-12c-0.1-17.5-10.5-36-23.2-41.3c-2.7-1-4.8-2.4-4.8-3c0-0.6-1.7-3.1-3.8-5.5
	c-3.9-4.3-3.9-4.3-1.4-6.4c3-2.6,3.1-6.4,0.6-16.4c-2.1-8.5-1.4-12.4,4.7-25.6c9.5-20.7,10.9-28,7-38.7c-1.1-2.9-2.6-7.8-3.5-10.8
	c-3.4-12.3-15.3-32.4-28.8-48.8c-6.8-8.3-6.9-8.5-1.2-17.5c3.6-5.7,3.6-5.7,6.5-1.7c5.6,7.7,13.2,10.1,19,6c2.8-2.1,2.8-2.1,5.9,4
	c4.1,8.2,5.7,8.8,16.5,6.5c6.8-1.4,9.1-1.5,11.1-0.6c3.9,1.7,14.3,1.3,18.9-0.8c3.7-1.7,11.5-9.1,11.5-10.9c0-0.5,4.2-2.8,9.4-5.1
	c13.7-6.2,14.2-6.9,12.9-18.1c-1.2-10.6-2.4-12.4-9.7-14.5c-4.9-1.4-5.2-1.7-7.4-7.3c-3.9-10.1-7.6-15-13.5-17.7
	c-2.8-1.4-4.7-2.5-4-2.5s3.6-2,6.6-4.4c6.2-5,1.9-6.4,36.8,12c20,10.6,26,13.3,33.2,14.8c2.7,0.6,2.7,0.6,0.3,5.4
	c-1.3,2.6-4,8.7-6,13.5c-6.4,15.4-9.6,19.1-26.3,30c-17.8,11.5-19.6,15.4-13.8,28.9c0.4,1.2,0.3,1.8-0.5,1.8
	c-4.1,0-25.2,17.6-32.7,27.3c-5.4,7-5.4,7.7,2.4,19.7c19.3,29.6,52.5,58,74.5,63.6c11.8,3.1,17.1,0.8,22.2-9.4
	c9.4-18.6,9.4-37.5,0-52.3c-1.5-2.5-2.6-6-3-9.7c-0.5-5.7-0.5-5.7,4.8-8.2c7.4-3.5,10.2-7.7,17-25.2c13.8-35.7,16.1-59,8.1-85.5
	c-1.4-4.8-2.9-10.9-3.3-13.5c-0.5-3.9-1.5-5.5-5.6-9.5c-3.8-3.7-14.5-17.9-16.2-21.4c-0.1-0.4,1.6-0.9,3.9-1.3
	c8.5-1.4,25.6-8.3,30-12.2c1.5-1.3,1.8-0.6,3.3,7.3c8.8,44.3,19.2,67.5,31.6,69.9c2.5,0.5,3,1.2,3.5,4.3c1.1,7.1,3.8,14.7,8.6,24.1
	c12.6,24.9,21.6,25.2,59.5,2.5c25.9-15.5,44.2-32.3,52-47.7C905.2,638.7,904.8,636.3,898.6,627.9z M587.1,391.1
	c-10.2,14.3-11.6,15.3-17.6,12.4c-3.3-1.7-7.6-2.7-12.7-3.1c-4.3-0.4-7.8-0.8-7.8-1c0-0.1,1.2-2.5,2.7-5.4
	c3.7-7.1,2.6-10.4-3.5-10.8c-5.2-0.4-13.5,2.2-17.9,5.4c-3.6,2.7-3.6,3,1,10.6c2.9,4.8,2.9,4.8,0,7.2c-3.4,3.1-4.3,3.2-3.6,0.7
	c0.8-3-1.6-16.1-3.5-19.3c-0.9-1.5-2.9-3.4-4.4-4c-1.9-0.9-2.8-2.2-3.3-4.6c-0.3-1.8-0.9-4-1.2-4.8c-0.3-0.8-0.2-1.4,0.2-1.4
	c1.2,0,25.3,5.8,31.7,7.7c4.3,1.2,7.3,1.4,12.5,0.8c8.2-0.9,12.4-1,22.3-0.6C594.2,381.5,594,381.3,587.1,391.1z"/>
<g id="MARRON_CLARO">
	<path class="st0" d="M648.2,570c-9.8-1.3-16.4-0.4-28.1,4c-5.8,2.1-8.8,2.7-9.5,2c-0.7-0.7-0.5-1,0.7-1c1,0,5.7-1.6,10.5-3.5
		c11.5-4.7,19.9-6,29.4-4.5c15.9,2.4,13.7,2.9,18.9-4.2c13.5-18.2,16.8-34.5,12.4-59.8c-0.4-2.4-0.3-3,0.3-2c2,3,3.5,17,2.9,27.2
		c-0.7,13.6-5.3,26.3-13.8,38.1c-3.5,4.9-3.6,5.7-0.5,5.7c4.7,0,14.2-10.9,23.2-26.7c11.3-19.8,11.8-33.7,2.2-56.6
		c-2.2-5.2-3.2-5.7-4.8-2.7c-1.2,2.3-6,5-8.9,5c-1.6,0-6.7-2-19.7-7.6c-0.8-0.4-1.3,2.6-1.6,9.3c-0.8,16.6-5.4,24.8-22.8,40.5
		c-10.8,9.9-41,32.3-41,30.5c0-0.2,2.8-2.4,6.3-4.7c39.4-27.4,53.4-42.9,55.8-61.9c1.6-13.4,1.1-14.7-8.1-20.9
		c-8.9-6-27.1-21.4-34.5-29.2c-2.9-3.1,0.3-0.7,7.5,5.6c22.4,19.6,43,32.8,54.2,34.9c4.2,0.8,3.8,1.6,12.7-25.9
		c13-40.1,15.4-76.3,8.2-123.5c-1.7-11.3-2.9-20.6-2.7-20.9c0.6-0.5,1.1,2.7,4.1,21.8c7.8,51.6,5.6,79.3-10.5,129.6
		c-6.8,21.5-6.7,20.8-4,19.4c5.4-2.9,12.1-18.6,18-42.4c9.5-37.7,10.7-63.4,5-110.6c-1.1-9.1-2-17-2-17.5c0-0.6-1.3-1.9-3-2.8
		c-2.8-1.7-3.1-1.7-9.2,0.4c-25.5,8.9-55.8-2.3-68.2-25.1c-3.6-6.6-2.7-7.5,1.4-1.5c7.9,11.4,20,20.5,32.4,24
		c7.4,2.2,25.6,1.6,32.8-1c4.7-1.7,4.7-1.7,0.3-7.1c-4.9-6-6.8-11.4-5.9-16.4c0.7-3.1,6.6-10.3,9.1-11.1c1-0.3,1-2.1-0.2-8.2
		c-3.6-19-1.3-25,13.2-34.4c12.8-8.2,28.2-19.7,27.9-20.7c-0.1-0.5-3.5-2.3-7.4-3.9c-7.2-2.8-7.2-2.8-9.8-0.8
		c-12.9,10.2-37.7,6.5-52.4-7.7c-5.4-5.2-6-7.4-3.5-12.2c1.8-3.5,1.5-3.6-6.5-1.1c-10.1,3.2-14.5,6.5-13.3,9.8
		c0.3,0.7-0.3,1.3-1.1,1.3c-0.9,0-2,0.8-2.3,1.7c-1,2.7-2.1,3.1-6.7,2.6c-2.8-0.4-5.3,0-7.3,1c-4.7,2.5-14.1,13.2-15.4,17.7
		c-1.2,3.9-0.5,6.7,1,4.2c0.4-0.7,0.5,1.6,0.3,5c-0.3,5.1-0.8,6.6-2.7,8.1c-2.3,1.7-2.3,1.8-0.8,8c8.4,35.5,7.5,81-2.3,110.5
		c-4.9,14.7-16.5,34.9-25.9,45.1c-3,3.4-5.5,6.5-5.5,7s-3.1,2.1-6.9,3.5c-15.6,6-24.4,14.4-31,29.6c-0.9,2.1-7.3,11.2-15.8,22.8
		c-2.3,3-2.3,3,9.5,12.4c6.4,5.2,13.4,10.7,15.5,12.3c4.7,3.5,8.6,11.1,11.6,22.5c9.1,34.4,13.6,47.8,23.6,70.6
		c5.1,11.5,16,33.5,18.4,37.3c1,1.5,16.1-8.7,16.1-10.9c0-0.5-3.8-3.6-8.3-6.9c-12.1-8.7-23.6-21.5-21.4-23.7
		c0.3-0.3,3.8,2.8,7.8,6.8c14,13.9,18.4,16.7,62.6,40.2c17,9,30.1,14.6,34.6,14.6c1.8,0,1.8-0.1-0.2-3.4c-1.2-1.8-2.1-4-2.1-4.7
		c0-0.8,1.8,1.5,4,5.1c4.1,6.7,5,9.1,2.6,7.1c-2.9-2.5-6.3,2.3-11,15.6c-5.2,14.7-12.6,23.7-28.1,34.3
		c-18.7,12.7-20.2,17.1-9.9,29.7c3.5,4.3,3.5,4.3,14.2-4.6c11.9-9.9,20.4-18.5,24.7-24.9c2.5-3.8,4.7-6,2.9-3
		c-4.8,8.2-12.7,16.8-25.8,27.8c-12.2,10.3-12.2,10.6-0.1,18.9c21.6,14.9,38.6,17.9,47.8,8.3c5-5.2,16.4-34.5,20.3-52.2
		c3.3-14.9,2.1-37.9-2.8-53c-2.6-8.1-3.1-8.7-6.2-6.7c-2.9,2-12.8,5.8-13.4,5.3c-0.4-0.5,8.5-4.6,9.9-4.6c1.7,0,6.9-5.3,6.9-7.1
		c0-1-1.1-2.6-2.5-3.5c-1.4-0.9-6.3-6.8-11-13C696,589,671.7,573.2,648.2,570z M644.9,209.8c7.3-2.4,24.2-2,31.4,0.8
		c10.7,4.2,18.8,13,17.3,19c-1.9,7.4-19.6,18.3-33.3,20.4c-18.1,2.8-36.3-7.3-36.3-20.3C624,223.1,634.2,213.4,644.9,209.8z
		 M590.5,421c-4.4-4.4-7.7-8-7.5-8c0.3,0,4.1,3.6,8.5,8c4.4,4.4,7.7,8,7.5,8C598.7,429,594.9,425.4,590.5,421z M699.5,673.7
		c-2,5.4-7.3,16.3-7.9,16.3c-0.2,0,1.6-4.4,4-9.8c2.4-5.3,4.4-10.3,4.4-11.1s0.3-1.1,0.6-0.8C701,668.7,700.5,671.1,699.5,673.7z
		 M703.6,657.9c-0.3,3.5-0.9,6.8-1.4,7.3c-0.4,0.4-0.4-1.9,0.2-5.3c0.8-4.5,0.7-6.8-0.3-9.2c-2.3-5.6-2.3-7.3,0-3.3
		C703.9,650.8,704.2,652.4,703.6,657.9z"/>
	<path class="st0" d="M492.8,390.2c-6,4.5-4.5,15.1,2.7,19.8c3.4,2.3,7.5,0.9,7.5-2.5c0-3.9-2.1-14-3.2-15c-1.1-1.1-0.7,2.4,0.8,6
		c0.6,1.7,0.5,1.8-0.7,0.8c-1.3-1.1-1.5-0.4-1.3,5c0.3,5.7,0.2,5.9-0.6,2.2c-0.5-2.2-0.9-6.9-0.8-10.5
		C497.4,389.1,496.2,387.6,492.8,390.2z"/>
	<path class="st0" d="M477.5,395.5C460,399.3,462,397.7,462,408c0,6.6,0.3,9,1.3,9c0.6-0.1,7.4-1.6,15-3.3
		c13.5-3.2,13.8-3.3,11.8-5.1c-3.1-2.8-4.5-8-3.2-11.8C488.3,392.8,489.1,392.9,477.5,395.5z"/>
	<path class="st0" d="M458,418.8c2-0.3,2.3-0.8,2.2-4.6c0-2.3-0.1-6.5-0.1-9.2c-0.1-4.7-1.2-6.3-2.6-4c-0.3,0.5-0.9,4.8-1.2,9.6
		C455.7,419.1,455.7,419.2,458,418.8z"/>
	<path class="st0" d="M755.8,492c15.2,0,15.4-0.2,23.3-23c5.5-16.1,6.2-26.3,1.7-26.8c-1.9-0.2-3.1,0.3-4.1,2
		c-0.8,1.3-2.7,4.3-4.2,6.7c-4.3,7-10.4,12.9-17.2,16.7c-4.2,2.4-6.3,4.2-6.3,5.4c0,1.1-1.2,5-2.6,8.7c-1.4,3.7-2.8,7.6-3.1,8.5
		C742.8,491.9,743.8,492,755.8,492z"/>
	<path class="st0" d="M774.6,489.6c-0.8,2.2-0.9,2.1,2.5,3.3c4.3,1.5,4.3,1.5,1.9-1.9C776.6,487.6,775.5,487.3,774.6,489.6z"/>
	<path class="st0" d="M732.5,504c-2.8-0.9-3.9-0.9-5.7,0.4c-1.2,0.9-3.2,1.6-4.3,1.5c-1.9,0-1.9-0.1,0.3-1.1
		c1.2-0.6,2.2-1.4,2.2-1.8c0-0.6-20.4-11-21.5-11c-0.2,0,0.4,2.4,1.4,5.2c1.8,5.3,1.8,5.3,7.7,5.3c5.7,0,5.9,0.1,6.2,2.8
		c0.6,5.4,10.9,7.8,15,3.4C736.7,505.6,736.6,505.4,732.5,504z"/>
	<path class="st0" d="M747.8,509.6c-9.5-3.4-9.5-3.4-11.2,0.1c-1.6,3.4-1.6,3.4,2,4.9c3.5,1.5,3.9,1.4,6.6-0.6
		c2.8-2,2.9-2.1,1.9-0.2c-1.4,2.6-0.6,3.2,4.4,3.2c3.9,0,7.7-2.2,6.3-3.6C757.5,513.1,753,511.4,747.8,509.6z"/>
	<path class="st0" d="M791.4,632.6c-4.4-3.7-14-16.3-13.1-17.2c0.2-0.3,1.6,1.4,3,3.8c1.4,2.4,5.5,7.2,9.1,10.8
		c6.6,6.4,6.6,6.4,9.8,3.3c5.7-5.4,24-18.2,29.9-21.1c6.3-3,6.4-3,4.8-8.5c-0.7-2.7-2.1-4.4-5.1-6.3c-11.1-7-18.3-16.4-28.8-37.4
		c-15-29.9-18.3-33-36-32.9c-7.1,0-11.7,0.6-18,2.5c-13.3,3.9-52.1,23.3-55.1,27.5c-1.3,1.9-5.2,6.6-8.6,10.6
		c-4.8,5.5-5.9,7.3-4.7,7.7c8.2,3.1,37.5-7.4,54.4-19.5c4.1-3,8.9-6.2,10.5-7.2c5.8-3.5-2.3,2.9-11.8,9.4
		c-15,10.1-30.9,16.7-45.5,18.8c-4.4,0.6-4.4,0.6,1.4,4.6c3.2,2.2,8,5.9,10.7,8.2c5.8,5.2,7.9,5.4,20.2,1.8
		c9.3-2.7,14.6-5.1,21.3-9.7c4.1-2.9,4.2-3,4.2-8.8c0-7.7,1.6-8.6,2.3-1.2c1.2,13.3,14.3,63.4,18.9,72.5
		c3.1,6.3,14.1,16.7,15.1,14.5c3.4-7,5.9-10.8,10.2-16.1C795.8,636.3,795.8,636.3,791.4,632.6z M757.3,539c-0.3,1.1-0.9,2-1.3,2
		c-0.5,0-1.7,1.5-2.9,3.2c-1.1,1.8-2.1,2.6-2.1,1.9c0-1.7,4.9-9.1,6-9.1C757.5,537,757.6,537.9,757.3,539z M764.6,577.7
		c-0.5,0.5-2.6-9.2-2.5-11.5c0.1-0.9,0.7,1.2,1.5,4.7S764.8,577.5,764.6,577.7z M777.6,613.8c-0.5,0.4-2.7-4.4-5.2-11.2
		c-1.6-4.5-1.8-6.2-0.2-2.6c0.6,1.4,2.2,4.9,3.5,7.9S777.8,613.5,777.6,613.8z"/>
	<path class="st0" d="M512.5,651.9c-5-5.9-7.9-11.1-12.4-22c-5.8-14.4-10.6-29.4-16.1-50.7c-1.3-5.1-2-5.2-10.6-1.2
		c-12.9,6.1-25,6.2-42.3,0.4c-5-1.7-8.3-2.3-10.7-1.8c-4.2,0.8-6.1-0.6-7-5.1c-0.4-2.5-1.4-3.7-3.7-4.6c-4.9-2-11.7-9.4-11.7-12.7
		c0-1.9-1.1-3.9-3.6-6.3c-2-1.8-4.2-4.6-5-6.2c-2-3.8-2.5-3.5-6.6,3.5c-21.9,37.5-8.8,91.6,28.4,116.6c6.4,4.4,7,4.1,4.4-2.6
		c-3-7.6-3.8-11-2.7-11.6c0.5-0.3,1.1,1.1,1.5,3.2c0.3,2,2.1,7,4.1,11c4.2,8.8,4.3,10.6,1,21.8c-5.1,17.5-5.5,54.1-0.9,77.4
		c1.5,7.8,10,26.4,11.6,25.4c0.4-0.3,0.8,0.8,0.8,2.5c0,1.6-0.5,3.3-1,3.6c-0.7,0.4-0.9-0.2-0.5-1.7c0.5-1.8-0.1-2.8-2.4-4.6
		c-3-2.2-3-2.2-12.8,3.6c-29.2,17.3-58,41.7-64.2,54.4c-2.1,4.4-2.9,13.2-1.3,15.3c1.9,2.8,9.3,3.8,31.2,4.2
		c34.2,0.7,44.3-1.3,41.2-8.2c-2-4.5-1.5-5.5,9.2-16.5c16.7-17.3,29.5-38.2,31.6-51.3c0.4-2.8,1.6-7.2,2.5-9.7
		c5.7-14.9-4.8-71.3-18.9-103c-7.4-16.4-11.1-21.4-20-27.4c-2.1-1.4-3.4-2.6-2.8-2.6c3.6,0,15.8,11.5,23.8,22.6
		c5,6.9,44.3,3,64.2-6.3C517,658.4,517.1,657.5,512.5,651.9z M366.1,857.5c-0.6,4.9-0.8,5.6-1.5,3.6c-0.5-1.5-0.3-3.9,0.4-6.2
		C366.7,849.8,366.9,850.3,366.1,857.5z M401.4,818c-4.4,3.3-11.2,8.7-15.2,12.1s-7.5,6-7.7,5.8c-0.8-0.9,28-23.8,29.9-23.9
		C408.9,812,405.7,814.7,401.4,818z M420.2,803.3c-0.6,0.7-3.3,2.8-5.9,4.7c-5.6,3.9-4.7,2.6,1.7-2.4
		C420.9,801.8,421.9,801.3,420.2,803.3z M425.2,710.8c0.1-10.3,0.2-9.8,0.9,6.2c0.4,9.6,1.2,22,1.8,27.5c0.6,5.5,1.3,12.9,1.5,16.5
		c0.5,6.3,0.5,6.4-0.4,1.5C427.3,753.3,425,722.3,425.2,710.8z"/>
	<path class="st0" d="M517.6,561.1c-3.6,2.9-14.9,8.3-21.9,10.5c-6.9,2.2-6.9,0.7-0.6,21.8c7.8,26.2,11.6,35.9,18.8,47.6
		c2.5,4.1,2.6,3.7,0.7-1.7c-1.8-5-0.9-6.5,6.7-12.9c4.3-3.6,5.7-5.5,5.7-7.4c0-4-0.8-4.2-5.5-1.5c-5.7,3.4-6.1,3.2-8.9-2.5
		c-2.4-5.1-2.4-5.1,1-8.4c2-1.9,5.1-4.5,7-5.8c3.3-2.2,5-7.8,2.4-7.8c-1.9,0-9,3.2-9,4.1c0,0.5-0.4,0.9-1,0.9c-1.1,0-5-7.2-5-9.4
		c0-1.7,5.3-6.4,10.3-9.1c3.8-2,3.8-2,3.6-10.1C521.7,559.3,521.2,558.3,517.6,561.1z"/>
	<path class="st0" d="M518.6,652.9c2.1-1.7,1.8-2.5-2.4-6.7c-7.4-7.4-15.7-27.7-26.3-64.5c-1.3-4.7-2.7-7.7-3.5-7.7
		c-0.8,0-1.4,0.5-1.4,1c0,2.6,11.3,39.5,14.9,48.7C507.2,642.3,515.6,655.4,518.6,652.9z"/>
	<path class="st0" d="M891.8,630c3.3,0,3.3,0,1.2-3.1c-7.6-10.6-23.9-17.2-36.5-14.7c-15.7,3-44,23-57.7,40.9
		c-6.4,8.2-11.8,17.7-11.8,20.5c0,1.9,9.5,22.4,10.3,22.4c0.2,0,2-2.4,4-5.4C817.8,665.7,871.1,630,891.8,630z"/>
	<path class="st0" d="M608.3,628.2c-1.1,1.3-3.6,5-5.4,8.3c-1.8,3.3-5,8.6-7,11.8c-5.5,8.5-8.3,24.6-4.1,23.3
		c14.7-4.8,14.5-4.6,14.3-13.7c-0.2-9.6,1.9-13.6,5.8-11.2c1.4,0.9,2.1,0.9,3,0c2-2,1.2,1.9-1,4.7c-1.6,2.1-2,3.5-1.5,6.9
		c0.3,2.3,0.3,3.6,0,2.9c-0.9-2-4.4-1.4-4.4,0.8c0,2.5,0.4,2.5,7.1,0.1c12.5-4.3,13.2-4.9,12.6-10.8c-0.7-7-5.8-17.2-10.7-21.7
		C612.3,625.4,611.1,625.2,608.3,628.2z M618.1,636c1,0.6,1.9,1.7,1.9,2.5c0,1.9-1.6,1.9-2.4,0c-1.4-3.6-8.6,0.7-8.6,5.2
		c0,1.3-0.4,2.3-1,2.3c-0.5,0-1-0.9-1-2.1C607,638.3,613.5,633.6,618.1,636z"/>
	<path class="st0" d="M522.3,643c-4.9,2.7-5.6,5-1.4,5c2.1,0,8.1-4.9,8.1-6.6C529,639.5,528.4,639.7,522.3,643z"/>
	<path class="st0" d="M611.8,651.8c0.7-0.7,1.2-1.8,1.2-2.5c0-1.8-3.6-1.7-4.3,0.1C607.9,651.5,610.3,653.3,611.8,651.8z"/>
	<path class="st0" d="M633.4,655c2.4,0,2.8-1.8,0.6-3c-1.7-0.9-2-0.8-2,1C632,654.1,632.6,655,633.4,655z"/>
	<path class="st0" d="M512.6,665.1c-2.5,1.2-2.5,1.2,0.9,7.8c5.6,11.1,5.9,11.3,8.5,6c1.2-2.4,4.2-6.5,6.5-9
		c3.4-3.6,4.2-5.1,3.8-7.2c-0.8-3.8-1.9-3.4-5.3,2.2c-1.7,2.7-3.7,5.1-4.4,5.4c-1.7,0.7-5.6-2-5.6-3.8
		C517,664.4,515.4,663.9,512.6,665.1z"/>
	<path class="st0" d="M583.3,671.9c3.9-1,4.4-2.4,2.9-7.7c-0.7-2.1-1-2-6.2,3.3C574,673.5,574.6,674.3,583.3,671.9z"/>
	<path class="st0" d="M523.2,695.7c-1.6,0.4-2.6-0.8-5.6-6.9c-1.9-4-5.4-10.1-7.6-13.6c-4.7-7.2-4.1-7.1-18.5-3.5
		c-5.5,1.4-10.6,2.7-11.2,2.9c-0.9,0.2-0.3,3.1,2.2,9.9c7.8,21.7,17.4,36.7,33.7,53.2c5.1,5.1,8.7,9.3,8.1,9.3
		c-0.6,0-5.3-4.5-10.4-10.1c-15.3-16.5-23.2-28.9-31.1-48.7c-6.8-17.3-7.4-17.6-5.9-2.5c2.9,28,18.2,50.5,48.6,71.4
		c10.9,7.5,12.4,9.3,5.6,6.5c-4.6-1.8-7.3,0.5-21.2,17.9c-24.4,30.8-33.2,57-20.4,61.4c6.1,2,40.6,1.9,50.9-0.2
		c12.9-2.7,14.3-4.6,11.1-15.3c-3.1-10.3-2.3-14.2,6.8-33.8c7-15.2,8-21.5,5.3-31c-1.7-5.8-1.7-5.8-3.9-3.8c-3,2.7-8.7,5.5-8.7,4.2
		c0-0.5,0.6-1,1.3-1c0.8,0,3.1-1.5,5.2-3.3c3.9-3.4,3.9-3.4,1.6-9.8C553.4,733.1,527.4,694.6,523.2,695.7z M539,765.5
		c1.7,3.3,3,6.6,3,7.4c0,2-4.7-7.5-5.4-10.8C536.3,760.7,537.4,762.2,539,765.5z"/>
	<path class="st0" d="M571.1,677.5c0.8,0.7,16.9-3.7,16.9-4.6c0-0.5-0.1-0.9-0.2-0.8c-0.2,0-1.2,0.4-2.3,0.9
		c-1.1,0.5-4.3,0.9-7.1,0.9C573.8,674,569.7,676,571.1,677.5z"/>
	<path class="st0" d="M606.3,690.9c-11,3.9-12.6,5.1-6.5,5.1c5.6,0,12.5-2.7,15.7-6C619,686.3,618.9,686.3,606.3,690.9z"/>
	<path class="st0" d="M701.3,774.5c-9.9,5.2-38.2-10-60-32.2c-5-5.1-9.3-9.3-9.5-9.3c-0.2,0-3,2.4-6.3,5.2
		c-3.3,2.9-8.2,7.7-10.8,10.6c-5.6,6.3-6,4.9,6.7,22c29.9,39.8,74.1,66.1,83.3,49.5c6.7-12,7.2-29.1,1.3-42.8
		C704.1,773.1,704.1,773.1,701.3,774.5z"/>
	<path class="st0" d="M499.8,863.8c-15.8-0.4-14.6-1.1-17.3,10.6c-2.9,12-2.3,14.3,3.6,16.1c29.9,8.8,94.8,12.2,97.5,5.1
		c2.1-5.5-5.9-23.8-13.2-30.5c-8.1-7.4-10.9-8-24.4-5C533.7,862.8,515.5,864.2,499.8,863.8z"/>
	<path class="st0" d="M369.8,882.7c-23.8,0.7-22.5-0.1-25.3,14.9c-2.6,13.2-2.4,14.1,3.8,15.8c28.3,8.1,96.1,11.5,102.5,5.2
		c2.8-2.9-3.2-23-9.4-31.2c-7.1-9.6-13.1-10.7-37.4-7.3C396.6,881.1,381.2,882.3,369.8,882.7z"/>
</g>
<g id="MARRON_OSCURO">
	<path class="st1" d="M132,117.6c30.7,0.3,56.6,28.5,53.8,58.6c-0.6,5.5-0.2,5.6,5.9,2.8c16.7-7.6,24.4-27.2,18.3-47.2
		c-9.5-31.3-40.3-55.9-65.5-52.2c-23.3,3.5-41.9,20.9-43.3,40.5c-0.8,11.6-0.1,12.5,5.4,7.1C114.2,119.9,120.7,117.5,132,117.6z"/>
	<path class="st1" d="M620.4,207.3c5.6-5,9.2-6.5,14.7-6.2c5,0.3,5,0.3,7.4-4.8c2.7-5.9,7.7-9.6,14.3-10.8c6.2-1,5.9-1.8-2.5-6
		c-7.3-3.7-7.8-3.8-15.4-3.2c-7.3,0.6-7.9,0.5-9-1.5c-1.6-2.9-0.5-11.9,2-17.2c2.6-5.3,2.6-5.6-0.1-5.6c-7,0.1-15.3,7.3-16.4,14.1
		c-0.8,4.5-1.9,5-2.8,1.2c-0.8-3-9.3-15.3-10.7-15.3c-0.4,0-1.3,1-2,2.2c-2.5,4.7-0.7,16.5,4.1,25.6c2.3,4.5,4,8.5,3.8,8.8
		c-0.3,0.2-2.9-0.7-5.9-2.1c-10.6-4.9-15.1-2.5-7.4,4c2.7,2.2,8,6.9,11.8,10.5c4.6,4.3,6.6,5.6,5.8,4c-1.2-2.5-1.2-2.5,0.6-0.4
		c1,1.2,2.3,3,2.9,4C616.6,210.4,616.9,210.3,620.4,207.3z"/>
	<path class="st1" d="M600.4,254.4c-8.4,5.7-16.5,15.6-18.8,23.3c-0.7,2.1-0.7,2.1,4.6,0.1c7.5-2.8,15.6-4,21.2-2.9
		c2.5,0.5,4.6,0.6,4.6,0.4c0-1.5-2.3-15.6-3.1-19.6C607.6,250.1,607,250,600.4,254.4z"/>
	<path class="st1" d="M609.3,329.6c-0.2,6.9,0,8.1,0.7,5.4c1.4-5.5,3.2-29.7,2.8-38.3c-0.3-7.9-0.3-7.9-4.9-4.3
		c-10.3,7.8-21.9,25.6-23.6,36c-0.6,3.9-0.6,3.9,2.8,1.4c5.3-4,13.5-7.8,18.2-8.4C609.5,320.8,609.5,320.8,609.3,329.6z"/>
	<path class="st1" d="M547.4,394.9c4.6-8.7,1.4-11.2-9.3-7.1c-6.4,2.5-7.1,4.1-3.7,9.2C538.6,403.4,543.4,402.7,547.4,394.9z"/>
	<path class="st1" d="M549.5,422c5.7-4.1,5.5-3.8,3.4-8.7c-4-9.3-7.3-11.8-12.7-9.6c-3.7,1.5-11.7,9.6-16.2,16.5
		c-7.8,11.9-8.6,22-2.6,33.7c3.3,6.4,3.3,6.4,9.5-2.3c6.1-8.5,6.2-8.7,5.3-12.9c-0.7-3.7-0.6-4.3,0.8-4.3c1.2,0,1.6,0.7,1.3,2.1
		c-0.3,1.8-0.3,1.8,0.6-0.2c0.5-1.2,2.3-4,4-6.3c1.7-2.4,3.3-5.9,3.7-7.9c0.9-4.9,1.7-6.2,3.3-5.2c1.1,0.7,1,1.4-0.5,3.7
		C547.6,423.5,547.6,423.5,549.5,422z"/>
	<path class="st1" d="M563.9,413.1c7.4-3.9,7.4-3.9,4.7-5.7c-4.4-2.8-19.6-6-19.6-4c0,0.2,1.6,2.9,3.5,6.1c1.9,3.2,3.5,6.1,3.7,6.6
		S559.8,415.3,563.9,413.1z"/>
	<path class="st1" d="M480.9,570c11.7,0,29.2-6.5,36.9-13.7c3.1-3,3.3-3.4,2.7-8c-0.8-6.1-2.6-15.6-3.1-16.5c-0.2-0.3-3,2-6.1,5.3
		c-21.1,22.2-48.8,15.5-63.8-15.4c-6.5-13.5-9.8-28.9-8.1-38c0.8-4.4,6-9.8,12.3-12.7c2.6-1.3,4.9-2.4,5.1-2.5c0.1-0.1,0-1-0.4-1.9
		c-0.9-2.4-7.6-2-15.6,0.8c-15.5,5.5-20.8,12.8-20.8,28.8C420,533.2,450.4,570.1,480.9,570z"/>
	<path class="st1" d="M447.4,477.5c1.9-1.4,5.6-3.4,8.1-4.4c3.8-1.4,4.4-2,3.2-2.9c-1.1-1-2.5-0.5-6.9,2.4c-3,2-6,4.5-6.7,5.6
		C444.1,479.8,444.5,479.7,447.4,477.5z"/>
	<path class="st1" d="M463,477c-1.4-3.5-0.9-3.4-8-0.9c-12.5,4.4-14.6,8.4-11.5,22.6c8.9,42.2,38.2,61,61.8,39.7
		c10.1-9.1,10.8-10.6,9.1-16.5c-4.3-14.3-10.1-20.8-25.2-28C474,486.8,464.5,480.7,463,477z"/>
	<path class="st1" d="M393.1,528.4c4.4-2.2,4.6-1.2,0.4,2c-2.8,2.2-3.5,3.4-3.5,6.2c0,4.6,1.4,4.4,7.8-1.2c2.9-2.6,5.5-4.4,5.8-4.2
		c1,1.1-1,3.8-4.7,6.4c-7.1,4.9-3.6,12.3,4,8.5c6.2-3.2,8.1-3.4,10.2-1.5c3,2.7,2.3,4.9-3.3,9.7c-6.1,5.2-5.8,6.4,2.6,10.3
		c4.9,2.2,4.9,2.2,10.2-0.3c5-2.5,5.3-2.6,7.8-0.9c3.3,2.1,3.3,2.8-0.5,7.1c-3.6,4.1-3.3,4.3,8.9,6.9c14.7,3.2,21.1,2.9,31.2-1.5
		c5-2.1,5-2.1-2.8-4.8c-25.4-8.8-45.2-34.8-50.9-67c-0.8-4.4-0.8-4.4-9.6,5c-10.5,11.3-9.4,10.1-13.9,14c-2.1,1.7-3.8,4-3.8,5
		C389,530.4,389.3,530.4,393.1,528.4z"/>
	<path class="st1" d="M398.1,516.1c2.4-2,2.4-2,0.1-2.1c-1.2,0-2.5,0.7-2.9,1.5C394.4,518,395.5,518.2,398.1,516.1z"/>
	<path class="st1" d="M368.7,538.7c-17.7-8.7-39.3-11.8-54.3-7.8c-17.8,4.8-35.9,17.3-44.9,30.9c-3.7,5.6-3.2,5.8,5.5,2.2
		c7.2-2.9,17.4-6,20.1-6c0.8,0-1.1,2.1-4,4.7C268,582.9,255.2,631.9,267,655c3.8,7.5,3.4,8.1,11-15.7c7.3-23,19.6-47,22.6-44
		c0.3,0.3-0.6,7.5-2.1,15.9c-4.2,24.2-3.7,24.8,6.4,8.9c10.2-16.1,19.5-26.2,31.1-34c14.4-9.6,15.9-9.4,10.7,1.1
		c-3,6.1-6.2,17.6-5.2,18.6c0.4,0.4,12.5-13.5,16-18.3c1.6-2.2,4.7-6.1,6.8-8.7c2.9-3.6,4.4-6.9,6.3-14c1.4-5.1,3.6-11.7,5-14.7
		C378.5,543.6,378.4,543.4,368.7,538.7z"/>
	<path class="st1" d="M412.9,546.3c-1.6-1.9-3.8-1.6-8.4,1c-3.4,1.9-4,2.8-4.3,6c-0.4,4.5-0.3,4.5,5.6,0.5
		C413.3,548.8,414.2,547.9,412.9,546.3z"/>
	<path class="st1" d="M420.8,567c-4.7,3-5.5,4.3-4,6.7c1,1.6,7.8-1.6,11.2-5.2C432.7,563.5,427.9,562.5,420.8,567z"/>
	<path class="st1" d="M887.5,632.7c-31.3,7-86.4,49.4-86.5,66.5c0,4,1.7,4.3,3.6,0.6c0.9-1.8,6-7.7,11.3-13.2
		c24.4-25.1,62.1-48.9,77.8-49c6.6-0.1,7.7-1,4.5-3.9C896.4,632.1,892,631.7,887.5,632.7z"/>
	<path class="st1" d="M892,640.5c-0.8,0.2-3.3,0.7-5.5,1c-4,0.7-4,0.7-0.7,2c3.8,1.6,3.9,3.1,1.1,8.7c-5.4,10.5-35.2,36.1-38.2,32.8
		c-0.7-0.7-0.7-1-0.1-0.7c3,1.7,30.2-23.1,34.4-31.4c2.6-5.1,1.9-6.3-3.3-5.5c-8.2,1.3-12.8,4.1-12.1,7.3c0.5,2.3,0.4,2.6-0.7,1.5
		c-1.4-1.3-4.9-1.7-4.9-0.5c0,0.3,0.7,1.5,1.7,2.5c2.3,2.5,0.5,6-4.8,9.5c-2.3,1.6-5.8,4.3-7.8,6.2c-9.8,9.3-19,15-25.2,15.7
		c-5.7,0.6-6.1,0.9-7.9,4.5c-1.1,2.1-2,4.1-2,4.4c0,1.8,6-0.4,17.9-6.5c13.5-7,14.6-6.5,2.1,0.9c-7.2,4.3-17.5,9.1-19.6,9.1
		c-2.3,0-2.4-1.7-0.4-6.7c2-4.8,2-4.8-2.4-0.1c-4,4.3-6.4,9.3-5.2,10.5c5.3,5.4,53.5-21.5,72.1-40.2
		C898.3,647.8,902.6,638.3,892,640.5z"/>
	<path class="st1" d="M857.8,664.3c5-3.8,3.1-5.3-3.9-3c-4,1.3-12.9,6.8-12.9,7.9C841,671.8,852.1,668.5,857.8,664.3z"/>
	<path class="st1" d="M835.7,679c3.8,0,10.7-3.6,9.7-5.1c-1-1.6-7.8-0.9-11.2,1.1C830.2,677.4,830.8,679,835.7,679z"/>
	<path class="st1" d="M825.2,683.2c0.5,1.5,7,2.2,10.7,1.2c2.4-0.7,2.2-0.8-1.9-1.5C827.1,681.7,824.8,681.8,825.2,683.2z"/>
	<path class="st1" d="M695.2,827.5c-20.3,0-57.4-29.3-80.3-63.3c-5.2-7.8-6.9-9.5-6.9-7.1c0,9.1,33.6,47,54,60.9
		c16.6,11.3,33.7,16.3,38.3,11.2C701.8,827.6,701.5,827.5,695.2,827.5z"/>
	<path class="st1" d="M581.3,899.4c-19.9,4.3-61.4,1.5-92.1-6.4c-9.8-2.4-9.5-2.4-8.2-0.1c4.5,8.5,81.1,17.2,99.3,11.2
		C585,902.5,585.9,898.4,581.3,899.4z"/>
	<path class="st1" d="M448.3,921.5c-25.7,4.9-47.3,3.6-102-6.2c-2.5-0.4-3.3-0.2-3.3,0.9c0,4.6,49.4,12.8,77.5,12.8
		c11.4,0,27.8-2.2,30-4C453.5,922.5,452.3,920.7,448.3,921.5z"/>
</g>
<g id="TIZA">
	<path class="st2" d="M232.2,237.6c-1.3-0.8-21.4-1.9-31.2-1.7c-7,0.2-19.4-2.1-26.1-4.7c-1.5-0.6-6.7-1.1-11.7-1.1
		c-7.8,0-10.7-0.6-20.9-4c-6.5-2.2-14.8-4.4-18.4-4.9c-4.1-0.6-10.7-2.9-17.7-6.1c-6.1-2.8-11.9-5.1-12.7-5.1
		c-2.3,0-9.6-3.9-12.7-6.7c-1.4-1.4-3.1-2.2-3.6-1.9c-0.6,0.3-1.2,0-1.5-0.7c-0.4-1.1-6.9-5.6-19-13.2c-1.7-1.1-3.6-3.4-4.1-5
		c-0.5-1.7-2.2-4.7-3.8-6.7c-3-4-3.5-5.3-1.5-4.2c1.7,1,0.9,0.2-3.8-3.8c-2.2-1.9-4.1-3.8-4.2-4.3c-1-6.2-5.7-21.2-6.9-22.6
		c-1.3-1.5-1.6-3.5-1.4-9.1c0.1-4,0.3-12,0.4-17.8c0.1-9.7,0.4-11.1,3.4-17.4c1.8-3.8,3.1-7.5,2.8-8.3c-0.8-2.1,3.9-13.8,7.3-18.1
		c1.7-2,3.3-5.3,3.7-7.2c0.7-3.6,25-29.2,28.2-29.7c0.8-0.1,2-0.7,2.6-1.4c0.8-0.8,0.4-0.8-1.4,0.1c-1.4,0.7-2,0.8-1.5,0.2
		c0.9-1,2.3-1.6,13.5-5.7c4.2-1.5,8.6-4.6,6.5-4.5c-0.6,0.1-3.9,1.4-7.4,3c-3.5,1.7-7,3-7.8,3c-3.1,0-7.9,3.1-9.6,6.3
		c-1,1.7-5.6,6.6-10.3,10.7c-4.6,4.1-8.4,8.1-8.4,8.7c0,0.7-0.5,1.3-1.1,1.3c-0.5,0-0.7-0.6-0.3-1.3c0.4-0.6-0.2-0.4-1.3,0.6
		c-1.2,1-2.4,3.5-2.8,5.5c-0.3,2-1.7,5.3-2.9,7.2C38.1,77,36,81.2,36,84.8c0,4.6-3.4,15.4-6.2,20c-1.8,3-2,3.9-1,6.6
		c1.6,4.2,1.5,17.1,0,21.3c-1.1,3-0.9,3.9,1.5,8.6c1.4,2.8,3.5,8.1,4.6,11.7c1,3.6,2.2,7.4,2.7,8.4c0.5,1.4,0.4,1.7-0.4,1.2
		c-2.4-1.4-1.1,0.8,3.1,5.4c7,7.8,10.7,12.8,10.7,14.4c0,3.7,2.4,6.6,6.9,8.3c5.6,2.1,12.9,7.3,18.5,13.1c5.2,5.5,6.5,6.2,13.6,7.2
		c3.7,0.5,9.8,2.7,16.3,5.8c7.5,3.7,12.1,5.3,16.8,5.8c3.5,0.4,11.6,2.5,17.9,4.7c9.7,3.3,13.3,4,23,4.6c7.9,0.5,13.7,1.5,18.5,3.1
		c5.4,1.8,9.5,2.4,18,2.6c6.1,0.1,13.4,0.7,16.4,1.3C225.6,240.7,235.8,239.8,232.2,237.6z M86.3,209.3c-2.2-0.6-10.2-7.3-8.7-7.3
		c0.5,0,2.3,1.3,3.9,3c1.6,1.6,3.4,3,4.1,3s1.5,0.4,1.8,0.9C87.8,209.4,87.2,209.6,86.3,209.3z"/>
	<path class="st2" d="M260,119.8c1.5,5.6,3,10.6,3.4,10.9c1.1,1.1,0.7-1.4-1.4-7.9c-1.1-3.4-2-7.4-2-8.8c0-2.9-3.3-10.4-4.9-11.5
		c-0.7-0.4-0.5,0.9,0.5,3.2C256.5,107.8,258.5,114.1,260,119.8z"/>
	<path class="st2" d="M267.6,148.4c0.3,4.4,1.3,10.3,2.2,13.1c0.9,2.7,1.8,8.1,2.2,12c0.6,7,0.6,7,1.4,2.1c0.7-4,0.4-6.1-1.8-12.5
		c-2-5.7-2.6-9.5-2.6-15.4c0-7.4-1.6-13.7-3.8-15.1c-0.5-0.3-0.3,1.3,0.5,3.6C266.4,138.4,267.3,143.9,267.6,148.4z"/>
	<path class="st2" d="M270.6,181.8c-0.4,0.6-0.2,2,0.4,3.1c1.5,2.9,1.2,11.6-0.5,15.8c-0.8,1.9-1.5,4.5-1.4,5.7
		c0.1,1.9,0.2,1.8,0.8-0.4c0.5-1.4,1.5-4,2.4-5.7C274.8,195.5,273.1,177.7,270.6,181.8z"/>
	<path class="st2" d="M678.4,205.5c7.3,4.3,7.9,4.3,7.1,0.4c-2.6-11.8,15.1-17.7,22-7.3c2.1,3.3,2.3,9.7,0.4,12
		c-1.6,2,0.5,1.5,7.9-1.7c5.3-2.3,5.9-3.7,3.4-8.6c-6.5-12.4-25.2-20.6-39.6-17.2C663.6,186.9,663.1,196.4,678.4,205.5z"/>
	<path class="st2" d="M654,248c9.5,0,10.8-0.7,6.8-3.4c-5.9-3.9-7.4-10.4-3.9-16.2c6.6-10.9,22.3-6.5,23.9,6.6
		c0.7,5.2,0.7,5.2,5.5,0.8c5.9-5.5,6.3-9,1.5-14.3c-6.9-8-22.5-12.4-36.3-10.4c-10.9,1.6-23.4,10.3-24.7,17.2
		C624.9,238.3,638.2,248,654,248z"/>
	<path class="st2" d="M267.1,205c-0.9,0-1.1,0.9-0.6,3c1,4.6-2.4,10.9-8.9,16.5c-3.1,2.7-5.8,5.6-6.1,6.5c-0.3,0.9-2,2.4-3.8,3.3
		c-2.8,1.4-2.9,1.6-0.9,1.6c2.1,0.1,7.2-3.9,7.2-5.6c0-0.4,2.5-2.6,5.6-4.8c3.1-2.2,6-4.7,6.4-5.6C267.6,217,268.4,205,267.1,205z"
		/>
	<path class="st2" d="M271,264c3.2,0,5.5-4.8,3.4-7.1c-2.1-2.3-2.7-2.4-4.6-0.2C266.4,260.7,266.9,264,271,264z"/>
	<path class="st2" d="M387.9,327.9c-9.4-4.6-35.8-13.3-46.8-15.3c-9.6-1.8-9.8-1.9-25.6-14.1c-24.8-19.1-22.5-18-28.1-12.7
		c-2.7,2.6-6.7,6.9-8.9,9.6c-3.9,4.8-3.9,4.8,0,8.3c6.3,5.3,18.8,12.8,29.4,17.4c5.3,2.3,10.9,5.1,12.4,6.2c1.6,1,4.9,2.5,7.3,3.3
		c2.5,0.7,5.6,2.2,7,3.3c8,6.3,36.5,15.4,58.3,18.5c8,1.2,12.7,2.4,16,4.2c6.7,3.7,7.4,4.8,2.7,4.1c-3.9-0.6-3.9-0.6,0,3.6
		c2.1,2.3,4,4.4,4.2,4.6c0.1,0.2,0.2-2,0.2-5C416,353.6,400.9,334.3,387.9,327.9z"/>
	<path class="st2" d="M791,289.9c1.3-2.3,0.2-2.4-2.9-0.3c-1.5,1.1-1.9,2-1.3,2.6C788,293.4,789.6,292.6,791,289.9z"/>
	<path class="st2" d="M783.8,294.7c0.4-3.4-0.1-3.4-6.6,0.4c-3.5,2.1-5.2,3.7-5,4.8C773.1,304.3,783.2,299.8,783.8,294.7z"/>
	<path class="st2" d="M792,313.5c2.6-4.1,3.3-11.7,1.7-17.8c-0.9-3.3-3.3-3.5-4.1-0.3c-0.3,1.4-0.3,3.2,0,4.1
		c0.4,0.9,0.1,3.4-0.6,5.5c-0.9,2.8-1,5.2-0.4,8.2C789.5,317.5,789.5,317.5,792,313.5z"/>
	<path class="st2" d="M714.4,300.9c1.6,3,6.5,7.5,7.4,6.7c1.5-1.5-1.2-5.8-4.9-7.6C712.9,297.9,712.9,297.9,714.4,300.9z"/>
	<path class="st2" d="M770,301.9c0-2.4-0.9-2.3-9.2,1c-6.7,2.6-7.6,3.6-4.7,5.4C758.4,309.7,770,304.3,770,301.9z"/>
	<path class="st2" d="M427,327.1c4.93-0.36,11.62-0.61,12.16-0.65c0.29-0.02,0.57-0.05,0.86-0.08c0.04-0.01,0.09-0.01,0.13-0.02
		c0.02,0,0.03,0,0.03,0c0,0,0.01,0,0.01,0c0,0,0,0,0,0c0,0,0,0,0,0c0.04-0.01,0.38-0.06,0.53-0.09c1.15-0.2,2.27-0.5,3.37-0.88
		c0.28-0.1,0.56-0.2,0.84-0.31c0.14-0.05,0.28-0.11,0.42-0.17c0.01,0,0.01,0,0.02-0.01c0.07-0.03,0.13-0.06,0.2-0.09
		c0.54-0.24,1.07-0.5,1.59-0.79c0.5-0.28,1-0.58,1.47-0.92c0.13-0.09,0.25-0.18,0.38-0.28c0,0,0,0,0,0
		c0.05-0.04,0.09-0.07,0.14-0.11c0.21-0.17,0.42-0.35,0.62-0.54c0.19-0.18,0.38-0.37,0.56-0.57c0.09-0.1,0.18-0.2,0.27-0.31
		c0.04-0.04,0.07-0.09,0.11-0.13c0,0,0,0,0,0c0.07-0.09,0.12-0.18,0.19-0.28c-2.32,0.16-5.83-0.32-9.39-1.4
		c-2.7-0.8-9.29-3.49-11.43-7.23c-0.05-0.07-0.09-0.15-0.14-0.23c-0.04-0.06-0.08-0.12-0.13-0.18c0,0-0.01-0.01-0.02-0.03
		c-0.03-0.03-0.09-0.11-0.09-0.11c-0.03-0.03-0.05-0.06-0.08-0.1c-0.15-0.17-0.3-0.33-0.46-0.48c-0.08-0.07-0.16-0.15-0.25-0.22
		c-0.01-0.01-0.04-0.03-0.06-0.05c-0.02-0.02-0.05-0.04-0.06-0.04c-0.18-0.12-0.36-0.24-0.55-0.35c-0.1-0.05-0.19-0.1-0.29-0.15
		c-0.01,0-0.03-0.01-0.05-0.02c-0.03-0.01-0.07-0.03-0.09-0.04c-0.4-0.15-0.8-0.25-1.22-0.32c-0.02,0-0.2-0.03-0.24-0.03
		c-0.11-0.01-0.22-0.01-0.32-0.02c-0.26-0.02-0.51-0.04-0.77-0.04c-0.51-0.01-1.03,0.01-1.54,0.07c-0.03,0-0.14,0.02-0.15,0.02
		c-0.04,0.01-0.08,0.01-0.12,0.02c-0.13,0.02-0.25,0.04-0.38,0.06c-0.25,0.05-0.5,0.1-0.75,0.16c-0.5,0.12-0.99,0.26-1.47,0.42
		c-1.02,0.34-1.81,0.69-2.78,1.16c-0.96,0.47-1.89,0.97-2.82,1.48c-3.93,2.18-7.74,4.62-11.41,7.21c-0.31,0.47-0.75,0.97-1.31,1.62
		C397.3,328.4,399.9,328.9,427,327.1z"/>
	<path class="st2" d="M435,313.3c3.1,2.7,11.9,5.7,16.5,5.7c0.29,0,0.55,0.02,0.79,0.05c0.11-0.02,0.21-0.05,0.31-0.09
		c0.11-0.05,0.22-0.12,0.32-0.19c0.08-0.07,0.16-0.14,0.22-0.22c0.04-0.06,0.07-0.11,0.1-0.17c0.01-0.04,0.02-0.07,0.03-0.11
		c0-0.02,0-0.04,0-0.05c-0.01-0.02-0.01-0.04-0.02-0.06c-0.01-0.01-0.02-0.03-0.02-0.04c-6.72-3.53-14.24-7.85-16.14-9.32
		C431.8,304.7,429.8,309,435,313.3z"/>
	<path class="st2" d="M733.7,306.7c-1.7-2.1-10.7-3.3-10.7-1.5c0,1.6,6.1,7.8,7.7,7.8C732.8,313,735,308.4,733.7,306.7z"/>
	<path class="st2" d="M783.1,321.7c2.9-1.9,3.4-2.9,3.4-6.2c0-4.8-1-5.2-5.8-1.9c-3.4,2.3-3.8,3-3.5,6.1
		C777.6,324.3,778.7,324.6,783.1,321.7z"/>
	<path class="st2" d="M735,317c4.8,3.8,7.7,4.2,8.5,1.2c1.2-4.7-4.9-7.9-9.1-4.7C732.5,314.9,732.6,315,735,317z"/>
	<path class="st2" d="M745.2,318.7c-1.1,3.4,0.1,4.6,7.4,6.8c5,1.5,5.7,1,4.8-3.5C756.3,316.6,746.9,314,745.2,318.7z"/>
	<path class="st2" d="M772.5,317.5c-0.5,0.2-3.6,0.9-6.7,1.5c-5.8,1.1-5.8,1.2-5.8,4.7c0,3.6,0,3.6,6.9,3.1c8.6-0.6,8.8-0.8,8.3-5.7
		C774.8,317.1,774.6,316.8,772.5,317.5z"/>
	<path class="st2" d="M473.4,322.3c11.2,6.2,18.4,13.7,13,13.7c-0.9,0-2.9,1.1-4.6,2.5c-2.2,1.8-4.1,2.5-7.3,2.5s-5.1-0.7-7.3-2.5
		c-4.7-3.9-7.3-3.1-8.7,2.8c-0.7,2.6-0.9,2.7-8,2.7c-8.3,0-13.6,1.6-20,6c-8.4,5.8-5.7,10.4,14.3,24c8.1,5.4,17.3,12.2,20.4,15
		c5.8,5.1,5.8,5.1,13.5,3.5c4.3-1,9.4-2.8,11.4-4.1c3.9-2.7,9.4-3.2,10.2-0.9c0.5,1.2,1.4,1,4.9-1c2.4-1.4,5.1-2.5,6-2.5
		c2.8,0,2.9-1.5,0.2-10.6c-3.2-11.1-9.9-24.3-17.5-34.1c-8-10.4-7.3-13.7,1.5-7.7c2.5,1.7,4.1,2.3,4.8,1.6
		c1.4-1.4-11.5-8.5-21.9-12.2C466.1,316.7,464,317.2,473.4,322.3z M493.3,356c3.2-1.3,3.9-1.2,7.5,1c9.3,5.7,3.8,17.5-5.7,12.4
		C488.9,366.1,487.8,358.2,493.3,356z"/>
	<path class="st2" d="M498.9,367.8c3.4-0.3,3.6-0.5,3.9-4c0.5-5.4-5.1-8.4-9.6-5.2C488.7,361.7,492.8,368.3,498.9,367.8z"/>
	<path class="st2" d="M479.2,331.6c-1.4-3.1-8.9-3.8-11.6-1c-3.6,3.6-0.5,8.2,6,8.9c3.3,0.4,3.5,0.3,1.4-0.5
		c-2.1-0.8-1.9-0.9,1.5-0.6c2.2,0.2,3.5,0.2,2.8-0.1c-0.9-0.3-1-0.9-0.1-2.3C480.1,334.6,480.1,333.5,479.2,331.6z"/>
	<path class="st2" d="M483.2,336.4c1.4-0.9,0.9-3-1.1-4.8c-1.8-1.6-1.8-1.5-0.7,1.8C482,335.3,482.8,336.6,483.2,336.4z"/>
	<path class="st2" d="M501.8,344.7c1.7,2.6,5,8.8,7.3,13.6c4.9,10.3,2.6,9,28.3,15.9c18.3,4.8,19.3,5,24.9,3.9
		c3.7-0.8,9.8-0.9,17.1-0.5c11.4,0.7,11.4,0.7,10-5.2c-0.8-3.2-1.6-9.1-1.7-12.9c-0.1-7.1-0.1-7.1-11.2-5.2
		c-18.1,3.1-19.4,2.9-46.3-7.4c-27.2-10.4-27.1-10.4-29.6-8.5C498.8,339.9,498.8,340.1,501.8,344.7z"/>
	<path class="st2" d="M463.7,395.8c5.6-1.3,5.6-1.3,1.2-5.5c-14.8-14.1-41.9-30-45.2-26.6c-0.4,0.3-0.7,2.3-0.7,4.4
		c0,3.8,0,3.8,14.6,12.5c8,4.7,16.8,10.4,19.5,12.6C458.2,397.2,458.2,397.2,463.7,395.8z"/>
	<path class="st2" d="M451,395.7c-7.4-6.2-9.5-7-10.9-4.1c-3.3,7.2,1.1,16.3,8.1,16.5c2.2,0,2.2,0.1,0.3,0.9
		c-1.3,0.6-1.5,0.9-0.5,0.9c2.5,0.1,3.6-1.2,5.2-6.2C454.7,398.9,454.7,398.9,451,395.7z"/>
	<path class="st2" d="M727.77,499.07c0.04,0,0.08-0.01,0.12-0.01c0.59-0.09,3.88-1.33,6.16-2.78c5.5-3.5,7.84-9.38,10.44-20.48
		c2.2-9,1.7-10.1-6.1-13.9c-2.5-1.1-4.9-2.9-5.4-3.8c-1.1-2.2-17.6-12.7-21.3-13.6c-2.8-0.8-2.8-0.8-2.2,6.1c0.4,4.3,0.3,8-0.4,9.8
		c-0.7,1.7-0.8,3.3-0.2,4c1.5,1.9,2.5,5.9,1.2,5.2c-0.6-0.4-1.1-1.6-1.1-2.6s-0.4-2-1-2.2c-0.6-0.2-0.6-2.5,0.2-6.4
		c1.8-9.6,0-11.5-2.3-2.4c-1,4.1-3.1,10.8-4.5,14.8c-3,8.3-3,8.5,4.6,13c3.6,2.1,3.6,2.1,8.3-1c2.6-1.6,5.4-2.8,6.2-2.4
		c1.7,0.6,2.1,2.6,0.5,2.6c-0.5,0-1-0.5-1-1.1c0-0.5-1.8,0-4,1.2c-2.2,1.3-4,2.7-4,3.1c0,1.6,10.4,5.8,14.2,5.8c2,0,4,0.5,4.3,1.1
		c1.6,2.5-14.8-1.6-18.5-4.6c-0.8-0.7-3.5-2.3-6-3.5c-4.5-2.2-4.5-2.2-1.2,1.3c3.44,3.58,12.12,8.33,22.67,12.84
		C727.57,499.11,727.67,499.08,727.77,499.07z M712,470c0-0.5,1-0.9,2.3-0.8c2.1,0.2,11.8-5.5,12.5-7.4c0.7-1.5,3.3-3.8,4.5-3.8
		c0.6,0-0.2,1.4-1.9,3.1C723.4,467.5,712,473.3,712,470z M729,480.2c-2.5-0.3-3-0.6-1.9-1.3c1.8-1.1,1.5-1.2,4.9,0.6
		c2.7,1.4,6,7.9,4.6,9.2c-0.3,0.3-0.8-0.3-1.1-1.3C733.9,482.1,732.4,480.5,729,480.2z"/>
	<path class="st2" d="M580.2,662.6c11.9-13.1,15-18.2,12.2-20.3c-2-1.5-4.4,0.4-4.4,3.4c0,1.5-4.6,1.8-5.5,0.3c-0.3-0.6-1.6-1-2.7-1
		c-1.2,0-3.1-0.9-4.3-2c-2.2-2-2.2-2-6.3,1c-3.8,2.7-4.6,2.9-8.1,2.1c-2.2-0.5-4.2-0.7-4.4-0.5s-1.2-0.5-2.2-1.6
		c-2.1-2.4-0.8-2.6,3.1-0.5c4.3,2.2,8.4,2,8.4-0.5c0-1.1,0.5-2,1-2c0.6,0,1,0.5,1,1.2c0,0.6,0.7,0.4,1.8-0.5c2.5-2.3,4.7-2.1,7,0.3
		c1.1,1.2,2.6,1.8,3.4,1.5c0.9-0.4,1.9-0.2,2.3,0.4c0.9,1.6,4.5,1.3,4.5-0.3c0-2.7,2.9-4.1,6.1-2.9c2.9,1.1,3,1.1,5.9-4.7
		c3.6-7.1,3.6-7.1,0.6-10.7c-1.3-1.5-2.7-3.9-3.1-5.3c-0.4-1.4-4.2-9.5-8.5-18.1c-7.1-14.2-19.9-44.4-21.5-51.1
		c-0.4-1.5-1.6-2.8-2.9-3.2c-2.6-0.6-11.9-6.7-11.2-7.3c0.2-0.2,2.7,0.8,5.6,2.2c6.2,3.1,6.5,3,5.2-2.7c-7-30.7-12.2-43.3-19.8-48.6
		c-3.3-2.1-9.1-6.6-13.1-9.9c-14-11.7-17.3-13.8-23.2-14.3c-3-0.3-5.6-1-5.9-1.7c-0.2-0.9,0.6-1.1,3-0.7c3.1,0.5,3.1,0.4-1.1-1.5
		c-5-2.4-7.2-2.5-12.3-0.7c-2.1,0.8-6.9,3.2-10.7,5.5c-3.8,2.2-7.8,4.1-8.9,4.1c-1.1,0-2.5,0.6-3.1,1.4c-1.5,1.7-0.9,2.1,9.5,6
		c3.9,1.5,9.2,4,11.8,5.6c3.9,2.5,4.6,2.7,4.6,1.2c0-2.4,3.7-8.2,5.3-8.2c4.1,0,8,8.5,6.9,15.1c-0.6,3.7-0.8,3.8-2,1.9
		c-0.7-1.2-0.8-2-0.2-2c2.2,0,1-7.8-1.6-11c-3.2-3.7-5.1-2.7-6,3.1c-0.6,3.3-0.2,4,7.3,11.5c14.4,14.4,19.3,30.1,22.3,70.6
		c1.1,14.6,3,34.4,4.1,44c1.1,9.5,2.4,22.2,2.9,28.3c2,26.2,8.4,43,17.7,46.6C555,687.7,563.2,681.1,580.2,662.6z M583.6,608.2
		c0.7-2.6,1.4-2.7,4-0.6c1.9,1.5,1.9,1.5-0.3,1.1c-2.2-0.5-3.3,0.9-3.3,4.1c0,1.6,4.1,4.2,6.5,4.2c0.6,0,2,0.7,3.1,1.5
		c1.8,1.4,1.6,1.4-1.6,0.8c-1.9-0.3-3.9-1.2-4.3-2c-0.4-0.7-1.7-1.3-2.7-1.3C582.9,616,582.4,612.9,583.6,608.2z M541.3,514.7
		c4.9-2.1,6.1-3.9,3.8-6.3c-3.7-4.1-4.3-6.2-2.3-8c1.1-0.9,1.7-2.4,1.5-3.4c-0.4-1.5-0.1-1.7,1.6-1.3c1.2,0.3,2.1,0.9,2.1,1.3
		c0,0.4-0.7,1-1.5,1.4c-3.5,1.3-4,5.4-1,8.6c2.7,2.8,2.7,3,1.1,5.5c-1,1.5-3.1,3.1-4.7,3.7c-6.1,2.1-0.5,19.4,6,18.6
		c2.3-0.3,2.6,0.1,2.9,2.9c0.2,1.8-0.1,3.3-0.6,3.3s-0.7-1.1-0.4-2.5c0.3-1.8,0-2.5-1.2-2.5c-1,0-1.3,0.5-0.9,1.7
		c1.4,3.6-5.8-4.7-7.7-8.9C536.8,521.8,537.3,516.3,541.3,514.7z M521.2,489c1.1,0,1.6,0.5,1.3,1.1c-0.4,0.5-1.2,0.8-1.8,0.6
		c-0.7-0.2-2,0.8-2.9,2.2c-1,1.4-1.8,2-1.8,1.2C516,492,519,489,521.2,489z M524.9,503.5c-1.8,0.6-2.9,0-9.8-5.1
		c-0.1-0.1,0-0.7,0.4-1.3c0.4-0.7,1.6,0.1,3.2,1.9c4,4.8,7.3,4.2,7.3-1.4c0-2.5-0.4-4.8-1-5.1c-0.5-0.3-1-1.1-1-1.7
		c0-2.3,3,1.6,3.6,4.7C528.4,499.8,527.4,502.7,524.9,503.5z M527,560.8c0-0.7,1-1.8,2.2-2.3c1.2-0.6,2.6-2.4,3.1-4
		c1.7-5.9,1.7-5.9,2.9-4.7c0.6,0.6,1.4,3,1.8,5.4c0.7,3.8,0.7,4.1-0.6,2.3c-0.8-1-1.4-2.8-1.4-3.9c0-1.4-0.7-0.7-1.9,2.1
		C531.1,559.9,527,563.4,527,560.8z M532,603.7c0-0.6,1.1,0,2.5,1.3c2.4,2.3,2.6,2.3,4.3,0.7c1.6-1.6,1.6-2-0.2-6.5
		c-3.3-8.4-3.2-12.5,0.2-15.4c1.6-1.4,3.3-3.9,3.7-5.6c0.3-1.8,1.8-4.1,3.2-5.2c1.5-1.1,2.6-3,2.6-4.4c0-3.1-4.2-8.6-6.5-8.6
		c-1,0-1.8-0.5-1.8-1c0-2.1,3.2-0.9,6.1,2.2c4.9,5.5,5.1,10.5,0.4,12.6c-1.5,0.7-2.3,1.6-2,2.2c0.7,1.2-1.2,4.6-4.9,8.7
		c-3.1,3.4-3,5.8,0.4,13.5c2.2,5,1.4,9.2-1.9,9.6C535.8,608.2,532,605.6,532,603.7z M533.2,619.5c-0.6-0.6,3.2-3.6,5.7-4.6
		c3-1.2,6.3,0.4,7.9,3.7c0.8,1.9,2,3.4,2.4,3.4c0.5,0,0.6,0.5,0.3,1c-1,1.5-2.4,0.3-4-3.6c-1.7-4.1-5.2-4.6-9.2-1.4
		C534.8,619.1,533.5,619.8,533.2,619.5z M534.2,634.2c-0.3-1.1,0-1.2,1.6-0.3c2.9,1.6,3,1.5,4.2-2.9c1.1-4,3.3-7,5.2-7
		c0.7,0,0.1,1.1-1.1,2.4c-1.3,1.4-2.6,4-3,5.8C540.4,635.7,535.2,637.2,534.2,634.2z M550.1,658.1c-1.3,1.1-2.9,1.9-3.7,1.9
		c-2.4,0-2.6,4.3-0.4,10.9c1.1,3.5,1.8,6.6,1.5,6.9c-0.2,0.3-0.7-0.1-0.9-0.9s-1.4-4.2-2.5-7.6c-1.8-5.6-1.9-6.5-0.6-10
		c0.7-2.1,1.4-3.2,1.4-2.6c0.1,1.6,3.3,1.7,4.8,0.2c0.7-0.7,1-2.6,0.8-4.3c-0.5-3.1-0.5-3.1,0.7,0.3
		C552.3,656,552.2,656.5,550.1,658.1z M552.2,591.6c1.1-1.1,2-1,5.4,0.5c2.3,0.9,4.5,1.5,4.8,1.2c1.4-1.4,0.5-7.2-1.5-9.7
		c-3.4-4.3-10-2.6-8.5,2.2c0.3,1-0.1,2.7-0.9,3.8c-1.2,1.6-1.4,1.7-1.5,0.2c0-0.9,0.6-1.8,1.3-2.1c0.9-0.3,0.9-0.8-0.3-2.2
		c-1.3-1.6-1.2-2,1.3-4.1c3.6-3,4.8-3,8.6,0.2c2.7,2.2,3.1,3.2,3.1,7.5c0,5.8-1.3,6.8-5.8,4.5c-2-1-3.2-1.2-4-0.4
		C552.6,594.8,550.7,593.2,552.2,591.6z"/>
	<path class="st2" d="M518,467c2.3,1.5,2.9,1.2,3.6-1.4c1.1-4.7-1.4-6.1-3.6-2C516.8,465.8,516.8,466.3,518,467z"/>
	<path class="st2" d="M495.7,492.7c1.2-1.2-12.4-8.8-19.2-10.8c-3-0.8-3-0.8-0.5,1.3C478.7,485.5,495,493.3,495.7,492.7z"/>
	<path class="st2" d="M512.4,592.8c1,1,2,1,5.5-0.3c2.4-0.8,4.8-1.2,5.4-0.8c0.6,0.4,0.8-0.2,0.4-1.8c-0.4-1.3-0.7-4.1-0.7-6.2
		c0-4.5-0.2-4.5-7,0.1C510.4,587.6,509.5,589.8,512.4,592.8z"/>
	<path class="st2" d="M514.5,614.4c1.6,3.7,1.6,3.7,4.3,2c7-4.1,7.4-4.7,6.7-9.7c-0.9-5.6-0.7-5.6-7.2-0.9
		C512.3,610,512.5,609.6,514.5,614.4z"/>
	<path class="st2" d="M528,627.7c0-3.6-1-3.4-6.7,1.4c-6.2,5.3-6.4,5.9-5.2,10.2c1.2,4.5,0.7,4.6,7.4-0.5c4.4-3.3,5.5-4.6,5.1-6.2
		C528.3,631.4,528,629.3,528,627.7z"/>
	<path class="st2" d="M523.6,652.1c-4.3,4.8-4.7,5.6-4.4,9.7c0.2,2.5,0.8,4.7,1.4,4.9c2.1,0.7,9.4-10.1,9.4-13.8
		C530,646.6,528.7,646.4,523.6,652.1z"/>
	<path class="st2" d="M528,675.1c-5.1,6.5-7.9,16.4-4.5,16.4c0.6,0,3.6-3.9,6.8-8.6c5.1-7.5,5.7-8.9,4.8-10.8
		C533.4,669,532.5,669.4,528,675.1z"/>
	<path class="st2" d="M399.5,267.2c3.7,0.9,19.8-0.4,24.9-1.9c2-0.5,0.3-2.4-1.9-2.1c-0.5,0-2.3,0.2-4,0.4
		C397.2,266,395.4,266.3,399.5,267.2z"/>
	<path class="st2" d="M441.9,232.97c0,0.01,0,0.01,0,0.01c0-0.02-0.01-0.05-0.01-0.07c-0.01-0.05-0.02-0.1-0.02-0.15
		c-0.02-0.1-0.16-0.9-0.49-1.71c-3.58-9.34-12.54-12.83-17.37-6.05c-4,5.6-3.5,13.68,0.6,9.18c0.4-0.4,0.2-0.5-0.6,0
		c-0.9,0.5-1.1-0.38-0.8-1.28c1.4-4.2,8.8-1.5,8.8,3.2c0,5.5-6.2,7.9-8.8,3.4c-0.6-1.1-1.2-1.5-1.2-0.8c0,0.6,1.1,2.5,2.5,4.1
		c0.08,0.1,0.16,0.2,0.24,0.3c0.18,0.01,0.37,0.03,0.55,0.04c0.04,0,0.08,0,0.12,0.01c1.92,0.09,4.12-0.22,5.48-1.58
		c0.01-0.01,0.02-0.02,0.03-0.03c3.6-3.5,3.48-4.04,2.78-1.54c-0.36,1.42-0.08,1.9,1.47,2.05c0.19,0.02,0.98-0.02,1.06-0.03
		c0.08-0.01,0.15-0.01,0.23-0.02c0.02,0,0.04,0,0.05-0.01c0.03,0,0.05-0.01,0.08-0.01c0.15-0.03,0.29-0.06,0.44-0.09
		c0.27-0.07,0.53-0.16,0.78-0.26c0.01-0.01,0.03-0.01,0.03-0.01c0.03-0.01,0.06-0.03,0.09-0.04c0.06-0.03,0.13-0.06,0.19-0.09
		c0.12-0.06,0.24-0.13,0.36-0.2c0.12-0.07,0.23-0.14,0.34-0.22c0.06-0.04,0.12-0.08,0.17-0.12c0.01-0.01,0.06-0.04,0.07-0.05
		c0.01-0.01,0.03-0.02,0.03-0.02c0.38-0.31,0.73-0.66,1.04-1.04c0.02-0.03,0.14-0.18,0.07-0.08c0.04-0.05,0.08-0.1,0.12-0.16
		c0.07-0.09,0.13-0.19,0.2-0.29c0.13-0.21,0.26-0.42,0.38-0.63c0.06-0.11,0.12-0.23,0.17-0.35c0.02-0.05,0.05-0.11,0.07-0.16
		c0.01-0.02,0.03-0.07,0.04-0.1c0.09-0.22,0.17-0.44,0.25-0.67c0.12-0.37,0.21-0.76,0.29-1.14c0.04-0.2,0.07-0.4,0.1-0.6
		c0.01-0.07,0.02-0.14,0.03-0.2c0,0.01,0,0.02,0,0.03c0-0.02,0-0.05,0.01-0.07c0.01-0.11,0.03-0.23,0.04-0.34
		c0.05-0.46,0.07-0.93,0.06-1.4c-0.01-0.23-0.02-0.45-0.04-0.68C441.9,232.99,441.9,232.98,441.9,232.97z"/>
	<path class="st2" d="M375.1,227.3c-5.6,2.8-8.7,12.4-6.2,18.9c0.9,2.5,1.6,2.8,5.7,2.8c4.6,0,4.6,0,3-2.5
		c-5.6-8.5,4.7-17.4,10.7-9.3c1.8,2.4,1.9,3.2,1,6.3c-1.3,4-0.3,4.6,3.6,1.9c1.9-1.4,2.2-2.2,1.6-5.3
		C392.6,229.6,382.9,223.2,375.1,227.3z"/>
	<path class="st2" d="M97.56,24.79c0.74-0.4,1.42-0.9,2.11-1.37c2.6-3.19,8.09-5.43,13.93-5.53c3.3,0,7.9-0.4,10.4-0.8
		c3.18-0.6,4.93-0.9,5.88-0.92c0.09-0.01,0.18-0.01,0.26-0.02c0.03,0,0.07-0.01,0.1-0.01c0,0,0,0,0,0c0.07-0.01,0.13-0.02,0.2-0.03
		c0.26-0.04,0.52-0.1,0.78-0.15c0.46-0.1,0.92-0.21,1.38-0.3c0.49-0.09,0.99-0.15,1.49-0.16c0.55-0.02,1.1,0,1.64,0
		c3.17-0.81,8.12-0.31,18.26,1.5c8.5,1.6,9.4,1.9,4.6,1.6c-5.3-0.3-5.7-0.1-4,1.1c1.2,0.9,3.2,1.2,5.4,0.9
		c12.8-2.1,16.8-1.4,26.5,4.7c2.7,1.7,2.8,1.8,0.5,1.2c-1.9-0.5-2.2-0.4-1,0.4c0.8,0.6,3.1,1.1,5,1.1c1.9,0,4.5,0.6,5.6,1.3
		c1.2,0.6,3.9,2.2,6,3.4c3.85,2.09,11.11,8.58,12.4,10.65c0.11,0.1,0.24,0.19,0.35,0.29c0.37,0.36,0.72,0.75,1.06,1.14
		c0.34,0.39,0.68,0.78,1.06,1.13c0.1,0.09,0.14,0.22,0.15,0.35c0,0.08-0.02,0.15-0.05,0.22c2.76,1.42,5.72,3.23,6.55,4.21
		C226.3,53.2,235,67.9,235,69c0,0.5,0.9,1.4,2,2c1.2,0.6,4.4,6.2,7.6,12.8c7.6,16.2,7.8,16.5,9,16.9c0.7,0.2-0.8-3.5-3.2-8.2
		c-2.5-4.7-5.4-11-6.5-13.8c-1.1-2.9-3.1-6.3-4.3-7.7c-2.5-2.8-8.3-12-11.8-19c-1.9-3.6-3.1-4.7-6.8-6c-2.5-0.8-4.5-2-4.5-2.7
		c0-2.2-16.1-15.3-19.6-16c-1.9-0.3-8-2.8-13.6-5.5c-8-3.8-11.1-4.8-14.5-4.7c-5,0.3-17.5-1.7-23.2-3.7c-4.7-1.7-6.4-1.7-9.6,0
		c-3.5,1.9-19.3,4-24.1,3.2C106.8,15.8,102,18,98,23c-0.8,1-1.61,1.82-2.42,2.48c0.46-0.08,0.91-0.2,1.34-0.37
		C97.14,25.01,97.35,24.91,97.56,24.79z"/>
</g>
<g id="AMARILLO">
	<path class="st3" d="M294.1,272.3c-1.9-1-4.9-3.1-6.7-4.6c-3.3-2.8-3.3-2.8-5.3-0.5c-2.9,3-2.6,4.7,0.9,5.4c3.6,0.8,3.9,2,0.5,2.6
		c-1.7,0.4-3.1-0.2-4.7-1.9c-2.2-2.3-2.2-2.3-0.1-6.1c1.63-2.87,3.26-4.68,4.81-5.38c-0.51-0.34-1.03-0.67-1.54-1
		c-0.48,0.05-1.08,0.02-1.77-0.11c-2.3-0.5-3.3,0-5.6,2.9c-2.8,3.6-3.4,3.6-7.9,0.2c-1.8-1.4-1.8-1.6,0.3-6.2c2.3-4.7,2.3-4.7,0-7.1
		c-3-3.2-4-3.1-7.5,0.5c-1.6,1.6-3.4,3-4.1,3c-1.7,0-12.8,12.2-14.3,15.8c-1.2,2.9-1.1,3.3,4.1,10.4c4.3,5.7,16.2,20.1,20.7,25.1
		c0.4,0.4,3.5-2.8,6.9-7.2c6.2-7.9,13.2-14.9,20.7-20.8C297.5,274.2,297.5,274.2,294.1,272.3z M261,256.4c1.4,0.2,3.2,0.5,4,0.5
		c1.2,0.1,1.1,0.4-0.3,1.8c-1.6,1.6-1.8,1.6-4-0.5C258.5,255.9,258.5,255.9,261,256.4z M276,280.5c-0.7,0.9-0.9,2.6-0.5,4.5
		c0.7,3,0.6,3.1-1.3,2.1c-1.2-0.6-3.5-1.1-5.2-1.1c-3.2,0-3.2,0-2.8,4.5c0.2,2.7-0.1,4.5-0.7,4.5c-0.7,0-0.9-1.5-0.7-3.7
		c0.3-2.6,0-4-1.3-4.9c-1.8-1.4-1.1-3.9,0.8-2.7c0.6,0.4,3.1,1,5.4,1.3c4.2,0.7,4.3,0.6,4.3-2c0-2.8,0.7-4,2.3-4
		C276.8,279,276.7,279.7,276,280.5z"/>
	<path class="st3" d="M469.1,323.5c-2.6-1.1-5.1-1.5-7.1-1.2c-1.6,0.4-3,0.2-3-0.3c0-0.4-1.2-1.5-2.7-2.3
		c-0.39-0.2-0.78-0.4-1.18-0.6c-0.07,0.18-0.15,0.35-0.26,0.51c-0.12,0.17-0.26,0.35-0.41,0.5c-0.15,0.15-0.33,0.28-0.5,0.4
		c-0.11,0.08-0.23,0.15-0.36,0.21c-0.12,0.06-0.25,0.11-0.37,0.16c-0.01,0.01-0.01,0.02-0.01,0.04c-0.54,1.13-1.38,2.13-2.32,2.95
		c-1.91,1.67-4.24,2.8-6.64,3.58c-1.12,0.36-2.26,0.64-3.43,0.82c-1.09,0.17-12.9,0.93-21.31,0.84c-16.3-0.1-16.3-0.1-10.6,5.8
		c4.6,4.9,13.1,18.1,11.7,18.1c-0.2,0-2.3-3-4.6-6.6c-5.3-8.4-11.7-15.4-14.1-15.4c-2.7,0-2.6,0.1,5.1,10.3
		c3.9,5.1,8.2,11.6,9.8,14.4c2.2,4.4,3.2,5.3,5.4,5.3c1.5,0,3,0.4,3.3,1c0.3,0.5,1.1,1,1.6,1c0.6,0-0.2-1.6-1.7-3.5
		c-3.7-4.8-2.4-7.2,6.4-12.5c7.2-4.2,16.2-6.5,21.4-5.4c2.2,0.4,2.7,0.1,3-1.8c0.2-1.2,1.7-3.2,3.5-4.3c1.8-1.1,3.2-2.6,3.3-3.2
		c0-0.7,2.3-2.5,5-4.1C473,325.3,473,325.3,469.1,323.5z M416.5,339.1c-0.3-0.8-0.3-1.3,0-0.9c0.4,0.3,1.8,0,3.3-0.8
		c3.1-1.6,4.2-1.7,4.2-0.6C424,338.7,417.1,340.8,416.5,339.1z M436.1,333.6c-1.5,1.1-2.1,2.3-1.8,3.5c0.3,1.2,0,1.9-1,1.9
		c-1.1,0-1.3-0.5-0.7-1.8c0.4-0.9,0.7-2.7,0.7-4c-0.1-1.7,0.3-2.2,1.4-1.8c0.8,0.3,2,0.6,2.6,0.6C437.9,332,437.4,332.7,436.1,333.6
		z M451.7,328.8c-1.4,0.3-1.7,1-1.3,2.8c0.4,1.6,0.2,2.4-0.6,2.4c-2.2,0-4.1-1.7-3.3-3c0.6-0.9,1-0.9,1.7,0.1s0.8,0.8,0.3-0.8
		c-0.6-2.2,1.8-3.6,4-2.4C453.1,328.2,452.7,328.6,451.7,328.8z M465.7,326c-2,0-3.7,0.5-3.7,1.1c0,0.5-0.4,0.7-1,0.4
		c-0.5-0.3-1-1.2-1-2c0-1.2,7.5-1.1,8.9,0.1C469.1,325.8,467.7,326,465.7,326z"/>
	<path class="st3" d="M465,319.2c0-0.6-3.3-3.1-4.2-3.2c-0.5,0-0.8,0.3-0.8,0.7C460.1,318.7,465,321.2,465,319.2z"/>
	<path class="st3" d="M595,378c1.6,0,1.2-3.1-0.7-5.2c-2.2-2.4-0.8-3.6,1.6-1.4c1.9,1.7,2,1.7,3.5-0.6c2.3-3.5,4.3-8.9,4.9-12.8
		c1.5-10,1.9-17,0.9-17c-2.4,0-4.4,1.4-5.8,4.2c-1.4,2.8-1.4,3,1.5,5.9c3.1,3,3.1,3-0.4,6.1c-3.8,3.3-4.3,4.9-2,6.8
		c0.8,0.7,1.5,1.7,1.5,2.3c0,0.7-1.2,0-2.7-1.5c-2.9-2.9-3-2.4,2.2-9.4c0.6-0.9,0.3-2.2-1.3-4.4c-2.3-3-2.3-3-0.1-6
		c2.8-3.7,2.1-4.7-1.4-2c-4.9,3.9-7.1,12.2-5.8,21.8C592.2,374,593.4,378,595,378z"/>
	<path class="st3" d="M340.8,388.8c-0.7,0.7-1.9,1.2-2.7,1.2c-1.2,0-1.1-0.5,0.5-1.8c3.1-2.4,4.4-5.5,4.4-10c0-2.6,0.6-4.5,2-5.7
		c2.4-2.2,8-10.8,8-12.3s-3.6-1.9-9.3-1c-3.3,0.5-5.5,0.3-7.5-0.8c-3.1-1.6-5.1-1.7-7.1-0.5c-1.8,1.2,1.2,8.8,5.2,13.2
		c2.3,2.6,2.7,3.9,2.7,9c0,5.9-0.1,6.1-6,13c-8.4,9.8-8.3,10.3,2.5,10.6c4.4,0.1,9.8,0.3,12,0.5c5.2,0.4,5.7-2.2,1.9-9.2
		C344,388.8,342.4,387.2,340.8,388.8z"/>
	<path class="st3" d="M774.9,494.6c-3.4-0.3-12.5-0.6-20.2-0.6c-13.4,0-14,0.1-16.9,2.5c-0.94,0.78-2.04,1.43-3.15,1.86
		c-0.15,0.08-0.31,0.15-0.46,0.22c-0.98,0.51-1.95,1.05-2.96,1.49c-0.25,0.11-0.5,0.22-0.76,0.32c10.57,4.33,22.62,8.3,33.02,10.6
		c14.2,3.1,14,3.1,15.9-4.5C782.1,495.7,782,495.4,774.9,494.6z"/>
	<path class="st3" d="M800.6,646.4c7.8-9.3,36.1-31.4,40.1-31.4c0.8,0,1.1-0.5,0.8-1c-1.1-1.8-6.1-1-11.3,1.7
		c-15.7,8.5-38.5,28.3-43,37.4c-2.3,4.7-3.1,13.9-1.2,13.9c0.6,0,1-0.5,1-1C787,664.7,795.3,652.8,800.6,646.4z"/>
	<path class="st3" d="M567.4,687.5c3.3,8.4,4.3,9.1,12.1,7.6c16.9-3.1,60.7-19.8,62.2-23.7c0.3-0.9,0.2-5-0.3-9.2
		c-1-8.6-2-9.5-6.9-6.2c-11.4,7.9-54.7,24-64.3,24C566.5,680,565.5,682.5,567.4,687.5z"/>
	<path class="st3" d="M645.2,742.6c15.2,14.7,37.6,28.1,48.7,29.1c7.1,0.7,7.5,0.2,6.6-8.1c-0.7-6.3-0.7-6.3-6.5-6.9
		c-10.5-0.9-29.1-11.3-41.9-23.2c-4.3-4.1-8-7.5-8.2-7.5c-0.2,0-2,1-3.9,2.1c-1.9,1.2-3.7,2.3-3.9,2.5
		C635.3,731.3,640.2,737.8,645.2,742.6z M670.4,755.6c1.6,0.6,2.3,3.4,0.8,3.4c-1,0-3.2-2.2-3.2-3.2S668.3,754.8,670.4,755.6z
		 M647,736c0.6,0,1,0.6,1,1.4c0,1.6-2.8,4.2-3.6,3.3C643.6,740,645.8,736,647,736z"/>
	<path class="st3" d="M547.1,845.1c-0.3,0.1-2.2,0.6-4.1,1.1c-1.9,0.6-14.7,1.2-28.5,1.3c-25,0.3-25,0.3-25.7,6.2
		c-0.3,3.2-0.4,6-0.2,6.3c3.1,3.1,62.6-1.9,66.3-5.5C555.8,853.5,548.6,844.8,547.1,845.1z"/>
	<path class="st3" d="M402.5,867c-12.9,1.1-38,0.8-46.1-0.6c-3.1-0.6-3.1-0.6-3.8,5.5c-0.4,3.4-0.4,6.6,0,7.3
		c1.7,2.7,67.1-2.6,70.2-5.6c0.2-0.3-1.1-2.1-3-4.1C416.5,865.8,416.5,865.8,402.5,867z"/>
	<path class="st3" d="M511.6,411.6c10.1,1.9,15.5-7.9,10.8-19.6c-2.6-6.4-6.5-7.5-14-4.1c-5.6,2.6-5.7,2.9-3.8,12.3
		C506.5,409.9,507,410.7,511.6,411.6z M511.7,391c1.1,0,0.8,0.6-0.8,1.9c-2.1,1.7-2.2,2.1-0.9,5c0.7,1.7,1.1,3.4,0.8,3.6
		c-0.3,0.3-1.1-1.3-1.8-3.5C507.6,393.7,508.7,391,511.7,391z"/>
	<path class="st3" d="M379.8,237.1c-1.3,1.1-1.7,1.7-1,1.4c2.6-1.3,8.2,0.4,8.2,2.5c0,3.1-3.7,6.2-6.3,5.4c-1.7-0.5-1.9-0.3-1.1,0.6
		c1.8,1.8,5.7,0.8,7.3-2.1C390.1,239.2,384.5,233,379.8,237.1z"/>
	<path class="st3" d="M424.39,232.69c-0.95,0.99-1.22,1.51-0.68,1.21c1.97-1.26,6.61-0.38,6.79,1.3c0.26,2.48-2.44,5.28-4.59,4.86
		c-1.41-0.25-1.55-0.08-0.83,0.57c1.6,1.29,4.64,0.15,5.67-2.31C432.83,233.48,427.81,229,424.39,232.69z"/>
</g>
<g id="AZUL">
	<path class="st4" d="M473.6,469c0.7,0,3.7-1.7,6.5-3.9c8.7-6.5,19.8-8.2,27.8-4.1c5,2.5,4.4,2.6,7.5-1.4c2.4-3.2,2.5-3.6,1.1-6.4
		c-4.1-8-2.8-21.1,3.1-32c3.7-6.9,4.1-8.4,1.9-7.6c-0.8,0.3-2.3,2.9-3.4,5.7c-1.5,3.9-2,4.6-2,2.7c-0.1-1.4,0.6-3.6,1.5-4.8
		c1.5-2.2,1.4-2.2-2.1-2.2c-1.9,0-5.2-0.7-7.2-1.5c-1.9-0.8-3.6-1.5-3.7-1.4c0,0-1.2,0.5-2.6,1c-1.4,0.6-4.2,0.8-6.3,0.5
		c-2.5-0.4-7.2,0.2-14.1,2c-10.3,2.7-10.3,2.7-11.5,13.9C467.8,452.3,469.3,469,473.6,469z"/>
	<path class="st4" d="M469.3,465.1c-1.6-3.6-1.3-34.1,0.3-42.9c0.7-3.6,0.3-3.7-5.6-2c-5,1.4-5.6,2.2-6.9,8.5
		c-2.9,14.6-0.8,31.2,4.9,39.2c3.1,4.2,3.1,4.2,5.9,2.5C470.7,468.7,470.8,468.7,469.3,465.1z"/>
</g>
<g id="ROSITA">
	<path class="st5" d="M619.9,153.6c4.6-4.2,14.7-6,17.1-3.1c1.1,1.3,0.8,2.5-1.4,7.1c-2.7,5.6-4.7,16.4-3,16.4c0.5,0,2.8-0.5,5.1-1
		c5.1-1.2,11.1-0.1,18.5,3.5c2.8,1.4,5.3,2.3,5.5,2.2c0.5-0.6-3.7-14.8-5.9-19.5c-3-6.4-12-15-20.3-19.4c-12-6.2-24.3-9.5-26-6.9
		c-0.7,1.2,2,9.1,5.7,16.4C617.9,154.8,618.3,155.1,619.9,153.6z"/>
	<path class="st5" d="M609.8,233.3c-0.5-2-0.7-4.4-0.5-5.4c0.3-1.1,0.2-1.7-0.3-1.4c-0.4,0.3-1.3-1.7-2-4.3
		c-4.4-17.4-18.7-30.2-43.2-38.6c-11.4-3.9-14.1-3.6-13.2,1.1c4.4,24.8,23.6,44.6,49.7,51.3C609.9,238.4,611.1,238.1,609.8,233.3z"
		/>
	<path class="st5" d="M449.2,247.5c-1.1-2.8-2.3-7.9-2.7-11.5c-1-9.9-3.4-20.2-5.6-23.2c-1-1.5-1.9-3.1-1.9-3.6
		c0-3.2-5.3-5.7-12.2-5.7c-8.3,0-10.2-1.8-3.9-3.5c4.6-1.2,8.4-0.5,12.4,2.2c3.6,2.6,3.4,0.7-0.4-3.6c-4.6-5.3-15.1-10.1-26.1-11.9
		c-15.2-2.6-16.3-2.7-17.4-1.1c-0.5,0.8-4.7,2.8-9.3,4.4c-16.1,5.5-23.4,13.9-28.5,33c-3.1,11.3-6.4,19.4-10.7,25.6
		c-2.9,4.2-3.1,4.3-7.3,3.8c-3.6-0.5-4.6-0.3-6.3,1.6c-10.5,11.2,9.2,33.3,20.4,22.9c2.2-2.2,2.2-2.2,9,4
		c10.4,9.6,27.7,16.8,46.4,19.3c14.6,1.9,22.2-1.3,34.4-14.4C451.2,273.2,454.5,260.2,449.2,247.5z M330.5,257c1-1.6,4.7-1.2,8.2,1
		c1.7,1,3.7,2.8,4.3,3.9c1.5,3,0.2,2.6-3-0.9c-2.1-2.3-3.7-3-6.5-3C331.4,258,330.1,257.6,330.5,257z M342.9,271
		c-1,0-4.9-7.4-4.9-9.2c0-1.4,0.4-1,4.3,4.3C344.7,269.5,344.9,271,342.9,271z M362.9,219.2c6.1-11.9,21-20.8,29.5-17.6
		c3.1,1.2,1.6,3.2-2.6,3.9c-11.8,1.8-19.7,6.1-24.5,13.2C361.8,224,360.3,224.3,362.9,219.2z M366.4,242.8c-0.3-2.4-1-5.5-1.6-7.1
		c-1-2.5-0.7-3.1,2.8-6.4c7-6.5,12-7.6,19.1-4.2c8.2,4,12.7,17.7,7.1,21.3c-3.8,2.4-12.8,4.6-18.7,4.6
		C368.6,251,367.4,249.8,366.4,242.8z M431.6,263.3c-0.8,0.3-2.2,3-3.1,5.9c-4.1,12.4-6.6,14.8-15.6,14.8c-7.6,0-14.8-5.2-19.3-13.8
		c-0.9-1.7-2.1-3.2-2.8-3.4c-2.6-0.9,0.6-2.8,5-2.9c2.6,0,8.1-0.6,12.2-1.4c8.7-1.5,25-1.9,25-0.6C433,262.4,432.4,263,431.6,263.3z
		 M442.52,236.33c-0.11,0.98-0.46,2.33-0.96,3.18c-0.56,0.94-1.21,1.92-2.2,2.39c-6.57,3.16-13.32,2.27-13.84,2.24
		c1.98,2.92,1.81,5.21-0.62,8.25c-2.9,3.7-4.3,3.2-1.9-0.7c2.5-4,2.5-3.8-0.2-6.7c-1.3-1.4-2.4-3.1-2.5-4c-0.1-0.8-0.5-3.4-0.9-5.8
		c-1.8-11.5,6.6-19.8,16.1-15.8c4.4,1.9,6.45,6.79,7.03,11.65C442.55,231.18,442.83,233.56,442.52,236.33z"/>
	<path class="st5" d="M699,254.9c0.1,6.2,2.6,19.9,4,21.6c0.9,1,0.4,1.6-2.4,2.5c-12.2,4-12.5,16.6-0.7,27.2
		c5.9,5.3,33.3,21.8,42.1,25.4c22.9,9.3,50.7,1.7,59.6-16.3c3.8-7.6,1.7-24-3.7-28.9c-3.5-3.1-4.4-0.5-2.5,7
		c3.1,12.6,2,18.5-4.7,25.4c-13,13.4-34.6,14.5-54.6,2.7c-13.6-7.9-23.7-15.9-26.7-21.2c-2.7-4.6-3.7-5.7-5.9-6.7
		c-1.7-0.8,1.9-2.6,4-2c1.1,0.3,5.8,2.5,10.5,4.9c4.7,2.3,10.9,4.8,13.9,5.5c25.5,6,71.6-19.1,71.5-38.9
		c-0.1-9.9-12.2-27.8-26.5-39.1c-4.6-3.6-11.2-9.6-14.8-13.3c-8.8-9.1-9.5-9.4-12.7-6.2c-2.3,2.3-2.5,3.1-2,7.3
		c1.7,12.3,2.7,15,6.2,18.1c1.9,1.7,3,3.1,2.4,3.1c-4.6,0-9.9-9.6-10-18c0-3.4,0-3.4-3.7,0.2c-4.8,4.5-19.1,15.1-25.2,18.5
		C703.8,241.2,699,246.9,699,254.9z M730.1,241.5c4.2,1.5,11.4,6.3,10.6,7.1c-0.2,0.2-2.8-1-5.9-2.6c-7-3.8-13.5-4.8-17.7-2.7
		c-2.5,1.3-3.1,1.3-3.1,0.2C714,240,722.6,238.9,730.1,241.5z"/>
	<path class="st5" d="M248.6,246.4c-3.2-7.8-4.8-10.4-11.5-17.3c-4.9-5.3-5.3-5.5-6.4-4.4c-1.6,1.6-0.6,7.3,1.8,10.1
		c1.9,2.3,2.5,4,2.4,7.3c-0.1,2.6-0.4,3.4-0.6,2c-0.6-3.1-8.8-2.4-11.4,1.1c-1.7,2.2-5,2-4.8-0.4c0-1,0.2-1,0.6,0
		c0.4,1,0.8,1,1.9,0.1c2-1.7,1.7-2.6-1.1-3.1c-2.1-0.4-2.5-0.1-2.5,1.8c0,3.3-1.8,3-2.2-0.3c-0.2-1.8-1-2.9-2.2-3.1
		c-3.5-0.7-1.1,5.7,4.2,11.1c5.5,5.7,9.5,8,18.2,10.2c6.3,1.6,6.3,1.6,11.3-3.3C251.3,253.2,251.3,253.2,248.6,246.4z"/>
	<path class="st5" d="M454.9,259c1,5.5,1,5.5,0.7-2.5c-0.2-7.8-1.9-13.5-4.3-14.2c-0.8-0.3-0.5,1.5,0.7,5.4
		C453,250.9,454.3,256,454.9,259z"/>
	<path class="st5" d="M404.24,317.77c1.7-1.16,3.41-2.3,5.16-3.38c1.96-1.22,3.95-2.4,5.99-3.49c1.98-1.06,4.03-2.05,6.22-2.59
		c1.09-0.27,2.23-0.43,3.35-0.44c0.99,0,2.03,0.06,2.97,0.35c0.06,0.02,0.12,0.05,0.19,0.07c-0.24-0.62-0.46-1.22-0.62-1.79
		c-0.9-3-1.7-5.5-1.8-5.5c-0.1,0.1-1.5,0.8-3,1.6c-5.3,2.9-17.1,2.7-25.7-0.4c-1.2-0.4-1.2-0.2,0.2,1.4c1,1.1,3.1,5,4.8,8.8
		C403.22,315.03,403.95,316.62,404.24,317.77z"/>
</g>
<g id="ROJO">
	<path class="st6" d="M269.7,181.1c1.7-2.5,1.2-9.9-1.3-18.5c-0.8-2.7-1.4-6.7-1.4-8.7c0-4.6-3.2-18.5-5.3-22.5
		c-0.8-1.6-1.7-4.7-2.1-6.9c-1-5.6-6.5-21.5-8.6-24.5c-0.9-1.4-4.3-8-7.5-14.7c-3.2-6.7-6.3-12.4-7-12.7c-0.7-0.2-3.1-4-5.5-8.3
		c-6-11.1-8.5-14-14.2-16.9c-2.7-1.4-4.8-2.7-4.6-2.9c0.26-0.26,1.76,0.27,3.63,1.14c-0.23-0.26-0.46-0.52-0.69-0.77
		c-0.35-0.37-0.71-0.73-1.11-1.05c0.02,0.02,0.04,0.03,0.06,0.05c-0.07-0.04-0.13-0.1-0.18-0.18c-0.02-0.04-0.03-0.08-0.05-0.12
		c-0.01-0.03,0-0.07-0.01-0.1c-0.9-0.6-2.09-1.65-3.25-2.87c-4.8-5.2-16.1-11.6-20.5-11.6c-2.7,0-4.3-0.7-5.8-2.4
		c-2.8-3.2-12.9-6.9-16.8-6.2c-10.1,2-11.4,1.9-15.3-0.8c-4.6-3.1-16.9-3.9-19.2-1.1c-1.8,2.2-8.4,3.9-10.5,2.8
		c-1.4-0.8-0.8-1.1,3-1.6c2.6-0.4,5.8-1.6,7.2-2.7c0.2-0.16,0.41-0.31,0.63-0.45c0,0-0.01,0-0.01,0c-0.01,0-0.12,0.01-0.03,0
		c0.09-0.01-0.05,0.01-0.07,0.01c-0.02,0-0.05,0.01-0.07,0.01c-0.06,0.01-0.11,0.02-0.17,0.03c-0.11,0.02-0.23,0.04-0.34,0.06
		c-0.58,0.12-1.16,0.26-1.74,0.37c-0.51,0.41-3.06,1.01-6.1,1.36c-18.6,2-19.5,2.1-23.3,5c-1.62,1.23-2.47,1.81-2.75,1.83
		c-0.51,0.32-1.03,0.63-1.6,0.86c-0.86,0.35-1.79,0.48-2.71,0.48c-0.12,0-0.22-0.05-0.3-0.12c-0.76,0.42-1.54,0.7-2.34,0.85
		c-6.5,1-16.1,7.8-29,20.7C50,60.6,50,60.6,50,65.5c0,2.8-0.4,4.5-0.8,3.8c-2.4-3.7-10.6,13.4-9.9,20.7c0.2,2.5,0.2,3.7,0,2.7
		c-0.3-1.3-1.4,0-3.4,4.4c-3.9,8.1-4.6,13.6-2.5,17.7c2,3.9,2.1,7.6,0.1,9.2c-2.4,2-2.1,14.2,0.4,16.4c1,0.9,2.2,3.5,2.5,5.7
		c0.6,3.5,0.9,3.9,2.2,2.8s1.4-0.9,0.3,1.3c-2,4.5,1.1,12.8,6.6,17.2c2.5,2.1,4.5,4.5,4.5,5.4c0.1,4.3,9.4,14.6,17.7,19.8
		c1.5,1,5.6,3.9,8.9,6.5c6.6,5.1,15.3,9.9,17.9,9.9c0.9,0,6.7,2.2,12.8,4.9c6.5,2.9,14.6,5.6,19.2,6.5c4.4,0.8,12.1,2.9,17,4.7
		c7.1,2.5,11.5,3.3,20.5,3.9c7.5,0.5,15,1.7,21.7,3.6c9.4,2.5,10.7,2.7,15.1,1.5c3.6-0.9,5.6-0.9,7.8-0.1c1.6,0.6,6.9,1.4,11.8,1.7
		c8.8,0.6,8.8,0.6,8-1.8c-1.5-4.2-0.9-8.9,1.5-11.2c2.2-2.2,2.2-2.2,7.7,3.5c7.3,7.5,6.9,7.6,18.7-2.5c6.6-5.7,8.7-9.1,8.7-14.1
		c0-2.1,1-5,2.4-7.1c3.2-4.7,4.3-12.3,2.2-16.2C268.3,183.6,268.3,183.1,269.7,181.1z M168.6,185.7c-42.3-2.2-78.7-41.6-68.7-74.4
		c7.6-25.3,40.2-41.3,65.5-32.4c8.9,3.1,16,7.7,25.1,16.3C232.6,134.8,219.6,188.5,168.6,185.7z"/>
	<path class="st6" d="M177.6,182.4c5.4-0.6,5.4-0.6,5.4-9.9c0-16.3-5-27.8-17.2-39c-13.4-12.4-32.9-17.6-46.6-12.4
		c-3.1,1.2-7.6,4.2-10.9,7.3c-6.6,6.2-6.6,7.4,1.6,19.8C124.3,170.2,154.3,185.3,177.6,182.4z"/>
	<path class="st6" d="M409.2,171.9c18,0.3,29.5,11.6,36.3,35.7c2,7.2,2.3,7.9,1.9,3.9c-2.7-23.4-9.8-35.1-24.2-39.5
		c-6.5-2-13.7-2.4-18.2-1C403.2,171.6,404.3,171.8,409.2,171.9z"/>
	<path class="st6" d="M399.3,177.2c4.3-0.2,7.4,0.2,9.8,1.2c1.9,0.9,2.5,1.4,1.4,1c-4.2-1.3-14.3-1.6-16.1-0.6
		c-1.6,1-1.2,1.2,2.6,1.3c4.5,0.1,4.5,0.1,1,1.2c-3.4,1.1-3.4,1.1,3.6,1.8c8,0.8,17,3.2,22.6,6c8.1,4.1,4.4,0.6-5.7-5.5
		c-3.3-2-5.5-3.6-5-3.6c2.2,0,11.6,6.2,15.9,10.5c4.9,4.8,6.3,5.6,4.7,2.7c-2.5-4.5-9-10.7-13.5-12.8c-5.4-2.5-4.8-3.3,0.7-1.1
		c7.7,3.3,16.9,16.3,22.2,31.5c3.1,8.9,3.1,6.6,0-4.2c-5.1-17.8-13.1-28.6-23.4-31.9c-6.9-2.2-19.4-2.2-23.8-0.1
		C391.5,177,392.2,177.5,399.3,177.2z"/>
	<path class="st6" d="M331.1,246.9c0.1-3.4,0.1-3.4,0.9-0.4c0.8,3.7,0.5,4.8,5.6-18.5c5.8-26.4,8.2-31.7,17.8-38.4
		c7.4-5.2,13.4-7.6,18.4-7.5c3.1,0,2.7,0.3-2.7,1.4c-18.8,4.1-25.7,13.7-32.1,44.5c-1.7,8-3.4,15.9-3.9,17.7c-1,3.7-0.4,4.8,1.7,3
		c1.3-1,1.4-0.9,0.8,0.2c-0.6,0.9-0.4,1.2,0.5,0.9c3.9-1.2,10-13.8,14-28.6c5.2-19.7,15.5-30.9,30.9-33.8c6.4-1.2,8.2-3.1,6.4-6.5
		c-3.5-6.9-14.1-8.9-25.3-4.9c-14.9,5.4-26.2,17.8-32.9,36.2c-3.1,8.4-4.1,34.3-1.4,37C330.7,250.1,331,249.7,331.1,246.9z
		 M370.4,189c-12.1,5.9-16.1,11.3-23.1,31.3c-3.7,10.7-8.8,22.7-9.7,22.7c-0.3,0,0.6-2.4,1.9-5.3c1.3-2.9,4.1-10.5,6.3-16.8
		c7.7-22.3,14.5-30.8,28.2-35C379.2,184.4,378.3,185.1,370.4,189z M374,176.3c4.1,0,5.8,0.2,3.8,0.4c-2.1,0.2-5.5,0.2-7.5,0
		C368.2,176.5,369.9,176.3,374,176.3z M342.5,202c0.3,0-0.5,2.1-1.8,4.7c-3.3,6.5-6.5,16.6-8.7,27.1c-1,4.8-1.9,7.7-1.9,6.4
		C329.8,232.5,339.7,202,342.5,202z"/>
	<path class="st6" d="M377.4,207c2.4-1.1,6.8-2.4,9.7-2.9c5-0.8,5.1-0.9,1.4-0.9c-2.2,0-5.1,0.3-6.5,0.7c-3,0.9-9,4-9,4.6
		C373,208.7,375,208,377.4,207z"/>
	<path class="st6" d="M407.7,275c-7.3,0-7.7,0.1-6.8,1.9c2.4,4.4,15.3,6.9,19.6,3.7C424.1,278,417.2,275,407.7,275z"/>
	<path class="st6" d="M421.6,201.8c-0.2,0.4,1.4,0.6,3.7,0.4c6.8-0.5,7.6-1,2-1.1C424.5,201.1,421.9,201.3,421.6,201.8z"/>
	<path class="st6" d="M382.8,317.3c0.5-5.5-9-21-16.2-26.1c-5.9-4.3-6.3-4-2.6,1.5c3.7,5.6,0.7,2.4-5.7-6.1
		c-4.3-5.6-5.2-6.1-8.6-4.7c-2.7,1,1.6,6.4,15.6,19.5c6.4,6,12.9,12.8,14.4,15C382.5,320.5,382.5,320.5,382.8,317.3z"/>
	<path class="st6" d="M381.6,298.6c-0.6-0.2-2.8-1.1-4.8-2c-3.8-1.6-3.8-1.6,0,4.2c2,3.1,4.6,7.7,5.6,10c1.9,4.3,2,4.3,3.2,2
		c0.8-1.3,1.3-3.1,1.4-4.2C387,306.4,383.2,299.3,381.6,298.6z"/>
	<path class="st6" d="M390,303.1c0-0.7-4.4-3.1-5.7-3.1c-0.4,0,0.4,1.1,1.7,2.5C388.1,304.7,390,305,390,303.1z"/>
	<path class="st6" d="M388.1,324c4,2.1,4,2.1,7.9-1.2c4.7-4,4.9-6.4,1.3-13c-2.7-4.9-2.7-4.9-5-1.1c-2.5,4.1-3.2,3.5-0.8-0.7
		c2.2-3.9,1.5-5.6-1.3-2.8c-0.7,0.7-1.2,1.7-1.2,2.2c0,0.6-1.2,3.3-2.5,6.1C383.1,320.3,383.3,321.6,388.1,324z"/>
	<path class="st6" d="M400.4,357.6c-3.8-1.5-5.9-0.6-8.7,3.8c-1.5,2.4-3.5,5-4.4,5.8c-0.9,0.7,0-1.2,2-4.2c4.6-6.9,4.7-6.6-1.5-7.4
		c-2.9-0.4-6.2-0.9-7.3-1.2c-1.5-0.3-3.2,1-6.7,5.4c-5.3,6.6-11.6,10.4-20,12.2c-6.3,1.2-7.4,2.2-7.6,6.4c-0.2,2.9-0.2,2.9,5.8,2.3
		c6.1-0.7,13.4-3.8,18-7.8c1.4-1.1,1.8-1.9,1-1.6c-5.3,1.6-6,1.5-2.5-0.3c2.2-1.1,5.1-3.3,6.5-4.8c1.4-1.5,3.6-3.7,4.9-4.7
		c3.7-3,1.6,0-5.7,8.2c-7.4,8.2-12.7,11-22.7,12c-11.4,1-7.5,5.1,5.3,5.4c8.7,0.3,12.3-0.6,20.3-4.8
		C387.1,377.1,404.2,359,400.4,357.6z M382.4,371.1c-3.2,3.4-11.7,9.9-12.9,9.9c-0.5,0,1-1.3,3.1-2.9s5.7-4.5,7.9-6.5
		C385.5,367.2,386.3,367,382.4,371.1z"/>
	<path class="st6" d="M329.8,379.5c-2.5-0.5-5-1.3-5.4-1.8c-0.7-0.7,2.3-0.3,8.5,0.9c1.9,0.4,2.2,0.2,1.7-1.1
		c-0.3-0.9-0.6-2-0.6-2.5c0-2.6-19.9-6.6-21.4-4.2c-0.3,0.6-0.1,1.4,0.5,1.8c0.9,0.5,0.6,1.1-0.7,2.1c-1.6,1.2-1.7,1.6-0.6,3.4
		c1.1,1.8,1.1,2.3-0.3,3.3c-5.5,4,12.7,7.3,20,3.6C335.9,382.7,335.3,380.7,329.8,379.5z"/>
	<path class="st6" d="M784.8,302.9c-1.2-1.3-2-1.3-7.3,0.4c-3.3,1.1-8.4,3-11.2,4.3c-5.7,2.6-13.5,4.2-13.2,2.8
		c0.7-4,0.1-4.4-8.1-4.4c-8,0-8,0-6.4,2.5c0.9,1.4,2.8,2.8,4.3,3.1c1.4,0.4,5.3,1.8,8.6,3.1c11,4.6,23.4,2.1,31.8-6.2
		C786.4,305.4,786.5,305,784.8,302.9z"/>
</g>
</svg>
