<svg version="1.0" xmlns="http://www.w3.org/2000/svg"
 width="962.000000pt" height="1010.000000pt" viewBox="0 0 962.000000 1010.000000"
 preserveAspectRatio="xMidYMid meet" style="background:transparent;">
<metadata>
Created by potrace 1.16, written by Peter Selinger 2001-2019
</metadata>
<g transform="translate(0.000000,1010.000000) scale(0.100000,-0.100000)"
fill="#000000" stroke="none">
<path d="M0 5050 l0 -5050 4810 0 4810 0 0 5050 0 5050 -4810 0 -4810 0 0
-5050z m1444 4935 c47 -20 186 -45 251 -45 41 0 72 -10 153 -50 56 -27 113
-50 127 -50 24 0 42 -14 187 -146 20 -18 53 -40 72 -48 28 -12 41 -28 70 -88
20 -40 58 -102 85 -138 26 -36 67 -109 91 -162 23 -54 60 -127 82 -163 25 -42
43 -86 48 -122 12 -70 35 -143 67 -207 20 -40 26 -68 29 -148 3 -78 10 -112
30 -161 24 -57 25 -65 14 -113 -7 -28 -10 -66 -7 -85 3 -19 8 -52 12 -75 6
-34 2 -52 -25 -107 -17 -36 -35 -92 -39 -123 -7 -47 -14 -62 -36 -78 -15 -12
-61 -54 -101 -95 -73 -73 -73 -73 -43 -133 30 -59 30 -59 65 -29 45 40 57 39
111 -9 25 -22 50 -40 55 -40 15 0 88 -60 88 -72 0 -6 -12 -8 -28 -5 -23 5 -33
0 -56 -29 -28 -36 -34 -36 -79 -2 -18 14 -18 16 3 62 23 47 23 47 0 71 -30 32
-40 31 -75 -5 -16 -16 -34 -30 -41 -30 -17 0 -128 -122 -143 -158 -12 -29 -11
-33 41 -104 43 -57 162 -201 207 -251 4 -4 35 28 69 72 62 79 132 149 207 208
40 31 40 31 6 50 -19 10 -49 31 -67 46 -33 28 -33 28 -53 5 -29 -30 -26 -47 9
-54 36 -8 39 -20 5 -26 -17 -4 -31 2 -47 19 -22 23 -22 23 -1 61 33 58 66 73
92 40 11 -14 43 -40 70 -57 55 -35 65 -57 45 -95 -13 -26 -11 -27 109 -118 67
-50 145 -111 174 -134 46 -37 61 -43 135 -54 46 -6 143 -32 217 -56 74 -24
136 -43 138 -41 7 8 -50 70 -146 157 -57 52 -120 118 -139 145 -19 28 -38 49
-43 48 -5 -2 -33 6 -63 17 -114 43 -174 164 -132 265 12 29 13 51 4 130 -42
368 197 710 496 710 61 0 101 -5 120 -15 28 -14 33 -13 97 19 198 98 423 15
499 -186 30 -80 52 -227 53 -366 2 -108 4 -128 18 -132 22 -7 55 -86 64 -151
7 -52 -11 -117 -38 -139 -7 -5 -28 -41 -47 -79 -26 -52 -55 -88 -126 -155 -80
-75 -91 -89 -83 -108 5 -15 14 -21 23 -17 9 4 58 -20 118 -55 91 -55 103 -60
118 -46 21 19 47 19 122 -1 133 -34 368 -149 368 -180 0 -6 28 -22 63 -34 34
-13 143 -55 242 -93 205 -79 244 -84 436 -51 94 17 95 17 118 56 24 43 69 68
121 68 30 0 30 0 30 66 0 56 -2 65 -16 60 -9 -3 -21 -6 -28 -6 -7 0 -50 -22
-96 -50 -97 -58 -120 -63 -120 -22 0 123 137 351 264 439 66 45 77 87 29 100
-57 16 -146 7 -213 -21 -93 -40 -105 -39 -104 5 2 90 108 233 226 306 90 56
80 82 -47 118 -217 62 -332 160 -431 368 -70 148 -68 247 7 247 37 0 194 -52
267 -89 119 -60 240 -200 278 -320 18 -57 18 -57 41 -8 23 49 23 49 -20 99
-23 28 -79 80 -124 115 -78 61 -123 106 -123 124 0 34 103 54 150 29 19 -10
19 -10 1 22 -65 112 -64 284 1 319 26 14 68 -25 102 -94 22 -43 26 -46 35 -29
9 16 3 37 -28 103 -21 46 -44 101 -50 122 -67 205 417 29 529 -193 30 -60 60
-161 60 -204 0 -41 40 -52 117 -32 112 29 223 13 325 -47 53 -31 135 -116 143
-149 5 -18 22 -29 88 -52 45 -16 87 -31 94 -33 7 -3 15 7 19 21 8 34 59 76 91
76 18 0 50 -23 112 -83 47 -46 125 -115 172 -154 229 -190 311 -392 215 -535
-38 -58 -38 -58 -16 -87 145 -205 33 -456 -235 -526 -185 -48 -372 -2 -590
145 -22 15 -45 29 -50 33 -7 3 -2 -70 13 -191 42 -354 35 -651 -20 -910 -11
-52 -18 -95 -16 -96 2 -2 53 -33 115 -70 61 -36 149 -96 194 -132 81 -66 81
-66 138 -31 56 35 110 94 166 184 35 56 97 72 137 36 41 -36 7 -266 -57 -393
-23 -45 -23 -45 11 -85 41 -49 45 -99 13 -199 -24 -80 -37 -87 -132 -74 -68 9
-68 9 -98 -23 -29 -31 -31 -32 -96 -25 -37 4 -92 16 -122 27 -31 11 -76 24
-101 29 -66 12 -95 25 -116 53 -11 13 -34 26 -54 29 -35 6 -35 6 -36 -96 -1
-110 -24 -198 -70 -268 -13 -21 -22 -38 -20 -38 2 0 90 42 194 93 264 130 305
142 467 142 202 0 240 -30 375 -298 127 -250 167 -304 319 -425 30 -24 44 -45
52 -77 18 -71 34 -79 110 -60 191 50 361 -15 485 -184 62 -84 66 -108 30 -179
-78 -154 -261 -322 -520 -477 -379 -227 -469 -224 -595 25 -48 94 -75 170 -86
241 -5 31 -10 38 -35 43 -124 24 -228 256 -316 699 -15 79 -18 86 -33 73 -44
-39 -215 -108 -300 -122 -23 -4 -40 -9 -39 -13 17 -35 124 -177 162 -214 41
-40 51 -56 56 -95 4 -26 19 -87 33 -135 80 -265 57 -498 -81 -855 -68 -175
-96 -217 -170 -252 -53 -25 -53 -25 -48 -82 4 -37 15 -72 30 -97 94 -148 94
-337 0 -523 -51 -102 -104 -125 -222 -94 -220 56 -552 340 -745 636 -78 120
-78 127 -24 197 75 97 286 273 327 273 8 0 9 6 5 18 -58 135 -40 174 138 289
167 109 199 146 263 300 20 48 47 109 60 135 24 48 24 48 -3 54 -72 15 -132
42 -332 148 -349 184 -306 170 -368 120 -30 -24 -59 -44 -66 -44 -7 0 12 -11
40 -25 59 -27 96 -76 135 -177 22 -56 25 -59 74 -73 73 -21 85 -39 97 -145 13
-112 8 -119 -129 -181 -52 -23 -94 -46 -94 -51 0 -18 -78 -92 -115 -109 -46
-21 -150 -25 -189 -8 -20 9 -43 8 -111 -6 -108 -23 -124 -17 -165 65 -31 61
-31 61 -59 40 -58 -41 -134 -17 -190 60 -29 40 -29 40 -65 -17 -57 -90 -56
-92 12 -175 135 -164 254 -365 288 -488 9 -30 24 -79 35 -108 39 -107 25 -180
-70 -387 -61 -132 -68 -171 -47 -256 25 -100 24 -138 -6 -164 -25 -21 -25 -21
14 -64 21 -24 38 -49 38 -55 0 -6 21 -20 48 -30 127 -53 231 -238 232 -413 0
-94 -39 -112 -262 -120 -295 -11 -762 63 -839 133 -36 32 -17 202 35 322 43
98 51 170 22 197 -25 24 -46 80 -46 128 0 114 168 410 351 615 50 57 89 105
88 106 -2 2 -30 19 -61 39 -238 151 -423 448 -443 709 -7 98 -7 98 -116 98
-60 0 -109 -2 -109 -4 0 -2 16 -38 35 -80 75 -165 153 -526 162 -756 12 -292
-106 -563 -358 -825 -87 -90 -87 -90 -82 -135 4 -39 1 -51 -20 -76 -25 -29
-25 -29 9 -68 18 -21 56 -49 84 -62 121 -56 198 -187 222 -378 15 -123 9 -137
-69 -160 -200 -61 -977 5 -1075 92 -36 31 -17 248 31 347 28 59 48 126 53 175
1 16 -7 35 -25 52 -63 63 -38 174 67 300 120 145 545 469 668 510 9 3 6 18 -9
54 -92 214 -109 700 -33 937 39 121 39 118 -23 145 -29 12 -81 47 -116 78
-207 180 -319 412 -339 705 -7 91 -7 91 -85 -9 -87 -112 -181 -206 -200 -199
-24 8 -15 136 15 200 27 58 27 58 -3 40 -115 -67 -195 -155 -339 -371 -127
-190 -144 -199 -148 -82 -1 51 5 108 21 177 13 57 22 103 20 103 -13 0 -95
-202 -148 -365 -89 -271 -95 -279 -148 -215 -150 178 -81 655 135 932 29 37
29 37 -61 5 -86 -30 -91 -31 -108 -15 -22 23 -6 57 70 149 252 303 631 377
999 196 106 -52 106 -52 137 -15 18 21 27 39 21 43 -21 13 -10 64 20 98 17 19
30 43 30 54 0 24 34 57 77 75 58 24 173 145 173 182 0 148 145 281 319 294 67
4 67 4 54 56 -17 60 -12 241 7 294 9 25 10 36 1 45 -6 6 -11 30 -11 54 0 43 0
43 -44 43 -112 0 -164 86 -131 215 8 27 10 51 5 53 -5 2 -49 28 -97 58 -85 53
-124 88 -189 167 -30 37 -30 37 -68 -18 -126 -182 -343 -290 -499 -247 -44 12
-45 11 -12 -32 61 -80 39 -153 -44 -141 -25 4 -82 7 -125 6 -128 -1 -145 43
-54 137 37 38 39 43 18 36 -75 -26 -241 14 -225 53 4 10 9 43 11 73 7 91 21
103 113 97 42 -2 84 -8 94 -12 15 -6 14 -1 -7 30 -34 50 -33 76 3 98 36 21 61
22 87 2 14 -11 34 -13 76 -9 108 12 143 -29 86 -101 -21 -27 -21 -27 3 -20 58
16 147 70 182 110 37 43 37 43 -35 60 -86 21 -210 70 -328 130 -47 24 -155 76
-240 115 -160 74 -279 142 -337 193 -34 30 -34 30 -62 3 -32 -30 -39 -31 -66
-8 -58 50 -240 275 -274 340 -10 18 -9 28 2 52 15 29 15 29 -23 35 -114 19
-236 122 -262 221 -12 44 -12 44 -102 44 -84 0 -112 5 -206 40 -19 7 -89 16
-155 20 -92 6 -137 13 -195 34 -41 15 -88 32 -105 37 -16 6 -63 14 -103 19
-50 5 -84 15 -110 32 -53 35 -191 88 -229 88 -49 0 -84 17 -120 60 -49 57
-146 127 -192 140 -43 11 -65 35 -77 85 -8 32 -103 158 -131 173 -10 6 -17 25
-18 53 -2 55 -38 172 -64 208 -17 23 -18 34 -10 70 12 53 14 186 4 229 -5 24
-3 39 11 60 22 33 54 143 58 197 1 24 13 57 29 80 15 22 27 43 27 48 0 5 13
27 29 51 16 23 33 59 36 80 5 26 19 46 47 69 105 85 188 160 188 172 0 24 49
64 91 75 24 6 62 19 84 29 22 11 51 22 63 26 13 4 46 21 72 37 47 29 54 30
172 32 101 2 131 6 168 23 56 26 50 26 94 8z m1206 -2454 c12 -1 11 -4 -3 -18
-16 -16 -18 -16 -40 5 -22 23 -22 23 3 18 14 -2 32 -5 40 -5z m110 -236 c-7
-9 -9 -26 -5 -45 7 -30 6 -31 -13 -21 -12 6 -35 11 -52 11 -32 0 -32 0 -28
-45 2 -27 -1 -45 -7 -45 -7 0 -9 15 -7 37 3 26 0 40 -13 49 -18 14 -11 39 8
27 6 -4 31 -10 54 -13 42 -7 43 -6 43 20 0 28 7 40 23 40 5 0 4 -7 -3 -15z"/>
<path d="M1360 9966 c-35 -19 -193 -40 -241 -32 -51 8 -99 -14 -139 -64 -20
-25 -40 -39 -62 -43 -65 -10 -161 -78 -290 -207 -128 -126 -128 -126 -128
-175 0 -28 -4 -45 -8 -38 -24 37 -106 -134 -99 -207 2 -25 2 -37 0 -27 -3 13
-14 0 -34 -44 -39 -81 -46 -136 -25 -177 20 -39 21 -76 1 -92 -24 -20 -21
-142 4 -164 10 -9 22 -35 25 -57 6 -35 9 -39 22 -28 13 11 14 9 3 -13 -20 -45
11 -128 66 -172 25 -21 45 -45 45 -54 1 -43 94 -146 177 -198 15 -10 56 -39
89 -65 66 -51 153 -99 179 -99 9 0 67 -22 128 -49 65 -29 146 -56 192 -65 44
-8 121 -29 170 -47 71 -25 115 -33 205 -39 75 -5 150 -17 217 -36 94 -25 107
-27 151 -15 36 9 56 9 78 1 16 -6 69 -14 118 -17 88 -6 88 -6 80 18 -15 42 -9
89 15 112 22 22 22 22 77 -35 73 -75 69 -76 187 25 66 57 87 91 87 141 0 21
10 50 24 71 32 47 43 123 22 162 -13 27 -13 32 1 52 17 25 12 99 -13 185 -8
27 -14 67 -14 87 0 46 -32 185 -53 225 -8 16 -17 47 -21 69 -10 56 -65 215
-86 245 -9 14 -43 80 -75 147 -32 67 -63 124 -70 127 -7 2 -31 40 -55 83 -60
111 -85 140 -142 169 -27 14 -48 27 -46 29 7 7 103 -43 119 -62 22 -25 109
-172 109 -183 0 -5 9 -14 20 -20 12 -6 44 -62 76 -128 76 -162 78 -165 90
-169 7 -2 -8 35 -32 82 -25 47 -54 110 -65 138 -11 29 -31 63 -43 77 -25 28
-83 120 -118 190 -19 36 -31 47 -68 60 -25 8 -45 20 -45 27 0 22 -161 153
-196 160 -19 3 -80 28 -136 55 -80 38 -111 48 -145 47 -50 -3 -175 17 -232 37
-47 17 -64 17 -96 0z m180 -36 c85 -16 94 -19 46 -16 -53 3 -57 1 -40 -11 12
-9 32 -12 54 -9 128 21 168 14 265 -47 27 -17 28 -18 5 -12 -19 5 -22 4 -10
-4 8 -6 31 -11 50 -11 19 0 45 -6 56 -13 12 -6 39 -22 60 -34 46 -25 141 -113
124 -113 -7 0 -26 15 -44 34 -48 52 -161 116 -205 116 -27 0 -43 7 -58 24 -28
32 -129 69 -168 62 -101 -20 -114 -19 -153 8 -46 31 -169 39 -192 11 -18 -22
-84 -39 -105 -28 -14 8 -8 11 30 16 26 4 58 16 72 27 32 25 73 25 213 0z
m-230 1 c0 -4 -28 -11 -62 -15 -186 -20 -195 -21 -233 -50 -29 -22 -34 -24
-24 -8 23 36 82 62 145 63 33 0 79 4 104 8 64 12 70 12 70 2z m344 -620 c89
-31 160 -77 251 -163 421 -396 291 -933 -219 -905 -423 22 -787 416 -687 744
76 253 402 413 655 324z"/>
<path d="M1445 9304 c-233 -35 -419 -209 -433 -405 -8 -116 -1 -125 54 -71 76
73 141 97 254 96 307 -3 566 -285 538 -586 -6 -55 -2 -56 59 -28 167 76 244
272 183 472 -95 313 -403 559 -655 522z"/>
<path d="M1192 8889 c-31 -12 -76 -42 -109 -73 -66 -62 -66 -74 16 -198 144
-220 444 -371 677 -342 54 6 54 6 54 99 0 163 -50 278 -172 390 -134 124 -329
176 -466 124z"/>
<path d="M891 9850 c-35 -17 -70 -30 -78 -30 -31 0 -79 -31 -96 -63 -10 -17
-56 -66 -103 -107 -46 -41 -84 -81 -84 -87 0 -7 -5 -13 -11 -13 -5 0 -7 6 -3
13 4 6 -2 4 -13 -6 -12 -10 -24 -35 -28 -55 -3 -20 -17 -53 -29 -72 -65 -100
-86 -142 -86 -178 0 -46 -34 -154 -62 -200 -18 -30 -20 -39 -10 -66 16 -42 15
-171 0 -213 -11 -30 -9 -39 15 -86 14 -28 35 -81 46 -117 10 -36 22 -74 27
-84 5 -14 4 -17 -4 -12 -24 14 -11 -8 31 -54 70 -78 107 -128 107 -144 0 -37
24 -66 69 -83 56 -21 129 -73 185 -131 52 -55 65 -62 136 -72 37 -5 98 -27
163 -58 75 -37 121 -53 168 -58 35 -4 116 -25 179 -47 97 -33 133 -40 230 -46
79 -5 137 -15 185 -31 54 -18 95 -24 180 -26 61 -1 134 -7 164 -13 87 -18 189
-9 153 13 -13 8 -214 19 -312 17 -70 -2 -194 21 -261 47 -15 6 -67 11 -117 11
-78 0 -107 6 -209 40 -65 22 -148 44 -184 49 -41 6 -107 29 -177 61 -61 28
-119 51 -127 51 -23 0 -96 39 -127 67 -14 14 -31 22 -36 19 -6 -3 -12 0 -15 7
-4 11 -69 56 -190 132 -17 11 -36 34 -41 50 -5 17 -22 47 -38 67 -30 40 -35
53 -15 42 17 -10 9 -2 -38 38 -22 19 -41 38 -42 43 -10 62 -57 212 -69 226
-13 15 -16 35 -14 91 1 40 3 120 4 178 1 97 4 111 34 174 18 38 31 75 28 83
-8 21 39 138 73 181 17 20 33 53 37 72 7 36 250 292 282 297 8 1 20 7 26 14 8
8 4 8 -14 -1 -14 -7 -20 -8 -15 -2 9 10 23 16 135 57 42 15 86 46 65 45 -6 -1
-39 -14 -74 -30z m-76 -1800 c16 -16 34 -30 41 -30 7 0 15 -4 18 -9 4 -5 -2
-7 -11 -4 -22 6 -102 73 -87 73 5 0 23 -13 39 -30z"/>
<path d="M2556 9043 c9 -21 29 -84 44 -141 15 -56 30 -106 34 -109 11 -11 7
14 -14 79 -11 34 -20 74 -20 88 0 29 -33 104 -49 115 -7 4 -5 -9 5 -32z"/>
<path d="M2657 8738 c7 -22 16 -77 19 -122 3 -44 13 -103 22 -131 9 -27 18
-81 22 -120 6 -70 6 -70 14 -21 7 40 4 61 -18 125 -20 57 -26 95 -26 154 0 74
-16 137 -38 151 -5 3 -3 -13 5 -36z"/>
<path d="M6095 8771 c-7 -12 20 -91 57 -164 27 -55 31 -58 47 -43 46 42 147
60 171 31 11 -13 8 -25 -14 -71 -27 -56 -47 -164 -30 -164 5 0 28 5 51 10 51
12 111 1 185 -35 28 -14 53 -23 55 -22 5 6 -37 148 -59 195 -30 64 -120 150
-203 194 -120 62 -243 95 -260 69z"/>
<path d="M5999 8558 c-25 -47 -7 -165 41 -256 23 -45 40 -85 38 -88 -3 -2 -29
7 -59 21 -106 49 -151 25 -74 -40 27 -22 80 -69 118 -105 46 -43 66 -56 58
-40 -12 25 -12 25 6 4 10 -12 23 -30 29 -40 10 -18 13 -17 48 13 56 50 92 65
147 62 50 -3 50 -3 74 48 27 59 77 96 143 108 62 10 59 18 -25 60 -73 37 -78
38 -154 32 -73 -6 -79 -5 -90 15 -16 29 -5 119 20 172 26 53 26 56 -1 56 -70
-1 -153 -73 -164 -141 -8 -45 -19 -50 -28 -12 -8 30 -93 153 -107 153 -4 0
-13 -10 -20 -22z"/>
<path d="M4050 8390 c-18 -6 -7 -8 42 -9 180 -3 295 -116 363 -357 20 -72 23
-79 19 -39 -27 234 -98 351 -242 395 -65 20 -137 24 -182 10z"/>
<path d="M3963 8354 c-48 -24 -41 -29 30 -26 43 2 74 -2 98 -12 19 -9 25 -14
14 -10 -42 13 -143 16 -161 6 -16 -10 -12 -12 26 -13 45 -1 45 -1 10 -12 -34
-11 -34 -11 36 -18 80 -8 170 -32 226 -60 81 -41 44 -6 -57 55 -33 20 -55 36
-50 36 22 0 116 -62 159 -105 49 -48 63 -56 47 -27 -25 45 -90 107 -135 128
-54 25 -48 33 7 11 77 -33 169 -163 222 -315 31 -89 31 -66 0 42 -51 178 -131
286 -234 319 -69 22 -194 22 -238 1z"/>
<path d="M3641 8340 c-149 -54 -262 -178 -329 -362 -31 -84 -41 -343 -14 -370
9 -9 12 -5 13 23 1 34 1 34 9 4 8 -37 5 -48 56 185 58 264 82 317 178 384 74
52 134 76 184 75 31 0 27 -3 -27 -14 -188 -41 -257 -137 -321 -445 -17 -80
-34 -159 -39 -177 -10 -37 -4 -48 17 -30 13 10 14 9 8 -2 -6 -9 -4 -12 5 -9
39 12 100 138 140 286 52 197 155 309 309 338 64 12 82 31 64 65 -35 69 -141
89 -253 49z m137 -7 c-21 -2 -55 -2 -75 0 -21 2 -4 4 37 4 41 0 58 -2 38 -4z
m-74 -123 c-121 -59 -161 -113 -231 -313 -37 -107 -88 -227 -97 -227 -3 0 6
24 19 53 13 29 41 105 63 168 77 223 145 308 282 350 52 15 43 8 -36 -31z
m-297 -177 c-33 -65 -65 -166 -87 -271 -10 -48 -19 -77 -19 -64 -3 77 96 382
124 382 3 0 -5 -21 -18 -47z"/>
<path d="M2706 8282 c-4 -6 -2 -20 4 -31 15 -29 12 -116 -5 -158 -8 -19 -15
-45 -14 -57 1 -19 2 -18 8 4 5 14 15 40 24 57 25 48 8 226 -17 185z"/>
<path d="M5506 8253 c44 -248 236 -446 497 -513 96 -24 108 -21 95 27 -5 20
-7 44 -5 54 3 11 2 17 -3 14 -4 -3 -13 17 -20 43 -44 174 -187 302 -432 386
-114 39 -141 36 -132 -11z"/>
<path d="M6796 8269 c-160 -38 -165 -133 -12 -224 73 -43 79 -43 71 -4 -26
118 151 177 220 73 21 -33 23 -97 4 -120 -16 -20 5 -15 79 17 53 23 59 37 34
86 -65 124 -252 206 -396 172z"/>
<path d="M3914 8244 c-5 -8 -47 -28 -93 -44 -161 -55 -234 -139 -285 -330 -31
-113 -64 -194 -107 -256 -29 -42 -31 -43 -73 -38 -36 5 -46 3 -63 -16 -105
-112 92 -333 204 -229 22 22 22 22 90 -40 104 -96 277 -168 464 -193 146 -19
222 13 344 144 117 126 150 256 97 383 -11 28 -23 79 -27 115 -10 99 -34 202
-56 232 -10 15 -19 31 -19 36 0 32 -53 57 -122 57 -83 0 -102 18 -39 35 46 12
84 5 124 -22 36 -26 34 -7 -4 36 -46 53 -151 101 -261 119 -152 26 -163 27
-174 11z m10 -160 c31 -12 16 -32 -26 -39 -118 -18 -197 -61 -245 -132 -35
-53 -50 -56 -24 -5 61 119 210 208 295 176z m431 -178 c44 -19 63 -49 69 -116
4 -41 3 -47 -3 -23 -29 110 -129 156 -181 83 -40 -56 -34 -130 7 -85 4 4 2 5
-6 0 -9 -5 -12 -3 -9 6 14 42 88 15 88 -32 0 -55 -62 -79 -88 -34 -6 11 -12
15 -12 8 0 -6 11 -25 25 -41 30 -36 32 -61 4 -96 -29 -37 -43 -32 -19 7 25 40
25 38 -2 67 -13 14 -24 31 -25 40 -1 8 -5 34 -9 58 -18 115 66 198 161 158z
m-488 -57 c82 -40 127 -177 71 -213 -38 -24 -128 -46 -187 -46 -65 0 -77 12
-87 82 -3 24 -10 55 -16 71 -10 25 -7 31 28 64 70 65 120 76 191 42z m470
-149 c-4 -16 0 -20 21 -21 27 -1 27 -1 2 -9 -14 -4 -38 -8 -54 -9 -29 -1 -29
-1 0 28 36 35 38 36 31 11z m-950 -180 c17 -10 37 -28 43 -39 15 -30 2 -26
-30 9 -21 23 -37 30 -65 30 -21 0 -34 4 -30 10 10 16 47 12 82 -10z m36 -81
c24 -34 26 -49 6 -49 -10 0 -49 74 -49 92 0 14 4 10 43 -43z m907 42 c0 -5 -6
-11 -14 -14 -8 -3 -22 -30 -31 -59 -41 -124 -66 -148 -156 -148 -76 0 -148 52
-193 138 -9 17 -21 32 -28 34 -26 9 6 28 50 29 26 0 81 6 122 14 87 15 250 19
250 6z"/>
<path d="M3820 8061 c-30 -9 -90 -40 -90 -46 0 -2 20 5 44 15 24 11 68 24 97
29 50 8 51 9 14 9 -22 0 -51 -3 -65 -7z"/>
<path d="M3751 7827 c-56 -28 -87 -124 -62 -189 9 -25 16 -28 57 -28 46 0 46
0 30 25 -56 85 47 174 107 93 18 -24 19 -32 10 -63 -13 -40 -3 -46 36 -19 19
14 22 22 16 53 -19 105 -116 169 -194 128z"/>
<path d="M3798 7729 c-13 -11 -17 -17 -10 -14 26 13 82 -4 82 -25 0 -31 -37
-62 -63 -54 -17 5 -19 3 -11 -6 18 -18 57 -8 73 21 32 57 -24 119 -71 78z"/>
<path d="M4185 7464 c-213 -24 -231 -27 -190 -36 37 -9 198 4 249 19 20 5 3
24 -19 21 -5 0 -23 -2 -40 -4z"/>
<path d="M4009 7331 c24 -44 153 -69 196 -37 36 26 -33 56 -128 56 -73 0 -77
-1 -68 -19z"/>
<path d="M6590 8221 c-101 -32 -145 -65 -133 -98 3 -7 -3 -13 -11 -13 -9 0
-20 -8 -23 -17 -10 -27 -21 -31 -67 -26 -28 4 -53 0 -73 -10 -47 -25 -141
-132 -154 -177 -12 -39 -5 -67 10 -42 4 7 5 -16 3 -50 -3 -51 -8 -66 -27 -81
-23 -17 -23 -18 -8 -80 84 -355 75 -810 -23 -1105 -49 -147 -165 -349 -259
-451 -30 -34 -55 -65 -55 -70 0 -5 -31 -21 -69 -35 -156 -60 -244 -144 -310
-296 -9 -21 -73 -112 -158 -228 -23 -30 -23 -30 95 -124 64 -52 134 -107 155
-123 47 -35 86 -111 116 -225 91 -344 136 -478 236 -706 51 -115 160 -335 184
-373 10 -15 161 87 161 109 0 5 -38 36 -83 69 -121 87 -236 215 -214 237 3 3
38 -28 78 -68 140 -139 184 -167 626 -402 170 -90 301 -146 346 -146 18 0 18
1 -2 34 -12 18 -21 40 -21 47 0 8 18 -15 40 -51 41 -67 50 -91 26 -71 -29 25
-63 -23 -110 -156 -52 -147 -126 -237 -281 -343 -187 -127 -202 -171 -99 -297
35 -43 35 -43 142 46 119 99 204 185 247 249 25 38 47 60 29 30 -48 -82 -127
-168 -258 -278 -122 -103 -122 -106 -1 -189 216 -149 386 -179 478 -83 50 52
164 345 203 522 33 149 21 379 -28 530 -26 81 -31 87 -62 67 -29 -20 -128 -58
-134 -53 -4 5 85 46 99 46 17 0 69 53 69 71 0 10 -11 26 -25 35 -14 9 -63 68
-110 130 -175 234 -418 392 -653 424 -98 13 -164 4 -281 -40 -58 -21 -88 -27
-95 -20 -7 7 -5 10 7 10 10 0 57 16 105 35 115 47 199 60 294 45 159 -24 137
-29 189 42 135 182 168 345 124 598 -4 24 -3 30 3 20 20 -30 35 -170 29 -272
-7 -136 -53 -263 -138 -381 -35 -49 -36 -57 -5 -57 47 0 142 109 232 267 113
198 118 337 22 566 -22 52 -32 57 -48 27 -12 -23 -60 -50 -89 -50 -16 0 -67
20 -197 76 -8 4 -13 -26 -16 -93 -8 -166 -54 -248 -228 -405 -108 -99 -410
-323 -410 -305 0 2 28 24 63 47 394 274 534 429 558 619 16 134 11 147 -81
209 -89 60 -271 214 -345 292 -29 31 3 7 75 -56 224 -196 430 -328 542 -349
42 -8 38 -16 127 259 130 401 154 763 82 1235 -17 113 -29 206 -27 209 6 5 11
-27 41 -218 78 -516 56 -793 -105 -1296 -68 -215 -67 -208 -40 -194 54 29 121
186 180 424 95 377 107 634 50 1106 -11 91 -20 170 -20 175 0 6 -13 19 -30 28
-28 17 -31 17 -92 -4 -255 -89 -558 23 -682 251 -36 66 -27 75 14 15 79 -114
200 -205 324 -240 74 -22 256 -16 328 10 47 17 47 17 3 71 -49 60 -68 114 -59
164 7 31 66 103 91 111 10 3 10 21 -2 82 -36 190 -13 250 132 344 128 82 282
197 279 207 -1 5 -35 23 -74 39 -72 28 -72 28 -98 8 -129 -102 -377 -65 -524
77 -54 52 -60 74 -35 122 18 35 15 36 -65 11z m173 -227 c107 -42 188 -130
173 -190 -19 -74 -196 -183 -333 -204 -181 -28 -363 73 -363 203 0 66 102 163
209 199 73 24 242 20 314 -8z m-848 -2104 c44 -44 77 -80 75 -80 -3 0 -41 36
-85 80 -44 44 -77 80 -75 80 3 0 41 -36 85 -80z m1121 -2369 c-3 -35 -9 -68
-14 -73 -4 -4 -4 19 2 53 8 45 7 68 -3 92 -23 56 -23 73 0 33 18 -34 21 -50
15 -105z m-41 -158 c-20 -54 -73 -163 -79 -163 -2 0 16 44 40 98 24 53 44 103
44 111 0 8 3 11 6 8 4 -4 -1 -28 -11 -54z"/>
<path d="M6515 7989 c-109 -16 -234 -103 -247 -172 -19 -100 114 -197 272
-197 95 0 108 7 68 34 -59 39 -74 104 -39 162 66 109 223 65 239 -66 7 -52 7
-52 55 -8 59 55 63 90 15 143 -69 80 -225 124 -363 104z"/>
<path d="M4216 8082 c-2 -4 14 -6 37 -4 68 5 76 10 20 11 -28 0 -54 -2 -57 -7z"/>
<path d="M7494 8055 c-23 -23 -25 -31 -20 -73 17 -123 27 -150 62 -181 19 -17
30 -31 24 -31 -46 0 -99 96 -100 180 0 34 0 34 -37 -2 -48 -45 -191 -151 -252
-185 -133 -75 -181 -132 -181 -212 1 -62 26 -199 40 -216 9 -10 4 -16 -24 -25
-122 -40 -125 -166 -7 -272 59 -53 333 -218 421 -254 229 -93 507 -17 596 163
38 76 17 240 -37 289 -35 31 -44 5 -25 -70 31 -126 20 -185 -47 -254 -130
-134 -346 -145 -546 -27 -136 79 -237 159 -267 212 -27 46 -37 57 -59 67 -17
8 19 26 40 20 11 -3 58 -25 105 -49 47 -23 109 -48 139 -55 255 -60 716 191
715 389 -1 99 -122 278 -265 391 -46 36 -112 96 -148 133 -88 91 -95 94 -127
62z m-193 -370 c42 -15 114 -63 106 -71 -2 -2 -28 10 -59 26 -70 38 -135 48
-177 27 -25 -13 -31 -13 -31 -2 0 35 86 46 161 20z"/>
<path d="M2665 8020 c10 -46 -24 -109 -89 -165 -31 -27 -58 -56 -61 -65 -3 -9
-20 -24 -38 -33 -28 -14 -29 -16 -9 -16 21 -1 72 39 72 56 0 4 25 26 56 48 31
22 60 47 64 56 16 29 24 149 11 149 -9 0 -11 -9 -6 -30z"/>
<path d="M2307 7853 c-16 -16 -6 -73 18 -101 19 -23 25 -40 24 -73 -1 -26 -4
-34 -6 -20 -6 31 -88 24 -114 -11 -17 -22 -50 -20 -48 4 0 10 2 10 6 0 4 -10
8 -10 19 -1 20 17 17 26 -11 31 -21 4 -25 1 -25 -18 0 -33 -18 -30 -22 3 -2
18 -10 29 -22 31 -35 7 -11 -57 42 -111 55 -57 95 -80 182 -102 63 -16 63 -16
113 33 50 50 50 50 23 118 -32 78 -48 104 -115 173 -49 53 -53 55 -64 44z"/>
<path d="M4520 7623 c10 -32 23 -83 29 -113 10 -55 10 -55 7 25 -2 78 -19 135
-43 142 -8 3 -5 -15 7 -54z"/>
<path d="M6004 7556 c-84 -57 -165 -156 -188 -233 -7 -21 -7 -21 46 -1 75 28
156 40 212 29 25 -5 46 -6 46 -4 0 15 -23 156 -31 196 -13 56 -19 57 -85 13z"/>
<path d="M2698 7533 c-34 -40 -29 -73 12 -73 32 0 55 48 34 71 -21 23 -27 24
-46 2z"/>
<path d="M2874 7242 c-27 -26 -67 -69 -89 -96 -39 -48 -39 -48 0 -83 63 -53
188 -128 294 -174 53 -23 109 -51 124 -62 16 -10 49 -25 73 -33 25 -7 56 -22
70 -33 80 -63 365 -154 583 -185 80 -12 127 -24 160 -42 67 -37 74 -48 27 -41
-39 6 -39 6 0 -36 21 -23 40 -44 42 -46 1 -2 2 20 2 50 0 103 -151 296 -281
360 -94 46 -358 133 -468 153 -96 18 -98 19 -256 141 -248 191 -225 180 -281
127z"/>
<path d="M3497 7281 c-27 -10 16 -64 156 -195 64 -60 129 -128 144 -150 28
-41 28 -41 31 -9 5 55 -90 210 -162 261 -59 43 -63 40 -26 -15 37 -56 7 -24
-57 61 -43 56 -52 61 -86 47z"/>
<path d="M7881 7204 c-15 -11 -19 -20 -13 -26 12 -12 28 -4 42 23 13 23 2 24
-29 3z"/>
<path d="M6079 7176 c-103 -78 -219 -256 -236 -360 -6 -39 -6 -39 28 -14 53
40 135 78 182 84 42 6 42 6 40 -82 -2 -69 0 -81 7 -54 14 55 32 297 28 383 -3
79 -3 79 -49 43z"/>
<path d="M7772 7149 c-35 -21 -52 -37 -50 -48 9 -44 110 1 116 52 4 34 -1 34
-66 -4z"/>
<path d="M7896 7146 c-3 -14 -3 -32 0 -41 4 -9 1 -34 -6 -55 -9 -28 -10 -52
-4 -82 9 -43 9 -43 34 -3 26 41 33 117 17 178 -9 33 -33 35 -41 3z"/>
<path d="M3768 7092 c20 -31 46 -77 56 -100 19 -43 20 -43 32 -20 8 13 13 31
14 42 0 22 -38 93 -54 100 -6 2 -28 11 -48 20 -38 16 -38 16 0 -42z"/>
<path d="M7144 7091 c16 -30 65 -75 74 -67 15 15 -12 58 -49 76 -40 21 -40 21
-25 -9z"/>
<path d="M3860 7075 c21 -22 40 -25 40 -6 0 7 -44 31 -57 31 -4 0 4 -11 17
-25z"/>
<path d="M7608 7071 c-67 -26 -76 -36 -47 -54 23 -14 139 40 139 64 0 24 -9
23 -92 -10z"/>
<path d="M4227 7074 c-53 -29 -171 -27 -257 4 -12 4 -12 2 2 -14 10 -11 31
-50 48 -88 31 -67 31 -67 5 -97 -52 -63 -26 -68 245 -50 110 8 134 5 105 -12
-10 -5 -90 -9 -180 -8 -163 1 -163 1 -106 -58 46 -49 131 -181 117 -181 -2 0
-23 30 -46 66 -53 84 -117 154 -141 154 -27 0 -26 -1 51 -103 39 -51 82 -116
98 -144 22 -44 32 -53 54 -53 15 0 30 -4 33 -10 3 -5 11 -10 16 -10 6 0 -2 16
-17 35 -37 48 -24 72 64 125 72 42 162 65 214 54 22 -4 27 -1 30 18 2 12 17
32 35 43 18 11 32 26 33 32 0 7 23 25 50 41 50 29 50 29 11 47 -26 11 -51 15
-71 12 -16 -4 -30 -2 -30 3 0 4 -12 15 -27 23 -73 37 -170 92 -192 109 -53 41
-73 -2 -21 -45 31 -27 119 -57 165 -57 15 0 24 -4 20 -10 -9 -14 -64 -12 -120
5 -27 8 -52 12 -56 10 -15 -10 -69 67 -84 120 -9 30 -17 55 -18 55 -1 -1 -15
-8 -30 -16z m462 -230 c2 -2 -12 -4 -32 -4 -20 0 -37 -5 -37 -11 0 -5 -4 -7
-10 -4 -5 3 -10 12 -10 20 0 12 75 11 89 -1z m-172 -32 c-14 -3 -17 -10 -13
-28 4 -16 2 -24 -6 -24 -22 0 -41 17 -33 30 6 9 10 9 17 -1 7 -10 8 -8 3 8 -6
22 18 36 40 24 6 -3 2 -7 -8 -9z m-144 -32 c6 0 1 -7 -12 -16 -15 -11 -21 -23
-18 -35 3 -12 0 -19 -10 -19 -11 0 -13 5 -7 18 4 9 7 27 7 40 -1 17 3 22 14
18 8 -3 20 -6 26 -6z m-133 -48 c0 -19 -69 -40 -75 -23 -3 8 -3 13 0 9 4 -3
18 0 33 8 31 16 42 17 42 6z"/>
<path d="M7775 7067 c-33 -11 -84 -30 -112 -43 -57 -26 -135 -42 -132 -28 7
40 1 44 -81 44 -80 0 -80 0 -64 -25 9 -14 28 -28 43 -31 14 -4 53 -18 86 -31
110 -46 234 -21 318 62 31 31 32 35 15 56 -12 13 -20 13 -73 -4z"/>
<path d="M3902 7048 c-7 -7 -12 -17 -12 -22 0 -6 -12 -33 -25 -61 -34 -68 -32
-81 16 -105 40 -21 40 -21 79 12 47 40 49 64 13 130 -27 49 -27 49 -50 11 -25
-41 -32 -35 -8 7 22 39 15 56 -13 28z"/>
<path d="M7230 7048 c0 -16 61 -78 77 -78 21 0 43 46 30 63 -17 21 -107 33
-107 15z"/>
<path d="M7807 6964 c-34 -23 -38 -30 -35 -61 4 -46 15 -49 59 -20 29 19 34
29 34 62 0 48 -10 52 -58 19z"/>
<path d="M7344 6965 c-19 -14 -18 -15 6 -35 48 -38 77 -42 85 -12 12 47 -49
79 -91 47z"/>
<path d="M4600 6933 c1 -20 50 -45 50 -25 0 6 -33 31 -42 32 -5 0 -8 -3 -8 -7z"/>
<path d="M7452 6913 c-11 -34 1 -46 74 -68 50 -15 57 -10 48 35 -11 54 -105
80 -122 33z"/>
<path d="M7725 6925 c-5 -2 -36 -9 -67 -15 -58 -11 -58 -12 -58 -47 0 -36 0
-36 69 -31 86 6 88 8 83 57 -4 40 -6 43 -27 36z"/>
<path d="M4734 6877 c112 -62 184 -137 130 -137 -9 0 -29 -11 -46 -25 -22 -18
-41 -25 -73 -25 -32 0 -51 7 -73 25 -47 39 -73 31 -87 -28 -7 -26 -9 -27 -80
-27 -83 0 -136 -16 -200 -60 -84 -58 -57 -104 143 -240 81 -54 173 -122 204
-150 58 -51 58 -51 135 -35 43 10 94 28 114 41 39 27 94 32 102 9 5 -12 14
-10 49 10 24 14 51 25 60 25 28 0 29 15 2 106 -32 111 -99 243 -175 341 -80
104 -73 137 15 77 25 -17 41 -23 48 -16 14 14 -115 85 -219 122 -122 43 -143
38 -49 -13z m274 -347 c93 -57 38 -175 -57 -124 -62 33 -73 112 -18 134 32 13
39 12 75 -10z"/>
<path d="M4932 6514 c-45 -31 -4 -97 57 -92 34 3 36 5 39 40 5 54 -51 84 -96
52z"/>
<path d="M4676 6794 c-36 -36 -5 -82 60 -89 33 -4 35 -3 14 5 -21 8 -19 9 15
6 22 -2 35 -2 28 1 -9 3 -10 9 -1 23 9 14 9 25 0 44 -14 31 -89 38 -116 10z"/>
<path d="M4814 6766 c6 -19 14 -32 18 -30 14 9 9 30 -11 48 -18 16 -18 15 -7
-18z"/>
<path d="M5006 6716 c-18 -15 -18 -17 12 -63 17 -26 50 -88 73 -136 49 -103
26 -90 283 -159 183 -48 193 -50 249 -39 37 8 98 9 171 5 114 -7 114 -7 100
52 -8 32 -16 91 -17 129 -1 71 -1 71 -112 52 -181 -31 -194 -29 -463 74 -272
104 -271 104 -296 85z"/>
<path d="M5967 6670 c-49 -39 -71 -122 -58 -218 13 -92 25 -132 41 -132 16 0
12 31 -7 52 -22 24 -8 36 16 14 19 -17 20 -17 35 6 23 35 43 89 49 128 15 100
19 170 9 170 -24 0 -44 -14 -58 -42 -14 -28 -14 -30 15 -59 31 -30 31 -30 -4
-61 -38 -33 -43 -49 -20 -68 8 -7 15 -17 15 -23 0 -7 -12 0 -27 15 -29 29 -30
24 22 94 6 9 3 22 -13 44 -23 30 -23 30 -1 60 28 37 21 47 -14 20z"/>
<path d="M3738 6502 c-53 -66 -116 -104 -200 -122 -63 -12 -74 -22 -76 -64 -2
-29 -2 -29 58 -23 61 7 134 38 180 78 14 11 18 19 10 16 -53 -16 -60 -15 -25
3 22 11 51 33 65 48 14 15 36 37 49 47 37 30 16 0 -57 -82 -74 -82 -127 -110
-227 -120 -114 -10 -75 -51 53 -54 87 -3 123 6 203 48 100 52 271 233 233 247
-38 15 -59 6 -87 -38 -15 -24 -35 -50 -44 -58 -9 -7 0 12 20 42 46 69 47 66
-15 74 -29 4 -62 9 -73 12 -15 3 -32 -10 -67 -54z m86 -113 c-32 -34 -117 -99
-129 -99 -5 0 10 13 31 29 21 16 57 45 79 65 50 44 58 46 19 5z"/>
<path d="M3291 6521 c-18 -12 12 -88 52 -132 23 -26 27 -39 27 -90 0 -59 -1
-61 -60 -130 -84 -98 -83 -103 25 -106 44 -1 98 -3 120 -5 52 -4 57 22 19 92
-34 62 -50 78 -66 62 -7 -7 -19 -12 -27 -12 -12 0 -11 5 5 18 31 24 44 55 44
100 0 26 6 45 20 57 24 22 80 108 80 123 0 15 -36 19 -93 10 -33 -5 -55 -3
-75 8 -31 16 -51 17 -71 5z"/>
<path d="M4197 6463 c-4 -3 -7 -23 -7 -44 0 -38 0 -38 146 -125 80 -47 168
-104 195 -126 51 -40 51 -40 106 -26 56 13 56 13 12 55 -148 141 -419 300
-452 266z"/>
<path d="M3126 6392 c-3 -6 -1 -14 5 -18 9 -5 6 -11 -7 -21 -16 -12 -17 -16
-6 -34 11 -18 11 -23 -3 -33 -55 -40 127 -73 200 -36 44 23 38 43 -17 55 -25
5 -50 13 -54 18 -7 7 23 3 85 -9 19 -4 22 -2 17 11 -3 9 -6 20 -6 25 0 26
-199 66 -214 42z"/>
<path d="M5153 6356 c3 -8 9 -30 12 -48 5 -24 14 -37 33 -46 15 -6 35 -25 44
-40 19 -32 43 -163 35 -193 -7 -25 2 -24 36 7 29 24 29 24 0 72 -46 76 -46 79
-10 106 44 32 127 58 179 54 61 -4 72 -37 35 -108 -15 -29 -27 -53 -27 -54 0
-2 35 -6 78 -10 51 -4 94 -14 127 -31 60 -29 74 -19 176 124 69 98 71 96 -51
102 -99 4 -141 3 -223 -6 -52 -6 -82 -4 -125 8 -64 19 -305 77 -317 77 -4 0
-5 -6 -2 -14z"/>
<path d="M5084 6221 c-56 -26 -57 -29 -38 -123 19 -97 24 -105 70 -114 101
-19 155 79 108 196 -26 64 -65 75 -140 41z m25 -50 c-21 -17 -22 -21 -9 -50 7
-17 11 -34 8 -36 -3 -3 -11 13 -18 35 -14 43 -3 70 27 70 11 0 8 -6 -8 -19z"/>
<path d="M5381 6222 c-64 -25 -71 -41 -37 -92 42 -64 90 -57 130 21 46 87 14
112 -93 71z"/>
<path d="M4401 6184 c-33 -72 11 -163 81 -165 22 0 22 -1 3 -9 -13 -6 -15 -9
-5 -9 25 -1 36 12 52 62 15 48 15 48 -22 80 -74 62 -95 70 -109 41z"/>
<path d="M4928 6198 c-60 -45 -45 -151 27 -198 34 -23 75 -9 75 25 0 39 -21
140 -32 150 -11 11 -7 -24 8 -60 6 -17 5 -18 -7 -8 -13 11 -15 4 -13 -50 3
-57 2 -59 -6 -22 -5 22 -9 69 -8 105 2 69 -10 84 -44 58z"/>
<path d="M4775 6145 c-175 -38 -155 -22 -155 -125 0 -66 3 -90 13 -90 6 1 74
16 150 33 135 32 138 33 118 51 -31 28 -45 80 -32 118 14 40 22 39 -94 13z"/>
<path d="M4575 6090 c-3 -5 -9 -48 -12 -96 -6 -85 -6 -86 17 -82 20 3 23 8 22
46 0 23 -1 65 -1 92 -1 47 -12 63 -26 40z"/>
<path d="M5402 6063 c-37 -15 -117 -96 -162 -165 -78 -119 -86 -220 -26 -337
33 -64 33 -64 95 23 61 85 62 87 53 129 -7 37 -6 43 8 43 12 0 16 -7 13 -21
-3 -18 -3 -18 6 2 5 12 23 40 40 63 17 24 33 59 37 79 9 49 17 62 33 52 11 -7
10 -14 -5 -37 -18 -29 -18 -29 1 -14 57 41 55 38 34 87 -40 93 -73 118 -127
96z"/>
<path d="M5490 6066 c0 -2 16 -29 35 -61 19 -32 35 -61 37 -66 2 -5 36 8 77
30 74 39 74 39 47 57 -44 28 -196 60 -196 40z"/>
<path d="M5020 5969 c-14 -6 -42 -8 -63 -5 -25 4 -72 -2 -141 -20 -103 -27
-103 -27 -115 -139 -23 -228 -8 -395 35 -395 7 0 37 17 65 39 87 65 198 82
278 41 50 -25 44 -26 75 14 24 32 25 36 11 64 -41 80 -28 211 31 320 37 69 41
84 19 76 -8 -3 -23 -29 -34 -57 -15 -39 -20 -46 -20 -27 -1 14 6 36 15 48 15
22 14 22 -21 22 -19 0 -52 7 -72 15 -19 8 -36 15 -37 14 0 0 -12 -5 -26 -10z"/>
<path d="M4640 5898 c-50 -14 -56 -22 -69 -85 -29 -146 -8 -312 49 -392 31
-42 31 -42 59 -25 28 17 29 17 14 53 -16 36 -13 341 3 429 7 36 3 37 -56 20z"/>
<path d="M7767 5658 c-8 -13 -27 -43 -42 -67 -43 -70 -104 -129 -172 -167 -42
-24 -63 -42 -63 -54 0 -11 -12 -50 -26 -87 -14 -37 -28 -76 -31 -85 -5 -17 5
-18 125 -18 152 0 154 2 233 230 55 161 62 263 17 268 -19 2 -31 -3 -41 -20z"/>
<path d="M7095 5594 c4 -43 3 -80 -4 -98 -7 -17 -8 -33 -2 -40 15 -19 25 -59
12 -52 -6 4 -11 16 -11 26 0 10 -4 20 -10 22 -6 2 -6 25 2 64 18 96 0 115 -23
24 -10 -41 -31 -108 -45 -148 -30 -83 -30 -85 46 -130 36 -21 36 -21 83 10 26
16 54 28 62 24 17 -6 21 -26 5 -26 -5 0 -10 5 -10 11 0 5 -18 0 -40 -12 -22
-13 -40 -27 -40 -31 0 -16 104 -58 142 -58 20 0 40 -5 43 -11 16 -25 -148 16
-185 46 -8 7 -35 23 -60 35 -45 22 -45 22 -12 -13 71 -74 366 -198 587 -247
142 -31 140 -31 159 45 27 108 26 111 -45 119 -34 3 -125 6 -202 6 -134 0
-140 -1 -169 -25 -18 -15 -42 -25 -61 -25 -31 0 -31 0 16 30 55 35 86 91 112
202 22 90 17 101 -61 139 -25 11 -49 29 -54 38 -11 22 -176 127 -213 136 -28
8 -28 8 -22 -61z m199 -105 c-60 -64 -174 -122 -174 -89 0 5 10 9 23 8 21 -2
118 55 125 74 7 15 33 38 45 38 6 0 -2 -14 -19 -31z m26 -184 c27 -14 60 -79
46 -92 -3 -3 -8 3 -11 13 -16 53 -31 69 -65 72 -25 3 -30 6 -19 13 18 11 15
12 49 -6z"/>
<path d="M4908 5476 c-21 -8 -69 -32 -107 -55 -38 -22 -78 -41 -89 -41 -11 0
-25 -6 -31 -14 -15 -17 -9 -21 95 -60 39 -15 92 -40 118 -56 39 -25 46 -27 46
-12 0 24 37 82 53 82 41 0 80 -85 69 -151 -6 -37 -8 -38 -20 -19 -7 12 -8 20
-2 20 22 0 10 78 -16 110 -32 37 -51 27 -60 -31 -6 -33 -2 -40 73 -115 144
-144 193 -301 223 -706 11 -146 30 -344 41 -440 11 -95 24 -222 29 -283 20
-262 84 -430 177 -466 43 -16 125 50 295 235 119 131 150 182 122 203 -20 15
-44 -4 -44 -34 0 -15 -46 -18 -55 -3 -3 6 -16 10 -27 10 -12 0 -31 9 -43 20
-22 20 -22 20 -63 -10 -38 -27 -46 -29 -81 -21 -22 5 -42 7 -44 5 -2 -2 -12 5
-22 16 -21 24 -8 26 31 5 43 -22 84 -20 84 5 0 11 5 20 10 20 6 0 10 -5 10
-12 0 -6 7 -4 18 5 25 23 47 21 70 -3 11 -12 26 -18 34 -15 9 4 19 2 23 -4 9
-16 45 -13 45 3 0 27 29 41 61 29 29 -11 30 -11 59 47 36 71 36 71 6 107 -13
15 -27 39 -31 53 -4 14 -42 95 -85 181 -71 142 -199 444 -215 511 -4 15 -16
28 -29 32 -26 6 -119 67 -112 73 2 2 27 -8 56 -22 62 -31 65 -30 52 27 -70
307 -122 433 -198 486 -33 21 -91 66 -131 99 -140 117 -173 138 -232 143 -30
3 -56 10 -59 17 -2 9 6 11 30 7 31 -5 31 -4 -11 15 -50 24 -72 25 -123 7z
m317 -277 c-4 -5 -12 -8 -18 -6 -7 2 -20 -8 -29 -22 -10 -14 -18 -20 -18 -12
0 21 30 51 52 51 11 0 16 -5 13 -11z m51 -54 c8 -43 -2 -72 -27 -80 -18 -6
-29 0 -98 51 -1 1 0 7 4 13 4 7 16 -1 32 -19 40 -48 73 -42 73 14 0 25 -4 48
-10 51 -5 3 -10 11 -10 17 0 23 30 -16 36 -47z m204 -15 c0 -4 -7 -10 -15 -14
-35 -13 -40 -54 -10 -86 27 -28 27 -30 11 -55 -10 -15 -31 -31 -47 -37 -61
-21 -5 -194 60 -186 23 3 26 -1 29 -29 2 -18 -1 -33 -6 -33 -5 0 -7 11 -4 25
3 18 0 25 -12 25 -10 0 -13 -5 -9 -17 14 -36 -58 47 -77 89 -32 70 -27 125 13
141 49 21 61 39 38 63 -37 41 -43 62 -23 80 11 9 17 24 15 34 -4 15 -1 17 16
13 12 -3 21 -9 21 -13z m-110 -582 c7 -38 7 -41 -6 -23 -8 10 -14 28 -14 39 0
14 -7 7 -19 -21 -20 -42 -61 -77 -61 -51 0 7 10 18 22 23 12 6 26 24 31 40 17
59 17 59 29 47 6 -6 14 -30 18 -54z m91 -60 c49 -55 51 -105 4 -126 -15 -7
-23 -16 -20 -22 7 -12 -12 -46 -49 -87 -31 -34 -30 -58 4 -135 22 -50 14 -92
-19 -96 -23 -4 -61 22 -61 41 0 6 11 0 25 -13 24 -23 26 -23 43 -7 16 16 16
20 -2 65 -33 84 -32 125 2 154 16 14 33 39 37 56 3 18 18 41 32 52 15 11 26
30 26 44 0 31 -42 86 -65 86 -10 0 -18 5 -18 10 0 21 32 9 61 -22z m148 -204
c27 -22 31 -32 31 -75 0 -58 -13 -68 -58 -45 -20 10 -32 12 -40 4 -16 -16 -35
0 -20 16 11 11 20 10 54 -5 23 -9 45 -15 48 -12 14 14 5 72 -15 97 -34 43
-100 26 -85 -22 3 -10 -1 -27 -9 -38 -12 -16 -14 -17 -15 -2 0 9 6 18 13 21 9
3 9 8 -3 22 -13 16 -12 20 13 41 36 30 48 30 86 -2z m267 -260 c19 -15 19 -15
-3 -11 -22 5 -33 -9 -33 -41 0 -16 41 -42 65 -42 6 0 20 -7 31 -15 18 -14 16
-14 -16 -8 -19 3 -39 12 -43 20 -4 7 -17 13 -27 13 -21 0 -26 31 -14 78 7 26
14 27 40 6z m-408 -110 c8 -19 20 -34 24 -34 5 0 6 -5 3 -10 -10 -15 -24 -3
-40 36 -17 41 -52 46 -92 14 -15 -11 -28 -18 -31 -15 -6 6 32 36 57 46 30 12
63 -4 79 -37z m-27 -78 c-13 -14 -26 -40 -30 -58 -7 -35 -59 -50 -69 -20 -3
11 0 12 16 3 29 -16 30 -15 42 29 11 40 33 70 52 70 7 0 1 -11 -11 -24z m60
-317 c-13 -11 -29 -19 -37 -19 -24 0 -26 -43 -4 -109 11 -35 18 -66 15 -69 -2
-3 -7 1 -9 9 -2 8 -14 42 -25 76 -18 56 -19 65 -6 100 7 21 14 32 14 26 1 -16
33 -17 48 -2 7 7 10 26 8 43 -5 31 -5 31 7 -3 11 -31 10 -36 -11 -52z"/>
<path d="M5180 5464 c-12 -22 -12 -27 0 -34 23 -15 29 -12 36 14 11 47 -14 61
-36 20z"/>
<path d="M4408 5426 c-155 -55 -208 -128 -208 -288 0 -370 304 -739 609 -738
117 0 292 65 369 137 31 30 33 34 27 80 -8 61 -26 156 -31 165 -2 3 -30 -20
-61 -53 -211 -222 -488 -155 -638 154 -65 135 -98 289 -81 380 8 44 60 98 123
127 26 13 49 24 51 25 1 1 0 10 -4 19 -9 24 -76 20 -156 -8z"/>
<path d="M4518 5374 c-30 -20 -60 -45 -67 -56 -10 -16 -6 -15 23 7 19 14 56
34 81 44 38 14 44 20 32 29 -11 10 -25 5 -69 -24z"/>
<path d="M4550 5339 c-125 -44 -146 -84 -115 -226 89 -422 382 -610 618 -397
101 91 108 106 91 165 -43 143 -101 208 -252 280 -152 71 -247 132 -262 169
-14 35 -9 34 -80 9z"/>
<path d="M4760 5268 c27 -23 190 -101 197 -95 12 12 -124 88 -192 108 -30 8
-30 8 -5 -13z"/>
<path d="M7746 5204 c-8 -22 -9 -21 25 -33 43 -15 43 -15 19 19 -24 34 -35 37
-44 14z"/>
<path d="M7049 5128 c18 -53 18 -53 77 -53 57 0 59 -1 62 -28 6 -54 109 -78
150 -34 29 31 28 33 -13 47 -28 9 -39 9 -57 -4 -12 -9 -32 -16 -43 -15 -19 0
-19 1 3 11 12 6 22 14 22 18 0 6 -204 110 -215 110 -2 0 4 -24 14 -52z"/>
<path d="M4067 5009 c-105 -113 -94 -101 -139 -140 -21 -17 -38 -40 -38 -50 0
-23 3 -23 41 -3 44 22 46 12 4 -20 -28 -22 -35 -34 -35 -62 0 -46 14 -44 78
12 29 26 55 44 58 42 10 -11 -10 -38 -47 -64 -71 -49 -36 -123 40 -85 62 32
81 34 102 15 30 -27 23 -49 -33 -97 -61 -52 -58 -64 26 -103 49 -22 49 -22
102 3 50 25 53 26 78 9 33 -21 33 -28 -5 -71 -36 -41 -33 -43 89 -69 147 -32
211 -29 312 15 50 21 50 21 -28 48 -254 88 -452 348 -509 670 -8 44 -8 44 -96
-50z"/>
<path d="M7366 5003 c-16 -34 -16 -34 20 -49 35 -15 39 -14 66 6 28 20 29 21
19 2 -14 -26 -6 -32 44 -32 39 0 77 22 63 36 -3 3 -48 20 -100 38 -95 34 -95
34 -112 -1z"/>
<path d="M3953 4945 c-9 -25 2 -27 28 -6 24 20 24 20 1 21 -12 0 -25 -7 -29
-15z"/>
<path d="M7470 4804 c-133 -39 -521 -233 -551 -275 -13 -19 -52 -66 -86 -106
-48 -55 -59 -73 -47 -77 82 -31 375 74 544 195 41 30 89 62 105 72 58 35 -23
-29 -118 -94 -150 -101 -309 -167 -455 -188 -44 -6 -44 -6 14 -46 32 -22 80
-59 107 -82 58 -52 79 -54 202 -18 93 27 146 51 213 97 41 29 42 30 42 88 0
77 16 86 23 12 12 -133 143 -634 189 -725 31 -63 141 -167 151 -145 34 70 59
108 102 161 53 64 53 64 9 101 -44 37 -140 163 -131 172 2 3 16 -14 30 -38 14
-24 55 -72 91 -108 66 -64 66 -64 98 -33 57 54 240 182 299 211 63 30 64 30
48 85 -7 27 -21 44 -51 63 -111 70 -183 164 -288 374 -150 299 -183 330 -360
329 -71 0 -117 -6 -180 -25z m103 -94 c-3 -11 -9 -20 -13 -20 -5 0 -17 -15
-29 -32 -11 -18 -21 -26 -21 -19 0 17 49 91 60 91 5 0 6 -9 3 -20z m73 -387
c-5 -5 -26 92 -25 115 1 9 7 -12 15 -47 8 -35 12 -66 10 -68z m111 -302 c13
-30 21 -56 19 -59 -5 -4 -27 44 -52 112 -16 45 -18 62 -2 26 6 -14 22 -49 35
-79z"/>
<path d="M3144 4791 c-178 -48 -359 -173 -449 -309 -37 -56 -32 -58 55 -22 72
29 174 60 201 60 8 0 -11 -21 -40 -47 -231 -202 -359 -692 -241 -923 38 -75
34 -81 110 157 73 230 196 470 226 440 3 -3 -6 -75 -21 -159 -42 -242 -37
-248 64 -89 102 161 195 262 311 340 144 96 159 94 107 -11 -30 -61 -62 -176
-52 -186 4 -4 125 135 160 183 16 22 47 61 68 87 29 36 44 69 63 140 14 51 36
117 50 147 29 65 28 67 -69 114 -177 87 -393 118 -543 78z"/>
<path d="M3828 4648 c-219 -375 -88 -916 284 -1166 64 -44 70 -41 44 26 -30
76 -38 110 -27 116 5 3 11 -11 15 -32 3 -20 21 -70 41 -110 42 -88 43 -106 10
-218 -51 -175 -55 -541 -9 -774 15 -78 100 -264 116 -254 4 3 8 -8 8 -25 0
-16 -5 -33 -10 -36 -7 -4 -9 2 -5 17 5 18 -1 28 -24 46 -30 22 -30 22 -128
-36 -292 -173 -580 -417 -642 -544 -21 -44 -29 -132 -13 -153 19 -28 93 -38
312 -42 342 -7 443 13 412 82 -20 45 -15 55 92 165 167 173 295 382 316 513 4
28 16 72 25 97 57 149 -48 713 -189 1030 -74 164 -111 214 -200 274 -21 14
-34 26 -28 26 36 0 158 -115 238 -226 50 -69 443 -30 642 63 62 29 63 38 17
94 -50 59 -79 111 -124 220 -58 144 -106 294 -161 507 -13 51 -20 52 -106 12
-129 -61 -250 -62 -423 -4 -50 17 -83 23 -107 18 -42 -8 -61 6 -70 51 -4 25
-14 37 -37 46 -49 20 -117 94 -117 127 0 19 -11 39 -36 63 -20 18 -42 46 -50
62 -20 38 -25 35 -66 -35z m451 -1993 c6 -55 13 -129 15 -165 5 -63 5 -64 -4
-15 -17 92 -40 402 -38 517 1 103 2 98 9 -62 4 -96 12 -220 18 -275z m-77
-588 c-6 -7 -33 -28 -59 -47 -56 -39 -47 -26 17 24 49 38 59 43 42 23z m-188
-147 c-44 -33 -112 -87 -152 -121 -40 -34 -75 -60 -77 -58 -8 9 280 238 299
239 5 0 -27 -27 -70 -60z m-353 -395 c-6 -49 -8 -56 -15 -36 -5 15 -3 39 4 62
17 51 19 46 11 -26z"/>
<path d="M4045 4627 c-34 -19 -40 -28 -43 -60 -4 -45 -3 -45 56 -5 75 50 84
59 71 75 -16 19 -38 16 -84 -10z"/>
<path d="M5176 4489 c-36 -29 -149 -83 -219 -105 -69 -22 -69 -7 -6 -218 78
-262 116 -359 188 -476 25 -41 26 -37 7 17 -18 50 -9 65 67 129 43 36 57 55
57 74 0 40 -8 42 -55 15 -57 -34 -61 -32 -89 25 -24 51 -24 51 10 84 20 19 51
45 70 58 33 22 50 78 24 78 -19 0 -90 -32 -90 -41 0 -5 -4 -9 -10 -9 -11 0
-50 72 -50 94 0 17 53 64 103 91 38 20 38 20 36 101 -2 101 -7 111 -43 83z"/>
<path d="M4208 4430 c-47 -30 -55 -43 -40 -67 10 -16 78 16 112 52 47 50 -1
60 -72 15z"/>
<path d="M4850 4350 c0 -26 113 -395 149 -487 73 -186 157 -317 187 -292 21
17 18 25 -24 67 -74 74 -157 277 -263 645 -13 47 -27 77 -35 77 -8 0 -14 -5
-14 -10z"/>
<path d="M5160 4262 c-56 -38 -65 -60 -36 -90 10 -10 20 -10 55 3 24 8 48 12
54 8 6 -4 8 2 4 18 -4 13 -7 41 -7 62 0 45 -2 45 -70 -1z"/>
<path d="M5183 4042 c-60 -42 -58 -38 -38 -86 16 -37 16 -37 43 -20 70 41 74
47 67 97 -9 56 -7 56 -72 9z"/>
<path d="M8565 3978 c-157 -30 -440 -230 -577 -409 -64 -82 -118 -177 -118
-205 0 -19 95 -224 103 -224 2 0 20 24 40 54 165 249 698 606 905 606 33 0 33
0 12 31 -76 106 -239 172 -365 147z"/>
<path d="M8302 3943 c-157 -85 -385 -283 -430 -374 -23 -47 -31 -139 -12 -139
6 0 10 5 10 10 0 13 83 132 136 196 78 93 361 314 401 314 8 0 11 5 8 10 -11
18 -61 10 -113 -17z"/>
<path d="M5213 3809 c-62 -53 -64 -59 -52 -102 12 -45 7 -46 74 5 44 33 55 46
51 62 -3 12 -6 33 -6 49 0 36 -10 34 -67 -14z"/>
<path d="M6083 3818 c-11 -13 -36 -50 -54 -83 -18 -33 -50 -86 -70 -118 -55
-85 -83 -246 -41 -233 147 48 145 46 143 137 -2 96 19 136 58 112 14 -9 21 -9
30 0 20 20 12 -19 -10 -47 -16 -21 -20 -35 -15 -69 3 -23 3 -36 0 -29 -9 20
-44 14 -44 -8 0 -25 4 -25 71 -1 125 43 132 49 126 108 -7 70 -58 172 -107
217 -47 42 -59 44 -87 14z m98 -78 c10 -6 19 -17 19 -25 0 -19 -16 -19 -24 0
-14 36 -86 -7 -86 -52 0 -13 -4 -23 -10 -23 -5 0 -10 9 -10 21 0 56 65 103
111 79z"/>
<path d="M8875 3773 c-313 -70 -864 -494 -865 -665 0 -40 17 -43 36 -6 9 18
60 77 113 132 244 251 621 489 778 490 66 1 77 10 45 39 -18 16 -62 20 -107
10z"/>
<path d="M5223 3670 c-49 -27 -56 -50 -14 -50 21 0 81 49 81 66 0 19 -6 17
-67 -16z"/>
<path d="M8920 3695 c-8 -2 -33 -7 -55 -10 -40 -7 -40 -7 -7 -20 38 -16 39
-31 11 -87 -54 -105 -352 -361 -382 -328 -7 7 -7 10 -1 7 30 -17 302 231 344
314 26 51 19 63 -33 55 -82 -13 -128 -41 -121 -73 5 -23 4 -26 -7 -15 -14 13
-49 17 -49 5 0 -3 7 -15 17 -25 23 -25 5 -60 -48 -95 -23 -16 -58 -43 -78 -62
-98 -93 -190 -150 -252 -157 -57 -6 -61 -9 -79 -45 -11 -21 -20 -41 -20 -44 0
-18 60 4 179 65 135 70 146 65 21 -9 -72 -43 -175 -91 -196 -91 -23 0 -24 17
-4 67 20 48 20 48 -24 1 -40 -43 -64 -93 -52 -105 53 -54 535 215 721 402 178
177 221 272 115 250z"/>
<path d="M5236 3579 c-43 -48 -47 -56 -44 -97 2 -25 8 -47 14 -49 21 -7 94
101 94 138 0 63 -13 65 -64 8z"/>
<path d="M6087 3606 c-8 -21 16 -39 31 -24 7 7 12 18 12 25 0 18 -36 17 -43
-1z"/>
<path d="M6320 3570 c0 -11 6 -20 14 -20 24 0 28 18 6 30 -17 9 -20 8 -20 -10z"/>
<path d="M6345 3540 c-114 -79 -547 -240 -643 -240 -37 0 -47 -25 -28 -75 33
-84 43 -91 121 -76 169 31 607 198 622 237 3 9 2 50 -3 92 -10 86 -20 95 -69
62z"/>
<path d="M5270 3451 c-17 -27 -37 -51 -44 -54 -17 -7 -56 20 -56 38 0 21 -16
26 -44 14 -25 -12 -25 -12 9 -78 56 -111 59 -113 85 -60 12 24 42 65 65 90 34
36 42 51 38 72 -8 38 -19 34 -53 -22z"/>
<path d="M8539 3487 c-40 -13 -129 -68 -129 -79 0 -26 111 7 168 49 50 38 31
53 -39 30z"/>
<path d="M5800 3425 c-60 -60 -54 -68 33 -44 39 10 44 24 29 77 -7 21 -10 20
-62 -33z"/>
<path d="M4915 3383 c-55 -14 -106 -27 -112 -29 -9 -2 -3 -31 22 -99 78 -217
174 -367 337 -532 51 -51 87 -93 81 -93 -6 0 -53 45 -104 101 -153 165 -232
289 -311 487 -68 173 -74 176 -59 25 29 -280 182 -505 486 -714 109 -75 124
-93 56 -65 -46 18 -73 -5 -212 -179 -244 -308 -332 -570 -204 -614 61 -20 406
-19 509 2 129 27 143 46 111 153 -31 103 -23 142 68 338 70 152 80 215 53 310
-17 58 -17 58 -39 38 -30 -27 -87 -55 -87 -42 0 5 6 10 13 10 8 0 31 15 52 33
39 34 39 34 16 98 -57 158 -317 543 -359 532 -16 -4 -26 8 -56 69 -19 40 -54
101 -76 136 -47 72 -41 71 -185 35z m505 -1012 c0 -20 -47 75 -54 108 -3 14 8
-1 24 -34 17 -33 30 -66 30 -74z"/>
<path d="M5280 3349 c-51 -65 -79 -164 -45 -164 6 0 36 39 68 86 51 75 57 89
48 108 -17 31 -26 27 -71 -30z"/>
<path d="M5855 3370 c-11 -5 -43 -9 -71 -9 -46 -1 -87 -21 -73 -36 8 -7 169
37 169 46 0 5 -1 9 -2 8 -2 0 -12 -4 -23 -9z"/>
<path d="M8342 3350 c-40 -24 -34 -40 15 -40 38 0 107 36 97 51 -10 16 -78 9
-112 -11z"/>
<path d="M8252 3268 c5 -15 70 -22 107 -12 24 7 22 8 -19 15 -69 12 -92 11
-88 -3z"/>
<path d="M6063 3191 c-110 -39 -126 -51 -65 -51 56 0 125 27 157 60 35 37 34
37 -92 -9z"/>
<path d="M6400 2819 c-19 -12 -37 -23 -39 -25 -8 -7 41 -72 91 -120 152 -147
376 -281 487 -291 71 -7 75 -2 66 81 -7 63 -7 63 -65 69 -105 9 -291 113 -419
232 -43 41 -80 75 -82 75 -2 0 -20 -10 -39 -21z m80 -93 c0 -16 -28 -42 -36
-33 -8 7 14 47 26 47 6 0 10 -6 10 -14z m224 -182 c16 -6 23 -34 8 -34 -10 0
-32 22 -32 32 0 10 3 10 24 2z"/>
<path d="M6255 2718 c-33 -29 -82 -77 -108 -106 -56 -63 -60 -49 67 -220 299
-398 741 -661 833 -495 67 120 72 291 13 428 -19 44 -19 44 -47 30 -99 -52
-382 100 -600 322 -50 51 -93 93 -95 93 -2 0 -30 -24 -63 -52z"/>
<path d="M6080 2529 c0 -91 336 -470 540 -609 166 -113 337 -163 383 -112 15
16 12 17 -51 17 -203 0 -574 293 -803 633 -52 78 -69 95 -69 71z"/>
<path d="M5430 1638 c-19 -6 -147 -12 -285 -13 -250 -3 -250 -3 -257 -62 -3
-32 -4 -60 -2 -63 31 -31 626 19 663 55 9 10 -63 97 -78 94 -3 -1 -22 -6 -41
-11z"/>
<path d="M5460 1499 c-123 -27 -305 -41 -462 -37 -158 4 -146 11 -173 -106
-29 -120 -23 -143 36 -161 299 -88 948 -122 975 -51 21 55 -59 238 -132 305
-81 74 -109 80 -244 50z"/>
<path d="M3526 1381 c-4 -34 -4 -66 0 -73 17 -27 671 26 702 56 2 3 -11 21
-30 41 -33 37 -33 37 -173 25 -129 -11 -380 -8 -461 6 -31 6 -31 6 -38 -55z"/>
<path d="M4040 1299 c-74 -10 -228 -22 -342 -26 -238 -7 -225 1 -253 -149 -26
-132 -24 -141 38 -158 283 -81 961 -115 1025 -52 28 29 -32 230 -94 312 -71
96 -131 107 -374 73z"/>
<path d="M4810 1171 c45 -85 811 -172 993 -112 47 16 56 57 10 47 -199 -43
-614 -15 -921 64 -98 24 -95 24 -82 1z"/>
<path d="M3430 938 c0 -46 494 -128 775 -128 114 0 278 22 300 40 30 25 18 43
-22 35 -257 -49 -473 -36 -1020 62 -25 4 -33 2 -33 -9z"/>
</g>
</svg>
