<svg version="1.0" xmlns="http://www.w3.org/2000/svg"
 width="994.000000pt" height="978.000000pt" viewBox="0 0 994.000000 978.000000"
 preserveAspectRatio="xMidYMid meet" style="background:transparent;">
<metadata>
Created by potrace 1.16, written by Peter Selinger 2001-2019
</metadata>
<g transform="translate(0.000000,978.000000) scale(0.100000,-0.100000)"
fill="#000000" stroke="none">
<path d="M0 4890 l0 -4890 4970 0 4970 0 0 4890 0 4890 -4970 0 -4970 0 0
-4890z m2829 3901 c449 -99 795 -476 906 -986 10 -44 21 -84 25 -88 4 -4 85
25 181 66 759 325 1357 325 2028 1 84 -41 157 -74 162 -74 4 0 17 30 30 68
153 466 371 747 714 920 550 278 1225 33 1490 -542 142 -307 149 -535 31
-1014 -41 -168 -43 -156 16 -177 124 -44 318 -206 420 -350 138 -193 194 -372
185 -593 -6 -172 -25 -245 -147 -577 -112 -303 -103 -231 -125 -1065 -15 -602
-24 -942 -46 -1705 -15 -535 -10 -583 91 -915 51 -165 62 -235 63 -390 5 -794
-691 -1157 -1676 -876 -144 41 -161 44 -322 50 -93 3 -469 18 -835 31 -1980
74 -1974 74 -2950 105 -173 6 -335 11 -360 12 -30 1 -86 -12 -170 -39 -421
-139 -798 -128 -1122 32 -332 164 -532 562 -489 970 14 121 49 255 121 449 91
248 87 184 110 1471 5 319 15 769 21 1000 18 664 16 689 -99 1045 -156 485
-146 726 42 1009 95 143 253 286 398 361 42 22 79 44 82 48 2 4 -16 104 -41
222 -85 411 -71 596 67 887 180 379 490 610 895 667 56 8 219 -5 304 -23z"/>
<path d="M2440 8765 c-501 -101 -890 -589 -890 -1114 0 -120 8 -173 60 -421
47 -227 49 -220 -106 -395 -291 -328 -344 -523 -251 -916 20 -80 54 -195 77
-255 108 -281 113 -378 86 -1624 -37 -1666 -33 -1615 -166 -1935 -157 -377
-156 -632 2 -935 64 -121 94 -153 193 -200 182 -87 349 -83 600 15 361 140
281 139 2650 45 955 -38 1767 -67 2225 -80 340 -9 354 -11 630 -110 348 -125
637 -92 822 94 192 194 237 564 104 864 -161 363 -160 361 -161 657 0 414 32
1937 50 2390 16 378 22 421 78 550 19 44 67 154 106 245 88 202 108 260 126
375 48 294 -24 520 -240 750 -129 139 -133 164 -66 440 92 376 94 559 7 814
-218 644 -901 940 -1489 645 -312 -156 -515 -407 -666 -822 -75 -207 -56 -199
-251 -104 -582 285 -1099 322 -1713 125 -149 -47 -192 -64 -373 -144 -162 -71
-153 -75 -190 79 -111 461 -363 775 -730 913 -173 65 -369 85 -524 54z m366
-75 c326 -84 594 -323 700 -624 25 -71 47 -309 40 -437 -6 -116 -6 -116 26
-130 63 -26 96 -18 213 53 186 111 379 194 546 233 92 22 100 19 128 -38 56
-117 76 -122 436 -122 348 0 355 2 444 132 31 45 51 48 166 18 174 -45 384
-138 550 -244 90 -58 120 -62 196 -30 49 21 49 21 49 141 0 730 728 1259 1389
1011 627 -235 845 -1052 426 -1600 -30 -40 -55 -74 -55 -77 0 -2 35 -34 78
-71 271 -234 335 -355 273 -512 -19 -49 -19 -49 15 -71 112 -74 108 -213 -13
-452 -123 -242 -138 -298 -107 -409 22 -76 13 -121 -33 -172 -36 -39 -36 -39
-44 -447 -4 -224 -13 -576 -19 -782 -5 -206 -14 -609 -20 -895 -5 -286 -13
-638 -16 -783 -7 -255 -6 -263 13 -285 56 -60 66 -124 33 -207 -32 -80 -26
-106 81 -345 103 -235 119 -337 64 -431 -74 -126 -222 -147 -430 -61 -210 86
-298 98 -397 52 -87 -41 -150 -33 -213 25 -30 28 -32 28 -205 34 -96 4 -276
11 -400 16 -124 5 -364 14 -535 20 -170 6 -665 24 -1100 40 -1071 40 -1561 56
-2595 86 -225 6 -225 6 -270 -39 -75 -74 -129 -74 -260 3 -47 28 -98 21 -270
-37 -265 -90 -406 -66 -454 74 -37 109 -17 198 102 463 97 215 98 218 65 310
-35 100 -29 136 37 200 60 59 58 43 65 420 6 330 8 419 30 1090 8 245 19 616
25 825 5 209 12 453 16 542 6 162 6 162 -20 169 -77 19 -113 123 -77 228 36
106 23 177 -67 382 -76 173 -92 276 -52 353 17 35 71 91 88 91 30 2 41 27 27
66 -50 140 1 247 203 424 64 57 126 111 136 121 19 17 18 19 -22 81 -188 289
-224 668 -91 970 213 486 663 741 1105 628z m1953 -879 c8 -14 7 -19 -2 -18
-50 1 -66 -4 -69 -25 -4 -28 -21 -30 -26 -5 -9 47 76 88 97 48z m375 -7 c50
-49 -24 -124 -76 -77 -25 22 -23 59 4 77 29 20 52 20 72 0z m-364 -40 c0 -9
-9 -18 -20 -21 -11 -3 -20 -11 -20 -18 0 -19 -27 -26 -40 -10 -13 16 -5 35 15
35 7 0 15 7 19 15 7 20 46 19 46 -1z"/>
<path d="M2461 8689 c-318 -57 -561 -256 -721 -591 -122 -257 -133 -512 -33
-792 180 -505 766 -753 1242 -526 433 208 658 681 555 1170 -9 41 -19 92 -24
112 -10 52 -84 192 -135 258 -208 269 -578 424 -884 369z m260 -64 c462 -80
762 -440 763 -915 1 -550 -390 -969 -909 -974 -563 -5 -980 530 -869 1115 92
487 571 852 1015 774z"/>
<path d="M2425 8541 c-323 -87 -565 -338 -650 -675 -41 -162 -42 -160 67 -152
187 14 685 25 1132 26 459 0 459 0 453 68 -29 327 -246 607 -554 715 -116 40
-333 49 -448 18z"/>
<path d="M2784 7630 c25 -128 192 -144 242 -24 23 54 23 54 -117 54 -131 0
-131 0 -125 -30z"/>
<path d="M3182 7594 c-81 -488 -754 -496 -843 -9 -13 68 -13 68 -284 62 -341
-8 -313 0 -303 -95 34 -334 257 -613 578 -724 135 -47 346 -48 480 -4 310 102
551 373 605 680 28 164 33 156 -104 156 -118 0 -118 0 -129 -66z"/>
<path d="M7209 8690 c-758 -128 -1148 -1017 -714 -1625 247 -346 698 -498
1088 -366 349 118 603 389 699 744 33 121 33 386 0 504 -136 501 -601 823
-1073 743z m361 -88 c458 -138 736 -560 682 -1036 -82 -735 -917 -1124 -1494
-695 -665 495 -420 1558 402 1740 112 25 313 20 410 -9z"/>
<path d="M7180 8546 c-330 -70 -588 -297 -696 -613 -73 -217 -94 -203 307
-203 440 0 1236 -32 1378 -56 34 -5 34 -5 28 78 -28 365 -282 680 -627 778
-96 28 -295 36 -390 16z"/>
<path d="M6434 7646 c-3 -8 0 -58 6 -112 66 -598 690 -956 1226 -705 285 134
494 413 528 709 6 45 4 52 -11 52 -10 0 -97 7 -193 15 -289 24 -273 27 -288
-51 -95 -499 -792 -461 -866 47 -7 46 -7 46 -113 53 -180 11 -283 8 -289 -8z"/>
<path d="M7303 7604 c19 -116 197 -145 245 -39 25 54 17 65 -41 65 -30 0 -89
3 -132 7 -78 6 -78 6 -72 -33z"/>
<path d="M4251 7744 c-150 -46 -305 -116 -452 -204 -140 -83 -161 -89 -223
-62 -46 21 -46 21 -52 -6 -36 -170 -134 -348 -274 -495 -373 -394 -931 -407
-1330 -30 -46 43 -74 62 -82 57 -28 -17 -216 -184 -260 -231 -73 -79 -93 -124
-92 -213 1 -114 11 -130 78 -130 77 0 143 -16 281 -68 154 -58 219 -62 286
-18 95 63 194 41 239 -53 15 -31 33 -53 45 -56 11 -2 479 -9 1040 -15 970 -10
1589 -18 2955 -40 971 -16 966 -16 973 19 12 60 101 130 166 131 13 0 58 -16
101 -35 103 -46 144 -46 293 4 175 59 256 75 348 68 77 -6 77 -6 95 31 64 131
-3 272 -212 453 -148 127 -128 119 -177 72 -341 -331 -855 -385 -1242 -132
-226 147 -399 398 -444 644 -13 72 -9 69 -62 45 -75 -34 -101 -28 -235 53
-175 106 -399 200 -568 238 -58 13 -58 13 -122 -58 -97 -107 -99 -108 -439
-108 -353 0 -380 8 -441 128 -30 58 -38 59 -193 11z m147 -513 c316 -106 615
-142 822 -102 52 10 98 17 103 14 50 -30 -121 -192 -285 -267 -232 -108 -463
-75 -623 88 -82 84 -165 247 -148 292 7 18 -5 20 131 -25z m-2551 -475 c-4 -9
-11 -16 -17 -16 -17 0 -24 31 -9 41 18 11 34 -5 26 -25z m-117 10 c0 -16 -14
-36 -25 -36 -17 0 -28 17 -20 30 6 10 45 15 45 6z m6318 -50 c-4 -26 -27 -28
-42 -3 -8 13 -8 20 3 26 21 14 42 1 39 -23z m140 -14 c2 -13 -2 -22 -10 -22
-20 0 -37 20 -31 37 8 21 38 11 41 -15z m-6270 -68 c-4 -25 -34 -30 -42 -7 -5
11 -1 22 10 30 21 15 37 3 32 -23z m-130 3 c4 -20 -25 -34 -40 -19 -15 15 -1
44 19 40 10 -2 19 -11 21 -21z m-128 0 c0 -7 -5 -18 -12 -25 -15 -15 -39 3
-31 24 7 18 43 19 43 1z m6315 -47 c0 -8 -10 -16 -22 -18 -18 -3 -23 2 -23 18
0 16 5 21 23 18 12 -2 22 -10 22 -18z m133 -3 c4 -22 -27 -35 -38 -16 -10 15
7 42 24 36 6 -2 12 -11 14 -20z m152 7 c22 -25 -13 -55 -37 -32 -16 17 -5 48
17 48 4 0 13 -7 20 -16z m-6542 -77 c4 -21 -25 -34 -40 -19 -8 8 -8 16 2 27
16 19 34 15 38 -8z m140 0 c4 -20 -25 -34 -40 -19 -15 15 -1 44 19 40 10 -2
19 -11 21 -21z m6167 -61 c0 -22 -14 -29 -34 -17 -19 12 -6 43 16 39 10 -2 18
-12 18 -22z m158 10 c8 -19 -16 -38 -37 -30 -16 6 -21 25 -9 37 12 12 41 7 46
-7z"/>
<path d="M4570 7013 c-87 -32 -54 -78 85 -118 166 -49 341 20 226 88 -33 20
-89 22 -125 6 -20 -9 -32 -8 -68 10 -43 20 -86 25 -118 14z"/>
<path d="M1485 6396 c-44 -19 -102 -89 -115 -138 -15 -55 -2 -121 46 -236 111
-267 129 -348 94 -440 -25 -66 -25 -116 0 -156 64 -104 230 -53 230 71 0 54
-11 76 -66 129 -123 120 -57 361 85 314 75 -24 125 -87 151 -187 30 -119 145
-156 224 -74 83 87 21 215 -112 235 -152 23 -241 166 -154 248 67 64 172 57
254 -17 74 -66 140 -71 197 -15 64 64 43 173 -41 216 -40 21 -58 18 -133 -22
-92 -49 -152 -46 -315 18 -171 68 -276 84 -345 54z m164 -52 c90 -45 101 -65
71 -125 -28 -55 -132 -163 -171 -180 -83 -34 -182 164 -133 267 40 85 115 97
233 38z"/>
<path d="M1484 6360 c-83 -33 -86 -177 -7 -270 19 -22 43 -40 54 -40 39 0 189
168 189 212 0 52 -173 124 -236 98z"/>
<path d="M8130 6330 c-47 -10 -132 -35 -190 -55 -140 -50 -200 -52 -294 -7
-104 49 -165 40 -214 -32 -86 -125 74 -258 198 -163 91 69 153 88 230 67 180
-49 106 -254 -109 -299 -123 -26 -179 -131 -118 -222 71 -106 211 -64 252 76
37 125 157 214 235 173 108 -57 94 -225 -30 -354 -56 -58 -60 -66 -60 -109 0
-138 169 -188 240 -72 24 39 25 63 4 150 -23 92 -6 150 103 371 91 180 116
264 103 334 -24 136 -148 186 -350 142z m195 -34 c43 -18 58 -47 56 -109 -2
-94 -84 -227 -141 -227 -35 0 -135 106 -177 187 -28 52 -28 52 -3 78 63 67
191 101 265 71z"/>
<path d="M8156 6265 c-116 -48 -119 -69 -21 -193 96 -121 112 -124 174 -32
122 178 37 303 -153 225z"/>
<path d="M1955 6174 c-101 -23 -119 -117 -36 -187 31 -25 66 -38 141 -51 187
-32 189 -297 3 -332 -79 -15 -163 49 -184 140 -40 180 -218 236 -236 74 -9
-79 3 -114 62 -178 30 -33 57 -72 61 -87 3 -15 8 -34 10 -42 16 -51 -56 -155
-115 -167 -17 -4 -33 -9 -35 -13 -7 -10 -31 -1020 -25 -1026 7 -7 254 57 429
112 392 121 625 243 940 491 728 575 1020 727 1495 783 123 15 458 6 600 -15
55 -9 107 -16 116 -16 15 0 -37 99 -225 426 -35 62 -35 62 -228 68 -153 5
-2051 26 -2289 26 -52 0 -57 -2 -63 -24 -8 -34 -69 -84 -111 -92 -58 -11 -98
3 -160 56 -33 28 -66 50 -75 50 -8 0 -24 2 -35 4 -11 2 -29 2 -40 0z"/>
<path d="M4940 6146 c0 -4 198 -357 249 -445 26 -44 26 -44 136 -66 157 -33
294 -69 500 -130 298 -90 371 -118 670 -258 378 -176 574 -204 1040 -148 202
25 411 31 563 18 92 -9 92 -9 92 57 0 66 0 66 -38 66 -111 0 -187 115 -143
216 11 24 40 63 65 85 83 76 112 191 66 266 -54 89 -185 18 -225 -121 -28 -96
-97 -156 -180 -156 -152 0 -215 193 -96 293 30 25 50 33 143 57 124 32 189
144 118 203 -63 53 -154 44 -240 -25 -91 -72 -210 -63 -258 21 -19 34 47 31
-1397 56 -913 16 -1065 18 -1065 11z"/>
<path d="M4535 5684 c-16 -2 -72 -9 -123 -15 -415 -48 -732 -217 -1397 -744
-399 -316 -678 -450 -1240 -595 -202 -53 -184 52 -214 -1240 -6 -267 -14 -542
-17 -613 -7 -126 -6 -127 15 -127 28 0 59 -16 93 -47 26 -25 26 -25 118 98
273 365 527 592 888 794 258 144 443 206 879 295 511 105 748 217 1169 551
391 310 643 446 982 529 51 12 92 25 90 29 -2 3 -27 51 -57 106 -48 90 -86
158 -282 505 -30 53 -94 171 -144 263 -73 136 -94 167 -115 172 -121 25 -555
52 -645 39z"/>
<path d="M5253 5579 c19 -35 115 -208 213 -384 98 -176 213 -383 255 -460 44
-81 82 -139 89 -137 225 53 620 49 920 -9 354 -69 540 -135 980 -349 260 -126
442 -201 455 -188 7 7 28 1029 21 1035 -29 29 -384 28 -656 -2 -496 -54 -657
-30 -1080 167 -322 150 -586 240 -990 337 -266 64 -249 65 -207 -10z"/>
<path d="M6105 4623 c-69 -5 -277 -33 -287 -39 -10 -6 2 -29 192 -374 203
-368 428 -779 521 -950 40 -74 87 -161 104 -192 31 -58 31 -58 143 12 476 297
924 382 1299 245 37 -13 69 -23 70 -21 2 1 5 97 8 212 3 115 7 280 10 367 4
138 3 157 -11 157 -42 0 -196 64 -454 190 -536 261 -847 352 -1334 390 -125
10 -157 10 -261 3z"/>
<path d="M5684 4555 c-372 -99 -591 -221 -1034 -575 -364 -290 -638 -410
-1186 -519 -741 -148 -1246 -472 -1702 -1093 -69 -94 -72 -99 -66 -142 11 -74
-2 -110 -62 -178 -109 -126 -109 -268 1 -268 59 0 101 41 136 135 52 139 183
192 271 109 118 -112 55 -268 -127 -309 -82 -19 -109 -35 -135 -78 -81 -133
73 -222 212 -122 119 86 252 40 274 -96 6 -37 45 -40 951 -61 63 -1 63 -1 116
83 127 202 255 357 452 548 560 541 1029 725 1935 761 399 16 735 104 909 239
28 21 98 -115 -597 1151 -157 287 -245 440 -251 439 -3 0 -47 -11 -97 -24z"/>
<path d="M7580 3369 c-268 -30 -522 -129 -844 -331 -366 -230 -631 -306 -1066
-308 -328 -1 -763 -75 -1018 -174 -375 -145 -795 -466 -1118 -856 -100 -120
-244 -335 -232 -345 3 -3 105 -6 1058 -40 228 -8 602 -22 830 -30 228 -8 624
-22 880 -30 256 -9 627 -22 825 -30 198 -8 366 -15 373 -15 6 0 12 11 12 25 0
98 119 187 205 155 17 -6 59 -30 95 -53 143 -93 307 -35 255 90 -29 70 -76
105 -155 118 -81 13 -120 35 -151 84 -69 109 0 251 122 251 88 0 138 -43 179
-153 38 -100 110 -159 176 -143 97 25 88 157 -20 274 -57 63 -74 107 -61 159
16 66 90 123 159 123 40 0 39 -10 56 585 17 610 24 556 -72 588 -172 55 -330
74 -488 56z m-1070 -775 c65 -19 172 -72 245 -120 66 -44 131 -64 209 -64 349
-1 521 -267 371 -575 -126 -261 -404 -420 -730 -420 -176 0 -245 18 -440 115
-98 48 -171 76 -243 94 -235 58 -336 173 -337 386 0 87 3 101 33 164 145 306
582 512 892 420z"/>
<path d="M6201 2585 c-368 -80 -646 -373 -601 -633 32 -182 129 -271 349 -319
48 -11 116 -38 187 -74 298 -153 521 -176 772 -79 318 123 527 422 457 656
-47 160 -163 237 -382 255 -125 10 -155 20 -260 85 -184 115 -342 148 -522
109z m286 -30 c43 -13 121 -50 173 -81 137 -82 194 -103 308 -113 149 -14 255
-66 306 -153 170 -290 -83 -665 -506 -752 -192 -40 -342 -12 -596 110 -73 35
-169 73 -215 85 -180 45 -266 137 -299 319 -66 353 438 709 829 585z"/>
<path d="M6228 2560 c-455 -83 -693 -465 -481 -772 36 -54 104 -93 213 -123
52 -15 156 -55 230 -90 241 -111 357 -138 512 -116 365 51 626 306 606 590
-12 171 -123 273 -317 292 -136 14 -180 29 -316 109 -173 102 -310 135 -447
110z m-18 -218 c117 -132 52 -342 -106 -342 -64 0 -60 8 -53 -102 7 -107 0
-128 -41 -128 -37 0 -54 24 -87 125 -82 253 16 504 191 492 55 -3 62 -7 96
-45z m242 -54 c3 -70 6 -83 21 -86 14 -3 17 4 17 37 0 36 18 61 21 29 6 -62 3
-77 -15 -82 -40 -10 -56 10 -56 74 0 47 -3 58 -14 54 -8 -3 -17 -1 -21 5 -3 6
1 11 9 11 8 0 18 5 21 10 4 6 -17 10 -54 10 -60 0 -82 -14 -38 -25 20 -5 22
-11 19 -60 -4 -54 -4 -55 25 -55 24 -1 26 -2 10 -11 -33 -20 -47 -4 -47 55 0
49 -2 54 -25 60 -63 16 -16 55 67 56 57 0 57 0 60 -82z m38 53 c0 -23 6 -30
33 -37 30 -9 32 -12 35 -62 2 -38 -1 -52 -10 -52 -9 0 -13 15 -13 47 0 45 -2
48 -30 53 -26 4 -29 9 -30 43 -1 20 2 37 7 37 4 0 8 -13 8 -29z m161 -41 c31
-17 26 -85 -7 -107 -28 -18 -54 -10 -62 18 -4 11 -2 12 9 2 17 -17 44 -17 57
0 8 9 3 12 -21 12 -28 0 -32 4 -35 30 -5 41 24 63 59 45z m402 -107 c59 -67
84 -327 39 -411 -57 -107 -200 -110 -259 -6 -48 84 -16 173 77 216 50 23 50
23 50 108 0 54 5 91 12 98 18 18 63 15 81 -5z m-476 -74 c9 -9 20 -9 44 0 114
40 172 -24 173 -189 1 -146 -19 -180 -93 -154 -25 9 -26 12 -33 123 -5 80 -12
119 -22 129 -29 30 -43 -1 -49 -109 -6 -111 -19 -139 -67 -139 -29 0 -48 16
-67 59 -11 25 -11 25 -12 3 -1 -33 -26 -76 -61 -105 -127 -107 -295 62 -219
220 68 141 242 116 279 -41 6 -21 8 2 9 69 1 121 13 145 70 145 20 0 42 -5 48
-11z"/>
<path d="M6060 2373 c-138 -56 -188 -274 -114 -492 29 -86 48 -109 78 -98 14
6 16 20 10 117 -7 110 -7 110 48 110 135 0 214 150 146 279 -36 69 -112 107
-168 84z m115 -93 c30 -33 33 -128 5 -162 -69 -89 -150 49 -85 145 29 42 53
47 80 17z"/>
<path d="M6129 2273 c-41 -46 -52 -118 -23 -147 61 -62 114 73 56 144 -17 21
-18 21 -33 3z"/>
<path d="M6621 2281 c-11 -7 -9 -10 10 -14 23 -4 22 -4 -3 -6 -16 0 -28 -5
-28 -11 0 -14 47 -13 56 1 10 16 -18 40 -35 30z"/>
<path d="M6993 2193 c-9 -3 -13 -34 -13 -103 0 -97 0 -97 -39 -104 -99 -15
-146 -146 -80 -221 63 -71 157 -68 207 8 47 71 33 314 -24 405 -14 22 -27 25
-51 15z m1 -255 c39 -55 -6 -141 -64 -123 -27 9 -45 67 -29 97 27 50 68 62 93
26z"/>
<path d="M6931 1933 c-45 -31 -9 -126 37 -97 19 12 27 44 18 79 -8 30 -29 37
-55 18z"/>
<path d="M6504 2110 c-42 -17 -44 -260 -3 -301 48 -48 79 -6 79 108 0 127 30
173 77 118 21 -23 23 -37 23 -125 0 -107 11 -134 53 -128 64 9 65 244 3 307
-30 29 -82 32 -122 7 -23 -16 -26 -16 -51 4 -29 22 -29 22 -59 10z"/>
<path d="M6270 2029 c-114 -47 -136 -202 -40 -283 91 -76 224 23 206 153 -12
91 -97 158 -166 130z m104 -81 c23 -32 20 -90 -4 -116 -43 -45 -86 -17 -84 55
2 72 55 109 88 61z"/>
<path d="M6316 1938 c-21 -29 -20 -82 0 -103 37 -36 73 51 44 106 -14 25 -25
24 -44 -3z"/>
<path d="M1500 2313 c-77 -28 -107 -115 -69 -204 33 -76 24 -131 -45 -280
-126 -269 -130 -284 -131 -389 0 -107 16 -148 73 -186 71 -48 159 -41 375 31
171 57 239 60 307 15 58 -38 97 -46 143 -26 123 51 88 256 -43 256 -32 0 -54
-9 -101 -42 -189 -133 -387 42 -224 198 36 35 54 44 121 59 106 23 154 69 154
146 0 162 -175 193 -245 42 -52 -113 -60 -126 -92 -150 -39 -30 -113 -42 -147
-24 -81 44 -72 188 18 288 77 86 91 134 59 200 -27 57 -96 87 -153 66z m-11
-660 c127 -138 143 -182 85 -233 -144 -126 -334 -87 -310 63 12 75 115 237
151 237 7 0 41 -30 74 -67z"/>
<path d="M1375 1663 c-126 -138 -124 -303 5 -303 79 0 210 70 210 113 0 31
-149 227 -172 227 -5 0 -24 -17 -43 -37z"/>
<path d="M8000 2074 c-69 -63 -66 -117 11 -199 116 -123 120 -269 9 -315 -73
-30 -172 34 -210 138 -56 150 -151 197 -236 119 -92 -84 -37 -213 101 -238
146 -27 237 -139 189 -235 -51 -102 -193 -112 -319 -22 -84 60 -144 60 -198 0
-103 -113 45 -263 186 -188 90 48 190 36 397 -47 182 -74 292 -77 372 -9 92
78 87 212 -19 441 -100 218 -120 301 -88 378 62 149 -81 279 -195 177z m210
-621 c177 -214 68 -390 -178 -287 -117 49 -106 120 42 262 75 72 93 75 136 25z"/>
<path d="M8084 1419 c-131 -125 -144 -186 -49 -234 134 -67 270 -20 246 86
-17 75 -97 199 -127 199 -9 0 -40 -23 -70 -51z"/>
<path d="M1514 6949 c-163 -86 -314 -242 -409 -422 -54 -101 -54 -108 -26
-182 45 -117 27 -228 -42 -258 -27 -11 -28 -14 -22 -62 9 -72 39 -189 85 -335
39 -125 41 -129 83 -153 156 -92 191 -235 70 -292 -35 -17 -35 -18 -29 -62 3
-25 6 -75 6 -111 0 -65 0 -65 23 -45 35 33 62 36 113 14 46 -21 46 -21 41 162
-5 226 -17 269 -84 324 -80 66 -103 112 -103 212 -1 76 -4 93 -30 141 -33 61
-37 102 -16 176 8 27 16 103 19 169 8 220 76 366 277 603 145 170 146 175 44
121z"/>
<path d="M8360 6921 c0 -20 12 -37 115 -156 182 -210 237 -356 234 -610 -1
-96 3 -167 11 -198 16 -59 8 -97 -31 -159 -26 -40 -32 -62 -38 -135 -4 -49
-15 -102 -24 -119 -16 -31 -113 -124 -129 -124 -13 0 -57 -96 -74 -157 -8 -32
-18 -123 -21 -202 -6 -144 -6 -144 18 -137 109 31 178 13 210 -57 23 -52 23
-70 3 -114 -35 -73 -127 -103 -209 -69 -32 14 -35 13 -35 -2 0 -9 -7 -242 -15
-517 -8 -275 -15 -579 -15 -676 0 -176 0 -176 43 -188 192 -57 189 -320 -4
-296 -47 5 -47 5 -54 -241 -15 -506 -6 -581 103 -832 61 -140 70 -156 104
-173 107 -55 146 -185 92 -312 -41 -95 -45 -124 -29 -195 34 -147 15 -194
-102 -249 -90 -43 -136 -94 -154 -166 -24 -106 -72 -155 -182 -189 -147 -44
-310 -12 -405 80 -23 23 -49 42 -58 42 -9 0 -102 29 -207 64 -226 76 -316 96
-431 96 -102 0 -98 5 -86 -139 20 -220 48 -250 146 -154 113 111 216 148 307
109 83 -34 152 -150 145 -241 -4 -53 -4 -53 31 -59 86 -14 170 -7 182 15 25
48 225 99 389 99 26 0 62 5 79 11 24 9 35 9 44 0 8 -8 5 -11 -10 -11 -30 0
-54 -11 -47 -21 8 -13 50 -11 61 4 18 22 23 59 8 53 -30 -11 172 194 228 231
20 14 37 34 37 44 0 24 77 73 111 71 43 -3 93 132 54 145 -5 1 -25 -6 -43 -17
-33 -20 -33 -22 -18 -45 18 -28 20 -35 7 -35 -5 0 -14 14 -22 31 -12 30 -11
33 17 55 16 13 33 24 37 24 5 0 6 33 2 73 -6 60 -3 82 15 132 12 33 27 75 33
93 7 17 18 32 26 32 18 0 9 96 -17 192 -23 81 -117 225 -182 277 -102 83 -120
105 -120 152 1 110 97 211 153 161 20 -17 20 -16 14 23 -4 22 -7 66 -7 98 0
58 0 58 -22 43 -102 -72 -272 83 -223 201 36 86 118 139 201 130 51 -5 51 -5
58 46 10 89 7 512 -4 523 -6 6 -14 43 -17 82 -5 66 -8 72 -34 82 -40 17 -79
58 -101 108 -24 54 -16 84 47 167 74 99 79 174 22 325 -56 149 -70 278 -40
365 16 48 96 141 151 176 25 16 26 25 37 401 5 178 5 178 -27 158 -87 -53
-199 20 -185 121 9 72 73 127 247 214 105 52 105 52 154 204 65 199 91 349 59
336 -67 -28 -71 -28 -103 -15 -82 34 -94 199 -21 291 10 14 24 43 30 66 6 23
17 43 23 45 16 6 -60 146 -121 222 -96 121 -225 229 -339 286 -71 35 -82 37
-82 11z"/>
<path d="M8902 6374 c-22 -41 -19 -77 8 -92 26 -14 5 -12 -32 3 -34 14 -81
-150 -59 -207 37 -97 171 -89 171 9 0 66 -23 49 -44 -32 -3 -11 -3 2 -1 29 3
29 12 54 21 61 26 19 -1 177 -39 229 -14 19 -15 19 -25 0z"/>
<path d="M1031 6341 c-7 -23 -10 -46 -7 -49 3 -3 1 -10 -4 -17 -14 -17 -24
-149 -13 -170 9 -16 13 -15 44 13 43 38 49 143 13 222 -21 45 -21 45 -33 1z"/>
<path d="M1180 6014 c-12 -55 -11 -58 21 -118 29 -54 33 -71 36 -156 4 -108
20 -142 92 -199 38 -30 41 -31 32 -9 -70 182 -94 256 -122 386 -18 83 -36 152
-40 152 -4 0 -13 -25 -19 -56z"/>
<path d="M8681 5928 c-12 -61 -84 -246 -155 -402 -48 -104 -42 -111 30 -40 67
65 84 108 84 206 0 43 7 64 36 113 38 62 46 112 27 163 -7 19 -11 13 -22 -40z"/>
<path d="M1154 5508 c4 -13 20 -74 37 -137 34 -133 30 -125 61 -111 77 35 75
133 -4 206 -67 63 -105 80 -94 42z"/>
<path d="M8735 5447 c-138 -72 -205 -137 -205 -198 1 -131 163 -153 217 -29
26 59 103 264 103 272 0 14 -12 9 -115 -45z"/>
<path d="M1261 5014 c-67 -56 -29 -204 51 -204 80 0 98 21 98 113 0 85 0 85
-40 101 -55 22 -73 20 -109 -10z"/>
<path d="M8475 4923 c-70 -15 -73 -19 -77 -106 -5 -98 -4 -102 30 -115 60 -23
84 -23 128 -1 100 48 99 173 -2 215 -34 14 -43 15 -79 7z"/>
<path d="M1226 4825 c-14 -38 -6 -154 13 -187 62 -107 64 -225 5 -408 -52
-163 -53 -254 -5 -360 49 -106 44 -161 -22 -232 -24 -26 -24 -26 -29 -370 -5
-343 -5 -343 40 -383 80 -70 103 -165 59 -237 -25 -41 -63 -74 -92 -79 -33 -7
-34 -122 0 -184 45 -86 28 -161 -51 -221 -24 -19 -47 -50 -64 -89 -169 -375
-149 -801 51 -1091 69 -101 235 -244 282 -244 10 0 53 -9 95 -19 43 -10 105
-22 139 -25 57 -6 110 -24 226 -75 33 -14 69 -21 112 -21 64 0 64 0 49 35 -56
134 43 284 180 273 78 -6 152 -47 247 -136 84 -79 84 -79 119 -64 19 7 36 15
38 16 1 2 -5 34 -14 72 -16 68 -15 151 2 248 7 39 7 39 -107 33 -135 -7 -243
-34 -456 -111 -84 -31 -158 -56 -164 -56 -7 0 -33 -20 -58 -44 -94 -87 -235
-109 -373 -57 -105 40 -145 97 -177 251 -19 92 -57 149 -126 191 -102 61 -130
138 -89 250 22 62 21 123 -5 204 -38 121 3 244 98 292 42 21 47 29 88 123 91
215 108 301 123 620 21 460 21 450 -28 450 -54 0 -77 12 -97 50 -46 89 25 230
117 230 35 0 35 -2 48 615 16 761 17 747 -22 727 -47 -23 -93 -20 -121 7 -22
19 -25 20 -31 6z"/>
<path d="M1216 4609 c-7 -44 -13 -429 -6 -429 3 0 18 42 33 94 36 120 38 227
7 307 -27 68 -28 68 -34 28z"/>
<path d="M8637 4520 c-114 -104 -127 -234 -48 -465 61 -176 55 -253 -23 -349
-60 -74 -69 -111 -42 -165 17 -33 76 -86 104 -95 21 -7 32 -43 32 -107 0 -21
4 -40 8 -43 5 -3 14 151 20 342 15 433 15 502 1 502 -8 0 -7 5 2 16 17 20 27
414 11 414 -6 0 -35 -22 -65 -50z"/>
<path d="M1195 3810 c-4 -58 -5 -121 -3 -140 3 -35 3 -35 32 3 42 55 44 107 8
182 -29 60 -29 60 -37 -45z"/>
<path d="M1335 3453 c-108 -28 -142 -203 -46 -242 73 -31 91 -4 91 137 0 117
0 116 -45 105z"/>
<path d="M8357 3163 c-7 -141 -6 -143 56 -143 141 0 161 182 27 250 -75 38
-76 36 -83 -107z"/>
<path d="M1180 2763 c0 -71 -3 -138 -6 -150 -10 -36 35 -30 74 10 63 65 61
150 -5 226 -57 67 -63 60 -63 -86z"/>
<path d="M8522 2679 c-113 -56 -143 -176 -64 -252 57 -55 123 -66 180 -31 21
14 22 20 22 148 0 134 0 134 -31 145 -44 15 -58 14 -107 -10z"/>
<path d="M1165 2355 c-4 -22 -15 -73 -26 -113 -24 -92 -24 -91 11 -57 60 57
71 115 35 185 -13 25 -13 25 -20 -15z"/>
<path d="M8577 2200 c-99 -78 -94 -178 13 -263 35 -29 78 -71 95 -93 16 -22
40 -54 52 -70 20 -27 19 -22 -8 66 -16 52 -41 151 -55 219 -31 155 -47 180
-97 141z"/>
<path d="M1111 1944 c-65 -74 -75 -137 -40 -249 23 -76 22 -117 -6 -236 -17
-72 -17 -77 0 -113 15 -32 101 -104 111 -93 1 1 -8 38 -21 82 -54 188 -54 355
1 553 34 124 25 135 -45 56z"/>
<path d="M8530 1746 c0 -3 10 -41 23 -83 51 -177 23 -447 -62 -608 -14 -27
-28 -54 -30 -58 -9 -21 99 46 127 78 36 40 38 62 17 150 -21 88 -18 124 15
204 49 120 49 175 -3 251 -20 30 -87 81 -87 66z"/>
<path d="M8782 1353 c-37 -87 -42 -147 -21 -225 22 -83 47 -9 56 165 6 119 -3
135 -35 60z"/>
<path d="M2646 1052 c-26 -43 -29 -201 -5 -271 14 -40 -9 -37 524 -56 532 -19
1713 -61 2110 -75 154 -5 332 -12 395 -15 112 -6 735 -28 1133 -42 197 -6 197
-6 182 38 -9 24 -21 94 -27 156 -13 128 41 114 -508 133 -162 6 -518 19 -790
30 -272 11 -625 24 -785 30 -159 6 -468 17 -685 25 -217 8 -597 21 -845 30
-247 8 -505 17 -572 19 -67 3 -124 2 -127 -2z"/>
<path d="M1296 1013 c24 -138 132 -213 308 -213 76 0 170 35 209 78 15 16 9
17 -106 17 -160 1 -246 28 -365 117 -53 40 -53 40 -46 1z"/>
<path d="M8654 910 c-51 -22 -57 -32 -43 -64 10 -21 38 -43 44 -34 16 25 65
110 65 113 0 9 -25 4 -66 -15z"/>
<path d="M2153 889 c-100 -30 -149 -167 -94 -262 15 -27 18 -28 71 -22 137 16
390 71 390 86 0 4 -32 37 -71 73 -108 100 -221 148 -296 125z"/>
<path d="M8283 835 c-100 -62 -178 -80 -350 -80 -163 0 -165 0 -130 -33 89
-84 285 -105 410 -44 75 37 110 78 125 150 12 49 12 49 -55 7z"/>
<path d="M8496 761 c-110 -96 -115 -105 -85 -137 29 -31 24 -32 97 26 57 47
62 54 63 93 2 42 2 42 8 8 6 -35 6 -35 34 2 27 36 27 36 2 61 -31 31 -14 39
-119 -53z"/>
<path d="M7298 736 c-82 -29 -218 -159 -186 -177 45 -25 278 -86 395 -103 135
-20 44 245 -97 284 -45 13 -67 12 -112 -4z"/>
<path d="M1440 717 c0 -14 280 -102 300 -95 5 2 1 14 -9 27 -15 19 -31 25 -97
32 -43 4 -104 15 -134 24 -62 17 -60 16 -60 12z"/>
<path d="M1760 640 c6 -11 23 -22 38 -26 15 -3 34 -8 42 -10 31 -10 -14 25
-53 41 -37 15 -38 15 -27 -5z"/>
<path d="M8359 620 c-10 -6 -14 -19 -11 -39 4 -29 4 -29 33 -12 31 17 36 30
17 49 -14 14 -18 14 -39 2z"/>
<path d="M7986 524 c-87 -13 -166 -49 -166 -74 0 -15 96 -12 194 7 88 17 88
17 66 35 -13 10 -21 21 -18 24 7 6 54 -12 62 -24 3 -6 24 -6 51 -1 193 36 22
66 -189 33z"/>
</g>
</svg>
