<?xml version="1.0" encoding="utf-8"?>
<!-- Generator: Adobe Illustrator 29.8.7, SVG Export Plug-In . SVG Version: 9.03 Build 0)  -->
<svg version="1.0" id="LILYPAD" xmlns="http://www.w3.org/2000/svg" xmlns:xlink="http://www.w3.org/1999/xlink" x="0px" y="0px"
	 viewBox="0 0 994 978" style="enable-background:new 0 0 994 978;" xml:space="preserve">
<style type="text/css">
	.st0{fill:#DFE0E2;}
	.st1{fill:#439DD6;}
	.st2{fill:#72A4D7;}
	.st3{fill:#4693CE;}
	.st4{fill:#6EAEDF;}
	.st5{fill:#397EBF;}
	.st6{fill:#1F6D3A;}
	.st7{fill:#3D8B3C;}
	.st8{fill:#68A457;}
	.st9{fill:#A66075;}
</style>
<path id="CONTORNO" d="M841.2,281.5c-5.9-2.1-5.7-0.9-1.6-17.7c11.8-47.9,11.1-70.7-3.1-101.4c-26.5-57.5-94-82-149-54.2
	c-34.3,17.3-56.1,45.4-71.4,92c-1.3,3.8-2.6,6.8-3,6.8c-0.5,0-7.8-3.3-16.2-7.4c-67.1-32.4-126.9-32.4-202.8,0.1
	c-9.6,4.1-17.7,7-18.1,6.6c-0.4-0.4-1.5-4.4-2.5-8.8c-11.1-51-45.7-88.7-90.6-98.6c-8.5-1.8-24.8-3.1-30.4-2.3
	c-40.5,5.7-71.5,28.8-89.5,66.7c-13.8,29.1-15.2,47.6-6.7,88.7c2.5,11.8,4.3,21.8,4.1,22.2c-0.3,0.4-4,2.6-8.2,4.8
	c-14.5,7.5-30.3,21.8-39.8,36.1c-18.8,28.3-19.8,52.4-4.2,100.9c11.5,35.6,11.7,38.1,9.9,104.5c-0.6,23.1-1.6,68.1-2.1,100
	c-2.3,128.7-1.9,122.3-11,147.1c-7.2,19.4-10.7,32.8-12.1,44.9c-4.3,40.8,15.7,80.6,48.9,97c32.4,16,70.1,17.1,112.2,3.2
	c8.4-2.7,14-4,17-3.9c2.5,0.1,18.7,0.6,36,1.2c97.6,3.1,97,3.1,295,10.5c36.6,1.3,74.2,2.8,83.5,3.1c16.1,0.6,17.8,0.9,32.2,5
	c98.5,28.1,168.1-8.2,167.6-87.6c-0.1-15.5-1.2-22.5-6.3-39c-10.1-33.2-10.6-38-9.1-91.5c2.2-76.3,3.1-110.3,4.6-170.5
	c2.2-83.4,1.3-76.2,12.5-106.5c12.2-33.2,14.1-40.5,14.7-57.7c0.9-22.1-4.7-40-18.5-59.3C873,302.1,853.6,285.9,841.2,281.5z"/>
<g id="TIZA">
	<path class="st0" d="M278.76,215c2.5,12.8,19.2,14.4,24.2,2.4c2.3-5.4,2.3-5.4-11.7-5.4C278.16,212,278.16,212,278.76,215z"/>
	<path class="st0" d="M233.36,295.2c13.5,4.7,34.6,4.8,48,0.4c31-10.2,55.1-37.3,60.5-68c2.8-16.4,3.3-15.6-10.4-15.6
		c-11.8,0-11.8,0-12.9,6.6c-8.1,48.8-75.4,49.6-84.3,0.9c-1.3-6.8-1.3-6.8-28.4-6.2c-34.1,0.8-31.3,0-30.3,9.5
		C178.96,256.2,201.26,284.1,233.36,295.2z"/>
	<path class="st0" d="M766.96,295.1c28.5-13.4,49.4-41.3,52.8-70.9c0.6-4.5,0.4-5.2-1.1-5.2c-1,0-9.7-0.7-19.3-1.5
		c-28.9-2.4-27.3-2.7-28.8,5.1c-9.5,49.9-79.2,46.1-86.6-4.7c-0.7-4.6-0.7-4.6-11.3-5.3c-18-1.1-28.3-0.8-28.9,0.8
		c-0.3,0.8,0,5.8,0.6,11.2C650.96,284.4,713.36,320.2,766.96,295.1z"/>
	<path class="st0" d="M737.86,214.3c-7.8-0.6-7.8-0.6-7.2,3.3c1.9,11.6,19.7,14.5,24.5,3.9c2.5-5.4,1.7-6.5-4.1-6.5
		C748.06,215,742.16,214.7,737.86,214.3z"/>
</g>
<path id="CELESTE_SATURADO" class="st1" d="M166.46,443.6c-1.7,0.4-3.3,0.9-3.5,1.3c-0.7,1-3.1,102-2.5,102.6
	c0.7,0.7,25.4-5.7,42.9-11.2c39.2-12.1,62.5-24.3,94-49.1c72.8-57.5,102-72.7,149.5-78.3c12.3-1.5,45.8-0.6,60,1.5
	c5.5,0.9,10.7,1.6,11.6,1.6c1.5,0-3.7-9.9-22.5-42.6c-3.5-6.2-3.5-6.2-22.8-6.8c-15.3-0.5-205.1-2.6-228.9-2.6
	c-5.2,0-5.7,0.2-6.3,2.4c-0.8,3.4-6.9,8.4-11.1,9.2c-5.8,1.1-9.8-0.3-16-5.6c-3.3-2.8-6.6-5-7.5-5c-0.8,0-2.4-0.2-3.5-0.4
	c-1.1-0.2-2.9-0.2-4,0c-10.1,2.3-11.9,11.7-3.6,18.7c3.1,2.5,6.6,3.8,14.1,5.1c18.7,3.2,18.9,29.7,0.3,33.2
	c-7.9,1.5-16.3-4.9-18.4-14c-4-18-21.8-23.6-23.6-7.4c-0.9,7.9,0.3,11.4,6.2,17.8c3,3.3,5.7,7.2,6.1,8.7c0.3,1.5,0.8,3.4,1,4.2
	C179.56,432,172.36,442.4,166.46,443.6z"/>
<g id="CELESTE_PASTEL">
	<g>
		<path class="st2" d="M753.36,469.5c-49.6,5.4-65.7,3-108-16.7c-32.2-15-58.6-24-99-33.7c-26.6-6.4-24.9-6.5-20.7,1
			c1.9,3.5,11.5,20.8,21.3,38.4c9.8,17.6,21.3,38.3,25.5,46c4.4,8.1,8.2,13.9,8.9,13.7c22.5-5.3,62-4.9,92,0.9
			c35.4,6.9,54,13.5,98,34.9c26,12.6,44.2,20.1,45.5,18.8c0.7-0.7,2.8-102.9,2.1-103.5C816.06,466.4,780.56,466.5,753.36,469.5z"/>
		<path class="st2" d="M663.86,671.2c3.1,5.8,3.1,5.8,14.3-1.2c47.6-29.7,92.4-38.2,129.9-24.5c3.7,1.3,6.9,2.3,7,2.1
			c0.2-0.1,0.5-9.7,0.8-21.2c0.3-11.5,0.7-28,1-36.7c0.4-13.8,0.3-15.7-1.1-15.7c-4.2,0-19.6-6.4-45.4-19
			c-53.6-26.1-84.7-35.2-133.4-39c-12.5-1-15.7-1-26.1-0.3c-6.9,0.5-27.7,3.3-28.7,3.9s0.2,2.9,19.2,37.4
			c20.3,36.8,42.8,77.9,52.1,95C657.46,659.4,662.16,668.1,663.86,671.2z"/>
	</g>
</g>
<g id="CELESTE_INTERMEDIO">
	<path class="st3" d="M156.26,743c2.8,0,5.9,1.6,9.3,4.7c2.6,2.5,2.6,2.5,11.8-9.8c27.3-36.5,52.7-59.2,88.8-79.4
		c25.8-14.4,44.3-20.6,87.9-29.5c51.1-10.5,74.8-21.7,116.9-55.1c39.1-31,64.3-44.6,98.2-52.9c5.1-1.2,9.2-2.5,9-2.9
		c-0.2-0.3-2.7-5.1-5.7-10.6c-4.8-9-8.6-15.8-28.2-50.5c-3-5.3-9.4-17.1-14.4-26.3c-7.3-13.6-9.4-16.7-11.5-17.2
		c-12.1-2.5-55.5-5.2-64.5-3.9c-1.6,0.2-7.2,0.9-12.3,1.5c-41.5,4.8-73.2,21.7-139.7,74.4c-39.9,31.6-67.8,45-124,59.5
		c-20.2,5.3-18.4-5.2-21.4,124c-0.6,26.7-1.4,54.2-1.7,61.3C154.06,742.9,154.16,743,156.26,743z"/>
	<path class="st3" d="M378.86,779.1c56-54.1,102.9-72.5,193.5-76.1c39.9-1.6,73.5-10.4,90.9-23.9c2.8-2.1,9.8,11.5-59.7-115.1
		c-15.7-28.7-24.5-44-25.1-43.9c-0.3,0-4.7,1.1-9.7,2.4c-37.2,9.9-59.1,22.1-103.4,57.5c-36.4,29-63.8,41-118.6,51.9
		c-74.1,14.8-124.6,47.2-170.2,109.3c-6.9,9.4-7.2,9.9-6.6,14.2c1.1,7.4-0.2,11-6.2,17.8c-10.9,12.6-10.9,26.8,0.1,26.8
		c5.9,0,10.1-4.1,13.6-13.5c5.2-13.9,18.3-19.2,27.1-10.9c11.8,11.2,5.5,26.8-12.7,30.9c-8.2,1.9-10.9,3.5-13.5,7.8
		c-8.1,13.3,7.3,22.2,21.2,12.2c11.9-8.6,25.2-4,27.4,9.6c0.6,3.7,4.5,4,95.1,6.1c6.3,0.1,6.3,0.1,11.6-8.3
		C346.36,813.7,359.16,798.2,378.86,779.1z"/>
</g>
<g id="CELESTE_MUY_CLARO">
	<path class="st4" d="M815.56,454c-11.1,0-18.7-11.5-14.3-21.6c1.1-2.4,4-6.3,6.5-8.5c8.3-7.6,11.2-19.1,6.6-26.6
		c-5.4-8.9-18.5-1.8-22.5,12.1c-2.8,9.6-9.7,15.6-18,15.6c-15.2,0-21.5-19.3-9.6-29.3c3-2.5,5-3.3,14.3-5.7
		c12.4-3.2,18.9-14.4,11.8-20.3c-6.3-5.3-15.4-4.4-24,2.5c-9.1,7.2-21,6.3-25.8-2.1c-1.9-3.4,4.7-3.1-139.7-5.6
		c-91.3-1.6-106.5-1.8-106.5-1.1c0,0.4,19.8,35.7,24.9,44.5c2.6,4.4,2.6,4.4,13.6,6.6c15.7,3.3,29.4,6.9,50,13
		c29.8,9,37.1,11.8,67,25.8c37.8,17.6,57.4,20.4,104,14.8c20.2-2.5,41.1-3.1,56.3-1.8c9.2,0.9,9.2,0.9,9.2-5.7
		S819.36,454,815.56,454z"/>
	<path class="st4" d="M736.86,764.4c-4.7-16-16.3-23.7-38.2-25.5c-12.5-1-15.5-2-26-8.5c-18.4-11.5-34.2-14.8-52.2-10.9
		c-36.8,8-64.6,37.3-60.1,63.3c3.2,18.2,12.9,27.1,34.9,31.9c4.8,1.1,11.6,3.8,18.7,7.4c29.8,15.3,52.1,17.6,77.2,7.9
		C722.96,817.7,743.86,787.8,736.86,764.4z M677.16,832.4c-19.2,4-34.2,1.2-59.6-11c-7.3-3.5-16.9-7.3-21.5-8.5
		c-18-4.5-26.6-13.7-29.9-31.9c-6.6-35.3,43.8-70.9,82.9-58.5c4.3,1.3,12.1,5,17.3,8.1c13.7,8.2,19.4,10.3,30.8,11.3
		c14.9,1.4,25.5,6.6,30.6,15.3C744.76,786.2,719.46,823.7,677.16,832.4z"/>
	<path class="st4" d="M623.16,749.1c-3.6-6.9-11.2-10.7-16.8-8.4c-13.8,5.6-18.8,27.4-11.4,49.2c2.9,8.6,4.8,10.9,7.8,9.8
		c1.4-0.6,1.6-2,1-11.7c-0.7-11-0.7-11,4.8-11C622.06,777,629.96,762,623.16,749.1z M618.36,766.2c-6.9,8.9-15-4.9-8.5-14.5
		c2.9-4.2,5.3-4.7,8-1.7C620.86,753.3,621.16,762.8,618.36,766.2z"/>
	<path class="st4" d="M699.66,758.7c-0.9,0.3-1.3,3.4-1.3,10.3c0,9.7,0,9.7-3.9,10.4c-9.9,1.5-14.6,14.6-8,22.1
		c6.3,7.1,15.7,6.8,20.7-0.8c4.7-7.1,3.3-31.4-2.4-40.5C703.36,758,702.06,757.7,699.66,758.7z M693.36,796.5
		c-2.7-0.9-4.5-6.7-2.9-9.7c2.7-5,6.8-6.2,9.3-2.6C703.66,789.7,699.16,798.3,693.36,796.5z"/>
	<path class="st4" d="M661.76,768.4c-2.3,1.6-2.6,1.6-5.1-0.4c-2.9-2.2-2.9-2.2-5.9-1c-4.2,1.7-4.4,26-0.3,30.1
		c4.8,4.8,7.9,0.6,7.9-10.8c0-12.7,3-17.3,7.7-11.8c2.1,2.3,2.3,3.7,2.3,12.5c0,10.7,1.1,13.4,5.3,12.8c6.4-0.9,6.5-24.4,0.3-30.7
		C670.96,766.2,665.76,765.9,661.76,768.4z"/>
	<path class="st4" d="M627.36,775.1c-11.4,4.7-13.6,20.2-4,28.3c9.1,7.6,22.4-2.3,20.6-15.3C642.76,779,634.26,772.3,627.36,775.1z
		 M637.36,794.8c-4.3,4.5-8.6,1.7-8.4-5.5s5.5-10.9,8.8-6.1C640.06,786.4,639.76,792.2,637.36,794.8z"/>
</g>
<g id="CELESTE_OSCURO">
	<g>
		<path class="st5" d="M748.86,839c1.7,0.6,5.9,3,9.5,5.3c14.3,9.3,30.7,3.5,25.5-9c-2.9-7-7.6-10.5-15.5-11.8
			c-8.1-1.3-12-3.5-15.1-8.4c-6.9-10.9,0-25.1,12.2-25.1c8.8,0,13.8,4.3,17.9,15.3c3.8,10,11,15.9,17.6,14.3
			c9.7-2.5,8.8-15.7-2-27.4c-5.7-6.3-7.4-10.7-6.1-15.9c1.6-6.6,9-12.3,15.9-12.3c4,0,3.9,1,5.6-58.5c1.7-61,2.4-55.6-7.2-58.8
			c-17.2-5.5-33-7.4-48.8-5.6c-26.8,3-52.2,12.9-84.4,33.1c-36.6,23-63.1,30.6-106.6,30.8c-32.8,0.1-76.3,7.5-101.8,17.4
			c-37.5,14.5-79.5,46.6-111.8,85.6c-10,12-24.4,33.5-23.2,34.5c0.3,0.3,10.5,0.6,105.8,4c22.8,0.8,60.2,2.2,83,3
			c22.8,0.8,62.4,2.2,88,3c25.6,0.9,62.7,2.2,82.5,3c19.8,0.8,36.6,1.5,37.3,1.5c0.6,0,1.2-1.1,1.2-2.5
			C728.36,844.7,740.26,835.8,748.86,839z M660.86,836.5c-17.6,0-24.5-1.8-44-11.5c-9.8-4.8-17.1-7.6-24.3-9.4
			c-23.5-5.8-33.6-17.3-33.7-38.6c0-8.7,0.3-10.1,3.3-16.4c14.5-30.6,58.2-51.2,89.2-42c6.5,1.9,17.2,7.2,24.5,12
			c6.6,4.4,13.1,6.4,20.9,6.4c34.9,0.1,52.1,26.7,37.1,57.5C721.26,820.6,693.46,836.5,660.86,836.5z"/>
		<path class="st5" d="M699.46,743.9c-13.6-1.4-18-2.9-31.6-10.9c-17.3-10.2-31-13.5-44.7-11c-45.5,8.3-69.3,46.5-48.1,77.2
			c3.6,5.4,10.4,9.3,21.3,12.3c5.2,1.5,15.6,5.5,23,9c24.1,11.1,35.7,13.8,51.2,11.6c36.5-5.1,62.6-30.6,60.6-59
			C729.96,756,718.86,745.8,699.46,743.9z M659.46,756.7c1.7,1.7,4.4,1.7,5.7,0c0.8-0.9,0.3-1.2-2.1-1.2c-2.8,0-3.2-0.4-3.5-3
			c-0.5-4.1,2.4-6.3,5.9-4.5c3.1,1.7,2.6,8.5-0.7,10.7c-2.8,1.8-5.4,1-6.2-1.8C658.16,755.8,658.36,755.7,659.46,756.7z M648.56,741
			c0.4,0,0.8,1.3,0.8,2.9c0,2.3,0.6,3,3.3,3.7c3,0.9,3.2,1.2,3.5,6.2c0.2,3.8-0.1,5.2-1,5.2c-0.9,0-1.3-1.5-1.3-4.7
			c0-4.5-0.2-4.8-3-5.3c-2.6-0.4-2.9-0.9-3-4.3C647.76,742.7,648.06,741,648.56,741z M639.56,741c5.7,0,5.7,0,6,8.2
			c0.3,7,0.6,8.3,2.1,8.6c1.4,0.3,1.7-0.4,1.7-3.7c0-3.6,1.8-6.1,2.1-2.9c0.6,6.2,0.3,7.7-1.5,8.2c-4,1-5.6-1-5.6-7.4
			c0-4.7-0.3-5.8-1.4-5.4c-0.8,0.3-1.7,0.1-2.1-0.5c-0.3-0.6,0.1-1.1,0.9-1.1c0.8,0,1.8-0.5,2.1-1c0.4-0.6-1.7-1-5.4-1
			c-6,0-8.2,1.4-3.8,2.5c2,0.5,2.2,1.1,1.9,6c-0.4,5.4-0.4,5.5,2.5,5.5c2.4,0.1,2.6,0.2,1,1.1c-3.3,2-4.7,0.4-4.7-5.5
			c0-4.9-0.2-5.4-2.5-6C626.56,745,631.26,741.1,639.56,741z M605.46,788.2c0.7,10.7,0,12.8-4.1,12.8c-3.7,0-5.4-2.4-8.7-12.5
			c-8.2-25.3,1.6-50.4,19.1-49.2c5.5,0.3,6.2,0.7,9.6,4.5c11.7,13.2,5.2,34.2-10.6,34.2C604.36,778,604.76,777.2,605.46,788.2z
			 M670.46,800.4c-2.5-0.9-2.6-1.2-3.3-12.3c-0.5-8-1.2-11.9-2.2-12.9c-2.9-3-4.3,0.1-4.9,10.9c-0.6,11.1-1.9,13.9-6.7,13.9
			c-2.9,0-4.8-1.6-6.7-5.9c-1.1-2.5-1.1-2.5-1.2-0.3c-0.1,3.3-2.6,7.6-6.1,10.5c-12.7,10.7-29.5-6.2-21.9-22
			c6.8-14.1,24.2-11.6,27.9,4.1c0.6,2.1,0.8-0.2,0.9-6.9c0.1-12.1,1.3-14.5,7-14.5c2,0,4.2,0.5,4.8,1.1c0.9,0.9,2,0.9,4.4,0
			c11.4-4,17.2,2.4,17.3,18.9C679.86,799.6,677.86,803,670.46,800.4z M709.56,799.8c-5.7,10.7-20,11-25.9,0.6
			c-4.8-8.4-1.6-17.3,7.7-21.6c5-2.3,5-2.3,5-10.8c0-5.4,0.5-9.1,1.2-9.8c1.8-1.8,6.3-1.5,8.1,0.5
			C711.56,765.4,714.06,791.4,709.56,799.8z"/>
		<path class="st5" d="M613.26,750.7c-4.1,4.6-5.2,11.8-2.3,14.7c6.1,6.2,11.4-7.3,5.6-14.4C614.86,748.9,614.76,748.9,613.26,750.7
			z"/>
		<path class="st5" d="M665.96,752.9c1-1.6-1.8-4-3.5-3c-1.1,0.7-0.9,1,1,1.4c2.3,0.4,2.2,0.4-0.3,0.6c-1.6,0-2.8,0.5-2.8,1.1
			C660.36,754.4,665.06,754.3,665.96,752.9z"/>
		<path class="st5" d="M693.46,784.7c-4.5,3.1-0.9,12.6,3.7,9.7c1.9-1.2,2.7-4.4,1.8-7.9C698.16,783.5,696.06,782.8,693.46,784.7z"
			/>
		<path class="st5" d="M631.96,784.2c-2.1,2.9-2,8.2,0,10.3c3.7,3.6,7.3-5.1,4.4-10.6C634.96,781.4,633.86,781.5,631.96,784.2z"/>
	</g>
</g>
<g id="VERDE_OSCURO">
	<path class="st6" d="M137.36,352.2c-1.5,5.5-0.2,12.1,4.6,23.6c11.1,26.7,12.9,34.8,9.4,44c-2.5,6.6-2.5,11.6,0,15.6
		c6.4,10.4,23,5.3,23-7.1c0-5.4-1.1-7.6-6.6-12.9c-12.3-12-5.7-36.1,8.5-31.4c7.5,2.4,12.5,8.7,15.1,18.7c3,11.9,14.5,15.6,22.4,7.4
		c8.3-8.7,2.1-21.5-11.2-23.5c-15.2-2.3-24.1-16.6-15.4-24.8c6.7-6.4,17.2-5.7,25.4,1.7c7.4,6.6,14,7.1,19.7,1.5
		c6.4-6.4,4.3-17.3-4.1-21.6c-4-2.1-5.8-1.8-13.3,2.2c-9.2,4.9-15.2,4.6-31.5-1.8c-17.1-6.8-27.6-8.4-34.5-5.4
		C144.46,340.3,138.66,347.3,137.36,352.2z M165.26,343.6c9,4.5,10.1,6.5,7.1,12.5c-2.8,5.5-13.2,16.3-17.1,18
		c-8.3,3.4-18.2-16.4-13.3-26.7C145.96,338.9,153.46,337.7,165.26,343.6z"/>
	<path class="st6" d="M153.46,373c3.9,0,18.9-16.8,18.9-21.2c0-5.2-17.3-12.4-23.6-9.8c-8.3,3.3-8.6,17.7-0.7,27
		C149.96,371.2,152.36,373,153.46,373z"/>
	<path class="st6" d="M813.36,345c-4.7,1-13.2,3.5-19,5.5c-14,5-20,5.2-29.4,0.7c-10.4-4.9-16.5-4-21.4,3.2
		c-8.6,12.5,7.4,25.8,19.8,16.3c9.1-6.9,15.3-8.8,23-6.7c18,4.9,10.6,25.4-10.9,29.9c-12.3,2.6-17.9,13.1-11.8,22.2
		c7.1,10.6,21.1,6.4,25.2-7.6c3.7-12.5,15.7-21.4,23.5-17.3c10.8,5.7,9.4,22.5-3,35.4c-5.6,5.8-6,6.6-6,10.9
		c0,13.8,16.9,18.8,24,7.2c2.4-3.9,2.5-6.3,0.4-15c-2.3-9.2-0.6-15,10.3-37.1c9.1-18,11.6-26.4,10.3-33.4
		C845.96,345.6,833.56,340.6,813.36,345z M838.46,359.3c-0.2,9.4-8.4,22.7-14.1,22.7c-3.5,0-13.5-10.6-17.7-18.7
		c-2.8-5.2-2.8-5.2-0.3-7.8c6.3-6.7,19.1-10.1,26.5-7.1C837.16,350.2,838.66,353.1,838.46,359.3z"/>
	<path class="st6" d="M813.86,370.8c9.6,12.1,11.2,12.4,17.4,3.2c12.2-17.8,3.7-30.3-15.3-22.5
		C804.36,356.3,804.06,358.4,813.86,370.8z"/>
	<path class="st6" d="M211.36,825c-3.2,0-5.4,0.9-10.1,4.2c-18.9,13.3-38.7-4.2-22.4-19.8c3.6-3.5,5.4-4.4,12.1-5.9
		c10.6-2.3,15.4-6.9,15.4-14.6c0-16.2-17.5-19.3-24.5-4.2c-5.2,11.3-6,12.6-9.2,15c-3.9,3-11.3,4.2-14.7,2.4
		c-8.1-4.4-7.2-18.8,1.8-28.8c7.7-8.6,9.1-13.4,5.9-20c-2.7-5.7-9.6-8.7-15.3-6.6c-7.7,2.8-10.7,11.5-6.9,20.4
		c3.3,7.6,2.4,13.1-4.5,28c-12.6,26.9-13,28.4-13.1,38.9c0,10.7,1.6,14.8,7.3,18.6c7.1,4.8,15.9,4.1,37.5-3.1
		c17.1-5.7,23.9-6,30.7-1.5c5.8,3.8,9.7,4.6,14.3,2.6C227.96,845.5,224.46,825,211.36,825z M157.76,836c-14.4,12.6-33.4,8.7-31-6.3
		c1.2-7.5,11.5-23.7,15.1-23.7c0.7,0,4.1,3,7.4,6.7C161.96,826.5,163.56,830.9,157.76,836z"/>
	<path class="st6" d="M142.16,808c-0.5,0-2.4,1.7-4.3,3.7c-12.6,13.8-12.4,30.3,0.5,30.3c7.9,0,21-7,21-11.3
		C159.36,827.6,144.46,808,142.16,808z"/>
	<path class="st6" d="M800.36,770.6c-6.9,6.3-6.6,11.7,1.1,19.9c11.6,12.3,12,26.9,0.9,31.5c-7.3,3-17.2-3.4-21-13.8
		c-5.6-15-15.1-19.7-23.6-11.9c-9.2,8.4-3.7,21.3,10.1,23.8c14.6,2.7,23.7,13.9,18.9,23.5c-5.1,10.2-19.3,11.2-31.9,2.2
		c-8.4-6-14.4-6-19.8,0c-10.3,11.3,4.5,26.3,18.6,18.8c9-4.8,19-3.6,39.7,4.7c18.2,7.4,29.2,7.7,37.2,0.9c9.2-7.8,8.7-21.2-1.9-44.1
		c-10-21.8-12-30.1-8.8-37.8C826.06,773.4,811.76,760.4,800.36,770.6z M821.36,832.7c17.7,21.4,6.8,39-17.8,28.7
		c-11.7-4.9-10.6-12,4.2-26.2C815.26,828,817.06,827.7,821.36,832.7z"/>
	<path class="st6" d="M803.86,859.5c13.4,6.7,27,2,24.6-8.6c-1.7-7.5-9.7-19.9-12.7-19.9c-0.9,0-4,2.3-7,5.1
		C795.66,848.6,794.36,854.7,803.86,859.5z"/>
	<path class="st6" d="M118.66,424.3c15.6,9.2,19.1,23.5,7,29.2c-3.5,1.7-3.5,1.8-2.9,6.2c0.3,2.5,0.6,7.5,0.6,11.1
		c0,6.5,0,6.5,2.3,4.5c3.5-3.3,6.2-3.6,11.3-1.4c4.6,2.1,4.6,2.1,4.1-16.2c-0.5-22.6-1.7-26.9-8.4-32.4c-8-6.6-10.3-11.2-10.3-21.2
		c-0.1-7.6-0.4-9.3-3-14.1c-3.3-6.1-3.7-10.2-1.6-17.6c0.8-2.7,1.6-10.3,1.9-16.9c0.8-22,7.6-36.6,27.7-60.3
		c14.5-17,14.6-17.5,4.4-12.1c-16.3,8.6-31.4,24.2-40.9,42.2c-5.4,10.1-5.4,10.8-2.6,18.2c4.5,11.7,2.7,22.8-4.2,25.8
		c-2.7,1.1-2.8,1.4-2.2,6.2c0.9,7.2,3.9,18.9,8.5,33.5C114.26,421.5,114.46,421.9,118.66,424.3z"/>
	<path class="st6" d="M844.56,287c-7.1-3.5-8.2-3.7-8.2-1.1c0,2,1.2,3.7,11.5,15.6c18.2,21,23.7,35.6,23.4,61
		c-0.1,9.6,0.3,16.7,1.1,19.8c1.6,5.9,0.8,9.7-3.1,15.9c-2.6,4-3.2,6.2-3.8,13.5c-0.4,4.9-1.5,10.2-2.4,11.9
		c-1.6,3.1-11.3,12.4-12.9,12.4c-1.3,0-5.7,9.6-7.4,15.7c-0.8,3.2-1.8,12.3-2.1,20.2c-0.6,14.4-0.6,14.4,1.8,13.7
		c10.9-3.1,17.8-1.3,21,5.7c2.3,5.2,2.3,7,0.3,11.4c-3.5,7.3-12.7,10.3-20.9,6.9c-3.2-1.4-3.5-1.3-3.5,0.2c0,0.9-0.7,24.2-1.5,51.7
		c-0.8,27.5-1.5,57.9-1.5,67.6c0,17.6,0,17.6,4.3,18.8c19.2,5.7,18.9,32-0.4,29.6c-4.7-0.5-4.7-0.5-5.4,24.1
		c-1.5,50.6-0.6,58.1,10.3,83.2c6.1,14,7,15.6,10.4,17.3c10.7,5.5,14.6,18.5,9.2,31.2c-4.1,9.5-4.5,12.4-2.9,19.5
		c3.4,14.7,1.5,19.4-10.2,24.9c-9,4.3-13.6,9.4-15.4,16.6c-2.4,10.6-7.2,15.5-18.2,18.9c-14.7,4.4-31,1.2-40.5-8
		c-2.3-2.3-4.9-4.2-5.8-4.2c-0.9,0-10.2-2.9-20.7-6.4c-22.6-7.6-31.6-9.6-43.1-9.6c-10.2,0-9.8-0.5-8.6,13.9c2,22,4.8,25,14.6,15.4
		c11.3-11.1,21.6-14.8,30.7-10.9c8.3,3.4,15.2,15,14.5,24.1c-0.4,5.3-0.4,5.3,3.1,5.9c8.6,1.4,17,0.7,18.2-1.5
		c2.5-4.8,22.5-9.9,38.9-9.9c2.6,0,6.2-0.5,7.9-1.1c2.4-0.9,3.5-0.9,4.4,0c0.8,0.8,0.5,1.1-1,1.1c-3,0-5.4,1.1-4.7,2.1
		c0.8,1.3,5,1.1,6.1-0.4c1.8-2.2,2.3-5.9,0.8-5.3c-3,1.1,17.2-19.4,22.8-23.1c2-1.4,3.7-3.4,3.7-4.4c0-2.4,7.7-7.3,11.1-7.1
		c4.3,0.3,9.3-13.2,5.4-14.5c-0.5-0.1-2.5,0.6-4.3,1.7c-3.3,2-3.3,2.2-1.8,4.5c1.8,2.8,2,3.5,0.7,3.5c-0.5,0-1.4-1.4-2.2-3.1
		c-1.2-3-1.1-3.3,1.7-5.5c1.6-1.3,3.3-2.4,3.7-2.4c0.5,0,0.6-3.3,0.2-7.3c-0.6-6-0.3-8.2,1.5-13.2c1.2-3.3,2.7-7.5,3.3-9.3
		c0.7-1.7,1.8-3.2,2.6-3.2c1.8,0,0.9-9.6-1.7-19.2c-2.3-8.1-11.7-22.5-18.2-27.7c-10.2-8.3-12-10.5-12-15.2
		c0.1-11,9.7-21.1,15.3-16.1c2,1.7,2,1.6,1.4-2.3c-0.4-2.2-0.7-6.6-0.7-9.8c0-5.8,0-5.8-2.2-4.3c-10.2,7.2-27.2-8.3-22.3-20.1
		c3.6-8.6,11.8-13.9,20.1-13c5.1,0.5,5.1,0.5,5.8-4.6c1-8.9,0.7-51.2-0.4-52.3c-0.6-0.6-1.4-4.3-1.7-8.2c-0.5-6.6-0.8-7.2-3.4-8.2
		c-4-1.7-7.9-5.8-10.1-10.8c-2.4-5.4-1.6-8.4,4.7-16.7c7.4-9.9,7.9-17.4,2.2-32.5c-5.6-14.9-7-27.8-4-36.5
		c1.6-4.8,9.6-14.1,15.1-17.6c2.5-1.6,2.6-2.5,3.7-40.1c0.5-17.8,0.5-17.8-2.7-15.8c-8.7,5.3-19.9-2-18.5-12.1
		c0.9-7.2,7.3-12.7,24.7-21.4c10.5-5.2,10.5-5.2,15.4-20.4c6.5-19.9,9.1-34.9,5.9-33.6c-6.7,2.8-7.1,2.8-10.3,1.5
		c-8.2-3.4-9.4-19.9-2.1-29.1c1-1.4,2.4-4.3,3-6.6c0.6-2.3,1.7-4.3,2.3-4.5c1.6-0.6-6-14.6-12.1-22.2
		C868.86,303.5,855.96,292.7,844.56,287z"/>
	<path class="st6" d="M891.36,349.8c2.6,1.4,0.5,1.2-3.2-0.3c-3.4-1.4-8.1,15-5.9,20.7c3.7,9.7,17.1,8.9,17.1-0.9
		c0-6.6-2.3-4.9-4.4,3.2c-0.3,1.1-0.3-0.2-0.1-2.9c0.3-2.9,1.2-5.4,2.1-6.1c2.6-1.9-0.1-17.7-3.9-22.9c-1.4-1.9-1.5-1.9-2.5,0
		C888.36,344.7,888.66,348.3,891.36,349.8z"/>
	<path class="st6" d="M105.46,366.2c4.3-3.8,4.9-14.3,1.3-22.2c-2.1-4.5-2.1-4.5-3.3-0.1c-0.7,2.3-1,4.6-0.7,4.9
		c0.3,0.3,0.1,1-0.4,1.7c-1.4,1.7-2.4,14.9-1.3,17C101.96,369.1,102.36,369,105.46,366.2z"/>
	<path class="st6" d="M120.26,371c-0.4,0-1.3,2.5-1.9,5.6c-1.2,5.5-1.1,5.8,2.1,11.8c2.9,5.4,3.3,7.1,3.6,15.6
		c0.4,10.8,2,14.2,9.2,19.9c3.8,3,4.1,3.1,3.2,0.9c-7-18.2-9.4-25.6-12.2-38.6C122.46,377.9,120.66,371,120.26,371z"/>
	<path class="st6" d="M855.96,429.4c6.7-6.5,8.4-10.8,8.4-20.6c0-4.3,0.7-6.4,3.6-11.3c3.8-6.2,4.6-11.2,2.7-16.3
		c-0.7-1.9-1.1-1.3-2.2,4c-1.2,6.1-8.4,24.6-15.5,40.2C848.16,435.8,848.76,436.5,855.96,429.4z"/>
	<path class="st6" d="M125.56,452c7.7-3.5,7.5-13.3-0.4-20.6c-6.7-6.3-10.5-8-9.4-4.2c0.4,1.3,2,7.4,3.7,13.7
		C122.86,454.2,122.46,453.4,125.56,452z"/>
	<path class="st6" d="M873.86,433.3c-13.8,7.2-20.5,13.7-20.5,19.8c0.1,13.1,16.3,15.3,21.7,2.9c2.6-5.9,10.3-26.4,10.3-27.2
		C885.36,427.4,884.16,427.9,873.86,433.3z"/>
	<path class="st6" d="M137.36,475.6c-5.5-2.2-7.3-2-10.9,1c-6.7,5.6-2.9,20.4,5.1,20.4s9.8-2.1,9.8-11.3
		C141.36,477.2,141.36,477.2,137.36,475.6z"/>
	<path class="st6" d="M843.16,507.8c6,2.3,8.4,2.3,12.8,0.1c10-4.8,9.9-17.3-0.2-21.5c-3.4-1.4-4.3-1.5-7.9-0.7
		c-7,1.5-7.3,1.9-7.7,10.6C839.66,506.1,839.76,506.5,843.16,507.8z"/>
	<path class="st6" d="M260.96,873.6c0.7-3.9,0.7-3.9-10.7-3.3c-13.5,0.7-24.3,3.4-45.6,11.1c-8.4,3.1-15.8,5.6-16.4,5.6
		c-0.7,0-3.3,2-5.8,4.4c-9.4,8.7-23.5,10.9-37.3,5.7c-10.5-4-14.5-9.7-17.7-25.1c-1.9-9.2-5.7-14.9-12.6-19.1
		c-10.2-6.1-13-13.8-8.9-25c2.2-6.2,2.1-12.3-0.5-20.4c-3.8-12.1,0.3-24.4,9.8-29.2c4.2-2.1,4.7-2.9,8.8-12.3
		c9.1-21.5,10.8-30.1,12.3-62c2.1-46,2.1-45-2.8-45c-5.4,0-7.7-1.2-9.7-5c-4.6-8.9,2.5-23,11.7-23c3.5,0,3.5,0.2,4.8-61.5
		c1.6-76.1,1.7-74.7-2.2-72.7c-4.7,2.3-9.3,2-12.1-0.7c-2.2-1.9-2.5-2-3.1-0.6c-1.4,3.8-0.6,15.4,1.3,18.7
		c6.2,10.7,6.4,22.5,0.5,40.8c-5.2,16.3-5.3,25.4-0.5,36c4.9,10.6,4.4,16.1-2.2,23.2c-2.4,2.6-2.4,2.6-2.9,37
		c-0.5,34.3-0.5,34.3,4,38.3c8,7,10.3,16.5,5.9,23.7c-2.5,4.1-6.3,7.4-9.2,7.9c-3.3,0.7-3.4,12.2,0,18.4c4.5,8.6,2.8,16.1-5.1,22.1
		c-2.4,1.9-4.7,5-6.4,8.9c-16.9,37.5-14.9,80.1,5.1,109.1c6.9,10.1,23.5,24.4,28.2,24.4c1,0,5.3,0.9,9.5,1.9
		c4.3,1,10.5,2.2,13.9,2.5c5.7,0.6,11,2.4,22.6,7.5c3.3,1.4,6.9,2.1,11.2,2.1c6.4,0,6.4,0,4.9-3.5c-5.6-13.4,4.3-28.4,18-27.3
		c7.8,0.6,15.2,4.7,24.7,13.6c8.4,7.9,8.4,7.9,11.9,6.4c1.9-0.7,3.6-1.5,3.8-1.6c0.1-0.2-0.5-3.4-1.4-7.2
		C259.16,891.6,259.26,883.3,260.96,873.6z"/>
	<path class="st6" d="M124.66,550.6c3.6-12,3.8-22.7,0.7-30.7c-2.7-6.8-2.8-6.8-3.4-2.8c-0.7,4.4-1.3,42.9-0.6,42.9
		C121.66,560,123.16,555.8,124.66,550.6z"/>
	<path class="st6" d="M870.56,521c-0.6,0-3.5,2.2-6.5,5c-11.4,10.4-12.7,23.4-4.8,46.5c6.1,17.6,5.5,25.3-2.3,34.9
		c-6,7.4-6.9,11.1-4.2,16.5c1.7,3.3,7.6,8.6,10.4,9.5c2.1,0.7,3.2,4.3,3.2,10.7c0,2.1,0.4,4,0.8,4.3c0.5,0.3,1.4-15.1,2-34.2
		c1.5-43.3,1.5-50.2,0.1-50.2c-0.8,0-0.7-0.5,0.2-1.6C871.16,560.4,872.16,521,870.56,521z"/>
	<path class="st6" d="M122.76,610.7c4.2-5.5,4.4-10.7,0.8-18.2c-2.9-6-2.9-6-3.7,4.5c-0.4,5.8-0.5,12.1-0.3,14
		C119.86,614.5,119.86,614.5,122.76,610.7z"/>
	<path class="st6" d="M133.86,632.7c-10.8,2.8-14.2,20.3-4.6,24.2c7.3,3.1,9.1,0.4,9.1-13.7C138.36,631.5,138.36,631.6,133.86,632.7
		z"/>
	<path class="st6" d="M841.66,676c14.1,0,16.1-18.2,2.7-25c-7.5-3.8-7.6-3.6-8.3,10.7C835.36,675.8,835.46,676,841.66,676z"/>
	<path class="st6" d="M125.16,715.7c6.3-6.5,6.1-15-0.5-22.6c-5.7-6.7-6.3-6-6.3,8.6c0,7.1-0.3,13.8-0.6,15
		C116.76,720.3,121.26,719.7,125.16,715.7z"/>
	<path class="st6" d="M863.26,709.1c-4.4-1.5-5.8-1.4-10.7,1c-11.3,5.6-14.3,17.6-6.4,25.2c5.7,5.5,12.3,6.6,18,3.1
		c2.1-1.4,2.2-2,2.2-14.8C866.36,710.2,866.36,710.2,863.26,709.1z"/>
	<path class="st6" d="M115.36,759.5c6-5.7,7.1-11.5,3.5-18.5c-1.3-2.5-1.3-2.5-2,1.5c-0.4,2.2-1.5,7.3-2.6,11.3
		C111.86,763,111.86,762.9,115.36,759.5z"/>
	<path class="st6" d="M858.06,758c-9.9,7.8-9.4,17.8,1.3,26.3c3.5,2.9,7.8,7.1,9.5,9.3c1.6,2.2,4,5.4,5.2,7c2,2.7,1.9,2.2-0.8-6.6
		c-1.6-5.2-4.1-15.1-5.5-21.9C864.66,756.6,863.06,754.1,858.06,758z"/>
	<path class="st6" d="M115.96,789.2c3.4-12.4,2.5-13.5-4.5-5.6c-6.5,7.4-7.5,13.7-4,24.9c2.3,7.6,2.2,11.7-0.6,23.6
		c-1.7,7.2-1.7,7.7,0,11.3c1.5,3.2,10.1,10.4,11.1,9.3c0.1-0.1-0.8-3.8-2.1-8.2C110.46,825.7,110.46,809,115.96,789.2z"/>
	<path class="st6" d="M862.06,810c-2-3-8.7-8.1-8.7-6.6c0,0.3,1,4.1,2.3,8.3c5.1,17.7,2.3,44.7-6.2,60.8c-1.4,2.7-2.8,5.4-3,5.8
		c-0.9,2.1,9.9-4.6,12.7-7.8c3.6-4,3.8-6.2,1.7-15c-2.1-8.8-1.8-12.4,1.5-20.4C867.26,823.1,867.26,817.6,862.06,810z"/>
	<path class="st6" d="M878.56,842.7c-3.7,8.7-4.2,14.7-2.1,22.5c2.2,8.3,4.7,0.9,5.6-16.5C882.66,836.8,881.76,835.2,878.56,842.7z"
		/>
	<path class="st6" d="M696.16,899.3c-1.3-12.8,4.1-11.4-50.8-13.3c-16.2-0.6-51.8-1.9-79-3c-27.2-1.1-62.5-2.4-78.5-3
		c-15.9-0.6-46.8-1.7-68.5-2.5c-21.7-0.8-59.7-2.1-84.5-3c-24.7-0.8-50.5-1.7-57.2-1.9c-6.7-0.3-12.4-0.2-12.7,0.2
		c-2.6,4.3-2.9,20.1-0.5,27.1c1.4,4-0.9,3.7,52.4,5.6c53.2,1.9,171.3,6.1,211,7.5c15.4,0.5,33.2,1.2,39.5,1.5
		c11.2,0.6,73.5,2.8,113.3,4.2c19.7,0.6,19.7,0.6,18.2-3.8C697.96,912.5,696.76,905.5,696.16,899.3z"/>
	<path class="st6" d="M134.56,876.8c-5.3-4-5.3-4-4.6-0.1c2.4,13.8,13.2,21.3,30.8,21.3c7.6,0,17-3.5,20.9-7.8
		c1.5-1.6,0.9-1.7-10.6-1.7C155.06,888.4,146.46,885.7,134.56,876.8z"/>
	<path class="st6" d="M865.76,887c-5.1,2.2-5.7,3.2-4.3,6.4c1,2.1,3.8,4.3,4.4,3.4c1.6-2.5,6.5-11,6.5-11.3
		C872.36,884.6,869.86,885.1,865.76,887z"/>
	<path class="st6" d="M245.26,901.6c-10.8-10-22.1-14.8-29.6-12.5c-10,3-14.9,16.7-9.4,26.2c1.5,2.7,1.8,2.8,7.1,2.2
		c13.7-1.6,39-7.1,39-8.6C252.36,908.5,249.16,905.2,245.26,901.6z"/>
	<path class="st6" d="M828.66,894.5c-10,6.2-17.8,8-35,8c-16.3,0-16.5,0-13,3.3c8.9,8.4,28.5,10.5,41,4.4c7.5-3.7,11-7.8,12.5-15
		C835.36,890.3,835.36,890.3,828.66,894.5z"/>
	<path class="st6" d="M849.96,901.9c-11,9.6-11.5,10.5-8.5,13.7c2.9,3.1,2.4,3.2,9.7-2.6c5.7-4.7,6.2-5.4,6.3-9.3
		c0.2-4.2,0.2-4.2,0.8-0.8c0.6,3.5,0.6,3.5,3.4-0.2c2.7-3.6,2.7-3.6,0.2-6.1C858.76,893.5,860.46,892.7,849.96,901.9z"/>
	<path class="st6" d="M741.36,904c-4.5-1.3-6.7-1.2-11.2,0.4c-8.2,2.9-21.8,15.9-18.6,17.7c4.5,2.5,27.8,8.6,39.5,10.3
		C764.56,934.4,755.46,907.9,741.36,904z"/>
	<path class="st6" d="M163.76,909.9c-4.3-0.4-10.4-1.5-13.4-2.4c-6.2-1.7-6-1.6-6-1.2c0,1.4,28,10.2,30,9.5c0.5-0.2,0.1-1.4-0.9-2.7
		C171.96,911.2,170.36,910.6,163.76,909.9z"/>
	<path class="st6" d="M179.06,913.5c-3.7-1.5-3.8-1.5-2.7,0.5c0.6,1.1,2.3,2.2,3.8,2.6c1.5,0.3,3.4,0.8,4.2,1
		C187.46,918.6,182.96,915.1,179.06,913.5z"/>
	<path class="st6" d="M836.26,916c-1,0.6-1.4,1.9-1.1,3.9c0.4,2.9,0.4,2.9,3.3,1.2c3.1-1.7,3.6-3,1.7-4.9
		C838.76,914.8,838.36,914.8,836.26,916z"/>
	<path class="st6" d="M798.96,925.6c-8.7,1.3-16.6,4.9-16.6,7.4c0,1.5,9.6,1.2,19.4-0.7c8.8-1.7,8.8-1.7,6.6-3.5
		c-1.3-1-2.1-2.1-1.8-2.4c0.7-0.6,5.4,1.2,6.2,2.4c0.3,0.6,2.4,0.6,5.1,0.1C837.16,925.3,820.06,922.3,798.96,925.6z"/>
</g>
<g id="VERDE_CLARO">
	<g>
		<path class="st7" d="M295.26,300c43.3-20.8,65.8-68.1,55.5-117c-0.9-4.1-1.9-9.2-2.4-11.2c-1-5.2-8.4-19.2-13.5-25.8
			c-20.8-26.9-57.8-42.4-88.4-36.9c-31.8,5.7-56.1,25.6-72.1,59.1c-12.2,25.7-13.3,51.2-3.3,79.2
			C189.06,297.9,247.66,322.7,295.26,300z M170.96,192.9c9.2-48.7,57.1-85.2,101.5-77.4c46.2,8,76.2,44,76.3,91.5
			c0.1,55-39,96.9-90.9,97.4C201.56,304.9,159.86,251.4,170.96,192.9z"/>
		<path class="st7" d="M184.56,206.6c18.7-1.4,68.5-2.5,113.2-2.6c45.9,0,45.9,0,45.3-6.8c-2.9-32.7-24.6-60.7-55.4-71.5
			c-11.6-4-33.3-4.9-44.8-1.8c-32.3,8.7-56.5,33.8-65,67.5C173.76,207.6,173.66,207.4,184.56,206.6z"/>
		<path class="st7" d="M758.66,308.1c34.9-11.8,60.3-38.9,69.9-74.4c3.3-12.1,3.3-38.6,0-50.4c-13.6-50.1-60.1-82.3-107.3-74.3
			c-75.8,12.8-114.8,101.7-71.4,162.5C674.56,306.1,719.66,321.3,758.66,308.1z M716.36,116.9c11.2-2.5,31.3-2,41,0.9
			c45.8,13.8,73.6,56,68.2,103.6c-8.2,73.5-91.7,112.4-149.4,69.5C609.66,241.4,634.16,135.1,716.36,116.9z"/>
		<path class="st7" d="M679.46,205c44,0,123.6,3.2,137.8,5.6c3.4,0.5,3.4,0.5,2.8-7.8c-2.8-36.5-28.2-68-62.7-77.8
			c-9.6-2.8-29.5-3.6-39-1.6c-33,7-58.8,29.7-69.6,61.3C641.46,206.4,639.36,205,679.46,205z"/>
		<path class="st7" d="M156.76,335c7.7,0,14.3,1.6,28.1,6.8c15.4,5.8,21.9,6.2,28.6,1.8c9.5-6.3,19.4-4.1,23.9,5.3
			c1.5,3.1,3.3,5.3,4.5,5.6c1.1,0.2,47.9,0.9,104,1.5c97,1,158.9,1.8,295.5,4c97.1,1.6,96.6,1.6,97.3-1.9c1.2-6,10.1-13,16.6-13.1
			c1.3,0,5.8,1.6,10.1,3.5c10.3,4.6,14.4,4.6,29.3-0.4c17.5-5.9,25.6-7.5,34.8-6.8c7.7,0.6,7.7,0.6,9.5-3.1
			c6.4-13.1-0.3-27.2-21.2-45.3c-14.8-12.7-12.8-11.9-17.7-7.2c-34.1,33.1-85.5,38.5-124.2,13.2c-22.6-14.7-39.9-39.8-44.4-64.4
			c-1.3-7.2-0.9-6.9-6.2-4.5c-7.5,3.4-10.1,2.8-23.5-5.3c-17.5-10.6-39.9-20-56.8-23.8c-5.8-1.3-5.8-1.3-12.2,5.8
			c-9.7,10.7-9.9,10.8-43.9,10.8c-35.3,0-38-0.8-44.1-12.8c-3-5.8-3.8-5.9-19.3-1.1c-15,4.6-30.5,11.6-45.2,20.4
			c-14,8.3-16.1,8.9-22.3,6.2c-4.6-2.1-4.6-2.1-5.2,0.6c-3.6,17-13.4,34.8-27.4,49.5c-37.3,39.4-93.1,40.7-133,3
			c-4.6-4.3-7.4-6.2-8.2-5.7c-2.8,1.7-21.6,18.4-26,23.1c-7.3,7.9-9.3,12.4-9.2,21.3C149.06,333.4,150.06,335,156.76,335z
			 M824.36,317c0.4,0,1.3,0.7,2,1.6c2.2,2.5-1.3,5.5-3.7,3.2C821.06,320.1,822.16,317,824.36,317z M815.06,306.3
			c0.8-2.1,3.8-1.1,4.1,1.5c0.2,1.3-0.2,2.2-1,2.2C816.16,310,814.46,308,815.06,306.3z M814.06,330.7c1.2-1.2,4.1-0.7,4.6,0.7
			c0.8,1.9-1.6,3.8-3.7,3C813.36,333.8,812.86,331.9,814.06,330.7z M809.76,317.3c0.6,0.2,1.2,1.1,1.4,2c0.4,2.2-2.7,3.5-3.8,1.6
			C806.36,319.4,808.06,316.7,809.76,317.3z M801.26,304.1c2.1-1.4,4.2-0.1,3.9,2.3c-0.4,2.6-2.7,2.8-4.2,0.3
			C800.16,305.4,800.16,304.7,801.26,304.1z M801.06,330.2c1,0.2,1.8,1.2,1.8,2.2c0,2.2-1.4,2.9-3.4,1.7
			C797.56,332.9,798.86,329.8,801.06,330.2z M795.66,317.2c1.2,0.2,2.2,1,2.2,1.8c0,0.8-1,1.6-2.2,1.8c-1.8,0.3-2.3-0.2-2.3-1.8
			C793.36,317.4,793.86,316.9,795.66,317.2z M427.06,252.4c0.7-1.8-0.5-2,13.1,2.5c31.6,10.6,61.5,14.2,82.2,10.2
			c5.2-1,9.8-1.7,10.3-1.4c5,3-12.1,19.2-28.5,26.7c-23.2,10.8-46.3,7.5-62.3-8.8C433.66,273.2,425.36,256.9,427.06,252.4z
			 M188.96,312.3c2.1-1.5,3.7-0.3,3.2,2.3c-0.4,2.5-3.4,3-4.2,0.7C187.46,314.2,187.86,313.1,188.96,312.3z M182.46,299.9
			c1.8-1.1,3.4,0.5,2.6,2.5c-0.4,0.9-1.1,1.6-1.7,1.6C181.66,304,180.96,300.9,182.46,299.9z M184.06,324.2c1,0.2,1.9,1.1,2.1,2.1
			c0.4,2-2.5,3.4-4,1.9S182.06,323.8,184.06,324.2z M177.06,312.2c1,0.2,1.9,1.1,2.1,2.1c0.4,2-2.5,3.4-4,1.9
			S175.06,311.8,177.06,312.2z M168.86,302c0.6-1,4.5-1.5,4.5-0.6c0,1.6-1.4,3.6-2.5,3.6C169.16,305,168.06,303.3,168.86,302z
			 M168.36,325.5c1.6-1.9,3.4-1.5,3.8,0.8c0.4,2.1-2.5,3.4-4,1.9C167.36,327.4,167.36,326.6,168.36,325.5z M162.06,314.4
			c0.7-1.8,4.3-1.9,4.3-0.1c0,0.7-0.5,1.8-1.2,2.5C163.66,318.3,161.26,316.5,162.06,314.4z"/>
	</g>
</g>
<path id="VERDE_CLARITO" class="st8" d="M125.66,386.1c2,8,5.4,19.5,7.7,25.5c10.8,28.1,11.3,37.8,8.6,162.4
	c-3.7,166.6-3.3,161.5-16.6,193.5c-15.7,37.7-15.6,63.2,0.2,93.5c6.4,12.1,9.4,15.3,19.3,20c18.2,8.7,34.9,8.3,60-1.5
	c36.1-14,28.1-13.9,265-4.5c95.5,3.8,176.7,6.7,222.5,8c34,0.9,35.4,1.1,63,11c34.8,12.5,63.7,9.2,82.2-9.4
	c19.2-19.4,23.7-56.4,10.4-86.4c-16.1-36.3-16-36.1-16.1-65.7c0-41.4,3.2-193.7,5-239c1.6-37.8,2.2-42.1,7.8-55
	c1.9-4.4,6.7-15.4,10.6-24.5c8.8-20.2,10.8-26,12.6-37.5c4.8-29.4-2.4-52-24-75c-12.9-13.9-13.3-16.4-6.6-44
	c9.2-37.6,9.4-55.9,0.7-81.4c-21.8-64.4-90.1-94-148.9-64.5c-31.2,15.6-51.5,40.7-66.6,82.2c-7.5,20.7-5.6,19.9-25.1,10.4
	c-58.2-28.5-109.9-32.2-171.3-12.5c-14.9,4.7-19.2,6.4-37.3,14.4c-16.2,7.1-15.3,7.5-19-7.9c-11.1-46.1-36.3-77.5-73-91.3
	c-17.3-6.5-36.9-8.5-52.4-5.4c-50.1,10.1-89,58.9-89,111.4c0,12,0.8,17.3,6,42.1c4.7,22.7,4.9,22-10.6,39.5
	C121.66,327.3,116.36,346.8,125.66,386.1z M506.56,197.6c2.9-2,5.2-2,7.2,0c5,4.9-2.4,12.4-7.6,7.7
	C503.66,203.1,503.86,199.4,506.56,197.6z M477.36,201.6c0,0.9-0.9,1.8-2,2.1c-1.1,0.3-2,1.1-2,1.8c0,1.9-2.7,2.6-4,1
	c-1.3-1.6-0.5-3.5,1.5-3.5c0.7,0,1.5-0.7,1.9-1.5C473.46,199.5,477.36,199.6,477.36,201.6z M476.26,196.9c0.8,1.4,0.7,1.9-0.2,1.8
	c-5-0.1-6.6,0.4-6.9,2.5c-0.4,2.8-2.1,3-2.6,0.5C465.66,197,474.16,192.9,476.26,196.9z M168.16,289c6.4-5.7,12.6-11.1,13.6-12.1
	c1.9-1.7,1.8-1.9-2.2-8.1c-18.8-28.9-22.4-66.8-9.1-97c21.3-48.6,66.3-74.1,110.5-62.8c32.6,8.4,59.4,32.3,70,62.4
	c2.5,7.1,4.7,30.9,4,43.7c-0.6,11.6-0.6,11.6,2.6,13c6.3,2.6,9.6,1.8,21.3-5.3c18.6-11.1,37.9-19.4,54.6-23.3
	c9.2-2.2,10-1.9,12.8,3.8c5.6,11.7,7.6,12.2,43.6,12.2c34.8,0,35.5-0.2,44.4-13.2c3.1-4.5,5.1-4.8,16.6-1.8
	c17.4,4.5,38.4,13.8,55,24.4c9,5.8,12,6.2,19.6,3c4.9-2.1,4.9-2.1,4.9-14.1c0-73,72.8-125.9,138.9-101.1
	c62.7,23.5,84.5,105.2,42.6,160c-3,4-5.5,7.4-5.5,7.7c0,0.2,3.5,3.4,7.8,7.1c27.1,23.4,33.5,35.5,27.3,51.2
	c-1.9,4.9-1.9,4.9,1.5,7.1c11.2,7.4,10.8,21.3-1.3,45.2c-12.3,24.2-13.8,29.8-10.7,40.9c2.2,7.6,1.3,12.1-3.3,17.2
	c-3.6,3.9-3.6,3.9-4.4,44.7c-0.4,22.4-1.3,57.6-1.9,78.2c-0.5,20.6-1.4,60.9-2,89.5c-0.5,28.6-1.3,63.8-1.6,78.3
	c-0.7,25.5-0.6,26.3,1.3,28.5c5.6,6,6.6,12.4,3.3,20.7c-3.2,8-2.6,10.6,8.1,34.5c10.3,23.5,11.9,33.7,6.4,43.1
	c-7.4,12.6-22.2,14.7-43,6.1c-21-8.6-29.8-9.8-39.7-5.2c-8.7,4.1-15,3.3-21.3-2.5c-3-2.8-3.2-2.8-20.5-3.4c-9.6-0.4-27.6-1.1-40-1.6
	c-12.4-0.5-36.4-1.4-53.5-2c-17-0.6-66.5-2.4-110-4c-107.1-4-156.1-5.6-259.5-8.6c-22.5-0.6-22.5-0.6-27,3.9
	c-7.5,7.4-12.9,7.4-26-0.3c-4.7-2.8-9.8-2.1-27,3.7c-26.5,9-40.6,6.6-45.4-7.4c-3.7-10.9-1.7-19.8,10.2-46.3
	c9.7-21.5,9.8-21.8,6.5-31c-3.5-10-2.9-13.6,3.7-20c6-5.9,5.8-4.3,6.5-42c0.6-33,0.8-41.9,3-109c0.8-24.5,1.9-61.6,2.5-82.5
	c0.5-20.9,1.2-45.3,1.6-54.2c0.6-16.2,0.6-16.2-2-16.9c-7.7-1.9-11.3-12.3-7.7-22.8c3.6-10.6,2.3-17.7-6.7-38.2
	c-7.6-17.3-9.2-27.6-5.2-35.3c1.7-3.5,7.1-9.1,8.8-9.1c3-0.2,4.1-2.7,2.7-6.6C142.86,317.4,147.96,306.7,168.16,289z"/>
<path id="ROSITA" class="st9" d="M465.86,288.5c16.6,4.9,34.1-2,22.6-8.8c-3.3-2-8.9-2.2-12.5-0.6c-2,0.9-3.2,0.8-6.8-1
	c-4.3-2-8.6-2.5-11.8-1.4C448.66,279.9,451.96,284.5,465.86,288.5z"/>
</svg>
