<svg version="1.0" xmlns="http://www.w3.org/2000/svg"
 width="1234.000000pt" height="786.000000pt" viewBox="0 0 1234.000000 786.000000"
 preserveAspectRatio="xMidYMid meet" style="background:transparent;">
<metadata>
Created by potrace 1.16, written by Peter Selinger 2001-2019
</metadata>
<g transform="translate(0.000000,786.000000) scale(0.100000,-0.100000)"
fill="#000000" stroke="none">
<path d="M0 3930 l0 -3930 6170 0 6170 0 0 3930 0 3930 -6170 0 -6170 0 0
-3930z m4309 3451 c104 -35 199 -87 281 -155 54 -45 54 -45 67 7 30 119 201
183 270 102 65 -75 -38 -184 -184 -193 -62 -4 -62 -4 -51 32 13 43 32 49 23 7
-6 -29 -6 -29 47 -17 79 20 102 31 131 66 50 59 23 110 -57 110 -126 0 -198
-118 -145 -239 22 -53 22 -53 35 -22 17 40 59 43 75 7 11 -24 11 -24 63 -1 98
44 256 41 256 -5 0 -24 -36 -50 -70 -50 -66 0 -73 -12 -19 -30 140 -48 84
-179 -76 -180 -111 0 -161 86 -66 115 15 5 21 4 17 -3 -9 -15 30 -25 70 -17
39 7 45 22 11 30 -38 10 -121 10 -141 1 -15 -8 -17 -6 -12 12 4 11 3 23 -2 26
-5 3 -12 -28 -14 -70 -5 -81 -13 -94 -59 -94 -30 0 -34 7 -44 74 -7 46 -7 46
-35 3 -56 -88 -151 -130 -295 -131 -72 -1 -94 -5 -107 -18 -34 -34 -88 -12
-88 37 0 17 -12 30 -47 50 -167 96 -175 196 -19 244 61 18 61 18 72 72 16 73
22 87 46 95 27 8 31 2 43 -73 11 -67 11 -67 81 -79 123 -20 178 -71 140 -129
-35 -54 -103 -57 -92 -5 6 33 -11 42 -83 44 -36 1 -36 1 -36 -74 0 -75 0 -75
40 -78 118 -10 237 40 263 111 57 147 -260 370 -528 371 -67 1 -92 -3 -114
-17 -48 -32 -88 20 -46 58 60 54 246 57 399 6z m578 -98 c10 -26 -61 -83 -104
-83 -18 0 -33 5 -33 11 0 5 -5 7 -11 3 -23 -14 11 34 42 60 36 31 96 36 106 9z
m1636 -37 c126 -53 83 -222 -63 -246 -34 -5 -35 -7 -38 -55 -3 -48 -2 -51 28
-62 25 -9 31 -17 28 -35 -3 -22 -7 -23 -112 -26 -60 -1 -113 1 -119 7 -13 13
1 49 24 56 30 10 30 315 -1 315 -23 0 -35 22 -26 45 7 20 231 22 279 1z m332
-21 c0 -23 -5 -30 -25 -35 -39 -9 -40 -291 -1 -300 34 -8 49 -34 31 -54 -11
-14 -31 -16 -119 -14 -106 3 -106 3 -106 28 0 16 8 28 23 35 32 14 35 305 2
305 -23 0 -39 26 -32 52 4 17 14 18 116 16 111 -3 111 -3 111 -33z m260 -12
c0 -52 18 -74 41 -52 15 16 18 35 12 74 -3 18 3 20 75 23 107 4 109 -9 21 -99
-38 -38 -71 -74 -72 -79 -2 -6 28 -54 68 -106 100 -133 108 -130 194 76 56
135 56 135 29 157 -47 39 -19 53 103 53 57 0 104 -2 104 -4 0 -2 3 -11 6 -19
3 -8 -4 -24 -17 -36 -22 -20 -22 -20 32 -161 57 -148 60 -152 126 -152 48 0
48 -2 51 157 4 142 4 142 -23 149 -21 5 -26 12 -23 34 3 27 3 27 133 27 146 0
187 -11 210 -56 20 -37 19 -103 -1 -119 -45 -38 -33 -83 46 -172 52 -60 50
-82 -7 -86 -59 -4 -75 7 -139 99 -61 87 -74 89 -74 13 0 -27 7 -51 21 -69 33
-41 17 -44 -212 -45 -187 0 -208 2 -214 18 -4 11 1 23 16 35 21 17 21 18 4 62
-17 45 -17 45 -64 45 -47 0 -48 0 -60 -41 -11 -38 -11 -43 8 -60 50 -47 28
-57 -129 -61 -134 -3 -143 2 -220 102 -54 71 -53 71 -87 19 -26 -39 -26 -41
-10 -69 25 -41 6 -52 -90 -48 -94 4 -113 28 -50 65 36 22 127 132 127 155 0
18 -113 153 -134 161 -9 4 -16 18 -16 32 0 26 0 26 108 23 107 -3 107 -3 107
-45z m-1813 -65 c47 -39 102 -169 93 -219 -8 -44 24 -99 58 -99 34 0 147 40
147 52 0 7 -27 8 -80 4 -80 -7 -80 -7 -69 21 13 34 25 43 64 43 54 1 63 17 17
30 -69 18 -50 52 37 66 74 12 47 44 -37 44 -89 0 -150 -28 -84 -38 12 -2 22
-5 22 -7 0 -17 -17 -38 -41 -51 -27 -14 -29 -13 -29 5 0 11 5 23 11 27 8 5 6
10 -5 16 -57 32 7 68 120 68 143 0 178 -63 47 -85 -42 -7 -60 -25 -25 -25 31
0 45 -16 38 -44 -5 -22 -12 -26 -44 -26 -20 0 -44 -5 -52 -10 -11 -7 3 -10 47
-10 34 0 68 -3 77 -6 13 -5 16 2 16 35 0 45 46 157 73 180 25 20 47 6 47 -29
0 -30 0 -30 37 -10 79 42 123 15 123 -75 0 -88 -41 -144 -133 -185 -54 -24
-57 -30 -90 -159 -25 -94 -44 -116 -76 -87 -32 29 -36 92 -12 185 12 44 21 85
21 90 0 5 -26 -2 -57 -15 -96 -39 -173 -26 -173 29 0 18 -2 18 -25 -7 -33 -36
-61 -33 -106 13 -42 41 -49 42 -49 1 0 -47 -37 -65 -72 -33 -33 30 -16 198 25
251 15 19 46 14 73 -13 24 -24 24 -24 18 15 -9 56 15 84 48 58z m802 -114 c24
-23 19 -53 -10 -66 -31 -14 -57 -1 -62 31 -7 45 40 67 72 35z m583 -509 c120
-13 326 -36 458 -50 132 -14 248 -28 257 -31 19 -6 15 6 99 -289 34 -121 65
-223 68 -227 4 -4 62 99 131 229 130 246 158 288 188 279 9 -3 231 -28 492
-57 261 -29 481 -57 488 -63 8 -5 12 -19 10 -31 -6 -31 -853 -1289 -910 -1352
-17 -18 -25 -60 -48 -256 -16 -129 -31 -254 -35 -279 -7 -45 -7 -45 127 -57
73 -7 141 -14 150 -17 27 -8 49 -94 158 -599 33 -154 81 -374 107 -490 63
-285 63 -284 19 -322 -44 -39 -86 -48 -336 -68 -107 -9 -314 -27 -460 -41
-146 -14 -343 -31 -438 -38 -116 -8 -176 -17 -182 -25 -4 -7 -10 -52 -14 -99
-34 -439 -33 -438 -106 -428 -45 6 -714 66 -737 66 -7 0 -13 -6 -13 -14 0 -15
9 -17 116 -36 459 -79 798 -446 798 -865 -1 -456 -319 -830 -794 -932 -132
-28 -420 -26 -558 5 -198 44 -476 159 -563 232 -32 26 -32 26 -15 176 9 82 27
257 41 389 30 294 35 302 154 231 355 -214 781 -262 781 -88 0 113 -297 172
-709 142 -130 -9 -146 -7 -155 16 -3 8 5 118 19 243 14 126 36 354 50 507 14
154 28 298 31 322 5 32 3 42 -7 42 -8 0 -122 -9 -254 -20 -132 -11 -334 -26
-450 -35 -115 -8 -326 -24 -468 -35 -395 -31 -421 -31 -487 7 -55 31 -55 31
-53 134 1 57 20 235 42 394 22 160 49 371 61 470 11 99 27 230 35 290 56 427
78 582 86 602 17 45 55 54 201 44 73 -5 136 -6 140 -2 4 4 1 69 -7 146 -19
180 -86 759 -89 762 -1 1 -73 -18 -159 -42 -282 -79 -290 -80 -331 -18 -22 34
-29 69 -61 323 -19 157 -44 352 -56 433 -21 158 -21 162 13 170 28 7 1635 186
1813 202 33 3 76 8 95 11 63 9 66 0 100 -231 43 -297 32 -269 91 -239 254 128
618 138 883 24 45 -19 45 -19 32 18 -16 45 -115 276 -150 352 -28 59 -33 109
-14 128 17 17 82 15 325 -13z"/>
<path d="M3974 7379 c-30 -9 -62 -35 -53 -44 3 -2 23 2 44 10 155 55 457 -48
598 -204 144 -160 49 -311 -195 -311 -98 0 -98 0 -98 101 0 102 0 102 65 97
76 -7 123 -31 104 -54 -15 -19 -3 -31 18 -18 72 45 10 101 -134 120 -52 6 -52
6 -58 63 -12 106 -29 106 -47 0 -10 -65 -10 -65 -75 -84 -93 -26 -121 -51
-100 -91 20 -39 90 -102 133 -120 27 -11 34 -20 34 -42 0 -15 4 -33 9 -41 12
-19 41 -6 41 18 0 18 6 19 103 14 293 -14 423 201 236 388 -151 151 -456 247
-625 198z m230 -427 c-2 -91 -1 -90 -65 -55 -63 34 -99 77 -81 96 20 20 74 36
112 34 35 -2 35 -2 34 -75z"/>
<path d="M4113 6995 c-45 -19 -41 -39 12 -71 54 -31 56 -30 58 33 2 55 -13 64
-70 38z"/>
<path d="M4741 7053 c-22 -77 -9 -205 21 -211 21 -4 28 26 28 126 0 115 -28
163 -49 85z"/>
<path d="M4930 7083 c-54 -8 -100 -35 -100 -58 0 -33 17 -42 92 -49 72 -7 128
-23 128 -37 0 -36 -83 -65 -140 -49 -59 17 -67 13 -37 -17 40 -40 128 -40 181
0 20 16 36 34 36 41 0 44 -97 96 -177 96 -43 0 -58 14 -25 24 9 2 51 8 92 12
91 8 131 21 110 34 -15 10 -111 11 -160 3z"/>
<path d="M4793 7255 c-27 -23 -27 -24 -6 -25 12 0 35 11 50 25 27 23 27 24 6
25 -12 0 -35 -11 -50 -25z"/>
<path d="M6290 7221 c25 -7 25 -7 28 -178 2 -171 2 -171 -25 -181 -22 -8 -8
-10 67 -10 52 0 86 2 75 5 -34 8 -35 15 -41 180 -7 181 -3 190 68 154 60 -30
52 -111 -15 -141 -57 -26 -24 -39 38 -15 54 20 85 57 85 101 0 80 -29 94 -187
93 -65 -1 -107 -4 -93 -8z"/>
<path d="M6420 7125 c0 -59 13 -70 44 -39 30 30 10 94 -30 94 -10 0 -14 -14
-14 -55z"/>
<path d="M6667 7223 c40 -8 44 -23 41 -189 -3 -158 -3 -158 -28 -171 -22 -11
-13 -13 70 -12 74 1 88 3 64 10 -41 12 -44 24 -44 196 0 143 0 143 33 157 30
14 27 14 -63 14 -52 0 -85 -3 -73 -5z"/>
<path d="M6943 7219 c9 -5 46 -46 82 -90 64 -80 64 -80 1 -167 -34 -48 -73
-93 -87 -99 -21 -11 -16 -13 44 -13 43 0 66 4 62 10 -3 6 -13 10 -21 10 -8 0
-14 5 -14 12 0 18 81 138 94 138 6 0 35 -32 65 -70 60 -79 95 -110 123 -110
24 0 19 10 -68 133 -35 50 -64 95 -64 101 0 15 98 129 124 143 18 11 14 12
-34 12 -35 1 -50 -2 -41 -8 10 -7 4 -21 -29 -65 -24 -31 -46 -53 -50 -49 -4 4
-22 28 -39 52 -32 45 -32 45 -9 58 20 11 11 12 -67 12 -66 0 -85 -2 -72 -10z"/>
<path d="M7518 7220 c29 -12 31 -2 -42 -184 -74 -180 -65 -166 -108 -176 -25
-6 -13 -8 50 -9 53 -1 81 3 77 9 -3 6 -15 10 -26 10 -23 0 -23 0 4 75 22 60
22 60 88 63 65 3 65 3 89 -64 22 -65 23 -67 5 -80 -16 -12 -7 -14 68 -14 51 0
87 4 87 10 0 6 -13 10 -29 10 -37 0 -35 -3 -97 165 -29 77 -55 148 -59 158 -5
13 -2 17 13 17 12 0 24 5 27 10 4 6 -26 10 -82 9 -63 0 -82 -3 -65 -9z m72
-116 c18 -59 18 -59 -29 -65 -25 -3 -47 -6 -48 -5 -1 1 8 34 20 73 25 81 31
80 57 -3z"/>
<path d="M7880 7221 c42 -12 44 -333 3 -355 -27 -15 -24 -15 57 -15 69 0 81 2
62 11 -21 11 -23 17 -20 82 3 71 3 71 34 74 28 3 35 -3 79 -68 54 -80 77 -100
117 -100 27 0 27 0 2 28 -15 15 -44 58 -66 96 -40 68 -40 68 -15 90 57 48 59
113 4 147 -27 16 -50 19 -157 18 -69 -1 -114 -4 -100 -8z m201 -37 c51 -46 6
-134 -67 -134 -34 0 -34 0 -34 73 0 41 3 77 8 81 11 12 72 -1 93 -20z"/>
<path d="M8010 7130 c0 -52 14 -63 49 -41 35 22 11 90 -31 91 -15 0 -18 -9
-18 -50z"/>
<path d="M5275 7097 c2 -18 11 -47 20 -63 16 -31 21 -114 7 -114 -5 0 -19 21
-31 48 -28 59 -68 105 -84 99 -31 -12 -53 -196 -26 -213 18 -11 29 17 29 74 0
28 5 52 10 52 6 0 10 -5 10 -10 0 -19 92 -110 110 -110 48 0 52 115 8 201 -38
73 -59 87 -53 36z"/>
<path d="M5689 7053 c-12 -27 -25 -73 -31 -103 -5 -30 -18 -100 -29 -155 -21
-107 -24 -172 -10 -194 11 -17 31 -5 31 19 0 24 49 181 61 196 5 7 24 14 41
18 45 9 124 92 133 139 24 124 -108 131 -152 8 -17 -49 -26 -60 -36 -43 -3 4
4 39 14 77 22 83 22 85 9 85 -6 0 -20 -21 -31 -47z m161 -45 c0 -43 -31 -93
-70 -113 -30 -16 -30 -16 -30 15 0 39 22 82 56 109 36 29 44 26 44 -11z"/>
<path d="M5787 6968 c-29 -45 -28 -61 2 -34 21 19 45 76 33 76 -4 0 -20 -19
-35 -42z"/>
<path d="M6050 7005 c0 -8 9 -15 20 -15 11 0 20 7 20 15 0 8 -9 15 -20 15 -11
0 -20 -7 -20 -15z"/>
<path d="M6390 6500 c0 -22 42 -126 146 -366 66 -151 66 -151 143 -202 42 -29
86 -59 99 -68 20 -15 17 -4 -24 92 -168 393 -172 405 -121 398 17 -2 169 -20
336 -39 168 -19 308 -38 312 -42 5 -7 57 -188 206 -718 31 -110 28 -107 51
-54 11 24 73 141 138 259 64 118 149 275 187 349 69 133 69 133 116 129 25 -3
173 -18 329 -34 205 -21 282 -32 282 -41 0 -12 -227 -355 -530 -798 -312 -459
-273 -362 -315 -760 -21 -192 -39 -352 -42 -355 -4 -5 -626 70 -632 76 -3 3 1
66 7 142 18 202 17 210 -17 131 -15 -36 -45 -91 -65 -122 -34 -50 -38 -66 -46
-149 -15 -149 -24 -134 83 -147 295 -38 679 -81 724 -81 63 0 50 -50 103 400
53 445 49 421 84 465 43 53 281 399 601 875 142 212 267 396 277 409 35 46 83
36 -457 96 -225 25 -429 48 -451 50 -41 6 -41 6 -124 -147 -182 -338 -223
-409 -230 -401 -15 16 -140 432 -156 519 -9 49 -8 48 -349 84 -165 17 -374 39
-465 50 -206 24 -200 24 -200 0z"/>
<path d="M5345 6444 c-11 -1 -423 -47 -915 -100 -492 -54 -899 -101 -903 -105
-5 -4 -2 -62 6 -130 26 -204 88 -673 92 -685 2 -7 92 15 242 57 131 38 243 67
249 65 6 -2 14 -28 18 -58 14 -112 87 -760 102 -898 8 -80 27 -246 42 -370 31
-260 12 -245 282 -215 209 23 644 77 648 80 4 3 -32 316 -48 425 -6 36 -17
148 -25 250 -8 102 -33 311 -55 465 -23 154 -44 315 -47 358 -7 88 -9 87 139
67 90 -12 392 -40 395 -36 3 3 -21 187 -78 599 -36 258 -30 249 -144 231z
m-11 -133 c8 -13 76 -449 76 -489 0 -34 0 -34 -177 -28 -98 4 -220 9 -272 13
-108 7 -102 48 -50 -367 135 -1066 150 -1194 139 -1200 -11 -7 -556 -70 -602
-70 -33 0 -31 -5 -53 190 -14 129 -65 583 -124 1105 -34 295 -25 266 -74 249
-103 -36 -449 -126 -456 -118 -10 11 -74 524 -67 532 7 7 296 43 696 86 179
20 442 49 585 65 143 17 278 32 300 34 22 2 48 4 57 5 9 1 19 -2 22 -7z"/>
<path d="M5195 6273 c-95 -9 -1433 -163 -1463 -168 -23 -4 -32 -11 -28 -20 2
-7 17 -109 32 -227 15 -117 30 -217 34 -221 4 -5 111 21 237 57 126 36 237 66
245 66 22 0 21 11 88 -590 62 -555 110 -963 113 -967 2 -2 73 6 452 50 110 13
110 13 108 53 -3 70 -40 380 -97 809 -61 462 -89 715 -81 723 3 3 125 1 273
-5 147 -6 268 -10 269 -10 1 1 -9 65 -22 142 -12 77 -28 179 -35 228 -13 97
-5 91 -125 80z"/>
<path d="M6643 6303 c13 -21 186 -424 197 -458 7 -22 32 -62 55 -90 154 -184
242 -387 266 -613 11 -107 10 -116 -20 -362 -10 -79 -36 -409 -33 -420 3 -14
550 -76 562 -64 4 5 24 160 45 344 41 372 11 303 346 790 55 80 108 156 117
170 9 14 92 136 184 271 92 136 169 253 170 260 2 9 -59 19 -247 40 -366 40
-324 48 -387 -73 -56 -107 -239 -446 -326 -603 -27 -49 -55 -91 -61 -93 -17
-6 -33 40 -115 338 -157 569 -134 507 -191 514 -373 44 -569 61 -562 49z"/>
<path d="M5965 6084 c-169 -25 -414 -115 -402 -148 3 -7 8 -41 12 -77 7 -64 7
-64 108 -14 349 172 761 103 1038 -174 268 -268 342 -651 190 -976 -208 -445
-663 -658 -1105 -518 -295 93 -511 310 -637 641 -24 63 -29 70 -25 37 3 -22
10 -83 16 -135 25 -211 32 -235 105 -330 298 -386 835 -511 1268 -294 637 319
791 1145 310 1655 -217 230 -597 374 -878 333z"/>
<path d="M5935 5894 c-125 -29 -306 -104 -334 -138 -7 -8 -8 -38 -2 -91 13
-111 17 -107 -108 -100 -106 7 -106 7 -153 -67 -164 -255 -199 -497 -107 -727
248 -619 988 -800 1442 -353 365 360 372 882 16 1232 -165 162 -357 243 -589
246 -80 2 -154 1 -165 -2z m266 -590 c130 -65 193 -240 131 -365 -136 -277
-542 -185 -542 122 0 202 226 336 411 243z"/>
<path d="M5962 5274 c-229 -114 -157 -448 99 -462 96 -6 165 28 215 103 141
212 -87 472 -314 359z m172 -88 c72 -30 106 -130 67 -194 -80 -126 -261 -79
-261 69 0 101 99 165 194 125z"/>
<path d="M6053 5163 c-34 -7 -83 -68 -83 -104 0 -87 82 -134 161 -93 106 54
40 221 -78 197z"/>
<path d="M5071 5598 c0 -13 3 -40 7 -62 7 -38 7 -38 44 15 37 53 37 54 15 61
-47 13 -67 9 -66 -14z"/>
<path d="M5177 5568 c-96 -128 -95 -120 -60 -353 19 -129 28 -146 36 -73 13
105 70 244 154 371 25 37 44 70 42 71 -2 2 -36 7 -75 11 -72 7 -72 7 -97 -27z"/>
<path d="M3861 5457 c-224 -65 -233 -70 -204 -106 21 -26 12 -28 293 51 166
46 162 44 154 86 -8 40 11 42 -243 -31z"/>
<path d="M3902 4457 c-14 -17 -31 -130 -87 -572 -24 -192 -58 -456 -74 -585
-81 -621 -85 -678 -55 -647 4 4 29 179 55 389 26 211 68 534 93 718 54 403 89
700 83 706 -2 3 -9 -2 -15 -9z"/>
<path d="M3906 4159 c-21 -173 -54 -426 -72 -564 -19 -137 -48 -358 -64 -490
-17 -132 -37 -286 -46 -343 -9 -57 -14 -106 -11 -108 5 -6 584 36 987 71 157
13 370 31 475 40 104 8 192 18 196 23 3 4 12 70 18 147 14 152 20 172 55 181
29 7 733 -56 1436 -128 133 -13 167 -33 155 -88 -4 -17 -3 -30 2 -30 4 0 112
9 238 20 127 12 438 38 693 59 254 21 465 40 468 43 3 3 -2 30 -10 59 -9 30
-42 182 -75 339 -131 623 -189 881 -203 895 -7 7 -8 3 -5 -10 18 -64 41 -161
71 -306 19 -90 49 -224 66 -298 17 -73 29 -138 27 -144 -4 -13 -60 216 -103
423 -19 91 -43 204 -55 251 -24 100 -13 94 -175 105 -100 7 -100 7 -113 -102
-7 -60 -17 -117 -22 -126 -18 -34 -17 -34 -529 31 -129 17 -270 33 -312 37
-98 9 -99 10 -90 117 4 48 7 87 6 87 -2 0 -29 -28 -61 -61 -300 -316 -762
-424 -1150 -269 -166 66 -323 174 -418 288 -70 83 -71 82 -51 -77 20 -152 20
-177 0 -185 -13 -5 -608 -76 -854 -102 -106 -11 -109 -4 -146 346 -9 85 -19
158 -23 162 -3 3 -65 9 -136 13 -131 7 -131 7 -169 -306z m804 -295 c112 -25
124 -40 96 -122 -28 -80 -53 -132 -65 -132 -5 0 -32 16 -61 35 -52 35 -130 49
-144 26 -8 -13 11 -24 102 -61 149 -59 202 -117 202 -222 0 -66 -30 -122 -85
-160 -103 -70 -357 -78 -515 -15 -65 27 -67 39 -24 170 30 91 34 92 116 37 50
-33 69 -40 109 -40 91 0 78 15 -75 85 -115 52 -148 89 -154 175 -14 189 211
290 498 224z m1380 -15 c270 -127 277 -513 11 -638 -88 -41 -242 -39 -326 6
-336 177 -205 674 175 661 67 -3 97 -9 140 -29z m809 21 c192 -27 287 -181
194 -314 -32 -45 -32 -45 6 -108 42 -68 91 -195 91 -233 0 -32 -13 -35 -175
-35 -165 0 -154 -6 -185 105 -29 102 -45 135 -70 135 -19 0 -20 -7 -20 -114 0
-95 -3 -115 -16 -120 -34 -13 -271 -7 -283 8 -8 9 -11 108 -9 342 3 329 3 329
83 335 135 9 317 9 384 -1z m-1401 -12 c8 -8 12 -56 12 -150 0 -138 0 -138
-52 -138 -105 0 -98 14 -98 -196 0 -217 20 -196 -180 -192 -135 3 -135 3 -136
193 0 190 0 190 -75 195 -74 5 -74 5 -77 139 -1 74 0 141 2 148 7 18 586 19
604 1z m2030 -62 c47 -73 47 -73 96 1 48 73 48 73 204 71 98 -2 157 -7 159
-14 3 -10 -160 -262 -217 -334 -30 -38 -30 -38 -30 -179 0 -141 0 -141 -26
-151 -38 -15 -287 -13 -302 2 -8 8 -12 55 -12 146 0 133 0 133 -58 210 -88
117 -192 280 -192 302 0 19 8 20 165 20 166 0 166 0 213 -74z"/>
<path d="M4405 3837 c-107 -36 -153 -84 -162 -169 -8 -83 16 -110 162 -183
105 -52 120 -63 123 -87 9 -76 -130 -76 -227 1 -37 30 -37 30 -64 -51 -14 -45
-24 -84 -22 -88 32 -52 402 -65 493 -17 76 40 114 112 97 186 -14 64 -75 111
-209 161 -71 27 -106 55 -106 85 0 53 88 61 175 15 31 -16 61 -28 65 -25 11 7
62 136 56 143 -32 31 -309 52 -381 29z"/>
<path d="M5843 3836 c-368 -120 -261 -656 124 -622 328 29 407 452 112 602
-65 33 -170 42 -236 20z m163 -210 c70 -70 29 -186 -66 -186 -96 0 -137 115
-66 186 25 25 43 34 66 34 23 0 42 -9 66 -34z"/>
<path d="M5895 3594 c-30 -33 -32 -63 -4 -98 58 -73 158 24 103 102 -22 31
-68 29 -99 -4z"/>
<path d="M6608 3843 c-148 -4 -148 -4 -148 -313 0 -310 0 -310 125 -310 125 0
125 0 125 120 0 120 0 120 35 120 52 0 79 -33 109 -132 14 -46 26 -89 26 -96
0 -9 38 -12 139 -12 140 0 140 0 121 55 -25 72 -96 208 -121 231 -19 17 -19
17 9 34 59 36 78 129 42 199 -46 90 -136 111 -462 104z m201 -128 c74 -38 39
-120 -50 -120 -54 0 -54 0 -57 54 -2 29 -1 60 2 67 7 19 69 18 105 -1z"/>
<path d="M6740 3655 c0 -36 15 -44 54 -29 35 14 11 64 -31 64 -20 0 -23 -5
-23 -35z"/>
<path d="M4920 3720 c0 -120 0 -120 81 -120 80 0 80 0 73 -190 -7 -190 -7
-190 125 -190 131 0 131 0 131 190 0 190 0 190 75 190 75 0 75 0 75 120 0 120
0 120 -280 120 -280 0 -280 0 -280 -120z"/>
<path d="M7201 3818 c23 -43 132 -203 181 -264 48 -62 48 -62 48 -198 0 -136
0 -136 142 -136 141 0 141 0 134 133 -6 134 -6 134 27 178 19 24 75 104 125
177 91 132 91 132 -38 132 -129 0 -129 0 -179 -73 -74 -110 -69 -109 -127 -14
-51 82 -51 82 -188 85 -137 3 -137 3 -125 -20z"/>
<path d="M5452 3081 c-13 -8 -26 -115 -77 -646 -14 -143 -34 -341 -45 -440
-25 -229 -43 -436 -38 -440 1 -1 66 2 143 7 436 30 715 -43 715 -189 0 -186
-350 -178 -746 17 -78 39 -146 70 -152 70 -5 0 -13 -33 -17 -72 -9 -99 -55
-538 -64 -616 -9 -78 -3 -84 164 -162 467 -219 927 -222 1273 -10 146 90 257
210 332 360 281 559 -56 1136 -728 1249 -97 16 -97 16 -87 69 6 29 13 51 15
49 7 -7 716 -77 780 -77 26 0 26 0 48 253 32 361 36 437 25 437 -5 0 -110 11
-234 25 -209 23 -452 46 -984 94 -121 11 -240 22 -266 25 -25 3 -51 1 -57 -3z
m339 -161 c123 -11 382 -36 574 -55 193 -18 385 -37 428 -41 42 -3 77 -10 77
-15 0 -27 -31 -369 -36 -391 -7 -36 13 -36 -431 4 -199 18 -364 30 -367 27 -8
-8 -39 -318 -33 -333 3 -8 32 -16 80 -20 510 -46 863 -383 832 -793 -38 -505
-543 -813 -1145 -698 -184 36 -475 151 -466 184 2 9 14 113 27 231 12 118 23
216 25 218 1 2 42 -11 90 -28 503 -179 827 -116 828 160 1 139 -102 238 -302
292 -65 18 -115 22 -310 26 -234 4 -234 4 -228 46 3 22 20 183 36 356 17 173
42 427 55 565 14 137 25 257 25 267 0 10 4 18 9 18 5 0 110 -9 232 -20z"/>
<path d="M5585 2896 c-3 -10 -116 -1154 -115 -1166 0 -3 68 -4 151 -2 433 10
689 -123 689 -358 0 -181 -149 -300 -374 -300 -126 0 -411 66 -537 123 -13 7
-18 -16 -33 -170 -10 -98 -20 -189 -23 -204 -4 -23 2 -28 74 -61 622 -290
1251 -126 1429 372 36 100 45 281 19 380 -74 287 -361 495 -760 550 -143 19
-135 16 -135 65 0 50 28 334 35 353 4 11 19 12 63 8 85 -9 565 -54 655 -61 61
-5 77 -4 78 7 0 7 8 87 18 178 10 91 15 168 12 171 -6 6 -289 35 -876 89 -176
16 -330 31 -343 34 -13 2 -25 -2 -27 -8z"/>
<path d="M8230 2939 c-168 -13 -582 -48 -887 -75 -155 -13 -289 -24 -297 -24
-11 0 -16 -9 -16 -26 0 -30 -37 -32 590 22 694 59 730 63 777 84 24 10 43 21
43 24 0 7 -76 6 -210 -5z"/>
<path d="M5265 2740 c-33 -5 -157 -16 -275 -25 -118 -9 -345 -27 -505 -40
-159 -13 -400 -31 -535 -40 -312 -20 -295 -17 -235 -45 65 -30 11 -33 1145 55
545 42 510 36 510 75 0 34 1 33 -105 20z"/>
</g>
</svg>
