<svg version="1.0" xmlns="http://www.w3.org/2000/svg"
 width="786.000000pt" height="1218.000000pt" viewBox="0 0 786.000000 1218.000000"
 preserveAspectRatio="xMidYMid meet" style="background:transparent;">
<metadata>
Created by potrace 1.16, written by Peter Selinger 2001-2019
</metadata>
<g transform="translate(0.000000,1218.000000) scale(0.100000,-0.100000)"
fill="#000000" stroke="none">
<path d="M0 6090 l0 -6090 3930 0 3930 0 0 6090 0 6090 -3930 0 -3930 0 0
-6090z m3690 5411 c385 -97 748 -241 968 -384 107 -69 109 -84 56 -430 -26
-167 -26 -167 -5 -185 11 -9 27 -35 34 -57 14 -40 14 -40 85 -43 73 -3 102
-23 125 -84 10 -27 117 -25 174 3 79 38 102 32 187 -49 42 -40 82 -72 89 -72
26 0 135 -117 146 -157 18 -64 13 -270 -9 -381 -27 -138 -20 -197 25 -212 47
-16 64 -40 75 -107 5 -32 33 -137 61 -233 111 -379 153 -692 115 -855 -37
-156 -100 -260 -189 -315 -137 -86 -145 -92 -156 -136 -6 -23 -16 -46 -24 -52
-13 -11 -166 -77 -274 -118 -190 -72 -521 -90 -660 -37 -11 4 -14 2 -9 -5 27
-45 53 -252 70 -559 3 -51 10 -102 16 -112 18 -35 13 -89 -10 -96 -17 -5 -20
-15 -20 -64 0 -59 0 -59 43 -69 75 -19 90 -45 108 -190 16 -138 6 -170 -82
-257 -39 -39 -87 -95 -107 -125 -19 -30 -79 -98 -132 -150 -97 -96 -97 -96
-77 -210 30 -176 29 -459 -2 -650 -22 -134 -23 -163 -18 -395 6 -245 12 -300
51 -440 9 -34 16 -97 16 -147 0 -84 4 -101 94 -376 52 -158 104 -323 117 -366
15 -53 28 -80 40 -83 9 -3 30 -21 47 -41 18 -24 63 -55 123 -86 164 -86 177
-103 138 -182 -21 -45 -21 -45 47 -262 37 -119 92 -284 122 -367 30 -82 56
-158 59 -167 4 -12 15 -18 35 -18 23 0 42 -12 75 -45 93 -92 343 -121 583 -65
149 34 184 30 242 -32 75 -81 75 -83 26 -119 -65 -47 -506 -262 -648 -315
-107 -41 -138 -48 -217 -52 -90 -4 -93 -5 -93 -28 0 -32 -23 -45 -186 -108
-165 -64 -237 -86 -251 -78 -6 4 -23 32 -38 62 -15 30 -43 72 -61 94 -18 21
-54 80 -80 132 -42 82 -51 94 -74 94 -14 0 -30 8 -38 20 -16 27 -42 15 -42
-20 0 -44 -27 -60 -50 -30 -21 27 -9 40 17 18 15 -11 16 -10 10 11 -4 16 0 33
13 50 16 24 17 30 5 59 -17 40 -23 40 -79 -3 -25 -19 -64 -44 -88 -56 -78 -39
-99 -59 -96 -87 7 -55 64 -54 127 3 21 19 44 35 50 35 19 0 -64 -69 -103 -85
-49 -21 -89 -4 -94 38 -4 35 15 58 77 93 59 34 55 30 57 65 2 24 -1 29 -13 24
-9 -3 -24 2 -34 11 -24 22 -52 14 -59 -16 -6 -22 -11 -25 -43 -23 -30 2 -37
-1 -37 -16 0 -33 -11 -51 -31 -51 -23 0 -24 -17 -3 -41 14 -16 14 -20 -2 -44
-16 -25 -16 -28 -2 -39 9 -7 18 -23 20 -36 2 -19 9 -24 25 -23 16 2 23 -4 25
-20 2 -17 11 -23 35 -25 20 -2 37 -11 43 -23 13 -24 40 -25 47 -1 3 14 12 17
32 14 24 -3 29 0 35 22 4 16 15 28 31 32 14 3 25 14 25 23 0 23 16 45 28 37
17 -10 -2 -60 -29 -73 -14 -7 -26 -24 -29 -40 -5 -24 -10 -28 -39 -28 -19 0
-36 -6 -38 -12 -7 -20 -58 -15 -78 7 -20 22 -35 26 -35 9 0 -5 6 -7 13 -4 6 4
3 0 -7 -9 -24 -20 -32 -14 -40 29 -6 31 -11 35 -36 35 -27 0 -30 3 -30 30 0
18 -8 37 -20 47 -24 21 -25 31 -4 54 14 16 14 20 0 48 -22 42 -20 48 14 56 24
5 30 12 30 34 0 41 17 53 51 35 27 -13 29 -13 29 4 0 35 36 57 67 41 14 -8 35
-13 45 -11 25 4 48 -15 48 -40 0 -29 79 30 105 79 12 24 29 39 43 41 28 4 30
-4 -27 152 -81 225 -242 580 -262 580 -10 0 -31 12 -48 26 -45 38 -42 79 14
188 35 68 42 92 35 106 -15 27 -12 71 5 90 13 15 10 29 -31 141 -88 243 -97
286 -103 544 -3 127 -10 236 -15 243 -4 7 -12 46 -17 85 -9 71 -48 221 -56
213 -2 -2 1 -32 6 -67 15 -92 16 -339 1 -386 -6 -21 -31 -85 -55 -143 -42
-100 -45 -116 -74 -350 -40 -320 -46 -285 44 -285 123 0 175 -81 102 -161
-107 -120 -131 -234 -147 -699 -5 -159 -13 -337 -16 -395 -7 -105 -7 -105 27
-105 40 0 59 -29 59 -92 0 -39 -3 -44 -39 -65 -39 -22 -39 -22 32 -126 38 -57
108 -145 155 -195 95 -104 121 -150 122 -220 0 -45 -2 -49 -33 -62 -132 -55
-549 -38 -718 29 -65 26 -226 125 -254 157 -14 15 -20 40 -23 92 -3 47 -10 78
-20 90 -13 15 -16 38 -14 116 3 98 3 98 -32 140 -20 24 -36 53 -36 65 0 12 -9
29 -20 39 -20 17 -22 26 -24 166 -1 54 1 65 16 69 14 3 18 15 18 48 0 49 17
64 70 64 32 0 32 0 28 373 -3 418 0 396 -80 466 -88 76 -89 161 -3 197 61 25
191 -33 179 -80 -4 -17 1 -27 21 -40 34 -22 29 -38 49 154 10 91 35 252 57
359 43 216 46 254 24 368 -20 106 -19 168 6 249 95 308 92 287 95 549 3 213 2
234 -10 188 -13 -54 -40 -103 -56 -103 -59 0 -278 114 -287 150 -5 18 -8 17
-42 -10 -20 -16 -52 -33 -70 -36 -34 -7 -34 -7 -28 44 6 49 5 52 -16 52 -45 0
-49 11 -46 112 4 94 4 94 -26 109 -33 15 -32 13 -20 132 6 56 5 67 -7 67 -38
0 -51 36 -44 121 8 100 6 97 64 105 47 6 47 6 44 45 -3 28 -11 43 -26 51 -81
42 -24 154 113 221 91 44 213 170 183 186 -12 6 -27 27 -34 47 -13 36 -13 36
-98 29 -148 -11 -258 26 -415 140 -44 32 -108 69 -143 81 -124 44 -145 93 -96
221 18 48 33 125 50 258 48 372 142 630 295 812 99 117 191 257 248 376 27 56
66 120 88 143 47 51 113 127 113 131 0 21 -35 -10 -67 -60 -51 -82 -115 -117
-207 -117 -126 0 -134 19 -45 101 60 57 60 57 17 64 -80 13 -198 78 -198 109
0 17 25 28 201 86 164 54 152 54 269 2 67 -30 100 -21 100 28 0 102 -58 369
-104 476 -14 34 -30 95 -35 135 -6 50 -29 128 -71 239 -34 91 -73 195 -86 233
-27 76 -58 232 -50 246 4 5 13 103 21 218 19 263 47 379 122 514 2 3 -18 14
-44 24 -194 73 -442 242 -606 414 -114 120 -137 163 -108 200 12 14 26 37 31
51 18 44 27 55 48 58 33 5 87 -26 99 -56 10 -25 11 -25 12 -5 1 25 28 45 84
63 20 6 37 16 37 21 0 14 -47 11 -62 -4 -21 -21 -55 -37 -78 -37 -20 0 -19 2
8 25 63 53 96 59 160 29 49 -23 70 -27 158 -28 102 -1 134 -11 134 -42 0 -8 6
-14 14 -14 8 0 24 -13 35 -29 11 -16 40 -38 63 -49 24 -12 66 -34 93 -50 50
-30 50 -30 115 67 84 125 166 239 198 274 36 38 83 36 272 -12z"/>
<path d="M3443 11497 c-41 -46 -177 -238 -232 -330 -21 -35 -22 -37 -4 -44 20
-7 196 -128 259 -179 38 -30 45 -32 111 -31 63 2 74 -1 98 -23 24 -23 139 -68
415 -162 63 -21 210 -77 325 -123 116 -46 216 -85 224 -87 17 -3 29 56 62 302
32 240 42 225 -266 376 -281 137 -617 254 -870 303 -33 7 -69 14 -81 16 -13 3
-28 -4 -41 -18z"/>
<path d="M2621 11334 c10 -12 2 -14 -49 -14 -67 0 -92 -15 -92 -56 0 -32 -28
-32 -36 1 -7 29 -13 30 -59 11 -37 -16 -41 -26 -25 -57 14 -25 -2 -25 -25 1
-44 49 -69 7 -31 -51 122 -184 543 -489 726 -526 60 -11 32 22 -45 56 -127 56
-94 52 84 -9 93 -32 260 -86 372 -119 516 -153 1053 -365 1129 -446 34 -36 20
-38 -30 -5 -54 36 -60 37 -60 7 0 -49 247 -92 433 -76 90 8 121 8 132 -1 10
-8 15 -9 15 -2 0 6 -4 14 -10 17 -5 3 -10 26 -10 50 0 44 0 44 -45 50 -24 4
-52 14 -62 22 -19 16 -20 16 57 -3 19 -4 22 -3 10 5 -11 8 -6 9 20 5 32 -5 37
-2 58 31 31 48 38 39 12 -16 -22 -49 -26 -110 -9 -157 12 -35 29 -34 29 0 0
55 88 178 126 178 14 0 11 -5 -13 -21 -96 -62 -121 -262 -33 -271 24 -3 25 -1
26 56 1 55 3 61 38 94 38 34 38 34 123 27 85 -7 85 -7 63 23 -13 17 -37 36
-54 44 -17 7 -61 41 -98 75 -76 71 -84 73 -150 38 -33 -17 -63 -25 -99 -25
-43 0 -50 -2 -40 -14 18 -21 -14 -36 -53 -25 -43 12 -58 11 -51 -3 4 -7 1 -6
-7 3 -7 8 -22 21 -33 28 -17 10 -10 11 40 7 56 -5 58 -5 35 9 -19 11 -43 13
-101 9 -77 -6 -119 4 -119 28 0 9 3 9 12 0 7 -7 41 -12 82 -12 50 0 66 3 56
10 -8 5 -27 10 -41 10 -15 0 -61 16 -103 36 -49 24 -99 39 -139 43 -34 4 -75
15 -92 24 -33 19 -36 19 65 -2 61 -13 60 -9 -6 18 -40 17 -61 21 -76 14 -27
-12 -152 18 -180 44 -11 10 -37 27 -57 38 -198 106 -227 126 -113 80 80 -32
94 -31 55 5 -49 44 -162 68 -137 29 5 -8 1 -8 -14 0 -12 6 -49 14 -84 18 -54
5 -67 10 -94 39 -20 21 -44 35 -70 39 -21 4 -57 19 -79 35 -22 15 -56 34 -75
42 -19 9 -44 26 -55 38 -22 26 -27 28 117 -54 26 -14 78 -36 115 -47 37 -12
72 -25 78 -30 5 -5 13 -9 19 -9 5 0 -4 11 -20 25 -28 25 -81 45 -116 45 -10 0
-35 16 -56 35 -22 19 -50 39 -63 44 -24 10 -24 10 1 11 22 0 23 2 7 11 -9 5
-22 7 -29 3 -17 -10 -172 -6 -203 6 -14 5 -28 17 -31 25 -8 19 -105 85 -126
85 -8 0 -23 9 -33 20 -10 11 -35 25 -56 32 -21 6 -46 19 -55 30 -20 21 -7 24
21 4 11 -7 31 -17 45 -21 14 -4 36 -16 49 -26 13 -11 41 -24 63 -29 21 -6 36
-15 33 -21 -7 -10 68 -48 95 -49 13 0 -2 11 -71 55 -9 6 -45 29 -80 53 -35 23
-82 47 -104 53 -22 6 -48 18 -57 26 -21 19 -108 31 -108 14 0 -7 19 -11 49
-11 28 0 53 -4 56 -10 7 -11 -31 -13 -87 -4 -48 8 -56 44 -10 44 26 1 26 1 7
16 -11 8 -31 17 -45 20 -14 4 -64 26 -113 50 -98 50 -114 52 -150 24 -30 -23
-37 -25 -37 -7 0 7 17 22 38 32 37 19 37 19 7 23 -16 2 -47 7 -68 12 -32 7
-36 6 -26 -6z m2074 -987 c17 -3 16 -5 -7 -11 -20 -6 -42 -1 -83 18 -71 34
-70 38 8 16 34 -10 71 -20 82 -23z"/>
<path d="M2773 11334 c-6 -3 22 -23 64 -45 74 -39 110 -47 59 -14 -14 10 -23
22 -19 28 3 6 1 7 -6 3 -6 -4 -28 2 -47 13 -19 12 -36 21 -37 20 -1 0 -7 -3
-14 -5z"/>
<path d="M2332 11309 c3 -8 -1 -22 -10 -31 -21 -24 -6 -22 53 7 49 24 49 24
18 25 -17 0 -39 3 -49 7 -12 4 -15 2 -12 -8z"/>
<path d="M3405 10920 c3 -5 21 -10 38 -10 24 0 28 3 17 10 -20 13 -63 13 -55
0z"/>
<path d="M3835 10784 c16 -8 38 -23 48 -31 10 -9 48 -25 85 -35 67 -18 67 -18
-10 -13 -45 3 -79 2 -82 -4 -9 -14 77 -25 143 -18 76 8 124 -6 175 -53 48 -44
171 -107 271 -140 39 -13 96 -36 128 -52 57 -28 57 -28 54 13 -3 41 -3 41 -83
73 -43 18 -140 58 -216 88 -75 31 -176 66 -225 78 -48 12 -105 31 -126 41 -40
21 -169 69 -183 69 -5 0 4 -7 21 -16z"/>
<path d="M3073 10618 c-86 -132 -143 -361 -143 -582 0 -5 16 5 35 24 51 49
131 50 190 4 40 -32 40 -32 40 85 1 124 3 134 69 244 42 71 40 57 -9 -45 -54
-117 -56 -132 -42 -306 11 -143 11 -143 33 -38 21 96 51 183 61 172 2 -2 -2
-19 -10 -37 -7 -19 -24 -77 -36 -129 -12 -52 -26 -108 -31 -125 -15 -52 -24
-199 -11 -191 6 4 11 1 12 -6 0 -7 9 37 20 97 26 153 63 266 119 365 26 47 68
126 93 175 25 50 60 110 76 135 37 54 38 53 -114 94 -82 22 -281 80 -320 93
-5 1 -20 -12 -32 -29z m186 -85 c-58 -60 -86 -101 -95 -139 -7 -29 -7 -29 16
1 41 53 44 51 10 -8 -31 -56 -32 -63 -28 -135 5 -77 5 -77 -9 -37 -36 100 5
244 94 325 59 55 67 50 12 -7z"/>
<path d="M4259 10535 c35 -20 73 -35 85 -33 16 3 7 10 -36 31 -91 42 -122 44
-49 2z"/>
<path d="M3581 10471 c-10 -14 -69 -118 -130 -231 -121 -221 -146 -288 -176
-470 -20 -120 -22 -125 -58 -109 -35 16 -39 33 -27 115 21 145 15 195 -27 236
-82 78 -150 79 -203 2 -58 -85 -57 -204 2 -383 43 -128 80 -176 137 -176 37 0
41 -2 36 -20 -3 -11 -8 -81 -12 -155 -9 -222 16 -283 193 -456 371 -367 676
-400 819 -90 19 39 52 146 75 237 23 90 64 225 92 299 28 74 55 149 61 165 6
17 12 104 12 195 0 91 4 195 9 232 9 68 9 68 -36 113 -50 50 -78 56 -130 29
-32 -17 -32 -17 5 -35 93 -48 72 -184 -30 -205 -27 -5 -37 -1 -63 24 -30 30
-30 30 -30 3 0 -66 89 -139 151 -126 17 4 49 23 72 44 27 24 37 29 29 15 -53
-100 -182 -100 -243 0 -19 31 -19 31 -19 5 0 -85 41 -200 105 -294 48 -72 26
-118 -70 -145 -61 -17 -167 -1 -201 31 -24 22 -35 91 -16 103 4 2 7 -14 7 -36
0 -79 134 -117 235 -65 60 30 62 52 11 127 -142 213 -106 524 67 581 47 15 97
4 122 -29 11 -15 29 -38 40 -52 18 -25 18 -25 29 3 36 94 -23 171 -142 186
-55 6 -65 18 -53 67 16 63 215 -42 217 -115 0 -14 5 -35 10 -46 7 -14 8 -4 4
35 -3 30 -5 63 -5 72 0 33 -248 141 -603 262 -247 84 -247 84 -266 57z m440
-181 c-4 -3 0 -18 10 -35 19 -30 19 -30 19 8 0 27 4 37 16 37 14 0 15 -7 10
-42 -9 -54 -7 -53 -63 -32 -71 28 -275 26 -355 -3 -71 -24 -80 -7 -15 30 101
59 243 83 334 57 28 -8 48 -17 44 -20z m-137 -198 c116 -67 94 -281 -35 -348
-110 -57 -259 43 -259 174 0 148 167 247 294 174z m-780 -123 c21 -25 46 -103
46 -144 0 -8 -8 -15 -18 -15 -10 0 -28 -7 -40 -16 -13 -9 -22 -11 -22 -4 0 6
14 19 31 28 28 16 30 20 24 56 -23 149 -127 154 -165 9 -10 -38 -10 -38 -6 -2
13 117 89 161 150 88z m6 -236 c-32 -36 -36 -63 -15 -115 4 -11 3 -18 -4 -18
-38 0 -39 99 -2 139 41 44 60 39 21 -6z m515 -473 c-7 -23 46 -65 141 -111
138 -65 342 -91 384 -49 12 12 25 18 30 15 37 -23 -34 -55 -119 -55 -126 0
-319 62 -410 131 -58 44 -61 45 -61 24 0 -8 -4 -15 -10 -15 -16 0 -12 42 7 62
22 25 46 24 38 -2z m314 -221 c30 -6 79 -9 109 -7 38 3 49 2 36 -5 -44 -25
-246 17 -304 63 -18 15 -7 12 39 -9 36 -17 89 -35 120 -42z"/>
<path d="M3777 10284 c-32 -8 -66 -19 -75 -25 -15 -9 -14 -10 3 -4 11 4 68 9
128 12 89 5 105 8 96 19 -14 18 -76 17 -152 -2z"/>
<path d="M3940 10283 c12 -18 80 -47 80 -33 0 13 -35 38 -63 46 -27 6 -28 5
-17 -13z"/>
<path d="M3760 10081 c-102 -21 -171 -113 -153 -204 8 -40 79 -111 127 -127
119 -39 240 97 206 231 -24 94 -73 121 -180 100z m40 -36 c62 -32 69 -108 16
-161 -37 -37 -65 -42 -108 -20 -27 14 -28 14 -29 -12 0 -15 -7 2 -15 38 -27
124 43 203 136 155z"/>
<path d="M3705 10015 c-52 -51 -23 -145 44 -145 54 0 103 91 73 136 -25 38
-84 43 -117 9z m103 -63 c-8 -40 -81 -40 -94 0 -5 17 0 27 22 45 29 23 29 23
52 -3 13 -14 22 -33 20 -42z"/>
<path d="M4347 10491 c-13 -5 0 -10 43 -17 72 -12 90 -1 25 15 -24 6 -45 11
-47 10 -2 0 -11 -4 -21 -8z"/>
<path d="M4680 10463 c0 -31 16 -53 36 -53 10 0 10 8 0 37 -16 46 -36 55 -36
16z"/>
<path d="M4800 10360 c-12 -8 -9 -10 13 -10 15 0 45 -9 67 -20 44 -22 54 -25
45 -10 -19 31 -99 57 -125 40z"/>
<path d="M4272 10188 c-14 -14 -16 -32 -3 -23 11 6 50 -10 104 -42 40 -25 47
-21 19 14 -37 46 -99 72 -120 51z"/>
<path d="M5269 10079 c-33 -36 -40 -99 -14 -136 15 -21 14 -23 -12 -29 -15 -4
-39 -15 -52 -26 -29 -22 -71 -24 -71 -3 0 25 -36 88 -65 115 -24 22 -35 25
-92 23 -84 -3 -84 -3 -27 -66 34 -37 56 -75 72 -119 28 -80 62 -134 136 -215
62 -68 78 -102 95 -213 20 -130 14 -120 74 -120 56 0 148 23 183 45 19 12 20
19 13 62 -13 79 -10 206 7 287 26 126 17 352 -16 393 -16 20 -30 30 -40 26
-21 -9 -46 -8 -108 0 -51 8 -54 7 -83 -24z m31 -99 c19 -17 46 -30 60 -31 23
0 23 -1 5 -8 -18 -8 -16 -10 15 -19 29 -8 32 -11 17 -17 -10 -4 -29 -3 -43 3
-20 10 -24 9 -24 -4 0 -17 -39 -137 -47 -144 -12 -11 7 90 23 124 18 36 18 36
-19 71 -58 57 -48 76 13 25z"/>
<path d="M4463 9972 c-55 -131 -63 -180 -61 -367 3 -160 3 -160 -55 -309 -32
-81 -68 -187 -81 -235 -13 -47 -36 -131 -50 -186 -49 -183 -139 -323 -229
-356 -55 -19 -52 -54 6 -69 132 -34 150 -46 189 -124 17 -34 57 -89 89 -124
33 -34 59 -69 59 -76 0 -7 39 -33 88 -57 87 -44 87 -44 327 -43 283 2 586 12
594 20 7 7 18 126 27 304 8 163 -5 262 -43 317 -36 53 -59 108 -73 175 -10 49
-15 59 -37 64 -35 9 -51 54 -64 176 -5 57 -14 119 -19 138 -20 71 -13 94 36
140 44 40 46 44 40 84 -10 62 -35 107 -101 181 -74 83 -87 105 -120 198 -20
56 -38 85 -71 118 -24 24 -44 49 -44 56 0 9 -19 13 -69 13 -82 0 -232 25 -270
45 -28 14 -28 14 -68 -83z"/>
<path d="M4168 9953 c9 -3 3 -12 -17 -24 -17 -10 -31 -27 -31 -36 1 -15 5 -14
23 8 19 21 25 23 35 12 17 -17 32 -17 32 2 0 8 5 15 10 15 6 0 10 -7 10 -15 0
-8 5 -24 12 -34 9 -15 7 -24 -13 -49 -29 -38 -28 -38 -73 -7 -27 18 -36 21
-36 10 0 -52 113 -55 137 -4 26 54 -19 130 -77 128 -14 0 -19 -3 -12 -6z"/>
<path d="M5140 9916 c0 -20 13 -27 30 -15 13 8 13 10 0 19 -21 14 -30 12 -30
-4z"/>
<path d="M3070 9364 c25 -86 26 -86 33 -12 6 72 4 78 -28 78 -24 0 -24 0 -5
-66z"/>
<path d="M5530 9425 c0 -3 5 -15 11 -26 10 -20 11 -20 24 -2 14 17 14 17 15 0
0 -37 -62 -84 -141 -108 -88 -26 -79 -20 -72 -47 7 -27 27 -28 95 -2 121 46
173 109 131 158 -18 20 -63 39 -63 27z"/>
<path d="M5185 9344 c-30 -28 -30 -28 3 -38 40 -11 47 -5 36 35 -9 31 -9 31
-39 3z"/>
<path d="M5582 9279 c-37 -24 -37 -30 2 -145 21 -64 21 -64 50 -41 29 24 29
24 6 115 -12 51 -23 92 -24 92 0 0 -16 -10 -34 -21z"/>
<path d="M5150 9267 c0 -32 12 -46 48 -56 29 -9 32 -8 32 13 0 25 -10 36 -52
54 -26 11 -28 10 -28 -11z"/>
<path d="M5240 9246 c0 -33 13 -46 44 -46 57 0 73 9 68 36 -4 22 -9 24 -58 24
-40 0 -54 -4 -54 -14z"/>
<path d="M5460 9221 c-41 -14 -76 -25 -78 -27 -2 -1 11 -47 28 -102 36 -113
26 -108 124 -62 61 29 61 29 28 130 -27 85 -27 85 -102 61z"/>
<path d="M5170 9167 c4 -17 19 -49 33 -70 14 -20 28 -55 32 -77 6 -36 10 -40
35 -40 28 0 28 0 14 48 -8 26 -20 68 -25 95 -11 48 -22 59 -70 71 -26 6 -27 5
-19 -27z"/>
<path d="M5293 9183 c-18 -2 -33 -5 -33 -6 0 -1 8 -34 19 -72 10 -39 22 -83
25 -99 7 -28 8 -29 58 -23 66 8 64 1 32 111 -29 104 -23 99 -101 89z"/>
<path d="M5638 9077 c-27 -22 -27 -22 3 -112 37 -108 39 -111 70 -86 23 19 23
19 -6 112 -35 114 -34 113 -67 86z"/>
<path d="M5184 9068 c4 -13 9 -47 13 -75 3 -29 10 -53 14 -53 14 0 10 78 -5
115 -17 39 -32 48 -22 13z"/>
<path d="M5517 9007 c-78 -36 -76 -28 -36 -159 23 -79 28 -81 118 -42 71 31
71 30 31 144 -17 46 -30 85 -30 87 0 6 -17 0 -83 -30z"/>
<path d="M5254 8956 c-6 -16 33 -176 48 -193 14 -17 62 -17 55 0 -2 7 -12 48
-22 92 -10 44 -22 88 -27 98 -10 20 -46 23 -54 3z"/>
<path d="M5344 8963 c-21 -4 -21 -4 3 -105 13 -56 25 -103 26 -104 3 -3 109
14 113 18 1 2 -11 47 -27 101 -33 106 -34 106 -115 90z"/>
<path d="M3204 8893 c16 -42 56 -301 58 -380 3 -92 3 -92 53 -103 92 -21 235
-23 408 -5 201 19 197 18 197 60 0 33 0 33 -97 37 -154 6 -307 95 -516 299
-59 58 -106 100 -103 92z"/>
<path d="M5707 8848 c-25 -23 -25 -23 1 -113 31 -108 28 -103 51 -79 17 18 18
23 2 111 -19 108 -21 111 -54 81z"/>
<path d="M5656 8811 c-4 -5 -35 -20 -71 -33 -67 -23 -76 -35 -50 -62 8 -8 15
-21 15 -30 0 -8 5 -38 12 -66 13 -59 24 -61 114 -21 52 23 53 27 18 138 -26
85 -29 90 -38 74z"/>
<path d="M5418 8743 c-33 -4 -38 -8 -38 -30 0 -26 0 -26 66 -20 77 8 79 8 64
36 -11 21 -16 22 -92 14z"/>
<path d="M5310 8735 c0 -19 23 -45 41 -45 34 0 21 44 -13 48 -16 2 -28 0 -28
-3z"/>
<path d="M5489 8685 c-3 -2 -32 -5 -65 -6 -60 -2 -60 -2 -46 -60 15 -59 15
-59 99 -59 96 0 89 -10 62 93 -9 33 -33 49 -50 32z"/>
<path d="M5757 8632 c-16 -17 -16 -25 -3 -88 7 -38 17 -86 20 -107 14 -78 29
-28 22 74 -8 125 -15 148 -39 121z"/>
<path d="M5647 8573 c-60 -23 -68 -29 -63 -47 3 -12 11 -60 18 -108 13 -101
11 -99 103 -62 55 22 64 29 61 48 -3 11 -8 39 -11 61 -13 77 -27 135 -33 134
-4 0 -38 -12 -75 -26z"/>
<path d="M5400 8481 c0 -56 2 -62 33 -85 35 -27 83 -49 130 -60 32 -8 35 16
16 135 -12 69 -12 69 -95 69 -84 0 -84 0 -84 -59z"/>
<path d="M2955 8515 c-16 -8 -83 -30 -147 -50 -65 -19 -118 -39 -118 -44 0
-11 147 -78 190 -85 77 -14 266 45 218 68 -10 5 -10 7 0 12 6 3 12 12 12 19 0
49 -159 47 -264 -3 -76 -35 -104 -37 -35 -1 111 56 217 74 269 44 30 -17 50
-19 50 -5 0 14 -98 60 -125 59 -11 0 -33 -6 -50 -14z"/>
<path d="M3173 8469 c-50 -14 -63 -110 -17 -117 18 -3 22 3 27 36 4 21 16 47
27 57 37 34 24 42 -37 24z"/>
<path d="M3204 8396 c-3 -14 -4 -31 -1 -38 2 -7 -4 -30 -14 -50 -24 -48 -24
-68 0 -68 26 0 30 8 33 64 2 35 7 46 20 46 9 0 20 5 24 11 4 7 9 7 13 1 7 -11
189 -23 196 -12 3 4 -39 13 -93 20 -53 7 -114 21 -134 31 -38 19 -38 19 -44
-5z"/>
<path d="M4000 8395 c5 -14 10 -43 11 -63 0 -31 2 -33 9 -16 4 12 23 32 40 46
32 25 32 25 3 36 -68 26 -74 26 -63 -3z"/>
<path d="M3785 8394 c-49 -7 -136 -17 -192 -20 -77 -5 -103 -10 -103 -20 0
-13 117 -21 200 -14 24 2 24 1 7 -18 -16 -18 -57 -119 -57 -142 0 -5 12 -10
28 -10 56 0 169 -100 202 -179 14 -34 14 -34 83 -28 83 7 83 7 62 47 -28 54
-51 70 -99 70 -25 0 -48 5 -51 11 -5 7 5 8 29 4 43 -9 44 -3 10 42 -14 19 -48
67 -75 107 -47 71 -96 106 -149 106 -10 0 -11 3 -3 11 9 9 27 8 71 -5 47 -13
70 -14 113 -6 187 35 119 74 -76 44z m-28 -91 c7 -10 18 -27 25 -38 11 -20 10
-20 -10 -2 -28 25 -42 14 -42 -33 0 -21 -5 -42 -11 -45 -10 -7 -12 109 -2 128
7 12 25 8 40 -10z"/>
<path d="M5397 8321 c-6 -82 28 -132 126 -181 70 -35 75 -28 76 106 1 62 1 62
-46 74 -27 6 -71 24 -99 39 -52 28 -52 28 -57 -38z"/>
<path d="M4082 8364 c-31 -21 -122 -220 -122 -265 0 -15 4 -17 23 -10 22 8 41
51 73 171 26 94 70 137 70 67 0 -64 102 -287 141 -308 13 -7 23 -16 23 -21 0
-15 -21 -8 -38 12 -10 10 -30 22 -46 26 -26 6 -27 5 -17 -15 7 -11 21 -21 32
-21 17 0 20 -4 14 -28 -5 -24 -2 -30 20 -40 14 -6 25 -19 25 -27 0 -13 -4 -14
-20 -5 -19 10 -20 9 -9 -8 6 -10 24 -23 39 -29 16 -6 34 -21 41 -34 12 -23 11
-23 -25 5 -42 32 -50 31 -33 -4 9 -19 23 -26 52 -30 31 -4 43 -11 53 -32 7
-16 22 -33 33 -38 10 -6 19 -17 19 -26 0 -11 -9 -7 -35 13 -19 15 -35 33 -35
40 0 6 -13 16 -30 22 -35 12 -38 4 -11 -30 10 -13 22 -35 26 -48 4 -14 16 -38
26 -55 11 -17 19 -38 19 -46 0 -8 15 -46 34 -85 19 -38 41 -87 50 -108 27 -63
18 -101 -16 -70 -17 15 -18 15 -18 -7 0 -14 13 -34 32 -50 19 -16 28 -31 24
-38 -5 -9 -13 -6 -26 10 -19 23 -19 23 -20 -4 0 -21 5 -28 18 -28 24 0 46 -41
40 -74 -3 -15 0 -31 8 -37 8 -6 14 -18 14 -27 0 -13 -3 -13 -19 2 -10 10 -21
13 -24 9 -9 -15 6 -31 36 -38 28 -7 28 -7 22 61 -20 241 -31 315 -65 454 -21
85 -41 171 -44 191 -3 19 -15 53 -26 74 -23 44 -25 59 -9 49 7 -4 10 -1 7 7
-3 8 -10 13 -15 12 -5 -1 -18 12 -28 29 -16 28 -16 31 -1 25 14 -6 15 -3 6 14
-6 11 -16 17 -21 13 -6 -3 -9 0 -8 7 8 39 -73 188 -108 200 -10 3 -38 46 -63
94 -50 98 -55 102 -88 79z"/>
<path d="M5735 8349 c-33 -16 -74 -32 -92 -35 -32 -6 -32 -6 -35 -106 -3 -100
-3 -100 35 -94 73 12 110 39 130 94 16 46 35 173 26 171 -2 0 -31 -14 -64 -30z"/>
<path d="M3022 8335 c-76 -20 -89 -27 -143 -81 -73 -73 -73 -74 5 -74 81 0
120 17 177 77 93 99 87 112 -39 78z"/>
<path d="M3957 8354 c-3 -4 -37 -14 -76 -23 -69 -16 -69 -16 -8 -109 65 -99
67 -100 87 -32 29 102 28 194 -3 164z"/>
<path d="M3245 8318 c-17 -68 -12 -82 30 -89 48 -8 42 -15 46 51 4 55 4 55
-33 58 -32 3 -38 0 -43 -20z"/>
<path d="M3348 8334 c-3 -5 -9 -32 -13 -61 -7 -52 -7 -52 46 -67 29 -9 58 -16
65 -16 11 0 31 126 21 136 -10 10 -114 16 -119 8z"/>
<path d="M3537 8322 c-57 -3 -57 -3 -57 -71 0 -68 0 -68 38 -95 21 -14 43 -26
49 -26 19 0 52 55 73 121 25 82 26 80 -13 77 -18 -2 -59 -4 -90 -6z"/>
<path d="M4080 8252 c0 -7 7 -23 15 -36 9 -13 15 -28 13 -32 -5 -20 15 -54 32
-54 10 0 22 -4 25 -10 3 -5 -1 -10 -10 -10 -22 0 8 -46 35 -53 26 -7 26 8 1
30 -11 9 -18 20 -16 23 5 7 -16 31 -50 56 -20 15 -20 15 3 9 12 -4 22 -2 22 3
0 14 -69 88 -70 74z"/>
<path d="M5385 8208 c-8 -35 -11 -275 -4 -339 9 -82 40 -128 55 -81 4 9 17 41
31 69 26 56 23 78 -8 70 -23 -6 -79 54 -79 85 0 26 21 100 32 113 4 5 8 -3 8
-18 0 -15 -4 -27 -10 -27 -18 0 -11 -67 11 -94 18 -23 67 -56 84 -56 5 0 75
147 75 159 0 3 -29 21 -65 40 -36 18 -78 48 -95 67 -29 33 -30 34 -35 12z"/>
<path d="M3145 8200 c-16 -18 -16 -20 -1 -26 23 -9 93 25 75 37 -23 15 -55 10
-74 -11z"/>
<path d="M4045 8160 c-31 -61 -31 -62 3 -54 64 14 61 11 41 51 -10 20 -16 40
-13 44 3 5 3 9 0 9 -3 0 -17 -22 -31 -50z"/>
<path d="M3234 8185 c-18 -15 -17 -15 15 -13 19 2 36 -2 38 -8 3 -8 -12 -10
-47 -6 -36 3 -50 1 -50 -8 0 -9 16 -11 59 -8 59 4 59 4 97 -43 37 -47 38 -48
83 -42 37 4 60 -1 117 -26 67 -29 75 -30 135 -20 79 13 77 10 35 57 -44 49
-45 60 -3 55 48 -6 10 15 -47 26 -40 7 -46 6 -51 -10 -10 -32 -41 -31 -104 1
-107 53 -238 75 -277 45z"/>
<path d="M3024 8125 c-24 -37 -10 -42 16 -6 12 17 17 31 11 31 -6 0 -18 -11
-27 -25z"/>
<path d="M3110 8141 c0 -6 5 -13 10 -16 6 -3 10 -14 10 -23 0 -13 -3 -12 -16
6 -8 12 -21 22 -28 22 -16 0 -108 -111 -140 -169 -25 -48 -25 -48 5 -70 31
-23 31 -23 103 48 75 74 156 115 180 91 7 -7 1 -10 -16 -10 -71 0 -78 -12 -56
-87 12 -37 22 -69 23 -70 1 -2 26 5 56 16 51 17 54 20 52 49 -3 37 -47 138
-71 165 -32 35 -112 69 -112 48z"/>
<path d="M5710 8118 c-14 -5 -44 -13 -68 -16 -43 -7 -43 -7 -83 -96 -21 -48
-39 -90 -39 -93 0 -12 107 57 144 92 40 40 95 126 79 124 -4 0 -19 -5 -33 -11z"/>
<path d="M3240 8110 c20 -13 83 -13 75 0 -3 6 -25 10 -48 10 -31 0 -38 -3 -27
-10z"/>
<path d="M3710 8090 c0 -11 68 -25 78 -16 3 4 0 11 -8 16 -20 13 -70 13 -70 0z"/>
<path d="M4046 8089 c-52 -12 -51 -9 -22 -68 28 -55 37 -58 109 -42 52 12 52
12 23 70 -28 55 -35 57 -110 40z"/>
<path d="M3280 8080 c-18 -12 2 -30 33 -30 10 0 16 -4 13 -9 -4 -5 7 -12 24
-16 21 -5 30 -12 30 -27 0 -20 0 -20 -17 0 -10 12 -31 24 -47 28 -39 9 -27 -9
28 -41 32 -19 46 -34 54 -64 17 -54 16 -55 -24 -31 -19 12 -37 20 -40 18 -12
-12 11 -38 42 -48 19 -7 39 -21 45 -32 16 -31 7 -244 -12 -288 -54 -118 -56
-116 107 -113 116 3 129 1 174 -22 27 -14 58 -25 69 -25 11 0 21 -5 23 -12 5
-14 57 40 86 90 6 12 17 31 24 41 9 15 9 25 -2 48 -8 15 -16 32 -18 36 -3 5 5
4 17 -2 26 -14 31 -98 7 -107 -8 -3 -17 -15 -20 -27 -3 -12 -25 -42 -50 -66
-42 -41 -47 -43 -63 -29 -51 43 -144 66 -233 57 -57 -5 -98 -5 -125 3 -22 6
-52 10 -68 10 -15 0 -25 3 -22 8 3 5 2 27 -1 50 -6 38 -8 40 -22 26 -14 -13
-14 -23 -5 -58 14 -51 5 -63 -58 -73 -50 -9 -70 6 -62 46 3 18 1 29 -6 29 -6
0 -11 -9 -11 -20 0 -22 -10 -26 -27 -9 -9 9 -14 5 -18 -17 -4 -16 -9 -36 -11
-45 -3 -9 6 -21 20 -29 25 -13 41 -38 31 -49 -3 -3 -17 8 -30 24 -45 57 -44
36 17 -315 12 -73 26 -106 57 -134 12 -11 21 -28 21 -39 0 -10 13 -31 28 -45
16 -15 34 -37 40 -49 8 -14 18 -20 28 -16 8 3 23 -2 33 -11 16 -15 25 -15 112
4 147 31 182 27 240 -26 26 -24 26 -24 44 -4 10 11 29 20 42 20 26 0 27 -3 12
-32 -18 -34 12 -17 38 21 23 33 23 33 -2 53 -33 25 -36 92 -5 108 46 24 53
120 9 120 -35 0 -18 33 29 56 23 12 50 32 60 44 17 22 19 22 57 5 22 -9 51
-19 65 -21 14 -3 27 -9 28 -15 2 -5 12 -9 23 -9 43 0 7 318 -52 448 -10 23
-19 53 -18 65 0 21 1 21 9 2 9 -24 38 -50 46 -42 10 9 -40 77 -53 72 -7 -2
-13 -3 -13 -2 0 1 -9 27 -20 57 -11 30 -14 46 -7 36 22 -35 56 -71 57 -61 0
20 -41 77 -59 82 -10 3 -26 21 -34 41 -9 21 -20 44 -25 52 -19 34 -82 158 -82
163 0 3 8 8 18 10 9 2 6 3 -6 2 -14 -2 -41 11 -66 30 -40 31 -46 32 -94 24
-29 -4 -56 -11 -62 -14 -5 -3 -38 7 -72 24 -82 39 -108 44 -142 31 -24 -9 -33
-7 -66 20 -41 33 -48 35 -70 20z m378 -209 c62 -67 92 -103 92 -111 0 -5 9
-12 21 -15 11 -4 24 -18 29 -31 5 -13 16 -24 24 -24 8 0 17 -13 21 -30 4 -16
11 -32 16 -35 5 -4 9 -11 9 -17 0 -17 -28 11 -36 35 -4 12 -28 43 -53 68 -53
54 -134 147 -139 160 -5 13 -23 11 -41 -5 -16 -14 -181 -27 -181 -14 0 13 25
16 92 10 60 -4 67 -3 79 17 18 28 35 27 67 -8z m-447 -568 c27 -13 39 -24 39
-39 0 -12 7 -27 15 -34 39 -32 -1 -121 -57 -125 -13 -1 -21 -4 -18 -7 8 -8
-21 -38 -37 -38 -10 0 -8 8 9 30 14 20 28 28 39 25 11 -4 25 6 42 29 27 34 27
34 4 85 -16 37 -29 53 -47 57 -43 10 -50 13 -50 24 0 15 18 12 61 -7z"/>
<path d="M4374 8010 c31 -70 31 -70 81 -70 47 0 51 2 61 29 11 28 10 29 -30
41 -22 6 -64 25 -92 40 -52 29 -52 29 -20 -40z"/>
<path d="M3760 8035 c7 -8 28 -15 47 -15 30 0 34 2 23 15 -7 8 -28 15 -47 15
-30 0 -34 -2 -23 -15z"/>
<path d="M5015 7998 c-115 -18 -126 -28 -144 -125 -12 -60 -18 -57 82 -37 85
16 85 16 92 68 4 28 12 62 17 75 11 30 13 29 -47 19z"/>
<path d="M5081 7993 c-5 -10 -12 -44 -16 -76 -7 -58 -7 -58 86 -55 94 3 94 3
100 43 3 22 11 51 18 64 19 34 2 41 -96 41 -68 0 -84 -3 -92 -17z"/>
<path d="M5308 7993 c-22 -26 -35 -53 -42 -94 -6 -35 -5 -36 35 -48 23 -7 48
-15 57 -18 21 -9 9 69 -18 113 -26 41 -25 52 2 28 20 -18 21 -18 15 -1 -4 10
-7 23 -7 28 0 15 -26 10 -42 -8z"/>
<path d="M3800 7986 c8 -7 28 -17 45 -21 29 -6 29 -6 11 14 -11 12 -31 21 -45
21 -22 0 -23 -2 -11 -14z"/>
<path d="M3074 7942 c-91 -85 -91 -81 -35 -130 49 -41 49 -41 92 -2 42 39 42
39 25 104 -23 84 -22 84 -82 28z"/>
<path d="M4533 7973 c-3 -10 -8 -22 -11 -27 -8 -15 160 0 169 16 16 25 9 28
-71 28 -68 0 -82 -3 -87 -17z"/>
<path d="M4710 7970 c0 -22 26 -21 135 6 50 12 50 12 -42 13 -87 1 -93 0 -93
-19z"/>
<path d="M4170 7969 c-14 -4 -43 -7 -64 -8 -36 -1 -44 -12 -11 -17 61 -9 145
-70 145 -106 0 -6 3 -9 6 -6 3 3 -2 23 -12 44 -9 22 -22 53 -28 69 -9 27 -15
30 -36 24z"/>
<path d="M3320 7963 c0 -14 15 -30 38 -42 34 -18 40 -5 12 24 -22 24 -50 34
-50 18z"/>
<path d="M4815 7954 c-33 -7 -72 -13 -87 -14 -30 0 -36 -12 -47 -96 -9 -63
-13 -61 100 -43 65 11 69 13 69 39 0 15 7 49 15 75 17 59 23 54 -50 39z"/>
<path d="M3972 7949 c-73 -7 -77 -10 -62 -39 6 -12 9 -24 6 -27 -3 -3 -8 2
-12 11 -3 9 -12 16 -20 16 -25 0 -15 -19 19 -34 42 -19 90 -63 82 -76 -4 -6
-18 2 -35 20 -15 16 -33 30 -38 30 -16 0 -1 -41 17 -48 9 -3 21 -10 26 -14 6
-5 22 -17 38 -29 15 -11 27 -27 27 -35 0 -11 -11 -6 -37 15 -49 40 -58 39 -31
-4 20 -31 35 -40 60 -36 4 0 12 -15 18 -34 10 -30 15 -34 38 -30 15 2 48 7 75
10 26 4 47 10 47 15 0 13 -30 40 -45 40 -109 0 -177 138 -106 214 36 39 25 45
-67 35z"/>
<path d="M4415 7908 c20 -68 38 -118 41 -118 3 0 44 127 44 136 0 2 -21 4 -46
4 -42 0 -45 -1 -39 -22z"/>
<path d="M4510 7905 c-5 -13 -12 -47 -16 -75 -7 -51 -7 -51 77 -48 93 3 83 -8
103 111 7 37 7 37 -74 37 -76 0 -81 -1 -90 -25z"/>
<path d="M4063 7905 c-51 -35 -37 -120 26 -162 67 -46 131 -13 131 66 0 80
-96 138 -157 96z m9 -58 c-4 -50 -2 -55 28 -80 33 -28 33 -34 -1 -17 -39 21
-57 78 -39 124 14 38 17 32 12 -27z"/>
<path d="M2869 7838 c-19 -29 -56 -81 -82 -116 -49 -64 -50 -69 -14 -109 20
-23 20 -23 74 68 29 50 66 108 83 129 35 44 36 48 13 66 -29 22 -39 17 -74
-38z"/>
<path d="M3259 7871 c-79 -25 -77 -22 -64 -87 13 -67 17 -69 88 -54 53 11 53
11 40 73 -7 34 -11 68 -8 75 2 6 3 12 2 11 -1 0 -27 -8 -58 -18z"/>
<path d="M3344 7851 c3 -5 8 -29 11 -52 4 -31 15 -53 35 -74 40 -40 40 -11 0
35 -35 42 -40 63 -7 32 13 -12 26 -22 30 -22 14 0 -16 60 -38 74 -27 18 -39
20 -31 7z"/>
<path d="M2943 7807 c-42 -57 -133 -213 -133 -226 0 -6 35 -31 78 -56 68 -40
78 -43 84 -28 4 10 30 72 57 137 28 66 48 123 44 126 -5 4 -29 26 -54 48 -46
42 -46 42 -76 -1z"/>
<path d="M5077 7842 c-24 -5 -14 -60 23 -127 33 -61 42 -63 114 -31 50 22 56
28 47 44 -5 10 -13 42 -17 71 -7 52 -7 52 -78 50 -39 -2 -79 -5 -89 -7z"/>
<path d="M5260 7802 c0 -77 15 -89 80 -65 30 11 55 24 57 29 4 11 -50 48 -99
69 -38 15 -38 15 -38 -33z"/>
<path d="M4950 7821 c-89 -20 -93 -28 -60 -126 29 -88 33 -90 127 -70 107 24
107 24 78 65 -13 19 -31 60 -38 90 -16 64 -12 62 -107 41z"/>
<path d="M3128 7791 c-29 -26 -31 -32 -20 -48 27 -39 52 -78 56 -88 7 -19 41
11 41 36 0 20 -5 23 -25 21 -23 -2 -23 -2 -6 11 15 11 17 21 11 55 -8 50 -14
51 -57 13z"/>
<path d="M4245 7791 c-4 -17 -18 -45 -32 -61 -16 -20 -22 -36 -18 -50 7 -22
18 -23 88 -14 45 6 45 6 25 52 -12 25 -29 59 -38 75 -18 29 -18 29 -25 -2z"/>
<path d="M4751 7784 c-90 -16 -84 -8 -71 -89 17 -105 21 -109 93 -101 33 3 77
6 97 6 38 0 38 0 15 58 -13 31 -26 76 -30 100 -4 23 -12 41 -18 41 -7 -1 -45
-8 -86 -15z"/>
<path d="M4460 7754 c0 -8 4 -14 9 -14 5 0 11 -23 15 -51 8 -59 26 -70 134
-87 62 -9 63 -8 58 12 -3 12 -9 52 -12 89 -7 68 -7 68 -105 66 -77 -1 -99 -5
-99 -15z"/>
<path d="M3055 7663 c-85 -208 -84 -192 -8 -206 37 -7 46 3 57 68 4 22 15 61
24 86 16 46 16 48 -9 83 -32 47 -32 47 -64 -31z"/>
<path d="M3360 7712 c0 -22 36 -102 45 -102 15 0 1 61 -20 90 -22 30 -25 32
-25 12z"/>
<path d="M3264 7709 c-21 -6 -34 -17 -38 -33 -3 -14 -15 -28 -27 -31 -17 -6
-20 -12 -14 -33 3 -15 9 -51 12 -79 3 -29 10 -53 15 -53 44 0 111 104 124 193
7 52 -1 57 -72 36z m-4 -89 c-36 -12 -62 -12 -55 0 3 6 23 10 43 9 33 -1 34
-2 12 -9z"/>
<path d="M4285 7653 c-78 -9 -75 -2 -41 -101 30 -89 30 -89 80 -84 64 6 61 -2
40 82 -20 85 -38 107 -79 103z"/>
<path d="M3350 7634 c0 -36 30 -98 42 -86 13 13 4 50 -22 82 -19 24 -20 24
-20 4z"/>
<path d="M2685 7598 c-19 -23 -49 -69 -65 -101 -30 -59 -30 -59 -7 -87 34 -41
70 -66 75 -52 2 7 26 58 53 113 49 101 49 101 22 134 -36 43 -35 43 -78 -7z"/>
<path d="M4120 7628 c-80 -11 -77 -7 -50 -72 12 -30 19 -60 15 -65 -3 -6 -3
-11 2 -11 11 0 34 -51 27 -62 -3 -4 -14 2 -24 14 -19 23 -19 23 -20 0 0 -13 8
-26 18 -29 28 -11 50 -44 69 -105 20 -63 26 -67 96 -47 43 12 46 29 25 131
-12 59 -12 59 -83 54 -70 -6 -70 -6 -8 7 79 17 75 7 44 106 -30 95 -24 92
-111 79z"/>
<path d="M3141 7584 c-15 -56 -14 -85 7 -100 30 -23 35 -16 28 47 -8 85 -21
104 -35 53z"/>
<path d="M3326 7564 c-7 -22 6 -100 19 -112 8 -8 25 18 25 38 0 8 -9 33 -19
55 -16 36 -18 38 -25 19z"/>
<path d="M2755 7467 c-67 -143 -67 -133 10 -168 119 -54 114 -56 159 62 23 59
35 104 29 106 -5 2 -42 24 -82 48 -72 45 -72 45 -116 -48z"/>
<path d="M4390 7518 c0 -26 21 -66 38 -73 24 -9 23 -2 -8 45 -17 26 -30 38
-30 28z"/>
<path d="M3241 7466 c-15 -18 -5 -79 12 -73 15 5 21 52 9 72 -8 15 -10 15 -21
1z"/>
<path d="M2970 7435 c-5 -14 -23 -56 -40 -96 -38 -90 -39 -86 17 -95 63 -9 72
-1 103 98 27 85 27 85 -22 101 -49 15 -49 15 -58 -8z"/>
<path d="M4313 7453 c-38 -5 -39 -10 -15 -103 17 -65 17 -65 54 -62 33 3 40
-1 58 -30 21 -33 21 -33 15 17 -9 75 -27 158 -38 173 -9 12 -14 12 -74 5z"/>
<path d="M3197 7443 c-11 -10 -8 -63 3 -63 6 0 10 16 10 35 0 36 -2 40 -13 28z"/>
<path d="M4417 7409 c5 -20 49 -56 58 -48 6 6 -44 69 -55 69 -4 0 -6 -9 -3
-21z"/>
<path d="M2541 7290 c-49 -136 -49 -139 16 -180 56 -36 63 -37 63 -7 0 13 12
61 26 108 35 113 35 108 -17 156 -45 42 -45 42 -88 -77z"/>
<path d="M4080 7359 c0 -16 48 -79 61 -79 14 0 -32 82 -48 88 -7 2 -13 -2 -13
-9z"/>
<path d="M2676 7263 c-22 -67 -48 -184 -42 -190 10 -11 170 -62 178 -57 4 3 8
13 8 22 0 9 13 57 28 107 28 89 28 89 -53 123 -44 18 -85 35 -91 38 -7 3 -18
-14 -28 -43z"/>
<path d="M4110 7264 c0 -22 29 -54 47 -54 10 0 23 -68 28 -148 4 -55 2 -54 66
-41 53 11 89 29 58 29 -29 0 -62 70 -60 127 1 54 1 54 -35 47 -31 -6 -40 -2
-70 27 -30 29 -34 31 -34 13z"/>
<path d="M4317 7263 c-69 -18 -54 -162 22 -203 23 -12 77 4 85 26 5 13 3 13
-16 -1 -64 -44 -133 32 -113 124 11 52 20 34 17 -33 -3 -60 -2 -66 22 -81 48
-32 104 15 92 77 -15 78 -49 107 -109 91z"/>
<path d="M3010 7137 c-24 -67 -66 -176 -93 -242 -61 -151 -103 -273 -96 -280
16 -15 225 -17 262 -2 37 16 37 16 37 129 0 99 -49 500 -62 513 -2 3 -24 -50
-48 -118z"/>
<path d="M2861 7134 c-40 -128 -41 -124 18 -124 50 0 50 0 79 78 47 121 49
132 19 132 -13 0 -38 3 -55 6 -31 6 -31 6 -61 -92z"/>
<path d="M4120 7186 c0 -26 19 -56 34 -56 19 0 9 34 -15 56 -18 16 -19 16 -19
0z"/>
<path d="M4439 7132 c-2 -36 0 -62 6 -62 17 0 -28 -27 -65 -39 -36 -11 -36
-11 -21 -101 17 -101 12 -97 106 -74 67 17 75 26 51 59 -7 11 -16 37 -20 59
-4 21 -12 50 -18 65 -12 29 -16 44 -27 111 -8 45 -8 45 -12 -18z"/>
<path d="M2480 7087 c-12 -60 -30 -167 -30 -182 0 -12 106 -72 114 -65 2 3 13
52 25 110 18 95 18 106 4 115 -9 6 -35 24 -59 42 -43 32 -43 32 -54 -20z"/>
<path d="M4120 7119 c0 -18 28 -59 41 -59 17 0 9 26 -16 50 -18 17 -25 19 -25
9z"/>
<path d="M3929 7043 c-8 -9 -33 -25 -56 -35 -43 -19 -43 -19 -21 -48 29 -40
26 -85 -9 -122 -48 -50 -28 -108 38 -108 59 0 115 28 159 78 39 46 39 46 33 4
-4 -29 -2 -42 6 -42 19 0 25 30 12 66 -9 26 -9 38 0 56 11 19 30 108 24 108
-1 0 -39 14 -85 30 -98 35 -85 34 -101 13z"/>
<path d="M2615 7013 c-4 -21 -14 -69 -21 -106 -8 -38 -12 -73 -9 -78 8 -12
141 -52 157 -47 9 3 72 211 64 213 -20 6 -156 48 -168 51 -13 5 -18 -2 -23
-33z"/>
<path d="M4120 7044 c0 -12 24 -49 36 -57 8 -4 14 -15 14 -24 0 -9 3 -14 6
-11 10 11 -16 86 -32 92 -19 7 -24 8 -24 0z"/>
<path d="M4500 7030 c0 -22 14 -40 32 -40 27 0 20 30 -9 41 -13 5 -23 4 -23
-1z"/>
<path d="M4255 7008 c-67 -12 -66 -11 -50 -112 17 -107 11 -100 78 -85 87 19
85 11 51 182 -6 29 -6 29 -79 15z"/>
<path d="M2802 6913 c-39 -145 -39 -134 -1 -127 19 4 39 12 46 18 10 9 73 167
73 182 0 2 -22 4 -49 4 -49 0 -49 0 -69 -77z"/>
<path d="M4127 6968 c-2 -7 0 -23 4 -35 5 -13 6 -31 2 -40 -5 -15 -2 -14 17 3
21 21 21 23 6 53 -18 34 -22 37 -29 19z"/>
<path d="M4520 6962 c0 -13 23 -32 39 -32 11 0 10 4 -4 20 -19 21 -35 26 -35
12z"/>
<path d="M4181 6925 c0 -12 -14 -36 -31 -55 -29 -35 -29 -35 -30 5 0 30 -3 36
-12 27 -9 -9 -8 -21 2 -51 7 -22 10 -47 6 -57 -6 -15 -1 -16 35 -11 55 7 57
11 43 92 -6 39 -12 61 -13 50z"/>
<path d="M4552 6885 c12 -27 34 -35 24 -9 -3 9 -6 20 -6 25 0 5 -7 9 -15 9
-12 0 -13 -4 -3 -25z"/>
<path d="M2446 6868 c-10 -30 -28 -217 -22 -227 7 -11 77 -33 84 -26 7 7 52
168 52 187 0 11 -12 24 -27 30 -16 7 -40 20 -56 31 -21 14 -28 15 -31 5z"/>
<path d="M3150 6757 c0 -126 5 -130 111 -101 17 5 -21 104 -40 104 -5 0 -14
12 -20 28 -42 100 -51 94 -51 -31z"/>
<path d="M4497 6844 c-10 -10 -8 -146 2 -162 21 -33 42 17 39 92 -3 68 -17 93
-41 70z"/>
<path d="M4417 6828 c-38 -10 -38 -10 -32 -87 9 -91 4 -85 54 -70 41 12 41 12
41 91 0 85 2 83 -63 66z"/>
<path d="M2576 6791 c-20 -70 -48 -166 -52 -176 -9 -22 86 -39 135 -24 36 11
58 39 31 39 -5 0 -10 5 -10 11 0 6 9 9 19 6 16 -4 21 5 34 54 15 59 15 59 -12
65 -14 3 -52 13 -83 23 -52 16 -58 16 -62 2z"/>
<path d="M4280 6794 c-55 -15 -55 -15 -49 -91 9 -114 55 -146 125 -87 32 28
36 27 -62 10 -16 -3 -5 2 24 11 53 16 53 16 50 92 -3 87 -4 87 -88 65z"/>
<path d="M4032 6780 c-13 -21 -16 -53 -6 -63 12 -12 34 22 34 52 0 36 -10 40
-28 11z"/>
<path d="M4150 6764 c-98 -22 -128 -98 -42 -109 26 -3 62 -10 80 -14 32 -9 32
-9 31 27 -1 100 -8 110 -69 96z"/>
<path d="M2788 6763 c-22 -4 -28 -11 -33 -46 -4 -23 -14 -59 -21 -79 -15 -42
-14 -42 18 -27 30 13 98 162 72 158 -5 -1 -21 -4 -36 -6z"/>
<path d="M3977 6733 c-4 -3 -7 -18 -7 -33 0 -14 -5 -31 -12 -38 -15 -15 48
-17 71 -3 24 16 5 42 -25 35 -24 -6 -25 -5 -15 14 16 30 8 46 -12 25z"/>
<path d="M3934 6722 c-16 -10 -28 -52 -15 -52 10 0 41 39 41 52 0 10 -12 10
-26 0z"/>
<path d="M3855 6680 c-13 -25 -13 -30 -1 -30 15 0 30 16 39 43 11 30 -21 19
-38 -13z"/>
<path d="M3500 6678 c-44 -12 -51 -18 -78 -66 -21 -39 -21 -39 12 -33 20 4 43
17 55 33 35 44 79 52 145 29 63 -22 71 -15 25 23 -33 28 -91 34 -159 14z"/>
<path d="M3360 6651 c-80 -20 -89 -25 -105 -65 -31 -75 -30 -75 17 -65 87 19
106 29 119 62 7 18 21 44 31 60 11 15 16 26 11 26 -4 -1 -37 -9 -73 -18z"/>
<path d="M4546 6661 c-7 -11 37 -23 57 -15 45 17 80 -252 42 -326 -18 -35 -18
-35 3 -16 34 29 45 81 39 167 -10 127 -24 169 -63 185 -38 16 -70 18 -78 5z"/>
<path d="M4413 6653 c-13 -2 -23 -9 -23 -14 0 -12 17 -10 60 6 37 14 17 18
-37 8z"/>
<path d="M4425 6614 c-92 -47 -104 -59 -79 -85 21 -21 21 -21 40 17 14 30 30
43 65 58 122 50 216 -102 167 -267 -14 -48 -86 -127 -114 -127 -14 0 -11 5 13
20 126 76 131 316 7 359 -77 27 -148 -36 -126 -112 31 -104 43 -174 36 -224
-6 -53 -6 -53 45 -53 89 0 126 30 155 130 62 210 -53 365 -209 284z"/>
<path d="M2385 6570 c-23 -75 -8 -119 47 -139 18 -7 54 -20 79 -30 47 -18 47
-18 53 21 5 29 20 53 59 93 29 30 52 55 52 55 -13 0 -76 -28 -97 -43 -29 -21
-62 -20 -37 1 8 7 23 19 34 26 18 13 17 15 -19 25 -48 13 -46 13 -75 -44 -13
-25 -25 -44 -28 -41 -3 3 5 28 19 55 25 50 25 50 -20 66 -25 8 -46 15 -47 15
-1 0 -10 -27 -20 -60z"/>
<path d="M3200 6619 c-91 -18 -107 -32 -126 -111 -6 -26 -4 -28 22 -23 16 3
49 9 74 13 41 7 45 10 56 49 7 22 17 50 23 62 7 11 8 21 4 20 -4 -1 -28 -5
-53 -10z"/>
<path d="M3890 6620 c-58 -4 -159 -10 -225 -14 -183 -11 -193 -18 -182 -135 9
-107 51 -161 125 -161 25 0 62 -12 105 -35 57 -30 83 -37 174 -47 115 -12 129
-17 119 -44 -6 -15 -8 -16 -24 0 -10 9 -35 16 -56 16 -37 0 -37 0 -19 -31 21
-36 97 -89 128 -89 29 0 49 24 74 90 22 56 60 115 61 92 0 -7 -8 -29 -19 -50
-38 -75 -42 -110 -14 -117 42 -10 59 17 97 156 9 31 23 63 33 70 15 13 16 12
8 -6 -4 -11 -18 -57 -31 -103 -22 -81 -22 -82 -3 -92 44 -24 70 16 94 140 14
75 14 75 11 3 -3 -65 -1 -73 15 -73 90 0 55 260 -47 340 -122 97 -174 108
-424 90z"/>
<path d="M2704 6559 c-23 -11 -50 -29 -59 -40 -18 -19 -17 -19 28 -21 26 -1
54 -2 62 -2 9 -1 27 18 41 42 25 42 25 42 -3 42 -15 0 -47 -9 -69 -21z"/>
<path d="M2809 6564 c-17 -19 -39 -58 -39 -68 0 -3 22 -6 49 -6 46 0 51 3 71
36 12 19 25 33 28 30 3 -3 -2 -14 -10 -23 -33 -38 -31 -43 14 -43 39 1 46 5
70 40 28 40 28 40 -20 40 -26 0 -69 3 -97 6 -41 5 -53 3 -66 -12z"/>
<path d="M3030 6558 c-12 -13 -28 -35 -36 -50 -14 -28 -14 -28 20 -28 32 0 34
3 45 44 16 66 9 74 -29 34z"/>
<path d="M3393 6544 c-9 -23 3 -135 18 -167 10 -22 18 -27 35 -23 13 4 26 2
29 -4 4 -6 -5 -10 -20 -10 -26 0 -26 0 -4 -29 49 -67 171 -92 211 -43 12 14 9
15 -21 9 -108 -22 -191 81 -191 235 0 45 -2 48 -25 48 -14 0 -28 -7 -32 -16z"/>
<path d="M3290 6512 c-74 -19 -79 -34 -43 -135 18 -49 18 -49 83 -42 79 8 73
1 55 71 -8 32 -15 73 -15 91 0 18 -3 33 -7 32 -5 0 -37 -8 -73 -17z"/>
<path d="M2601 6468 c-28 -45 -31 -88 -7 -93 113 -26 105 -27 116 19 6 22 15
51 20 62 8 19 5 22 -28 28 -65 10 -87 7 -101 -16z"/>
<path d="M3116 6477 c-59 -10 -59 -10 -53 -66 6 -71 35 -134 56 -126 9 4 42
14 74 22 52 15 58 19 52 37 -4 12 -15 49 -24 83 -11 43 -21 63 -31 62 -8 -1
-41 -6 -74 -12z"/>
<path d="M2741 6448 c-30 -100 -30 -102 45 -112 41 -6 41 -6 48 55 4 33 10 67
13 75 4 11 -6 14 -45 14 -48 0 -51 -1 -61 -32z"/>
<path d="M2860 6455 c-6 -14 -10 -49 -10 -76 0 -49 0 -49 50 -49 50 0 50 0 52
60 0 33 1 66 2 73 1 7 -15 13 -42 15 -38 3 -43 0 -52 -23z"/>
<path d="M2968 6435 c-9 -82 0 -105 43 -105 44 0 45 4 33 94 -6 44 -8 46 -39
46 -30 0 -33 -3 -37 -35z"/>
<path d="M2585 6353 c16 -13 125 -83 128 -83 15 0 -10 63 -27 69 -32 12 -113
23 -101 14z"/>
<path d="M2726 6303 c11 -45 78 -93 129 -93 30 0 -18 104 -51 111 -69 15 -85
11 -78 -18z"/>
<path d="M3018 6322 c-43 -4 -46 -12 -18 -57 28 -45 62 -65 112 -65 42 0 42 0
5 38 -21 21 -35 40 -33 43 15 15 -32 44 -66 41z"/>
<path d="M3333 6321 c-57 -10 -58 -11 -15 -59 37 -43 37 -43 109 -36 72 7 72
7 30 55 -44 50 -50 52 -124 40z"/>
<path d="M2850 6309 c0 -6 10 -33 21 -60 21 -49 21 -49 90 -49 68 0 68 0 33
51 -19 28 -34 55 -34 60 0 5 -25 9 -55 9 -32 0 -55 -4 -55 -11z"/>
<path d="M3192 6290 c-79 -22 -77 -20 -41 -58 32 -34 48 -37 133 -26 55 8 55
8 8 61 -37 41 -37 41 -100 23z"/>
<path d="M3645 6229 c-49 -17 -50 -18 -49 -59 1 -58 6 -60 144 -36 110 18 125
23 125 40 0 15 -13 24 -60 37 -33 10 -68 23 -77 28 -21 13 -20 13 -83 -10z"/>
<path d="M3460 6202 c-55 -3 -55 -3 -24 -17 26 -11 33 -21 39 -53 7 -41 -15
-112 -34 -112 -5 0 -18 -3 -28 -6 -10 -3 -6 2 9 10 26 16 46 52 34 63 -3 4 -6
0 -6 -9 0 -23 -36 -50 -67 -50 -64 0 -93 92 -46 144 18 20 17 20 -27 13 -25
-4 -51 -12 -57 -17 -15 -12 -17 -58 -3 -58 19 0 10 -18 -12 -24 -13 -3 -54
-37 -93 -76 -70 -71 -70 -71 -20 -65 28 3 124 12 214 20 221 20 211 17 211 74
0 27 -7 70 -15 96 -8 27 -12 51 -10 53 7 8 45 -78 45 -103 0 -28 12 -32 30
-10 11 13 10 18 -2 28 -9 7 -19 33 -23 60 -6 43 -8 47 -33 45 -15 -1 -52 -3
-82 -6z"/>
<path d="M3146 6171 c-13 -23 34 -77 60 -67 30 12 13 59 -24 67 -18 4 -34 4
-36 0z"/>
<path d="M3358 6170 c-9 -6 -19 -24 -23 -40 -14 -62 49 -105 88 -62 45 49 -11
112 -58 66 -9 -9 -18 -14 -21 -11 -11 11 38 48 59 45 12 -2 32 -18 44 -37 24
-35 32 -26 12 12 -20 38 -63 49 -101 27z"/>
<path d="M4379 6173 c-26 -3 -40 -11 -53 -33 -22 -39 -51 -53 -89 -46 -21 4
-36 1 -48 -10 -12 -11 -29 -15 -51 -11 -19 2 -45 -2 -62 -10 -36 -19 -67 -11
-136 34 -54 36 -54 36 -180 20 -69 -10 -126 -21 -128 -26 -2 -6 -16 -26 -33
-47 -29 -37 -29 -37 -4 -60 26 -24 33 -62 14 -81 -5 -5 -9 -32 -7 -59 3 -49 3
-49 78 -71 90 -26 201 -29 285 -8 88 22 291 126 366 189 56 46 196 204 187
211 -7 6 -106 11 -139 8z"/>
<path d="M3345 5944 c-232 -18 -284 -27 -361 -65 -107 -53 -168 -146 -110
-169 20 -7 26 -18 31 -65 4 -30 11 -58 16 -61 24 -15 3 -24 -56 -24 -65 0 -65
0 -65 -84 0 -99 7 -106 91 -86 40 10 47 15 38 26 -6 7 -7 19 -3 25 4 7 6 31 6
55 -1 23 2 46 8 49 5 3 10 14 10 24 0 25 32 51 62 51 14 0 33 9 43 20 21 24
38 25 55 5 8 -9 22 -12 41 -8 23 4 33 0 49 -20 11 -13 31 -28 44 -31 17 -4 26
-15 31 -38 4 -18 14 -41 23 -51 14 -15 14 -23 3 -53 -10 -26 -10 -39 -2 -47
17 -17 13 -47 -9 -65 -18 -14 -22 -35 -30 -136 -9 -110 -30 -267 -46 -342 -6
-31 -5 -32 57 -53 109 -37 97 -55 158 234 73 341 115 587 144 839 4 28 4 28
-42 22 -25 -3 -129 -13 -230 -21 -215 -17 -242 -24 -339 -77 -40 -22 -76 -37
-79 -34 -8 8 -9 7 67 49 97 53 150 65 378 82 229 18 267 25 267 46 0 19 -43
20 -250 3z"/>
<path d="M4175 5821 c-49 -26 -116 -55 -147 -65 -58 -18 -58 -18 -58 -83 0
-57 2 -64 15 -53 8 7 12 16 9 21 -3 5 3 6 12 2 12 -4 15 -3 10 5 -4 7 -3 12 3
12 5 0 39 23 75 50 36 28 66 46 66 41 0 -5 -27 -31 -59 -56 -126 -99 -141
-126 -151 -277 -22 -317 -6 -666 45 -969 9 -52 20 -155 24 -229 9 -138 57
-344 177 -760 82 -285 84 -290 102 -290 25 0 42 -20 42 -47 0 -23 0 -23 149
-23 149 0 149 0 115 93 -19 50 -52 153 -75 227 -22 74 -75 236 -116 360 -72
215 -76 231 -83 345 -4 66 -12 134 -19 150 -48 117 -66 603 -31 830 31 201 37
389 16 554 -30 233 -17 215 -121 162z m-178 -441 c-3 -82 -10 -157 -17 -167
-10 -17 -11 -17 -6 2 2 11 8 86 11 168 4 81 10 147 13 147 3 0 2 -67 -1 -150z
m252 -1167 c0 -12 -137 -78 -145 -71 -3 4 25 23 62 42 72 37 84 41 83 29z"/>
<path d="M3586 5758 c-3 -7 -12 -69 -21 -138 -20 -152 -60 -373 -81 -455 -13
-46 -18 -139 -24 -405 -7 -345 -7 -345 -55 -505 -66 -219 -72 -259 -56 -348
28 -145 26 -201 -12 -388 -36 -173 -60 -341 -73 -494 -6 -81 -6 -81 140 -158
154 -81 262 -120 275 -99 4 6 15 94 25 194 50 512 78 693 120 776 69 137 76
221 50 647 -3 56 1 137 11 215 10 79 19 277 25 533 9 353 12 413 27 440 10 18
17 38 16 45 0 6 -1 34 -2 60 -1 48 -1 48 -103 48 -69 0 -123 6 -163 18 -33 9
-68 19 -78 22 -9 3 -19 -1 -21 -8z m132 -1728 c35 0 72 5 82 10 11 6 21 6 24
1 9 -13 -50 -31 -104 -31 -39 0 -99 8 -180 25 -8 2 -18 4 -22 4 -5 1 -8 5 -8
10 0 5 33 2 73 -5 39 -8 100 -14 135 -14z"/>
<path d="M3058 5620 c-9 -13 -24 -20 -45 -20 -30 0 -33 -3 -33 -29 0 -16 -6
-31 -15 -35 -18 -6 -20 -37 -3 -54 8 -8 8 -15 -1 -26 -18 -22 8 -136 30 -136
5 0 9 -7 9 -15 0 -8 9 -20 20 -27 11 -7 20 -19 20 -26 0 -19 25 -25 49 -12 15
8 27 8 42 -1 17 -9 23 -7 36 10 10 14 25 21 49 21 31 0 34 2 34 31 0 19 8 37
21 48 19 15 20 20 8 39 -11 17 -11 28 -1 54 10 28 9 35 -8 53 -11 12 -20 33
-20 48 0 18 -5 27 -15 27 -26 0 -64 30 -58 46 6 17 -1 18 -27 2 -15 -10 -22
-9 -38 5 -24 22 -39 21 -54 -3z m75 -81 c12 -6 35 -25 50 -43 16 -17 25 -25
21 -17 -4 8 -3 12 3 8 5 -4 10 -21 11 -39 4 -113 -88 -181 -173 -128 -123 76
-40 284 88 219z"/>
<path d="M3075 5532 c-76 -16 -94 -140 -28 -191 44 -36 106 -22 136 29 19 31
22 70 7 70 -5 0 -10 6 -10 14 0 40 -63 86 -105 78z"/>
<path d="M2878 5358 c-9 -7 -19 -35 -22 -63 -4 -27 -10 -65 -13 -84 -6 -34 -6
-34 50 -28 100 10 140 44 99 85 -10 10 -27 37 -38 60 -20 44 -45 54 -76 30z"/>
<path d="M3235 5250 c-3 -5 -15 -10 -26 -10 -11 0 -30 -7 -44 -16 -17 -11 -29
-13 -43 -5 -13 7 -22 7 -30 -1 -9 -9 -18 -9 -36 0 -23 10 -25 9 -31 -31 -4
-23 -16 -78 -27 -122 -34 -132 -46 -195 -38 -195 5 0 29 16 54 35 57 43 46 44
105 -15 66 -66 76 -65 90 13 38 214 51 388 26 347z"/>
<path d="M2940 5156 c-34 -12 -35 -14 -42 -82 -9 -84 -4 -104 26 -104 23 0 29
14 73 183 5 20 -8 21 -57 3z"/>
<path d="M3917 4655 c-23 -211 -23 -204 23 -338 22 -63 40 -128 40 -144 0 -15
9 -66 20 -113 15 -66 20 -123 20 -255 0 -215 8 -262 77 -468 68 -204 69 -205
114 -187 53 21 53 21 20 136 -16 60 -33 126 -37 147 -5 29 -9 35 -16 25 -7 -9
-7 -3 -3 17 4 16 3 26 -1 22 -9 -9 -24 47 -109 394 -38 156 -55 245 -55 290 0
35 -13 163 -30 284 -16 121 -33 249 -37 285 -8 65 -8 64 -26 -95z"/>
<path d="M4621 3230 c6 -16 15 -30 20 -30 13 0 11 34 -3 48 -21 21 -27 13 -17
-18z"/>
<path d="M4650 3176 c0 -67 25 -85 132 -93 43 -3 78 -9 78 -14 0 -15 -57 -19
-125 -10 -39 6 -143 14 -233 17 -162 7 -162 7 -148 -27 14 -34 14 -34 178 -46
89 -6 200 -15 246 -19 93 -8 122 5 122 57 0 32 -15 44 -131 107 -78 43 -119
53 -119 28z"/>
<path d="M4205 3121 c-78 -35 -81 -69 -13 -146 39 -45 40 -45 104 -45 35 0 64
3 64 8 0 4 -11 39 -25 77 -13 39 -25 82 -25 98 0 34 -42 37 -105 8z"/>
<path d="M2986 3059 c-46 -36 -36 -72 38 -145 47 -46 66 -72 71 -101 5 -21 11
-278 14 -572 6 -534 6 -534 49 -547 24 -7 52 -20 63 -30 35 -31 534 24 514 56
-10 16 28 852 42 939 6 34 6 34 -28 14 -92 -57 -144 -48 -339 55 -69 36 -165
87 -215 112 -109 55 -142 99 -114 147 12 22 22 28 47 27 43 -2 32 12 -32 42
-63 29 -76 30 -110 3z m280 -506 c50 -50 78 -191 51 -253 -15 -33 -16 -33 -9
-5 19 83 -4 198 -48 245 -29 32 -24 42 6 13z"/>
<path d="M3764 3068 c-24 -11 -34 -64 -34 -178 0 -65 0 -65 46 20 48 90 79
130 101 130 21 0 15 -18 -12 -36 -15 -9 -51 -66 -87 -136 -74 -143 -82 -149
-171 -124 -58 16 -297 135 -422 211 -61 36 -85 36 -85 1 0 -35 32 -57 225
-160 200 -107 269 -136 321 -136 38 0 100 27 126 57 18 20 108 227 108 249 0
17 20 18 20 2 1 -8 6 -5 15 5 48 64 -67 136 -151 95z"/>
<path d="M4133 2948 c-69 -130 -77 -162 -49 -195 23 -26 46 -25 46 2 0 8 18
49 40 92 40 77 40 78 22 102 -27 36 -39 36 -59 -1z"/>
<path d="M4378 2948 c-3 -32 -3 -32 -73 -34 -77 -3 -81 -5 -121 -89 -35 -74
-32 -92 58 -289 98 -218 166 -386 210 -523 37 -116 32 -112 150 -115 77 -3 89
-1 110 19 26 24 88 44 116 37 11 -3 63 26 142 81 166 115 166 115 147 151 -17
34 -218 635 -237 709 -13 51 -13 51 -149 68 -75 9 -184 17 -243 17 -107 0
-107 0 -110 -32z m96 -188 c19 -17 44 -47 55 -68 23 -40 14 -32 -40 36 -10 13
-35 32 -56 43 -29 15 -32 19 -15 19 12 0 37 -14 56 -30z m200 -34 c65 -66 90
-217 42 -264 -16 -16 -16 -15 -1 20 40 98 -12 242 -98 267 -31 9 -31 9 -5 10
19 1 38 -10 62 -33z"/>
<path d="M5040 2056 c-80 -55 -156 -108 -169 -116 -20 -14 -21 -18 -10 -43 18
-39 36 -33 191 64 157 99 202 138 181 161 -37 41 -42 40 -193 -66z"/>
<path d="M5246 2071 c-10 -16 -208 -146 -293 -193 -55 -30 -73 -45 -70 -57 3
-9 22 -63 43 -119 38 -104 38 -104 73 -98 20 3 88 10 151 16 119 11 199 28
266 56 90 38 353 159 399 184 28 15 95 51 150 80 55 29 102 54 104 56 9 7 -42
62 -63 68 -13 3 -73 -6 -132 -19 -171 -40 -384 -44 -504 -10 -9 3 -24 -9 -37
-28 -13 -17 -23 -27 -23 -21 0 5 7 19 15 30 20 27 19 31 -12 42 -16 5 -35 13
-44 17 -10 3 -20 2 -23 -4z"/>
<path d="M3033 2033 c-32 -4 -33 -6 -33 -48 0 -25 -6 -50 -14 -58 -9 -8 -12
-24 -9 -36 3 -11 0 -28 -7 -36 -10 -12 -10 -18 0 -30 8 -9 10 -28 6 -50 -6
-28 -3 -37 14 -47 13 -8 20 -23 20 -44 0 -19 9 -39 23 -52 23 -22 23 -22 39
23 17 44 16 46 -3 64 -12 11 -23 37 -26 63 -3 23 -10 49 -16 56 -7 9 -2 12 22
12 31 0 31 0 31 95 0 52 -3 94 -7 93 -5 0 -23 -3 -40 -5z"/>
<path d="M5875 1874 c-405 -209 -531 -256 -744 -279 -126 -13 -126 -13 -36
-16 158 -6 202 -1 326 41 193 64 695 316 686 343 -8 24 -36 13 -232 -89z"/>
<path d="M4400 1931 c0 -9 41 -23 48 -16 2 2 1 8 -3 14 -8 13 -45 15 -45 2z"/>
<path d="M4750 1917 c-32 -17 -34 -87 -3 -118 19 -19 21 -19 61 -4 50 20 54
29 33 85 -18 50 -45 61 -91 37z"/>
<path d="M4385 1900 c-14 -23 7 -81 44 -120 46 -48 73 -51 195 -18 99 26 92
20 78 66 -12 39 -12 39 -114 45 -94 6 -133 13 -179 32 -10 3 -20 1 -24 -5z"/>
<path d="M3062 1812 c-9 -15 -10 -28 -3 -40 12 -22 25 3 19 40 -3 23 -3 23
-16 0z"/>
<path d="M4823 1783 c-41 -20 -41 -18 2 -128 46 -117 55 -129 94 -120 17 4 31
9 31 12 0 14 -85 253 -90 252 -3 0 -20 -8 -37 -16z"/>
<path d="M4640 1744 c-41 -13 -85 -24 -98 -24 -23 0 -22 -2 19 -81 77 -144 81
-147 175 -115 116 39 111 28 65 142 -46 115 -46 115 -161 78z"/>
<path d="M3785 1720 c-4 -6 -1 -33 5 -61 15 -62 36 -60 32 2 -4 47 -24 80 -37
59z"/>
<path d="M3705 1681 c-34 -14 -235 -40 -359 -47 -117 -7 -117 -7 -114 -43 3
-36 3 -36 131 -34 121 2 357 26 391 39 17 6 20 33 10 72 -7 23 -24 27 -59 13z"/>
<path d="M3090 1629 c-6 -23 -10 -42 -8 -43 2 -1 18 -14 36 -29 50 -40 62 -36
62 23 0 30 4 50 11 50 7 0 10 -18 7 -50 -1 -28 0 -50 5 -50 4 0 7 27 7 59 0
57 -1 59 -31 70 -60 21 -77 15 -89 -30z"/>
<path d="M3625 1554 c-44 -7 -149 -16 -233 -20 -152 -7 -152 -7 -161 -43 -6
-20 -17 -63 -26 -96 -37 -138 -41 -117 38 -190 125 -114 257 -155 501 -155
156 0 314 14 330 30 17 17 -18 75 -93 156 -42 44 -114 137 -161 207 -49 72
-91 126 -100 125 -8 0 -51 -7 -95 -14z"/>
<path d="M3085 1476 c-8 -97 -7 -100 41 -116 43 -15 40 -18 59 61 9 35 18 71
21 80 3 12 -2 15 -23 12 -33 -5 -87 13 -78 26 3 5 1 12 -4 15 -5 4 -12 -31
-16 -78z"/>
<path d="M4985 1550 c-4 -6 -4 -25 -1 -43 6 -32 6 -32 -9 1 -15 32 -15 32 -45
17 -29 -15 -30 -16 -15 -45 21 -41 22 -41 115 -5 84 33 93 42 68 72 -13 15
-104 17 -113 3z"/>
<path d="M4775 1510 c-117 -42 -109 -33 -80 -90 18 -35 31 -50 45 -50 38 0
181 61 173 73 -56 97 -57 97 -138 67z"/>
<path d="M3127 1333 c-4 -3 -7 -35 -7 -69 0 -73 0 -73 150 -163 148 -90 332
-127 590 -118 166 5 223 19 228 56 3 21 1 23 -25 16 -111 -28 -414 -32 -538
-6 -143 30 -190 52 -287 136 -87 75 -97 88 -78 100 18 11 12 55 -8 55 -10 0
-22 -3 -25 -7z"/>
</g>
</svg>
