<?xml version="1.0" encoding="utf-8"?>
<!-- Generator: Adobe Illustrator 29.8.7, SVG Export Plug-In . SVG Version: 9.03 Build 0)  -->
<svg version="1.0" id="WOODY" xmlns="http://www.w3.org/2000/svg" xmlns:xlink="http://www.w3.org/1999/xlink" x="0px" y="0px"
	 viewBox="0 0 786 1218" style="enable-background:new 0 0 786 1218;" xml:space="preserve">
<style type="text/css">
	.st0{fill:#B88728;}
	.st1{fill:#1C1D1B;}
	.st2{fill:#83573E;}
	.st3{fill:#381E14;}
	.st4{fill:#225372;}
	.st5{fill:#DCD4CA;}
	.st6{fill:#A1251C;}
	.st7{fill:#DFAE8D;}
</style>
<path id="CONTORNO" d="M584.16,1011c-24,5.6-49,2.7-58.3-6.5c-3.3-3.3-5.2-4.5-7.5-4.5c-2,0-3.1-0.6-3.5-1.8
	c-0.3-0.9-2.9-8.5-5.9-16.7c-3-8.3-8.5-24.8-12.2-36.7c-6.8-21.7-6.8-21.7-4.7-26.2c3.9-7.9,2.6-9.6-13.8-18.2
	c-6-3.1-10.5-6.2-12.3-8.6c-1.7-2-3.8-3.8-4.7-4.1c-1.2-0.3-2.5-3-4-8.3c-1.3-4.3-6.5-20.8-11.7-36.6c-9-27.5-9.4-29.2-9.4-37.6
	c0-5-0.7-11.3-1.6-14.7c-3.9-14-4.5-19.5-5.1-44c-0.5-23.2-0.4-26.1,1.8-39.5c3.1-19.1,3.2-47.4,0.2-65c-2-11.4-2-11.4,7.7-21
	c5.3-5.2,11.3-12,13.2-15c2-3,6.8-8.6,10.7-12.5c8.8-8.7,9.8-11.9,8.2-25.7c-1.8-14.5-3.3-17.1-10.8-19c-4.3-1-4.3-1-4.3-6.9
	c0-4.9,0.3-5.9,2-6.4c2.3-0.7,2.8-6.1,1-9.6c-0.6-1-1.3-6.1-1.6-11.2c-1.7-30.7-4.3-51.4-7-55.9c-0.5-0.7-0.2-0.9,0.9-0.5
	c13.9,5.3,47,3.5,66-3.7c10.8-4.1,26.1-10.7,27.4-11.8c0.8-0.6,1.8-2.9,2.4-5.2c1.1-4.4,1.9-5,15.6-13.6
	c8.9-5.5,15.2-15.9,18.9-31.5c3.8-16.3-0.4-47.6-11.5-85.5c-2.8-9.6-5.6-20.1-6.1-23.3c-1.1-6.7-2.8-9.1-7.5-10.7
	c-4.5-1.5-5.2-7.4-2.5-21.2c2.2-11.1,2.7-31.7,0.9-38.1c-1.1-4-12-15.7-14.6-15.7c-0.7,0-4.7-3.2-8.9-7.2
	c-8.5-8.1-10.8-8.7-18.7-4.9c-5.7,2.8-16.4,3-17.4,0.3c-2.3-6.1-5.2-8.1-12.5-8.4c-7.1-0.3-7.1-0.3-8.5-4.3
	c-0.7-2.2-2.3-4.8-3.4-5.7c-2.1-1.8-2.1-1.8,0.5-18.5c5.3-34.6,5.1-36.1-5.6-43c-22-14.3-58.3-28.7-96.8-38.4
	c-18.9-4.8-23.6-5-27.2-1.2c-3.2,3.5-11.4,14.9-19.8,27.4c-6.5,9.7-6.5,9.7-11.5,6.7c-2.7-1.6-6.9-3.8-9.3-5
	c-2.3-1.1-5.2-3.3-6.3-4.9c-1.1-1.6-2.7-2.9-3.5-2.9c-0.8,0-1.4-0.6-1.4-1.4c0-3.1-3.2-4.1-13.4-4.2c-8.8-0.1-10.9-0.5-15.8-2.8
	c-6.4-3-9.7-2.4-16,2.9c-2.7,2.3-2.8,2.5-0.8,2.5c2.3,0,5.7-1.6,7.8-3.7c1.5-1.5,6.2-1.8,6.2-0.4c0,0.5-1.7,1.5-3.7,2.1
	c-5.6,1.8-8.3,3.8-8.4,6.3c-0.1,2-0.2,2-1.2-0.5c-1.2-3-6.6-6.1-9.9-5.6c-2.1,0.3-3,1.4-4.8,5.8c-0.5,1.4-1.9,3.7-3.1,5.1
	c-2.9,3.7-0.6,8,10.8,20c16.4,17.2,41.2,34.1,60.6,41.4c2.6,1,4.6,2.1,4.4,2.4c-7.5,13.5-10.3,25.1-12.2,51.4
	c-0.8,11.5-1.7,21.3-2.1,21.8c-0.8,1.4,2.3,17,5,24.6c1.3,3.8,5.2,14.2,8.6,23.3c4.2,11.1,6.5,18.9,7.1,23.9
	c0.5,4,2.1,10.1,3.5,13.5c4.6,10.7,10.4,37.4,10.4,47.6c0,4.9-3.3,5.8-10,2.8c-11.7-5.2-10.5-5.2-26.9,0.2
	c-17.6,5.8-20.1,6.9-20.1,8.6c0,3.1,11.8,9.6,19.8,10.9c4.3,0.7,4.3,0.7-1.7,6.4c-8.9,8.2-8.1,10.1,4.5,10.1
	c9.2,0,15.6-3.5,20.7-11.7c3.2-5,6.7-8.1,6.7-6c0,0.4-6.6,8-11.3,13.1c-2.2,2.3-6.1,8.7-8.8,14.3c-5.7,11.9-14.9,25.9-24.8,37.6
	c-15.3,18.2-24.7,44-29.5,81.2c-1.7,13.3-3.2,21-5,25.8c-4.9,12.8-2.8,17.7,9.6,22.1c3.5,1.2,9.9,4.9,14.3,8.1
	c15.7,11.4,26.7,15.1,41.5,14c8.5-0.7,8.5-0.7,9.8,2.9c0.7,2,2.2,4.1,3.4,4.7c3,1.6-9.2,14.2-18.3,18.6
	c-13.7,6.7-19.4,17.9-11.3,22.1c1.5,0.8,2.3,2.3,2.6,5.1c0.3,3.9,0.3,3.9-4.4,4.5c-5.8,0.8-5.6,0.5-6.4,10.5
	c-0.7,8.5,0.6,12.1,4.4,12.1c1.2,0,1.3,1.1,0.7,6.7c-1.2,11.9-1.3,11.7,2,13.2c3,1.5,3,1.5,2.6,10.9c-0.3,10.1,0.1,11.2,4.6,11.2
	c2.1,0,2.2,0.3,1.6,5.2c-0.6,5.1-0.6,5.1,2.8,4.4c1.8-0.3,5-2,7-3.6c3.4-2.7,3.7-2.8,4.2-1c0.9,3.6,22.8,15,28.7,15
	c1.6,0,4.3-4.9,5.6-10.3c1.2-4.6,1.3-2.5,1,18.8c-0.3,26.2,0,24.1-9.5,54.9c-2.5,8.1-2.6,14.3-0.6,24.9c2.2,11.4,1.9,15.2-2.4,36.8
	c-2.2,10.7-4.7,26.8-5.7,35.9c-2,19.2-1.5,17.6-4.9,15.4c-2-1.3-2.5-2.3-2.1-4c1.2-4.7-11.8-10.5-17.9-8c-8.6,3.6-8.5,12.1,0.3,19.7
	c8,7,7.7,4.8,8,46.6c0.4,37.3,0.4,37.3-2.8,37.3c-5.3,0-7,1.5-7,6.4c0,3.3-0.4,4.5-1.8,4.8c-1.5,0.4-1.7,1.5-1.6,6.9
	c0.2,14,0.4,14.9,2.4,16.6c1.1,1,2,2.7,2,3.9c0,1.2,1.6,4.1,3.6,6.5c3.5,4.2,3.5,4.2,3.2,14c-0.2,7.8,0.1,10.1,1.4,11.6
	c1,1.2,1.7,4.3,2,9c0.3,5.2,0.9,7.7,2.3,9.2c2.8,3.2,18.9,13.1,25.4,15.7c16.9,6.7,58.6,8.4,71.8,2.9c3.1-1.3,3.3-1.7,3.3-6.2
	c-0.1-7-2.7-11.6-12.2-22c-4.7-5-11.7-13.8-15.5-19.5c-7.1-10.4-7.1-10.4-3.2-12.6c3.6-2.1,3.9-2.6,3.9-6.5c0-6.3-1.9-9.2-5.9-9.2
	c-3.4,0-3.4,0-2.7-10.5c0.3-5.8,1.1-23.6,1.6-39.5c1.6-46.5,4-57.9,14.7-69.9c7.3-8,2.1-16.1-10.2-16.1c-9,0-8.4,3.5-4.4-28.5
	c2.9-23.4,3.2-25,7.4-35c2.4-5.8,4.9-12.2,5.5-14.3c1.5-4.7,1.4-29.4-0.1-38.6c-0.5-3.5-0.8-6.5-0.6-6.7c0.8-0.8,4.7,14.2,5.6,21.3
	c0.5,3.9,1.3,7.8,1.7,8.5c0.5,0.7,1.2,11.6,1.5,24.3c0.6,25.8,1.5,30.1,10.3,54.4c4.1,11.2,4.4,12.6,3.1,14.1c-1.7,1.9-2,6.3-0.5,9
	c0.7,1.4,0,3.8-3.5,10.6c-5.6,10.9-5.9,15-1.4,18.8c1.7,1.4,3.8,2.6,4.8,2.6c2,0,18.1,35.5,26.2,58c5.7,15.6,5.5,14.8,2.7,15.2
	c-1.4,0.2-3.1,1.7-4.3,4.1c-2.6,4.9-10.5,10.8-10.5,7.9c0-2.5-2.3-4.4-4.8-4c-1,0.2-3.1-0.3-4.5-1.1c-3.1-1.6-6.7,0.6-6.7,4.1
	c0,1.7-0.2,1.7-2.9,0.4c-3.4-1.8-5.1-0.6-5.1,3.5c0,2.2-0.6,2.9-3,3.4c-3.4,0.8-3.6,1.4-1.4,5.6c1.4,2.8,1.4,3.2,0,4.8
	c-2.1,2.3-2,3.3,0.4,5.4c1.2,1,2,2.9,2,4.7c0,2.7,0.3,3,3,3c2.5,0,3,0.4,3.6,3.5c0.8,4.3,1.6,4.9,4,2.9c1-0.9,1.3-1.3,0.7-0.9
	c-0.7,0.3-1.3,0.1-1.3-0.4c0-1.7,1.5-1.3,3.5,0.9c2,2.2,7.1,2.7,7.8,0.7c0.2-0.6,1.9-1.2,3.8-1.2c2.9,0,3.4-0.4,3.9-2.8
	c0.3-1.6,1.5-3.3,2.9-4c2.36-1.14,4.11-5.11,3.37-6.75c0.09-0.04,0.18-0.1,0.22-0.19c0.34-0.66,0.37-1.43,0.35-2.15
	c-0.01-0.31-0.03-0.63-0.05-0.94c0-0.02,0-0.05,0-0.07c-0.02-0.32-0.03-0.64,0-0.96c0-0.05,0.01-0.1,0.01-0.15
	c1.25-0.27,2.2-1.88,2.2-4.49c0-3.5,2.6-4.7,4.2-2c0.8,1.2,2.4,2,3.8,2c2.3,0,3.2,1.2,7.4,9.4c2.6,5.2,6.2,11.1,8,13.2
	c1.8,2.2,4.6,6.4,6.1,9.4s3.2,5.8,3.8,6.2c1.4,0.8,8.6-1.4,25.1-7.8c16.3-6.3,18.6-7.6,18.6-10.8c0-2.3,0.3-2.4,9.3-2.8
	c7.9-0.4,11-1.1,21.7-5.2c14.2-5.3,58.3-26.8,64.8-31.5c4.9-3.6,4.9-3.8-2.6-11.9C602.56,1008,599.06,1007.6,584.16,1011z
	 M308.46,556.7c-3.7,1.5-24.6,1.3-26.2-0.2c-0.7-0.7,3.5-12.9,9.6-28c2.7-6.6,6.9-17.5,9.3-24.2c2.4-6.8,4.6-12.1,4.8-11.8
	c1.3,1.3,6.2,41.4,6.2,51.3C312.16,555.1,312.16,555.1,308.46,556.7z M418.36,385.4c-3.9-7.8-5.7-9-18.9-12.4
	c-5.8-1.5-6.1-5-0.6-6.9c9-3.3,18-17.3,22.9-35.6c1.4-5.5,3.7-13.9,5-18.6c1.3-4.8,4.9-15.4,8.1-23.5c5.8-14.9,5.8-14.9,5.5-30.9
	c-0.2-18.7,0.6-23.6,6.1-36.7c4-9.7,4-9.7,6.8-8.3c3.8,2,18.8,4.5,27,4.5c5,0,6.9,0.4,6.9,1.3c0,0.7,2,3.2,4.4,5.6
	c3.3,3.3,5.1,6.2,7.1,11.8c3.3,9.3,4.6,11.5,12,19.8c6.6,7.4,9.1,11.9,10.1,18.1c0.6,4,0.4,4.4-4,8.4c-4.9,4.6-5.6,6.9-3.6,14
	c0.5,1.9,1.4,8.1,1.9,13.8c1.3,12.2,2.9,16.7,6.4,17.6c2.2,0.5,2.7,1.5,3.7,6.4c1.4,6.7,3.7,12.2,7.3,17.5
	c3.8,5.5,5.1,15.4,4.3,31.7c-0.9,17.8-2,29.7-2.7,30.4c-0.8,0.8-31.1,1.8-59.4,2c-24,0.1-24,0.1-32.7-4.3c-4.9-2.4-8.8-5-8.8-5.7
	s-2.6-4.2-5.9-7.6C424.06,394.3,420.06,388.8,418.36,385.4z"/>
<g id="ORO">
	<path class="st0" d="M429.98,1035.5c-2.5,1.9-6.4,4.4-8.8,5.6c-7.8,3.9-9.9,5.9-9.6,8.7c0.7,5.5,6.4,5.4,12.7-0.3
		c2.1-1.9,4.4-3.5,5-3.5c1.9,0-6.4,6.9-10.3,8.5c-4.9,2.1-8.9,0.4-9.4-3.8c-0.4-3.5,1.5-5.8,7.7-9.3c5.9-3.4,5.5-3,5.7-6.5
		c0.2-2.4-0.1-2.9-1.3-2.4c-0.9,0.3-2.4-0.2-3.4-1.1c-2.4-2.2-5.2-1.4-5.9,1.6c-0.6,2.2-1.1,2.5-4.3,2.3c-3-0.2-3.7,0.1-3.7,1.6
		c0,3.3-1.1,5.1-3.1,5.1c-2.3,0-2.4,1.7-0.3,4.1c1.4,1.6,1.4,2-0.2,4.4c-1.6,2.5-1.6,2.8-0.2,3.9c0.9,0.7,1.8,2.3,2,3.6
		c0.2,1.9,0.9,2.4,2.5,2.3c1.6-0.2,2.3,0.4,2.5,2c0.2,1.7,1.1,2.3,3.5,2.5c2,0.2,3.7,1.1,4.3,2.3c1.3,2.4,4,2.5,4.7,0.1
		c0.3-1.4,1.2-1.7,3.2-1.4c2.4,0.3,2.9,0,3.5-2.2c0.4-1.6,1.5-2.8,3.1-3.2c1.4-0.3,2.5-1.4,2.5-2.3c0-1.69,0.86-3.31,1.79-3.75
		c-0.06-0.14-0.11-0.29-0.14-0.45c-0.07-0.34-0.1-0.7-0.09-1.05c0-0.4,0.05-0.79,0.11-1.19c0.05-0.35,0.13-0.69,0.24-1.02
		c0.06-0.19,0.14-0.38,0.22-0.56c-0.38-0.25-0.76-0.6-1.13-1.09c-2.1-2.7-0.9-4,1.7-1.8c1.5,1.1,1.6,1,1-1.1c-0.4-1.6,0-3.3,1.3-5
		c1.6-2.4,1.7-3,0.5-5.9C436.18,1031.2,435.57,1031.2,429.98,1035.5z"/>
	<path class="st0" d="M544.28,289.1c-8.8,2.6-7.9,2-7.2,4.7c0.7,2.7,2.7,2.8,9.5,0.2c12.1-4.6,17.3-10.9,13.1-15.8
		c-1.8-2-6.3-3.9-6.3-2.7c0,0.3,0.5,1.5,1.1,2.6c1,2,1.1,2,2.4,0.2c1.4-1.7,1.4-1.7,1.5,0C558.38,282,552.18,286.7,544.28,289.1z"/>
	<path class="st0" d="M518.88,283.6c-3,2.8-3,2.8,0.3,3.8c4,1.1,4.7,0.5,3.6-3.5C521.88,280.8,521.88,280.8,518.88,283.6z"/>
	<path class="st0" d="M558.78,304.6c2.1,6.4,2.1,6.4,5,4.1c2.9-2.4,2.9-2.4,0.6-11.5c-1.2-5.1-2.3-9.2-2.4-9.2c0,0-1.6,1-3.4,2.1
		C554.88,292.5,554.88,293.1,558.78,304.6z"/>
	<path class="st0" d="M518.18,290.2c-2.6-1.1-2.8-1-2.8,1.1c0,3.2,1.2,4.6,4.8,5.6c2.9,0.9,3.2,0.8,3.2-1.3
		C523.38,293.1,522.38,292,518.18,290.2z"/>
	<path class="st0" d="M529.78,292c-4,0-5.4,0.4-5.4,1.4c0,3.3,1.3,4.6,4.4,4.6c5.7,0,7.3-0.9,6.8-3.6
		C535.18,292.2,534.68,292,529.78,292z"/>
	<path class="st0" d="M546.38,295.9c-4.1,1.4-7.6,2.5-7.8,2.7c-0.2,0.1,1.1,4.7,2.8,10.2c3.6,11.3,2.6,10.8,12.4,6.2
		c6.1-2.9,6.1-2.9,2.8-13C553.88,293.5,553.88,293.5,546.38,295.9z"/>
	<path class="st0" d="M519.28,298.6c-2.6-0.6-2.7-0.5-1.9,2.7c0.4,1.7,1.9,4.9,3.3,7c1.4,2,2.8,5.5,3.2,7.7c0.6,3.6,1,4,3.5,4
		c2.8,0,2.8,0,1.4-4.8c-0.8-2.6-2-6.8-2.5-9.5C525.18,300.9,524.08,299.8,519.28,298.6z"/>
	<path class="st0" d="M529.68,299.7c-1.8,0.2-3.3,0.5-3.3,0.6c0,0.1,0.8,3.4,1.9,7.2c1,3.9,2.2,8.3,2.5,9.9c0.7,2.8,0.8,2.9,5.8,2.3
		c6.6-0.8,6.4-0.1,3.2-11.1C536.88,298.2,537.48,298.7,529.68,299.7z"/>
	<path class="st0" d="M564.48,321.5c3.7,10.8,3.9,11.1,7,8.6c2.3-1.9,2.3-1.9-0.6-11.2c-3.5-11.4-3.4-11.3-6.7-8.6
		C561.48,312.5,561.48,312.5,564.48,321.5z"/>
	<path class="st0" d="M518.78,311.2c0.4,1.3,0.9,4.7,1.3,7.5c0.3,2.9,1,5.3,1.4,5.3c1.4,0,1-7.8-0.5-11.5
		C519.28,308.6,517.78,307.7,518.78,311.2z"/>
	<path class="st0" d="M560.38,314.3c0-0.6-1.7,0-8.3,3c-7.8,3.6-7.6,2.8-3.6,15.9c2.3,7.9,2.8,8.1,11.8,4.2c7.1-3.1,7.1-3,3.1-14.4
		C561.68,318.4,560.38,314.5,560.38,314.3z"/>
	<path class="st0" d="M525.78,322.4c-0.6,1.6,3.3,17.6,4.8,19.3c1.4,1.7,6.2,1.7,5.5,0c-0.2-0.7-1.2-4.8-2.2-9.2
		c-1-4.4-2.2-8.8-2.7-9.8C530.18,320.7,526.58,320.4,525.78,322.4z"/>
	<path class="st0" d="M534.78,321.7c-2.1,0.4-2.1,0.4,0.3,10.5c1.3,5.6,2.5,10.3,2.6,10.4c0.3,0.3,10.9-1.4,11.3-1.8
		c0.1-0.2-1.1-4.7-2.7-10.1C542.98,320.1,542.88,320.1,534.78,321.7z"/>
	<path class="st0" d="M571.18,344.5c3.1,10.8,2.8,10.3,5.1,7.9c1.7-1.8,1.8-2.3,0.2-11.1c-1.9-10.8-2.1-11.1-5.4-8.1
		C568.58,335.5,568.58,335.5,571.18,344.5z"/>
	<path class="st0" d="M565.98,336.9c-0.4,0.5-3.5,2-7.1,3.3c-6.7,2.3-7.6,3.5-5,6.2c0.8,0.8,1.5,2.1,1.5,3c0,0.8,0.5,3.8,1.2,6.6
		c1.3,5.9,2.4,6.1,11.4,2.1c5.2-2.3,5.3-2.7,1.8-13.8C567.18,335.8,566.88,335.3,565.98,336.9z"/>
	<path class="st0" d="M542.18,343.7c-3.3,0.4-3.8,0.8-3.8,3c0,2.6,0,2.6,6.6,2c7.7-0.8,7.9-0.8,6.4-3.6
		C550.28,343,549.78,342.9,542.18,343.7z"/>
	<path class="st0" d="M535.48,349c3.4,0,2.1-4.4-1.3-4.8c-1.6-0.2-2.8,0-2.8,0.3C531.38,346.4,533.68,349,535.48,349z"/>
	<path class="st0" d="M548.08,362c9.6,0,8.9,1,6.2-9.3c-0.9-3.3-3.3-4.9-5-3.2c-0.3,0.2-3.2,0.5-6.5,0.6c-6,0.2-6,0.2-4.6,6
		C539.68,362,539.68,362,548.08,362z"/>
	<path class="st0" d="M576.08,354.8c-1.6,1.7-1.6,2.5-0.3,8.8c0.7,3.8,1.7,8.6,2,10.7c1.4,7.8,2.9,2.8,2.2-7.4
		C579.18,354.4,578.48,352.1,576.08,354.8z"/>
	<path class="st0" d="M570.88,382.4c5.5-2.2,6.4-2.9,6.1-4.8c-0.3-1.1-0.8-3.9-1.1-6.1c-1.3-7.7-2.7-13.5-3.3-13.4
		c-0.4,0-3.8,1.2-7.5,2.6c-6,2.3-6.8,2.9-6.3,4.7c0.3,1.2,1.1,6,1.8,10.8C561.88,386.3,561.68,386.1,570.88,382.4z"/>
	<path class="st0" d="M540.38,369.9c0,5.6,0.2,6.2,3.3,8.5c3.5,2.7,8.3,4.9,13,6c3.2,0.8,3.5-1.6,1.6-13.5c-1.2-6.9-1.2-6.9-9.5-6.9
		C540.38,364,540.38,364,540.38,369.9z"/>
	<path class="st0" d="M400.38,378.5c0.5,1.4,1,4.3,1.1,6.3c0,3.1,0.2,3.3,0.9,1.6c0.4-1.2,2.3-3.2,4-4.6c3.2-2.5,3.2-2.5,0.3-3.6
		C399.88,375.6,399.27,375.6,400.38,378.5z"/>
	<path class="st0" d="M401.88,417c-2.8-5.4-5.1-7-9.9-7c-2.5,0-4.8-0.5-5.1-1.1c-0.5-0.7,0.5-0.8,2.9-0.4c4.3,0.9,4.4,0.3,1-4.2
		c-1.4-1.9-4.8-6.7-7.5-10.7c-3.2-4.83-6.49-8-9.94-9.52c-0.23-0.01-0.47-0.02-0.7,0.01c-0.23,0.04-0.45,0.1-0.66,0.18
		c-0.43,0.19-0.82,0.45-1.21,0.73c-0.19,0.23-0.41,0.48-0.69,0.8c-1.6,1.8-5.7,11.9-5.7,14.2c0,0.5,1.2,1,2.8,1
		c5.6,0,16.9,10,20.2,17.9c1.4,3.4,1.4,3.4,8.3,2.8C403.98,421,403.98,421,401.88,417z M377.58,391.7c-2.8-2.5-4.2-1.4-4.2,3.3
		c0,2.1-0.5,4.2-1.1,4.5c-1,0.7-1.2-10.9-0.2-12.8c0.7-1.2,2.5-0.8,4,1c0.7,1,1.8,2.7,2.5,3.8
		C379.68,393.5,379.58,393.5,377.58,391.7z"/>
	<path class="st0" d="M552.68,404c7,3.5,7.5,2.8,7.6-10.6c0.1-6.2,0.1-6.2-4.6-7.4c-2.7-0.6-7.1-2.4-9.9-3.9
		c-5.2-2.8-5.2-2.8-5.7,3.8C539.48,394.1,542.88,399.1,552.68,404z"/>
	<path class="st0" d="M564.68,386.6c-3.2,0.6-3.2,0.6-3.5,10.6c-0.3,10-0.3,10,3.5,9.4c7.3-1.2,11-3.9,13-9.4
		c1.6-4.6,3.5-17.3,2.6-17.1c-0.2,0-3.1,1.4-6.4,3C570.58,384.7,566.48,386.3,564.68,386.6z"/>
	<path class="st0" d="M324.88,386.2c-1.7,6.8-1.2,8.2,3,8.9c4.8,0.8,4.2,1.5,4.6-5.1c0.4-5.5,0.4-5.5-3.3-5.8
		C325.98,383.9,325.38,384.2,324.88,386.2z"/>
	<path class="st0" d="M335.18,384.6c-0.3,0.5-0.9,3.2-1.3,6.1c-0.7,5.2-0.7,5.2,4.6,6.7c2.9,0.9,5.8,1.6,6.5,1.6
		c1.1,0,3.1-12.6,2.1-13.6S335.68,383.8,335.18,384.6z"/>
	<path class="st0" d="M348.38,392.9c0,6.8,0,6.8,3.8,9.5c2.1,1.4,4.3,2.6,4.9,2.6c1.9,0,5.2-5.5,7.3-12.1c2.5-8.2,2.6-8-1.3-7.7
		c-1.8,0.2-5.9,0.4-9,0.6C348.38,386.1,348.38,386.1,348.38,392.9z"/>
	<path class="st0" d="M551.88,405.1c-3.6-1.8-7.8-4.8-9.5-6.7c-2.9-3.3-3-3.4-3.5-1.2c-0.8,3.5-1.1,27.5-0.4,33.9
		c0.9,8.2,4,12.8,5.5,8.1c0.4-0.9,1.7-4.1,3.1-6.9c2.6-5.6,2.3-7.8-0.8-7c-2.3,0.6-7.9-5.4-7.9-8.5c0-2.6,2.1-10,3.2-11.3
		c0.4-0.5,0.8,0.3,0.8,1.8s-0.4,2.7-1,2.7c-1.8,0-1.1,6.7,1.1,9.4c1.8,2.3,6.7,5.6,8.4,5.6c0.5,0,7.5-14.7,7.5-15.9
		C558.38,408.8,555.48,407,551.88,405.1z"/>
	<path class="st0" d="M407.98,397c-0.3,0-1.7,2.2-3.1,5c-3.1,6.1-3.1,6.2,0.3,5.4c6.4-1.4,6.1-1.1,4.1-5.1c-1-2-1.6-4-1.3-4.4
		C408.27,397.4,408.27,397,407.98,397z"/>
	<path class="st0" d="M295.48,428.9c3.1,2.3,3.1,2.3,10.3-4.8c7.5-7.4,15.6-11.5,18-9.1c0.7,0.7,0.1,1-1.6,1c-7.1,0-7.8,1.2-5.6,8.7
		c1.2,3.7,2.2,6.9,2.3,7c0.1,0.2,2.6-0.5,5.6-1.6c5.1-1.7,5.4-2,5.2-4.9c-0.3-3.7-4.7-13.8-7.1-16.5c-3.2-3.5-11.2-6.9-11.2-4.8
		c0,0.6,0.5,1.3,1,1.6c0.6,0.3,1,1.4,1,2.3c0,1.3-0.3,1.2-1.6-0.6c-0.8-1.2-2.1-2.2-2.8-2.2c-1.6,0-10.8,11.1-14,16.9
		C292.48,426.7,292.48,426.7,295.48,428.9z"/>
	<path class="st0" d="M574.68,405.1c-0.4,0-1.9,0.5-3.3,1.1c-1.4,0.5-4.4,1.3-6.8,1.6c-4.3,0.7-4.3,0.7-8.3,9.6
		c-2.1,4.8-3.9,9-3.9,9.3c0,1.2,10.7-5.7,14.4-9.2C570.78,413.5,576.28,404.9,574.68,405.1z"/>
	<path class="st0" d="M402.77,415.9c2.8,5.5,3.7,5.8,10.9,4.2c5.2-1.2,5.2-1.2,2.3-7c-2.8-5.5-3.5-5.7-11-4
		C399.77,410.3,399.88,410,402.77,415.9z"/>
	<path class="st0" d="M451.98,421.1c1.1-2.8,1-2.9-3-4.1c-2.2-0.6-6.4-2.5-9.2-4c-5.2-2.9-5.2-2.9-2,4c3.1,7,3.1,7,8.1,7
		C450.58,424,450.98,423.8,451.98,421.1z"/>
	<path class="st0" d="M495.68,434.4c8.5-1.6,8.5-1.6,9.2-6.8c0.4-2.8,1.2-6.2,1.7-7.5c1.1-3,1.3-2.9-4.7-1.9
		c-11.5,1.8-12.6,2.8-14.4,12.5C486.27,436.7,485.68,436.4,495.68,434.4z"/>
	<path class="st0" d="M515.48,431.8c9.4-0.3,9.4-0.3,10-4.3c0.3-2.2,1.1-5.1,1.8-6.4c1.9-3.4,0.2-4.1-9.6-4.1
		c-6.8,0-8.4,0.3-9.2,1.7c-0.5,1-1.2,4.4-1.6,7.6C506.18,432.1,506.18,432.1,515.48,431.8z"/>
	<path class="st0" d="M530.48,432.9c2.3,0.7,4.8,1.5,5.7,1.8c2.1,0.9,0.9-6.9-1.8-11.3c-2.6-4.1-2.5-5.2,0.2-2.8
		c2,1.8,2.1,1.8,1.5,0.1c-0.4-1-0.7-2.3-0.7-2.8c0-1.5-2.6-1-4.2,0.8c-2.2,2.6-3.5,5.3-4.2,9.4
		C526.38,431.6,526.48,431.7,530.48,432.9z"/>
	<path class="st0" d="M307.77,423.8c-9.1,8.5-9.1,8.1-3.5,13c4.9,4.1,4.9,4.1,9.2,0.2c4.2-3.9,4.2-3.9,2.5-10.4
		C313.68,418.2,313.77,418.2,307.77,423.8z"/>
	<path class="st0" d="M469.48,421.8c1.6-2.5,0.9-2.8-7.1-2.8c-6.8,0-8.2,0.3-8.7,1.7c-0.3,1-0.8,2.2-1.1,2.7
		C451.77,424.9,468.58,423.4,469.48,421.8z"/>
	<path class="st0" d="M484.88,420.4c5-1.2,5-1.2-4.2-1.3c-8.7-0.1-9.3,0-9.3,1.9C471.38,423.2,473.98,423.1,484.88,420.4z"/>
	<path class="st0" d="M420.98,423.5c-0.9-2.7-1.5-3-3.6-2.4c-1.4,0.4-4.3,0.7-6.4,0.8c-3.6,0.1-4.4,1.2-1.1,1.7
		c6.1,0.9,14.5,7,14.5,10.6c0,0.6,0.3,0.9,0.6,0.6c0.3-0.3-0.2-2.3-1.2-4.4C422.88,428.2,421.58,425.1,420.98,423.5z"/>
	<path class="st0" d="M478.48,437.9c6.5-1.1,6.9-1.3,6.9-3.9c0-1.5,0.7-4.9,1.5-7.5c1.7-5.9,2.3-5.4-5-3.9c-3.3,0.7-7.2,1.3-8.7,1.4
		c-3,0-3.6,1.2-4.7,9.6C467.58,439.9,467.18,439.7,478.48,437.9z"/>
	<path class="st0" d="M398.68,444.1c-4.9-4-5.8-3.9-3.1,0.4c2,3.1,3.5,4,6,3.6c0.4,0,1.2,1.5,1.8,3.4c1,3,1.5,3.4,3.8,3
		c1.5-0.2,4.8-0.7,7.5-1c2.6-0.4,4.7-1,4.7-1.5c0-1.3-3-4-4.5-4c-10.9,0-17.7-13.8-10.6-21.4c3.6-3.9,2.5-4.5-6.7-3.5
		c-7.3,0.7-7.7,1-6.2,3.9c0.6,1.2,0.9,2.4,0.6,2.7c-0.3,0.3-0.8-0.2-1.2-1.1c-0.3-0.9-1.2-1.6-2-1.6c-2.5,0-1.5,1.9,1.9,3.4
		c4.2,1.9,9,6.3,8.2,7.6c-0.4,0.6-1.8-0.2-3.5-2c-1.5-1.6-3.3-3-3.8-3c-1.6,0-0.1,4.1,1.7,4.8c0.9,0.3,2.1,1,2.6,1.4
		c0.6,0.5,2.2,1.7,3.8,2.9c1.5,1.1,2.7,2.7,2.7,3.5C402.38,446.7,401.27,446.2,398.68,444.1z"/>
	<path class="st0" d="M445.98,439c0.3,0,4.4-12.7,4.4-13.6c0-0.2-2.1-0.4-4.6-0.4c-4.2,0-4.5,0.1-3.9,2.2
		C443.88,434,445.68,439,445.98,439z"/>
	<path class="st0" d="M457.48,439.8c9.3-0.3,8.3,0.8,10.3-11.1c0.7-3.7,0.7-3.7-7.4-3.7c-7.6,0-8.1,0.1-9,2.5
		c-0.5,1.3-1.2,4.7-1.6,7.5C449.08,440.1,449.08,440.1,457.48,439.8z"/>
	<path class="st0" d="M285.08,449.9c2.9-5,6.6-10.8,8.3-12.9c3.5-4.4,3.6-4.8,1.3-6.6c-2.9-2.2-3.9-1.7-7.4,3.8
		c-1.9,2.9-5.6,8.1-8.2,11.6c-4.9,6.4-5,6.9-1.4,10.9C279.68,459,279.68,459,285.08,449.9z"/>
	<path class="st0" d="M319.88,439.6c1.3,6.7,1.7,6.9,8.8,5.4c5.3-1.1,5.3-1.1,4-7.3c-0.7-3.4-1.1-6.8-0.8-7.5
		c0.2-0.6,0.3-1.2,0.2-1.1c-0.1,0-2.7,0.8-5.8,1.8C318.38,433.4,318.58,433.1,319.88,439.6z"/>
	<path class="st0" d="M294.68,437.3c-4.2,5.7-13.3,21.3-13.3,22.6c0,0.6,3.5,3.1,7.8,5.6c6.8,4,7.8,4.3,8.4,2.8
		c0.4-1,3-7.2,5.7-13.7c2.8-6.6,4.8-12.3,4.4-12.6c-0.5-0.4-2.9-2.6-5.4-4.8C297.68,433,297.68,433,294.68,437.3z"/>
	<path class="st0" d="M524.78,438.1c-0.7-5.2-0.7-5.2-7.8-5c-3.9,0.2-7.9,0.5-8.9,0.7c-2.4,0.5-1.4,6,2.3,12.7
		c3.3,6.1,4.2,6.3,11.4,3.1c5-2.2,5.6-2.8,4.7-4.4C525.98,444.2,525.18,441,524.78,438.1z"/>
	<path class="st0" d="M530.18,434.5c-3.8-1.5-3.8-1.5-3.8,3.3c0,7.7,1.5,8.9,8,6.5c3-1.1,5.5-2.4,5.7-2.9
		C540.48,440.3,535.08,436.6,530.18,434.5z"/>
	<path class="st0" d="M506.08,440c-1.6-6.4-1.2-6.2-10.7-4.1c-8.9,2-9.3,2.8-6,12.6c2.9,8.8,3.3,9,12.7,7c10.7-2.4,10.7-2.4,7.8-6.5
		C508.58,447.1,506.77,443,506.08,440z"/>
	<path class="st0" d="M317.77,445.7c1.5-1.1,1.7-2.1,1.1-5.5c-0.8-5-1.4-5.1-5.7-1.3c-2.9,2.6-3.1,3.2-2,4.8
		c2.7,3.9,5.2,7.8,5.6,8.8c0.7,1.9,4.1-1.1,4.1-3.6c0-2-0.5-2.3-2.5-2.1C316.08,447,316.08,447,317.77,445.7z"/>
	<path class="st0" d="M427.38,438.7c-1.8-2.9-1.8-2.9-2.5,0.2c-0.4,1.7-1.8,4.5-3.2,6.1c-1.6,2-2.2,3.6-1.8,5
		c0.7,2.2,1.8,2.3,8.8,1.4c4.5-0.6,4.5-0.6,2.5-5.2C429.98,443.7,428.27,440.3,427.38,438.7z"/>
	<path class="st0" d="M485.88,442.2c-0.4-2.3-1.2-4.1-1.8-4.1c-0.7,0.1-4.5,0.8-8.6,1.5c-9,1.6-8.4,0.8-7.1,8.9
		c1.7,10.5,2.1,10.9,9.3,10.1c3.3-0.3,7.7-0.6,9.7-0.6c3.8,0,3.8,0,1.5-5.8C487.58,449.1,486.27,444.6,485.88,442.2z"/>
	<path class="st0" d="M466.77,447.7c-0.7-6.8-0.7-6.8-10.5-6.6c-7.7,0.1-9.9,0.5-9.9,1.5c0,0.8,0.4,1.4,0.9,1.4s1.1,2.3,1.5,5.1
		c0.8,5.9,2.6,7,13.4,8.7c6.2,0.9,6.3,0.8,5.8-1.2C467.68,455.4,467.08,451.4,466.77,447.7z"/>
	<path class="st0" d="M305.88,451.7c-8.5,20.8-8.4,19.2-0.8,20.6c3.7,0.7,4.6-0.3,5.7-6.8c0.4-2.2,1.5-6.1,2.4-8.6
		c1.6-4.6,1.6-4.8-0.9-8.3C309.08,443.9,309.08,443.9,305.88,451.7z"/>
	<path class="st0" d="M326.77,447.1c-2.1,0.6-3.4,1.7-3.8,3.3c-0.3,1.4-1.5,2.8-2.7,3.1c-1.7,0.6-2,1.2-1.4,3.3
		c0.3,1.5,0.9,5.1,1.2,7.9c0.3,2.9,1,5.3,1.5,5.3c4.4,0,11.1-10.4,12.4-19.3C334.68,445.5,333.88,445,326.77,447.1z M326.38,456
		c-3.6,1.2-6.2,1.2-5.5,0c0.3-0.6,2.3-1,4.3-0.9C328.48,455.2,328.58,455.3,326.38,456z"/>
	<path class="st0" d="M428.88,452.7c-7.8,0.9-7.5,0.2-4.1,10.1c3,8.9,3,8.9,8,8.4c6.4-0.6,6.1,0.2,4-8.2
		C434.77,454.5,432.98,452.3,428.88,452.7z"/>
	<path class="st0" d="M269.18,482.2c0.2-0.7,2.6-5.8,5.3-11.3c4.9-10.1,4.9-10.1,2.2-13.4c-3.6-4.3-3.5-4.3-7.8,0.7
		c-1.9,2.3-4.9,6.9-6.5,10.1c-3,5.9-3,5.9-0.7,8.7C265.08,481.1,268.68,483.6,269.18,482.2z"/>
	<path class="st0" d="M409.38,474.8c-1.9-2.3-1.9-2.3-2,0c0,1.3,0.8,2.6,1.8,2.9c2.8,1.1,5,4.4,6.9,10.5c2,6.3,2.6,6.7,9.6,4.7
		c4.3-1.2,4.6-2.9,2.5-13.1c-1.2-5.9-1.2-5.9-8.3-5.4c-7,0.6-7,0.6-0.8-0.7c7.9-1.7,7.5-0.7,4.4-10.6c-3-9.5-2.4-9.2-11.1-7.9
		c-8,1.1-7.7,0.7-5,7.2c1.2,3,1.9,6,1.5,6.5c-0.3,0.6-0.3,1.1,0.2,1.1c1.1,0,3.4,5.1,2.7,6.2C411.48,476.6,410.38,476,409.38,474.8z
		"/>
	<path class="st0" d="M315.18,469.6c3,2.3,3.5,1.6,2.8-4.7c-0.8-8.5-2.1-10.4-3.5-5.3C312.98,465.2,313.08,468.1,315.18,469.6z"/>
	<path class="st0" d="M275.88,471.3c-6.7,14.3-6.7,13.3,1,16.8c11.9,5.4,11.4,5.6,15.9-6.2c2.3-5.9,3.5-10.4,2.9-10.6
		c-0.5-0.2-4.2-2.4-8.2-4.8C280.27,462,280.27,462,275.88,471.3z"/>
	<path class="st0" d="M297.38,474.5c-0.5,1.4-2.3,5.6-4,9.6c-3.8,9-3.9,8.6,1.7,9.5c6.3,0.9,7.2,0.1,10.3-9.8
		c2.7-8.5,2.7-8.5-2.2-10.1C298.27,472.2,298.27,472.2,297.38,474.5z"/>
	<path class="st0" d="M431.68,472.7c-3.8,0.5-3.9,1-1.5,10.3c1.7,6.5,1.7,6.5,5.4,6.2c3.3-0.3,4,0.1,5.8,3c2.1,3.3,2.1,3.3,1.5-1.7
		c-0.9-7.5-2.7-15.8-3.8-17.3C438.18,472,437.68,472,431.68,472.7z"/>
	<path class="st0" d="M256.08,507c5.6,3.6,6.3,3.7,6.3,0.7c0-1.3,1.2-6.1,2.6-10.8c3.5-11.3,3.5-10.8-1.7-15.6
		c-4.5-4.2-4.5-4.2-8.8,7.7C249.58,502.6,249.58,502.9,256.08,507z"/>
	<path class="st0" d="M267.98,491.7c-2.2,6.7-4.8,18.4-4.2,19c1,1.1,17,6.2,17.8,5.7c0.4-0.3,0.8-1.3,0.8-2.2
		c0-0.9,1.3-5.7,2.8-10.7c2.8-8.9,2.8-8.9-5.3-12.3c-4.4-1.8-8.5-3.5-9.1-3.8C270.08,487.1,268.98,488.8,267.98,491.7z"/>
	<path class="st0" d="M416.08,497c1,0,2.3,6.8,2.8,14.8c0.4,5.5,0.2,5.4,6.6,4.1c5.3-1.1,8.9-2.9,5.8-2.9c-2.9,0-6.2-7-6-12.7
		c0.1-5.4,0.1-5.4-3.5-4.7c-3.1,0.6-4,0.2-7-2.7s-3.4-3.1-3.4-1.3C411.38,493.8,414.27,497,416.08,497z"/>
	<path class="st0" d="M286.48,504.6c-4,12.8-4.1,12.4,1.8,12.4c5,0,5,0,7.9-7.8c4.7-12.1,4.9-13.2,1.9-13.2c-1.3,0-3.8-0.3-5.5-0.6
		C289.48,494.8,289.48,494.8,286.48,504.6z"/>
	<path class="st0" d="M449.98,520.6c-0.4-2.1-1.2-5-1.8-6.5c-1.2-2.9-1.6-4.4-2.7-11.1c-0.8-4.5-0.8-4.5-1.2,1.8
		c-0.2,3.6,0,6.2,0.6,6.2c1.7,0-2.8,2.7-6.5,3.9c-3.6,1.1-3.6,1.1-2.1,10.1c1.7,10.1,1.2,9.7,10.6,7.4c6.7-1.7,7.5-2.6,5.1-5.9
		C451.27,525.4,450.38,522.8,449.98,520.6z"/>
	<path class="st0" d="M256.77,534c0.2-0.3,1.3-5.2,2.5-11c1.8-9.5,1.8-10.6,0.4-11.5c-0.9-0.6-3.5-2.4-5.9-4.2
		c-4.3-3.2-4.3-3.2-5.4,2c-1.2,6-3,16.7-3,18.2C245.38,528.7,255.98,534.7,256.77,534z"/>
	<path class="st0" d="M261.88,516.7c-0.4,2.1-1.4,6.9-2.1,10.6c-0.8,3.8-1.2,7.3-0.9,7.8c0.8,1.2,14.1,5.2,15.7,4.7
		c0.9-0.3,7.2-21.1,6.4-21.3c-2-0.6-15.6-4.8-16.8-5.1C262.88,512.9,262.38,513.6,261.88,516.7z"/>
	<path class="st0" d="M428.68,536.9c8.7-1.9,8.5-1.1,5.1-18.2c-0.6-2.9-0.6-2.9-7.9-1.5c-6.7,1.2-6.6,1.1-5,11.2
		C422.58,539.1,421.98,538.4,428.68,536.9z"/>
	<path class="st0" d="M280.58,526.7c-3.9,14.5-3.9,13.4-0.1,12.7c1.9-0.4,3.9-1.2,4.6-1.8c1-0.9,7.3-16.7,7.3-18.2
		c0-0.2-2.2-0.4-4.9-0.4C282.58,519,282.58,519,280.58,526.7z"/>
	<path class="st0" d="M411.18,527.8c-0.9,0.9-0.8,2.1,0.2,5.1c0.7,2.2,1,4.7,0.6,5.7c-0.6,1.5-0.1,1.6,3.5,1.1
		c5.5-0.7,5.7-1.1,4.3-9.2c-0.6-3.9-1.2-6.1-1.3-5c0,1.2-1.4,3.6-3.1,5.5c-2.9,3.5-2.9,3.5-3-0.5
		C412.38,527.5,412.08,526.9,411.18,527.8z"/>
	<path class="st0" d="M251.18,556.5c0.7-0.7,5.2-16.8,5.2-18.7c0-1.1-1.2-2.4-2.7-3c-1.6-0.7-4-2-5.6-3.1c-2.1-1.4-2.8-1.5-3.1-0.5
		c-1,3-2.8,21.7-2.2,22.7C243.48,555,250.48,557.2,251.18,556.5z"/>
	<path class="st0" d="M450.08,533.6c-1,1-0.8,14.6,0.2,16.2c2.1,3.3,4.2-1.7,3.9-9.2C453.88,533.8,452.48,531.3,450.08,533.6z"/>
	<path class="st0" d="M448.38,541.8c0-8.5,0.2-8.3-6.3-6.6c-3.8,1-3.8,1-3.2,8.7c0.9,9.1,0.4,8.5,5.4,7
		C448.38,549.7,448.38,549.7,448.38,541.8z"/>
	<path class="st0" d="M257.98,538.9c-2,7-4.8,16.6-5.2,17.6c-0.9,2.2,8.6,3.9,13.5,2.4c3.6-1.1,5.8-3.9,3.1-3.9c-0.5,0-1-0.5-1-1.1
		s0.9-0.9,1.9-0.6c1.6,0.4,2.1-0.5,3.4-5.4c1.5-5.9,1.5-5.9-1.2-6.5c-1.4-0.3-5.2-1.3-8.3-2.3
		C258.98,537.5,258.38,537.5,257.98,538.9z"/>
	<path class="st0" d="M429.77,555.4c-1.6,0.3-0.5-0.2,2.4-1.1c5.3-1.6,5.3-1.6,5-9.2c-0.3-8.7-0.4-8.7-8.8-6.5
		c-5.5,1.5-5.5,1.5-4.9,9.1c0.9,11.4,5.5,14.6,12.5,8.7C439.18,553.6,439.58,553.7,429.77,555.4z"/>
	<path class="st0" d="M411.18,552.5c2.6,0.3,6.2,1,8,1.4c3.2,0.9,3.2,0.9,3.1-2.7c-0.1-10-0.8-11-6.9-9.6
		C405.58,543.8,402.58,551.4,411.18,552.5z"/>
	<path class="st0" d="M275.88,546.3c-0.4,2.3-1.4,5.9-2.1,7.9c-1.5,4.2-1.4,4.2,1.8,2.7c3-1.3,9.8-16.2,7.2-15.8
		c-0.5,0.1-2.1,0.4-3.6,0.6C276.98,542.1,276.38,542.8,275.88,546.3z"/>
	<path class="st0" d="M343.77,560.1c2-0.4,4.3-1.7,5.5-3.3c3.5-4.4,7.9-5.2,14.5-2.9c6.3,2.2,7.1,1.5,2.5-2.3
		c-3.3-2.8-9.1-3.4-15.9-1.4c-4.4,1.2-5.1,1.8-7.8,6.6C340.48,560.7,340.48,560.7,343.77,560.1z"/>
	<path class="st0" d="M342.58,553.7c1.1-1.5,1.6-2.6,1.1-2.6c-0.4,0.1-3.7,0.9-7.3,1.8c-8,2-8.9,2.5-10.5,6.5
		c-3.1,7.5-3,7.5,1.7,6.5c8.7-1.9,10.6-2.9,11.9-6.2C340.18,557.9,341.58,555.3,342.58,553.7z"/>
	<path class="st0" d="M439.38,554.1c0,1.2,1.7,1,6-0.6c3.7-1.4,1.7-1.8-3.7-0.8C440.38,552.9,439.38,553.6,439.38,554.1z"/>
	<path class="st0" d="M442.88,556.6c-9.2,4.7-10.4,5.9-7.9,8.5c2.1,2.1,2.1,2.1,4-1.7c1.4-3,3-4.3,6.5-5.8
		c12.2-5,21.6,10.2,16.7,26.7c-1.4,4.8-8.6,12.7-11.4,12.7c-1.4,0-1.1-0.5,1.3-2c12.6-7.6,13.1-31.6,0.7-35.9
		c-7.7-2.7-14.8,3.6-12.6,11.2c3.1,10.4,4.3,17.4,3.6,22.4c-0.6,5.3-0.6,5.3,4.5,5.3c8.9,0,12.6-3,15.5-13
		C469.98,564,458.48,548.5,442.88,556.6z"/>
	<path class="st0" d="M267.88,561c-1.3,0-7.6,2.8-9.7,4.3c-2.9,2.1-6.2,2-3.7-0.1c0.8-0.7,2.3-1.9,3.4-2.6c1.8-1.3,1.7-1.5-1.9-2.5
		c-4.8-1.3-4.6-1.3-7.5,4.4c-1.3,2.5-2.5,4.4-2.8,4.1c-0.3-0.3,0.5-2.8,1.9-5.5c2.5-5,2.5-5-2-6.6c-2.5-0.8-4.6-1.5-4.7-1.5
		c-0.1,0-1,2.7-2,6c-2.3,7.5-0.8,11.9,4.7,13.9c1.8,0.7,5.4,2,7.9,3c4.7,1.8,4.7,1.8,5.3-2.1c0.5-2.9,2-5.3,5.9-9.3
		C265.58,563.5,267.88,561,267.88,561z"/>
	<path class="st0" d="M309.98,569.5c1.6-0.3,4.9-0.9,7.4-1.3c4.1-0.7,4.5-1,5.6-4.9c0.7-2.2,1.7-5,2.3-6.2c0.7-1.1,0.8-2.1,0.4-2
		c-0.4,0.1-2.8,0.5-5.3,1c-9.1,1.8-10.7,3.2-12.6,11.1C307.18,569.8,307.38,570,309.98,569.5z"/>
	<path class="st0" d="M264.88,566.1c-1.8,1.9-1.7,1.9,2.8,2.1c2.6,0.1,5.4,0.2,6.2,0.2c0.9,0.1,2.7-1.8,4.1-4.2
		c2.5-4.2,2.5-4.2-0.3-4.2c-1.5,0-4.7,0.9-6.9,2.1C268.48,563.2,265.77,565,264.88,566.1z"/>
	<path class="st0" d="M299.58,565c2.8-4,2.8-4-2-4c-2.6,0-6.9-0.3-9.7-0.6c-4.1-0.5-5.3-0.3-6.6,1.2c-1.7,1.9-3.9,5.8-3.9,6.8
		c0,0.3,2.2,0.6,4.9,0.6c4.6,0,5.1-0.3,7.1-3.6c1.2-1.9,2.5-3.3,2.8-3c0.3,0.3-0.2,1.4-1,2.3c-3.3,3.8-3.1,4.3,1.4,4.3
		C296.48,568.9,297.18,568.5,299.58,565z"/>
	<path class="st0" d="M303.38,562.2c-1.2,1.3-2.8,3.5-3.6,5c-1.4,2.8-1.4,2.8,2,2.8c3.2,0,3.4-0.3,4.5-4.4
		C307.88,559,307.18,558.2,303.38,562.2z"/>
	<path class="st0" d="M366.58,591.2c1.2-1.4,0.9-1.5-2.1-0.9c-10.8,2.2-19.1-8.1-19.1-23.5c0-4.5-0.2-4.8-2.5-4.8
		c-1.4,0-2.8,0.7-3.2,1.6c-0.9,2.3,0.3,13.5,1.8,16.7c1,2.2,1.8,2.7,3.5,2.3c1.3-0.4,2.6-0.2,2.9,0.4c0.4,0.6-0.5,1-2,1
		c-2.6,0-2.6,0-0.4,2.9C350.38,593.6,362.58,596.1,366.58,591.2z"/>
	<path class="st0" d="M333.38,584.5c7.9-0.8,7.3-0.1,5.5-7.1c-0.8-3.2-1.5-7.3-1.5-9.1s-0.3-3.3-0.7-3.2c-0.5,0-3.7,0.8-7.3,1.7
		c-7.4,1.9-7.9,3.4-4.3,13.5C326.88,585.2,326.88,585.2,333.38,584.5z"/>
	<path class="st0" d="M259.77,580.5c11.3,2.6,10.5,2.7,11.6-1.9c0.6-2.2,1.5-5.1,2-6.2c0.8-1.9,0.5-2.2-2.8-2.8
		c-6.5-1-8.7-0.7-10.1,1.6C257.68,575.7,257.38,580,259.77,580.5z"/>
	<path class="st0" d="M312.27,589.5c0.9-0.4,4.2-1.4,7.4-2.2c5.2-1.5,5.8-1.9,5.2-3.7c-0.4-1.2-1.5-4.9-2.4-8.3
		c-1.1-4.3-2.1-6.3-3.1-6.2c-0.8,0.1-4.1,0.6-7.4,1.2c-5.9,1-5.9,1-5.3,6.6C307.27,584,310.18,590.3,312.27,589.5z"/>
	<path class="st0" d="M278.98,584.4c4.1,0.6,4.1,0.6,4.8-5.5c0.4-3.3,1-6.7,1.3-7.5c0.4-1.1-0.6-1.4-4.5-1.4c-4.8,0-5.1,0.1-6.1,3.2
		C271.48,583.2,271.48,583.4,278.98,584.4z"/>
	<path class="st0" d="M286.38,572.5c-0.6,1.4-1,4.9-1,7.6c0,4.9,0,4.9,5,4.9s5,0,5.2-6c0-3.3,0.1-6.6,0.2-7.3
		c0.1-0.7-1.5-1.3-4.2-1.5C287.77,569.9,287.27,570.2,286.38,572.5z"/>
	<path class="st0" d="M301.48,585c4.4,0,4.5-0.4,3.3-9.4c-0.6-4.4-0.8-4.6-3.9-4.6c-3,0-3.3,0.3-3.7,3.5
		C296.27,582.7,297.18,585,301.48,585z"/>
	<path class="st0" d="M268.98,584.1c-3.2-1.2-11.3-2.3-10.1-1.4c1.6,1.3,12.5,8.3,12.8,8.3C273.18,591,270.68,584.7,268.98,584.1z"
		/>
	<path class="st0" d="M280.77,585.9c-6.9-1.5-8.5-1.1-7.8,1.8c1.1,4.5,7.8,9.3,12.9,9.3C288.88,597,284.08,586.6,280.77,585.9z"/>
	<path class="st0" d="M312.08,594.2c-2.1-2.1-3.5-4-3.3-4.3c1.5-1.5-3.2-4.4-6.6-4.1c-4.3,0.4-4.6,1.2-1.8,5.7
		c2.8,4.5,6.2,6.5,11.2,6.5C315.77,598,315.77,598,312.08,594.2z"/>
	<path class="st0" d="M346.08,589.9c-4.4-5-5-5.2-12.4-4c-5.7,1-5.8,1.1-1.5,5.9c3.7,4.3,3.7,4.3,10.9,3.6
		S350.27,594.7,346.08,589.9z"/>
	<path class="st0" d="M296.38,586.9c0-0.5-2.5-0.9-5.5-0.9c-3.2,0-5.5,0.4-5.5,1.1c0,0.6,1,3.3,2.1,6c2.1,4.9,2.1,4.9,9,4.9
		c6.8,0,6.8,0,3.3-5.1C297.88,590.1,296.38,587.4,296.38,586.9z"/>
	<path class="st0" d="M328.77,597.4c5.5-0.8,5.5-0.8,0.8-6.1c-3.7-4.1-3.7-4.1-10-2.3c-7.9,2.2-7.7,2-4.1,5.8
		C318.68,598.2,320.27,598.5,328.77,597.4z"/>
	<path class="st0" d="M315.38,656.2c-1.5,1-2.2,0.9-3.8-0.5c-2.4-2.2-3.9-2.1-5.4,0.3c-0.9,1.3-2.4,2-4.5,2c-3,0-3.3,0.3-3.3,2.9
		c0,1.6-0.6,3.1-1.5,3.5c-1.8,0.6-2,3.7-0.3,5.4c0.8,0.8,0.8,1.5-0.1,2.6c-1.8,2.2,0.8,13.6,3,13.6c0.5,0,0.9,0.7,0.9,1.5
		c0,0.8,0.9,2,2,2.7c1.1,0.7,2,1.9,2,2.6c0,1.9,2.5,2.5,4.9,1.2c1.5-0.8,2.7-0.8,4.2,0.1c1.7,0.9,2.3,0.7,3.6-1
		c1-1.4,2.5-2.1,4.9-2.1c3.1,0,3.4-0.2,3.4-3.1c0-1.9,0.8-3.7,2.1-4.8c1.9-1.5,2-2,0.8-3.9c-1.1-1.7-1.1-2.8-0.1-5.4
		c1-2.8,0.9-3.5-0.8-5.3c-1.1-1.2-2-3.3-2-4.8c0-1.8-0.5-2.7-1.5-2.7c-2.6,0-6.4-3-5.8-4.6C318.68,654.7,317.98,654.6,315.38,656.2z
		 M318.68,668.4c1.6,1.7,2.5,2.5,2.1,1.7c-0.4-0.8-0.3-1.2,0.3-0.8c0.5,0.4,1,2.1,1.1,3.9c0.4,11.3-8.8,18.1-17.3,12.8
		c-12.3-7.6-4-28.4,8.8-21.9C314.88,664.7,317.18,666.6,318.68,668.4z"/>
	<path class="st0" d="M307.27,1046.1c-1.2-1.1-2.3-3.7-2.6-6.3c-0.3-2.3-1-4.9-1.6-5.6c-0.7-0.9-0.2-1.2,2.2-1.2
		c3.1,0,3.1,0,3.1-9.5c0-5.2-0.3-9.4-0.7-9.3c-0.5,0-2.3,0.3-4,0.5c-3.2,0.4-3.3,0.6-3.3,4.8c0,2.5-0.6,5-1.4,5.8
		c-0.9,0.8-1.2,2.4-0.9,3.6c0.3,1.1,0,2.8-0.7,3.6c-1,1.2-1,1.8,0,3c0.8,0.9,1,2.8,0.6,5c-0.6,2.8-0.3,3.7,1.4,4.7
		c1.3,0.8,2,2.3,2,4.4c0,1.9,0.9,3.9,2.3,5.2c2.3,2.2,2.3,2.2,3.9-2.3C309.27,1048.1,309.18,1047.9,307.27,1046.1z"/>
	<path class="st0" d="M306.58,1036.8c-0.9,1.5-1,2.8-0.3,4c1.2,2.2,2.5-0.3,1.9-4C307.88,1034.5,307.88,1034.5,306.58,1036.8z"/>
	<path class="st0" d="M382.58,1051.9c-0.4-4.7-2.4-8-3.7-5.9c-0.4,0.6-0.1,3.3,0.5,6.1C380.88,1058.3,382.98,1058.1,382.58,1051.9z"
		/>
</g>
<g id="NEGRO">
	<path class="st1" d="M413.18,400.5c1.2,0.4,2.2,0.2,2.2-0.3c0-1.4-6.9-8.8-7-7.4c0,0.7,0.7,2.3,1.5,3.6c0.9,1.3,1.5,2.8,1.3,3.2
		c-0.5,2,1.5,5.4,3.2,5.4c1,0,2.2,0.4,2.5,1c0.3,0.5-0.1,1-1,1c-2.2,0,0.8,4.6,3.5,5.3c2.6,0.7,2.6-0.8,0.1-3
		c-1.1-0.9-1.8-2-1.6-2.3c0.5-0.7-1.6-3.1-5-5.6C410.88,399.9,410.88,399.9,413.18,400.5z"/>
	<path class="st1" d="M314.77,400.6c2.3,0.9,9.3-2.5,7.5-3.7c-2.3-1.5-5.5-1-7.4,1.1C313.27,399.8,313.27,400,314.77,400.6z"/>
	<path class="st1" d="M324.38,402.2c-3.6-0.3-5-0.1-5,0.8c0,0.9,1.6,1.1,5.9,0.8c5.9-0.4,5.9-0.4,9.7,4.3c3.7,4.7,3.8,4.8,8.3,4.2
		c3.7-0.4,6,0.1,11.7,2.6c6.7,2.9,7.5,3,13.5,2c7.9-1.3,7.7-1,3.5-5.7c-4.4-4.9-4.5-6-0.3-5.5c4.8,0.6,1-1.5-4.7-2.6
		c-4-0.7-4.6-0.6-5.1,1c-1,3.2-4.1,3.1-10.4-0.1c-10.7-5.3-23.8-7.5-27.7-4.5c-1.8,1.5-1.7,1.5,1.5,1.3c1.9-0.2,3.6,0.2,3.8,0.8
		C329.38,402.4,327.88,402.6,324.38,402.2z"/>
	<path class="st1" d="M304.38,406.1c1.2-1.7,1.7-3.1,1.1-3.1s-1.8,1.1-2.7,2.5C300.38,409.2,301.77,409.7,304.38,406.1z"/>
	<path class="st1" d="M324.38,407c2,1.3,8.3,1.3,7.5,0c-0.3-0.6-2.5-1-4.8-1C323.98,406,323.27,406.3,324.38,407z"/>
	<path class="st1" d="M379.18,410.6c0.3-0.4,0-1.1-0.8-1.6c-2-1.3-7-1.3-7,0C371.38,410.1,378.18,411.5,379.18,410.6z"/>
	<path class="st1" d="M351.98,475.3c11.6-0.3,12.9-0.1,17.4,2.2c2.7,1.4,5.8,2.5,6.9,2.5c1.1,0,2.1,0.5,2.3,1.2c0.5,1.4,5.7-4,8.6-9
		c0.6-1.2,1.7-3.1,2.4-4.1c0.9-1.5,0.9-2.5-0.2-4.8c-0.8-1.5-1.6-3.2-1.8-3.6c-0.08-0.13-0.08-0.22-0.02-0.27
		c-0.24-0.29-0.47-0.59-0.66-0.91c-0.13-0.21-0.24-0.44-0.33-0.67c-0.05-0.12-0.08-0.25-0.11-0.38c-0.89-0.62-2.17-2.27-2.67-3.77
		c-0.4-1.2-2.8-4.3-5.3-6.8c-5.3-5.4-13.4-14.7-13.9-16s-2.3-1.1-4.1,0.5c-1.32,1.16-12.85,2.25-16.79,1.85
		c-0.39,0.12-0.77,0.25-1.14,0.41c-0.08,0.04-0.17,0.07-0.25,0.11c-0.25,0.11-0.49,0.24-0.74,0.36c0.41,0.37,0.74,0.73,0.92,1.07
		c1.6,3.1,0.7,24.4-1.2,28.8C335.88,475.8,335.68,475.6,351.98,475.3z"/>
	<path class="st1" d="M325.08,495.1c-1.6-3.7-2.9-5.3-4.7-5.7c-3.23-0.75-4.43-1.11-4.83-1.7c-0.05,0.03-0.1,0.05-0.15,0.09
		c-0.14,0.12-0.28,0.25-0.4,0.4c0,0,0.01-0.01,0.01-0.01c-0.01,0.01-0.02,0.02-0.03,0.03c0.27,0.67,0.27,1.29-0.11,1.7
		c-0.3,0.3-1.7-0.8-3-2.4c-4.23-5.36-4.39-3.81,0.67,25.54c0.04,0.01,0.07,0.03,0.1,0.04c0.35-0.21,0.7-0.44,1.02-0.69
		c0.07-0.06,0.14-0.11,0.21-0.17c0.24-0.24,0.47-0.48,0.7-0.73c0.32-0.34,0.64-0.68,0.93-1.04c0.02-0.03,0.05-0.06,0.07-0.09
		c0.02-0.03,0.05-0.05,0.08-0.08c0.23-0.36,0.54-0.79,0.92-1.29c1.4-2,2.8-2.8,3.9-2.5c1.1,0.4,2.5-0.6,4.2-2.9
		C327.38,500.2,327.38,500.2,325.08,495.1z"/>
	<path class="st1" d="M381.08,416c3,0,3.4-0.2,2.3-1.5c-0.7-0.8-2.8-1.5-4.7-1.5c-3,0-3.4,0.2-2.3,1.5
		C377.08,415.3,379.18,416,381.08,416z"/>
	<path class="st1" d="M384.88,421.5c2.9,0.6,2.9,0.6,1.1-1.4c-1.1-1.2-3.1-2.1-4.5-2.1c-2.2,0-2.3,0.2-1.1,1.4
		C381.18,420.1,383.18,421.1,384.88,421.5z"/>
	<path class="st1" d="M337.38,423.5c-2.2-2.4-5-3.4-5-1.8c0,1.4,1.5,3,3.8,4.2C339.58,427.7,340.18,426.4,337.38,423.5z"/>
	<path class="st1" d="M338.68,438.8c1.3,1.2,2.6,2.2,3,2.2c1.4,0-1.6-6-3.8-7.4c-2.7-1.8-3.9-2-3.1-0.7c0.3,0.5,0.8,2.9,1.1,5.2
		c0.4,3.1,1.5,5.3,3.5,7.4c4,4,4,1.1,0-3.5C335.88,437.8,335.38,435.7,338.68,438.8z"/>
	<path class="st1" d="M340.88,457c1.5,0,0.1-6.1-2-9c-2.2-3-2.5-3.2-2.5-1.2C336.38,449,339.98,457,340.88,457z"/>
	<path class="st1" d="M335.38,454.6c0,3.6,3,9.8,4.2,8.6c1.3-1.3,0.4-5-2.2-8.2C335.48,452.6,335.38,452.6,335.38,454.6z"/>
	<path class="st1" d="M332.98,461.6c-0.7,2.2,0.6,10,1.9,11.2c0.8,0.8,2.5-1.8,2.5-3.8c0-0.8-0.9-3.3-1.9-5.5
		C333.88,459.9,333.68,459.7,332.98,461.6z"/>
	<path class="st1" d="M439.38,466.2c0,2.6,2.1,6.6,3.8,7.3c2.4,0.9,2.3,0.2-0.8-4.5C440.68,466.4,439.38,465.2,439.38,466.2z"/>
	<path class="st1" d="M324.48,471.4c-1.5,1.8-0.5,7.9,1.2,7.3c1.5-0.5,2.1-5.2,0.9-7.2C325.77,470,325.58,470,324.48,471.4z"/>
	<path class="st1" d="M320.08,473.7c-1.1,1-0.8,6.3,0.3,6.3c0.6,0,1-1.6,1-3.5C321.38,472.9,321.18,472.5,320.08,473.7z"/>
	<path class="st1" d="M447.88,481.9c0.6-0.6-4.4-6.9-5.5-6.9c-0.4,0-0.6,0.9-0.3,2.1C442.58,479.1,446.98,482.7,447.88,481.9z"/>
	<path class="st1" d="M414.48,490c1.4,0-3.2-8.2-4.8-8.8c-0.7-0.2-1.3,0.2-1.3,0.9C408.38,483.7,413.18,490,414.48,490z"/>
	<path class="st1" d="M415.77,505c1.9,0,0.9-3.4-1.5-5.6c-1.8-1.6-1.9-1.6-1.9,0C412.38,502,414.27,505,415.77,505z"/>
	<path class="st1" d="M416.48,512c1.7,0,0.9-2.6-1.6-5c-1.8-1.7-2.5-1.9-2.5-0.9C412.38,507.9,415.18,512,416.48,512z"/>
	<path class="st1" d="M406.27,534.98c0.18-0.32,0.36-0.63,0.55-0.95c0.66-1.14,1.33-2.26,2.02-3.38c0-0.01,0.01-0.01,0.02-0.02
		c0.09-0.59,0.29-1.17,0.62-1.83c1.1-1.9,3-10.8,2.4-10.8c-0.1,0-3.9-1.4-8.5-3c-9.8-3.5-8.5-3.4-10.1-1.3c-0.8,0.9-3.3,2.5-5.6,3.5
		c-4.3,1.9-4.3,1.9-2.1,4.8c2.9,4,2.6,8.5-0.9,12.2c-4.8,5-2.8,10.8,3.8,10.8c5.9,0,11.5-2.8,15.9-7.8
		c0.77-0.91,1.39-1.63,1.88-2.19C406.26,535,406.26,534.99,406.27,534.98z"/>
	<path class="st1" d="M408.92,532.43c-0.33,0.55-0.65,1.1-0.97,1.65c0.04,0.47-0.09,1.38-0.28,2.73c-0.4,2.9-0.2,4.2,0.6,4.2
		c1.9,0,2.5-3,1.2-6.6C409.21,533.64,409.03,533,408.92,532.43z"/>
	<path class="st1" d="M415.98,519.3c0.8,0.4,1.4,1.5,1.4,2.4c0,0.9,0.3,1.4,0.6,1.1c1-1.1-1.6-8.6-3.2-9.2c-1.9-0.7-2.4-0.8-2.4,0
		C412.38,514.8,414.77,518.5,415.98,519.3z"/>
	<path class="st1" d="M452.68,514.9c-1.3-0.5-2.3-0.4-2.3,0.1c0,2.2,1.4,4,3.2,4C456.27,519,455.58,516,452.68,514.9z"/>
	<path class="st1" d="M415.38,528.4c2.1-2.1,2.1-2.3,0.6-5.3c-1.8-3.4-2.2-3.7-2.9-1.9c-0.2,0.7,0,2.3,0.4,3.5
		c0.5,1.3,0.6,3.1,0.2,4C413.18,530.2,413.48,530.1,415.38,528.4z"/>
	<path class="st1" d="M452.38,521.8c0,1.3,2.3,3.2,3.9,3.2c1.1,0,1-0.4-0.4-2C453.98,520.9,452.38,520.4,452.38,521.8z"/>
	<path class="st1" d="M455.58,529.5c1.2,2.7,3.4,3.5,2.4,0.9c-0.3-0.9-0.6-2-0.6-2.5s-0.7-0.9-1.5-0.9
		C454.68,527,454.58,527.4,455.58,529.5z"/>
	<path class="st1" d="M326.48,552.4c1.7-0.5-2.1-10.4-4-10.4c-0.5,0-1.4-1.2-2-2.8c-4.2-10-5.1-9.4-5.1,3.1
		C315.38,554.9,315.88,555.3,326.48,552.4z"/>
	<path class="st1" d="M406.38,541.1c0-3.6-1-4-2.8-1.1c-1.3,2.1-1.6,5.3-0.6,6.3C404.18,547.5,406.38,544.1,406.38,541.1z"/>
	<path class="st1" d="M403.27,552.1c2.4-1.6,0.5-4.2-2.5-3.5c-2.4,0.6-2.5,0.5-1.5-1.4c1.6-3,0.8-4.6-1.2-2.5
		c-0.4,0.3-0.7,1.8-0.7,3.3c0,1.4-0.5,3.1-1.2,3.8C394.68,553.3,400.98,553.5,403.27,552.1z"/>
	<path class="st1" d="M393.77,545.8c-1.6,1-2.8,5.2-1.5,5.2c1,0,4.1-3.9,4.1-5.2C396.38,544.8,395.18,544.8,393.77,545.8z"/>
	<path class="st1" d="M385.77,553c1.5,0,3-1.6,3.9-4.3c1.1-3-2.1-1.9-3.8,1.3C384.58,552.5,384.58,553,385.77,553z"/>
</g>
<g id="MARRON_CLARO">
	<g>
		<path class="st2" d="M321.08,105.7c2,0.7,19.6,12.8,25.9,17.9c3.8,3,4.5,3.2,11.1,3.1c6.3-0.2,7.4,0.1,9.8,2.3
			c2.4,2.3,13.9,6.8,41.5,16.2c6.3,2.1,21,7.7,32.5,12.3c11.6,4.6,21.6,8.5,22.4,8.7c1.7,0.3,2.9-5.6,6.2-30.2
			c3.2-24,4.2-22.5-26.6-37.6c-28.1-13.7-61.7-25.4-87-30.3c-3.3-0.7-6.9-1.4-8.1-1.6c-1.3-0.3-2.8,0.4-4.1,1.8
			c-4.1,4.6-17.7,23.8-23.2,33C319.38,104.8,319.27,105,321.08,105.7z"/>
		<path class="st2" d="M505.38,211.5c-0.5-0.3-1-2.6-1-5c0-4.4,0-4.4-4.5-5c-2.4-0.4-5.2-1.4-6.2-2.2c-0.72-0.6-1.18-0.98-1.06-1.11
			c-0.65-0.41-1.29-0.83-1.87-1.34c-0.53-0.46-1.01-1.02-1.3-1.66c-0.08-0.08-0.17-0.18-0.26-0.29c-0.7-0.8-2.2-2.1-3.3-2.8
			c-1.7-1-1-1.1,4-0.7c5.6,0.5,5.8,0.5,3.5-0.9c-1.9-1.1-4.3-1.3-10.1-0.9c-7.7,0.6-11.9-0.4-11.9-2.8c0-0.9,0.3-0.9,1.2,0
			c0.7,0.7,4.1,1.2,8.2,1.2c5,0,6.6-0.3,5.6-1c-0.8-0.5-2.7-1-4.1-1c-1.5,0-6.1-1.6-10.3-3.6c-4.9-2.4-9.9-3.9-13.9-4.3
			c-3.4-0.4-7.5-1.5-9.2-2.4c-3.3-1.9-3.6-1.9,6.5,0.2c6.1,1.3,6,0.9-0.6-1.8c-4-1.7-6.1-2.1-7.6-1.4c-2.7,1.2-15.2-1.8-18-4.4
			c-1.1-1-3.7-2.7-5.7-3.8c-19.8-10.6-22.7-12.6-11.3-8c8,3.2,9.4,3.1,5.5-0.5c-4.9-4.4-16.2-6.8-13.7-2.9c0.5,0.8,0.1,0.8-1.4,0
			c-1.2-0.6-4.9-1.4-8.4-1.8c-5.4-0.5-6.7-1-9.4-3.9c-2-2.1-4.4-3.5-7-3.9c-2.1-0.4-5.7-1.9-7.9-3.5c-2.2-1.5-5.6-3.4-7.5-4.2
			c-1.9-0.9-4.4-2.6-5.5-3.8c-2.2-2.6-2.7-2.8,11.7,5.4c2.6,1.4,7.8,3.6,11.5,4.7c3.7,1.2,7.2,2.5,7.8,3c0.5,0.5,1.3,0.9,1.9,0.9
			c0.5,0-0.4-1.1-2-2.5c-2.8-2.5-8.1-4.5-11.6-4.5c-1,0-3.5-1.6-5.6-3.5c-2.2-1.9-5-3.9-6.3-4.4c-2.4-1-2.4-1,0.1-1.1
			c2.2,0,2.3-0.2,0.7-1.1c-0.9-0.5-2.2-0.7-2.9-0.3c-1.7,1-17.2,0.6-20.3-0.6c-1.4-0.5-2.8-1.7-3.1-2.5c-0.8-1.9-10.5-8.5-12.6-8.5
			c-0.8,0-2.3-0.9-3.3-2c-1-1.1-3.5-2.5-5.6-3.2c-2.1-0.6-4.6-1.9-5.5-3c-2-2.1-0.7-2.4,2.1-0.4c1.1,0.7,3.1,1.7,4.5,2.1
			c1.4,0.4,3.6,1.6,4.9,2.6c1.3,1.1,4.1,2.4,6.3,2.9c2.1,0.6,3.6,1.5,3.3,2.1c-0.7,1,6.8,4.8,9.5,4.9c1.3,0-0.2-1.1-7.1-5.5
			c-0.9-0.6-4.5-2.9-8-5.3c-3.5-2.3-8.2-4.7-10.4-5.3c-2.2-0.6-4.8-1.8-5.7-2.6c-2.1-1.9-10.8-3.1-10.8-1.4c0,0.7,1.9,1.1,4.9,1.1
			c2.8,0,5.3,0.4,5.6,1c0.7,1.1-3.1,1.3-8.7,0.4c-4.8-0.8-5.6-4.4-1-4.4c2.6-0.1,2.6-0.1,0.7-1.6c-1.1-0.8-3.1-1.7-4.5-2
			c-1.4-0.4-6.4-2.6-11.3-5c-9.8-5-11.4-5.2-15-2.4c-3,2.3-3.7,2.5-3.7,0.7c0-0.7,1.7-2.2,3.8-3.2c3.7-1.9,3.7-1.9,0.7-2.3
			c-1.6-0.2-4.7-0.7-6.8-1.2c-3.2-0.7-3.6-0.6-2.6,0.6s0.2,1.4-4.9,1.4c-6.7,0-9.2,1.5-9.2,5.6c0,3.2-2.8,3.2-3.6-0.1
			c-0.7-2.9-1.3-3-5.9-1.1c-3.7,1.6-4.1,2.6-2.5,5.7c1.4,2.5-0.2,2.5-2.5-0.1c-4.4-4.9-6.9-0.7-3.1,5.1
			c12.2,18.4,54.3,48.9,72.6,52.6c6,1.1,3.2-2.2-4.5-5.6c-12.7-5.6-9.4-5.2,8.4,0.9c9.3,3.2,26,8.6,37.2,11.9
			c51.6,15.3,105.3,36.5,112.9,44.6c3.4,3.6,2,3.8-3,0.5c-5.4-3.6-6-3.7-6-0.7c0,4.9,24.7,9.2,43.3,7.6c9-0.8,12.1-0.8,13.2,0.1
			c1,0.8,1.5,0.9,1.5,0.2C506.38,212.6,505.98,211.8,505.38,211.5z M469.18,184.4c-2,0.6-4.2,0.1-8.3-1.8c-7.1-3.4-7-3.8,0.8-1.6
			c3.4,1,7.1,2,8.2,2.3C471.58,183.6,471.48,183.8,469.18,184.4z"/>
		<path class="st2" d="M357.68,630.6c0.4-2.8,0.4-2.8-4.2-2.2c-2.5,0.3-12.9,1.3-23,2.1c-21.5,1.7-24.2,2.4-33.9,7.7
			c-4,2.2-7.6,3.7-7.9,3.4c-0.8-0.8-0.9-0.7,6.7-4.9c9.7-5.3,15-6.5,37.8-8.2c22.9-1.8,26.7-2.5,26.7-4.6c0-1.9-4.3-2-25-0.3
			c-23.2,1.8-28.4,2.7-36.1,6.5c-10.7,5.3-16.8,14.6-11,16.9c2,0.7,2.6,1.8,3.1,6.5c0.4,3,1.1,5.8,1.6,6.1c2.4,1.5,0.3,2.4-5.6,2.4
			c-6.5,0-6.5,0-6.5,8.4c0,9.9,0.7,10.6,9.1,8.6c4-1,4.7-1.5,3.8-2.6c-0.6-0.7-0.7-1.9-0.3-2.5c0.4-0.7,0.6-3.1,0.6-5.5
			c-0.1-2.3,0.2-4.6,0.8-4.9c0.5-0.3,1-1.4,1-2.4c0-2.5,3.2-5.1,6.2-5.1c1.4,0,3.3-0.9,4.3-2c2.1-2.4,3.8-2.5,5.5-0.5
			c0.8,0.9,2.2,1.2,4.1,0.8c2.3-0.4,3.3,0,4.9,2c1.1,1.3,3.1,2.8,4.4,3.1c1.7,0.4,2.6,1.5,3.1,3.8c0.4,1.8,1.4,4.1,2.3,5.1
			c1.4,1.5,1.4,2.3,0.3,5.3c-1,2.6-1,3.9-0.2,4.7c1.7,1.7,1.3,4.7-0.9,6.5c-1.8,1.4-2.2,3.5-3,13.6c-0.9,11-3,26.7-4.6,34.2
			c-0.6,3.1-0.5,3.2,5.7,5.3c10.9,3.7,9.7,5.5,15.8-23.4C350.58,680.4,354.77,655.8,357.68,630.6z"/>
		<path class="st2" d="M299.58,691.2c-1-1-2.7-3.7-3.8-6c-2-4.4-4.5-5.4-7.6-3c-0.9,0.7-1.9,3.5-2.2,6.3c-0.4,2.7-1,6.5-1.3,8.4
			c-0.6,3.4-0.6,3.4,5,2.8C299.68,698.7,303.68,695.3,299.58,691.2z"/>
		<path class="st2" d="M323.88,693c-0.3,0.5-1.5,1-2.6,1c-1.1,0-3,0.7-4.4,1.6c-1.7,1.1-2.9,1.3-4.3,0.5c-1.3-0.7-2.2-0.7-3,0.1
			c-0.9,0.9-1.8,0.9-3.6,0c-2.3-1-2.5-0.9-3.1,3.1c-0.4,2.3-1.6,7.8-2.7,12.2c-3.4,13.2-4.6,19.5-3.8,19.5c0.5,0,2.9-1.6,5.4-3.5
			c5.7-4.3,4.6-4.4,10.5,1.5c6.6,6.6,7.6,6.5,9-1.3C325.08,706.3,326.38,688.9,323.88,693z"/>
		<path class="st2" d="M294.38,702.4c-3.4,1.2-3.5,1.4-4.2,8.2c-0.9,8.4-0.4,10.4,2.6,10.4c2.3,0,2.9-1.4,7.3-18.3
			C300.58,700.7,299.27,700.6,294.38,702.4z"/>
		<path class="st2" d="M375.27,950.7c-9.2,5.7-14.4,4.8-33.9-5.5c-6.9-3.6-16.5-8.7-21.5-11.2c-10.9-5.5-14.2-9.9-11.4-14.7
			c1.2-2.2,2.2-2.8,4.7-2.7c4.3,0.2,3.2-1.2-3.2-4.2c-6.3-2.9-7.6-3-11-0.3c-4.6,3.6-3.6,7.2,3.8,14.5c4.7,4.6,6.6,7.2,7.1,10.1
			c0.5,2.1,1.1,27.8,1.4,57.2c0.6,53.4,0.6,53.4,4.9,54.7c2.4,0.7,5.2,2,6.3,3c3.5,3.1,53.4-2.4,51.4-5.6c-1-1.6,2.8-85.2,4.2-93.9
			C378.68,948.7,378.68,948.7,375.27,950.7z M332.08,988c-1.5,3.3-1.6,3.3-0.9,0.5c1.9-8.3-0.4-19.8-4.8-24.5
			c-2.9-3.2-2.4-4.2,0.6-1.3C331.98,967.7,334.77,981.8,332.08,988z"/>
		<path class="st2" d="M460.58,1028.2c7.7,0.3,8.9,0.1,11-1.9c2.6-2.4,8.8-4.4,11.6-3.7c1.1,0.3,6.3-2.6,14.2-8.1
			c16.6-11.5,16.6-11.5,14.7-15.1c-1.7-3.4-21.8-63.5-23.7-70.9c-1.3-5.1-1.3-5.1-14.9-6.8c-7.5-0.9-18.4-1.7-24.3-1.7
			c-10.7,0-10.7,0-11,3.2c-0.3,3.2-0.3,3.2-7.3,3.4c-7.7,0.3-8.1,0.5-12.1,8.9c-3.5,7.4-3.2,9.2,5.8,28.9
			c9.8,21.8,16.6,38.6,21,52.3C449.27,1028.3,448.77,1027.9,460.58,1028.2z M461.58,942.1c1.9-0.1,3.8,1,6.2,3.3
			c6.5,6.6,9,21.7,4.2,26.4c-1.6,1.6-1.6,1.5-0.1-2c4-9.8-1.2-24.2-9.8-26.7C458.98,942.2,458.98,942.2,461.58,942.1z M442.18,939
			c1.2,0,3.7,1.4,5.6,3c1.9,1.7,4.4,4.7,5.5,6.8c2.3,4,1.4,3.2-4-3.6c-1-1.3-3.5-3.2-5.6-4.3C440.77,939.4,440.48,939,442.18,939z"
			/>
		<path class="st2" d="M487.48,1024c-2,1.4-2.1,1.8-1,4.3c1.8,3.9,3.6,3.3,19.1-6.4c15.7-9.9,20.2-13.8,18.1-16.1
			c-3.7-4.1-4.2-4-19.3,6.6C496.38,1017.9,488.77,1023.2,487.48,1024z"/>
		<path class="st2" d="M488.68,1035.9c0.3,0.9,2.2,6.3,4.3,11.9c3.8,10.4,3.8,10.4,7.3,9.8c2-0.3,8.8-1,15.1-1.6
			c11.9-1.1,19.9-2.8,26.6-5.6c9-3.8,35.3-15.9,39.9-18.4c2.8-1.5,9.5-5.1,15-8c5.5-2.9,10.2-5.4,10.4-5.6c0.9-0.7-4.2-6.2-6.3-6.8
			c-1.3-0.3-7.3,0.6-13.2,1.9c-17.1,4-38.4,4.4-50.4,1c-0.9-0.3-2.4,0.9-3.7,2.8c-1.3,1.7-2.3,2.7-2.3,2.1c0-0.5,0.7-1.9,1.5-3
			c2-2.7,1.9-3.1-1.2-4.2c-1.6-0.5-3.5-1.3-4.4-1.7c-1-0.3-2-0.2-2.3,0.4c-1,1.6-20.8,14.6-29.3,19.3
			C490.18,1033.2,488.38,1034.7,488.68,1035.9z"/>
		<path class="st2" d="M445.18,1026.5c0.2-0.2,0.1-0.8-0.3-1.4c-0.8-1.3-4.5-1.5-4.5-0.2C440.38,1025.8,444.48,1027.2,445.18,1026.5
			z"/>
		<path class="st2" d="M484.48,1030c-1.8-5-4.5-6.1-9.1-3.7c-3.2,1.7-3.4,8.7-0.3,11.8c1.9,1.9,2.1,1.9,6.1,0.4
			C486.18,1036.5,486.58,1035.6,484.48,1030z"/>
		<path class="st2" d="M470.58,1035.2c-1.2-3.9-1.2-3.9-11.4-4.5c-9.4-0.6-13.3-1.3-17.9-3.2c-1-0.3-2-0.1-2.4,0.5
			c-1.4,2.3,0.7,8.1,4.4,12c4.6,4.8,7.3,5.1,19.5,1.8C472.68,1039.2,471.98,1039.8,470.58,1035.2z"/>
		<path class="st2" d="M492.27,1064.5c1.7-0.4,3.1-0.9,3.1-1.2c0-1.4-8.5-25.3-9-25.2c-0.3,0-2,0.8-3.7,1.6c-4.1,2-4.1,1.8,0.2,12.8
			C487.48,1064.2,488.38,1065.4,492.27,1064.5z"/>
		<path class="st2" d="M480.48,1051.4c-4.6-11.5-4.6-11.5-16.1-7.8c-4.1,1.3-8.5,2.4-9.8,2.4c-2.3,0-2.2,0.2,1.9,8.1
			c7.7,14.4,8.1,14.7,17.5,11.5C485.58,1061.7,485.08,1062.8,480.48,1051.4z"/>
		<path class="st2" d="M370.88,1049.9c-3.4,1.4-23.5,4-35.9,4.7c-11.7,0.7-11.7,0.7-11.4,4.3c0.3,3.6,0.3,3.6,13.1,3.4
			c12.1-0.2,35.7-2.6,39.1-3.9c1.7-0.6,2-3.3,1-7.2C376.08,1048.9,374.38,1048.5,370.88,1049.9z"/>
		<path class="st2" d="M320.68,1065c0.4,0,0.7-2.7,0.7-5.9c0-5.7-0.1-5.9-3.1-7c-6-2.1-7.7-1.5-8.9,3c-0.6,2.3-1,4.2-0.8,4.3
			c0.2,0.1,1.8,1.4,3.6,2.9c5,4,6.2,3.6,6.2-2.3c0-3,0.4-5,1.1-5c0.7,0,1,1.8,0.7,5C320.08,1062.8,320.18,1065,320.68,1065z"/>
		<path class="st2" d="M372.38,1061.2c-0.8,0-5.1,0.7-9.5,1.4c-4.4,0.7-14.9,1.6-23.3,2c-15.2,0.7-15.2,0.7-16.1,4.3
			c-0.6,2-1.7,6.3-2.6,9.6c-3.7,13.8-4.1,11.7,3.8,19c12.5,11.4,25.7,15.5,50.1,15.5c15.6,0,31.4-1.4,33-3c1.7-1.7-1.8-7.5-9.3-15.6
			c-4.2-4.4-11.4-13.7-16.1-20.7C377.48,1066.5,373.27,1061.1,372.38,1061.2z"/>
		<path class="st2" d="M318.88,1075.9c0.9-3.5,1.8-7.1,2.1-8c0.3-1.2-0.2-1.5-2.3-1.2c-3.3,0.5-8.7-1.3-7.8-2.6
			c0.3-0.5,0.1-1.2-0.4-1.5c-0.5-0.4-1.2,3.1-1.6,7.8c-0.8,9.7-0.7,10,4.1,11.6C317.27,1083.5,316.98,1083.8,318.88,1075.9z"/>
		<path class="st2" d="M375.27,231c5.4,0,10.3-9.1,7.3-13.6c-2.5-3.8-8.4-4.3-11.7-0.9C365.68,221.6,368.58,231,375.27,231z
			 M373.98,218.3c2.9-2.3,2.9-2.3,5.2,0.3c1.3,1.4,2.2,3.3,2,4.2c-0.8,4-8.1,4-9.4,0C371.27,221.1,371.77,220.1,373.98,218.3z"/>
		<path class="st2" d="M418.97,239.83c5.61,0,10.7-9.45,7.58-14.13c-2.6-3.95-8.73-4.47-12.16-0.94
			C408.99,230.06,412.01,239.83,418.97,239.83z M417.62,226.63c3.01-2.39,3.01-2.39,5.4,0.31c1.35,1.45,2.29,3.43,2.08,4.36
			c-0.83,4.16-8.42,4.16-9.77,0C414.81,229.54,415.33,228.5,417.62,226.63z"/>
	</g>
</g>
<g id="MARRON_OSCURO">
	<g>
		<path class="st3" d="M509.57,193.52c0.12-0.25,0.25-0.49,0.39-0.72c0.38-0.61,0.82-1.18,1.25-1.75c0.4-0.53,0.79-1.08,1.18-1.62
			c0.04-0.05,0.08-0.1,0.11-0.15c-2.67,1.16-5.25,1.72-8.23,1.72c-4.3,0-5,0.2-4,1.4c1.8,2.1-1.4,3.6-5.3,2.5
			c-2.65-0.74-4.23-0.98-4.89-0.74c0.05,0.06,0.1,0.12,0.12,0.2c0.03,0.12,0.07,0.24,0.12,0.36c0.1,0.23,0.24,0.45,0.39,0.65
			c0.31,0.39,0.68,0.73,1.08,1.04c0.22,0.16,0.43,0.32,0.66,0.47c0.79,0.53,1.63,1.01,2.38,1.61c1.06,0.24,2.53,0.61,4.56,1.11
			c1.9,0.4,2.2,0.3,1-0.5c-1.1-0.8-0.6-0.9,2-0.5c3.2,0.5,3.7,0.2,5.8-3.1C508.71,194.67,509.18,194.01,509.57,193.52z"/>
		<path class="st3" d="M284.08,89.1c7.4,3.9,11,4.7,5.9,1.4c-1.4-1-2.3-2.2-1.9-2.8c0.3-0.6,0.1-0.7-0.6-0.3
			c-0.6,0.4-2.8-0.2-4.7-1.3c-1.9-1.2-3.6-2.1-3.7-2c-0.1,0-0.7,0.3-1.4,0.5C277.08,84.9,279.88,86.9,284.08,89.1z"/>
		<path class="st3" d="M237.88,89.5c4.9-2.4,4.9-2.4,1.8-2.5c-1.7,0-3.9-0.3-4.9-0.7c-1.2-0.4-1.5-0.2-1.2,0.8
			c0.3,0.8-0.1,2.2-1,3.1C230.48,92.6,231.98,92.4,237.88,89.5z"/>
		<path class="st3" d="M340.88,126c0.3,0.5,2.1,1,3.8,1c2.4,0,2.8-0.3,1.7-1C344.38,124.7,340.08,124.7,340.88,126z"/>
		<path class="st3" d="M459.68,174.2c5.7,2.8,5.7,2.8,5.4-1.3c-0.3-4.1-0.3-4.1-8.3-7.3c-4.3-1.8-14-5.8-21.6-8.8
			c-7.5-3.1-17.6-6.6-22.5-7.8c-4.8-1.2-10.5-3.1-12.6-4.1c-4-2.1-16.9-6.9-18.3-6.9c-0.5,0,0.4,0.7,2.1,1.6
			c1.6,0.8,3.8,2.3,4.8,3.1c1,0.9,4.8,2.5,8.5,3.5c6.7,1.8,6.7,1.8-1,1.3c-4.5-0.3-7.9-0.2-8.2,0.4c-0.9,1.4,7.7,2.5,14.3,1.8
			c7.6-0.8,12.4,0.6,17.5,5.3c4.8,4.4,17.1,10.7,27.1,14C450.77,170.3,456.48,172.6,459.68,174.2z"/>
		<path class="st3" d="M296.88,212c5.1-4.9,13.1-5,19-0.4c4,3.2,4,3.2,4-8.5c0.1-12.4,0.3-13.4,6.9-24.4c4.2-7.1,4-5.7-0.9,4.5
			c-5.4,11.7-5.6,13.2-4.2,30.6c1.1,14.3,1.1,14.3,3.3,3.8c2.1-9.6,5.1-18.3,6.1-17.2c0.2,0.2-0.2,1.9-1,3.7
			c-0.7,1.9-2.4,7.7-3.6,12.9c-1.2,5.2-2.6,10.8-3.1,12.5c-1.5,5.2-2.4,19.9-1.1,19.1c0.6-0.4,1.1-0.1,1.2,0.6c0,0.7,0.9-3.7,2-9.7
			c2.6-15.3,6.3-26.6,11.9-36.5c2.6-4.7,6.8-12.6,9.3-17.5c2.5-5,6-11,7.6-13.5c3.7-5.4,3.8-5.3-11.4-9.4c-8.2-2.2-28.1-8-32-9.3
			c-0.5-0.1-2,1.2-3.2,2.9c-8.6,13.2-14.3,36.1-14.3,58.2C293.38,214.9,294.98,213.9,296.88,212z M325.08,164c5.9-5.5,6.7-5,1.2,0.7
			c-5.8,6-8.6,10.1-9.5,13.9c-0.7,2.9-0.7,2.9,1.6-0.1c4.1-5.3,4.4-5.1,1,0.8c-3.1,5.6-3.2,6.3-2.8,13.5c0.5,7.7,0.5,7.7-0.9,3.7
			C312.08,186.5,316.18,172.1,325.08,164z"/>
		<path class="st3" d="M431.18,164.7c-9.1-4.2-12.2-4.4-4.9-0.2c3.5,2,7.3,3.5,8.5,3.3C436.38,167.5,435.48,166.8,431.18,164.7z"/>
		<path class="st3" d="M370.88,192.5c1.1-0.4,6.8-0.9,12.8-1.2c8.9-0.5,10.5-0.8,9.6-1.9c-1.4-1.8-7.6-1.7-15.2,0.2
			c-3.2,0.8-6.6,1.9-7.5,2.5C369.08,193,369.18,193.1,370.88,192.5z"/>
		<path class="st3" d="M402.38,193c0-1.3-3.5-3.8-6.3-4.6c-2.7-0.6-2.8-0.5-1.7,1.3C395.58,191.5,402.38,194.4,402.38,193z"/>
		<path class="st3" d="M439.38,170.6c7.2,1.2,9,0.1,2.5-1.5c-2.4-0.6-4.5-1.1-4.7-1c-0.2,0-1.1,0.4-2.1,0.8
			C433.77,169.4,435.08,169.9,439.38,170.6z"/>
		<path class="st3" d="M468.38,171.7c0,3.1,1.6,5.3,3.6,5.3c1,0,1-0.8,0-3.7C470.38,168.7,468.38,167.8,468.38,171.7z"/>
		<path class="st3" d="M481.68,183c1.5,0,4.5,0.9,6.7,2c4.4,2.2,5.4,2.5,4.5,1c-1.9-3.1-9.9-5.7-12.5-4
			C479.18,182.8,479.48,183,481.68,183z"/>
		<path class="st3" d="M427.58,199.2c-1.4,1.4-1.6,3.2-0.3,2.3c1.1-0.6,5,1,10.4,4.2c4,2.5,4.7,2.1,1.9-1.4
			C435.88,199.7,429.68,197.1,427.58,199.2z"/>
		<path class="st3" d="M307.88,275c-2.4,0-2.4,0-0.5,6.6c2.5,8.6,2.6,8.6,3.3,1.2C311.27,275.6,311.08,275,307.88,275z"/>
		<path class="st3" d="M374.38,604.6c11-1.8,12.5-2.3,12.5-4c0-1.5-1.3-2.4-6-3.7c-3.3-1-6.8-2.3-7.7-2.8c-2.1-1.3-2-1.3-8.3,1
			c-4.9,1.7-5,1.8-4.9,5.9C360.08,606.8,360.58,607,374.38,604.6z"/>
		<path class="st3" d="M312.88,623.5c2.8-0.3,12.4-1.2,21.4-2c22.1-2,21.1-1.7,21.1-7.4c0-2.7-0.7-7-1.5-9.6c-0.8-2.7-1.2-5.1-1-5.3
			c0.7-0.8,4.5,7.8,4.5,10.3c0,2.8,1.2,3.2,3,1c1.1-1.3,1-1.8-0.2-2.8c-0.9-0.7-1.9-3.3-2.3-6c-0.6-4.3-0.8-4.7-3.3-4.5
			c-1.5,0.1-5.2,0.3-8.2,0.6c-5.5,0.3-5.5,0.3-2.4,1.7c2.6,1.1,3.3,2.1,3.9,5.3c0.7,4.1-1.5,11.2-3.4,11.2c-0.5,0-1.8,0.3-2.8,0.6
			s-0.6-0.2,0.9-1c2.6-1.6,4.6-5.2,3.4-6.3c-0.3-0.4-0.6,0-0.6,0.9c0,2.3-3.6,5-6.7,5c-6.4,0-9.3-9.2-4.6-14.4c1.8-2,1.7-2-2.7-1.3
			c-2.5,0.4-5.1,1.2-5.7,1.7c-1.5,1.2-1.7,5.8-0.3,5.8c1.9,0,1,1.8-1.2,2.4c-1.3,0.3-5.4,3.7-9.3,7.6
			C307.88,624.1,307.88,624.1,312.88,623.5z"/>
		<path class="st3" d="M320.98,607.6c3-1.2,1.3-5.9-2.4-6.7c-1.8-0.4-3.4-0.4-3.6,0C313.68,603.2,318.38,608.6,320.98,607.6z"/>
		<path class="st3" d="M340.68,601.2c1.2,0.2,3.2,1.8,4.4,3.7c2.4,3.5,3.2,2.6,1.2-1.2c-2-3.8-6.3-4.9-10.1-2.7
			c-0.9,0.6-1.9,2.4-2.3,4c-1.4,6.2,4.9,10.5,8.8,6.2c4.5-4.9-1.1-11.2-5.8-6.6c-0.9,0.9-1.8,1.4-2.1,1.1
			C333.68,604.6,338.58,600.9,340.68,601.2z"/>
		<path class="st3" d="M464.48,898c1.3,0,1.1-3.4-0.3-4.8c-2.1-2.1-2.7-1.3-1.7,1.8C463.08,896.6,463.98,898,464.48,898z"/>
		<path class="st3" d="M478.58,909.7c4.3,0.3,7.8,0.9,7.8,1.4c0,1.5-5.7,1.9-12.5,1c-3.9-0.6-14.3-1.4-23.3-1.7
			c-16.2-0.7-16.2-0.7-14.8,2.7c1.4,3.4,1.4,3.4,17.8,4.6c8.9,0.6,20,1.5,24.6,1.9c9.3,0.8,12.2-0.5,12.2-5.7
			c0-3.2-1.5-4.4-13.1-10.7c-7.8-4.3-11.9-5.3-11.9-2.8C465.38,907.1,467.88,908.9,478.58,909.7z"/>
		<path class="st3" d="M431.38,906.7c0-3.4-4.2-3.7-10.5-0.8c-7.8,3.5-8.1,6.9-1.3,14.6c3.9,4.5,4,4.5,10.4,4.5
			c3.5,0,6.4-0.3,6.4-0.8c0-0.4-1.1-3.9-2.5-7.7C432.58,912.6,431.38,908.3,431.38,906.7z"/>
		<path class="st3" d="M377.98,927c4.8-9,7.9-13,10.1-13c2.1,0,1.5,1.8-1.2,3.6c-1.5,0.9-5.1,6.6-8.7,13.6
			c-7.4,14.3-8.2,14.9-17.1,12.4c-5.8-1.6-29.7-13.5-42.2-21.1c-6.1-3.6-8.5-3.6-8.5-0.1s3.2,5.7,22.5,16
			c20,10.7,26.9,13.6,32.1,13.6c3.8,0,10-2.7,12.6-5.7c1.8-2,10.8-22.7,10.8-24.9c0-1.7,2-1.8,2-0.2c0.1,0.8,0.6,0.5,1.5-0.5
			c4.8-6.4-6.7-13.6-15.1-9.5c-2.4,1.1-3.4,6.4-3.4,17.8C373.38,935.5,373.38,935.5,377.98,927z"/>
		<path class="st3" d="M419.58,923.1c-2.7-3.6-3.9-3.6-5.9,0.1c-6.9,13-7.7,16.2-4.9,19.5c2.3,2.6,4.6,2.5,4.6-0.2
			c0-0.8,1.8-4.9,4-9.2C421.38,925.6,421.38,925.5,419.58,923.1z"/>
		<path class="st3" d="M513.48,1058.5c-12.6,1.3-12.6,1.3-3.6,1.6c15.8,0.6,20.2,0.1,32.6-4.1c19.3-6.4,69.5-31.6,68.6-34.3
			c-0.8-2.4-3.6-1.3-23.2,8.9C547.38,1051.5,534.78,1056.2,513.48,1058.5z"/>
		<path class="st3" d="M498.88,1063c-0.4,0.6-0.4,2.5-0.1,4.3c0.6,3.2,0.6,3.2-0.9-0.1c-1.5-3.2-1.5-3.2-4.5-1.7
			c-2.9,1.5-3,1.6-1.5,4.5c2.1,4.1,2.2,4.1,11.5,0.5c8.4-3.3,9.3-4.2,6.8-7.2C508.88,1061.8,499.77,1061.6,498.88,1063z"/>
		<path class="st3" d="M477.88,1067c-11.7,4.2-10.9,3.3-8,9c1.8,3.5,3.1,5,4.5,5c3.8,0,18.1-6.1,17.3-7.3
			C486.08,1064,485.98,1064,477.88,1067z"/>
		<path class="st3" d="M352.88,1113.1c-14.3-3-19-5.2-28.7-13.6c-8.7-7.5-9.7-8.8-7.8-10c1.8-1.1,1.2-5.5-0.8-5.5
			c-1,0-2.2,0.3-2.5,0.7c-0.4,0.3-0.7,3.5-0.7,6.9c0,7.3,0,7.3,15,16.3c14.8,9,33.2,12.7,59,11.8c16.6-0.5,22.3-1.9,22.8-5.6
			c0.3-2.1,0.1-2.3-2.5-1.6C395.58,1115.3,365.27,1115.7,352.88,1113.1z"/>
	</g>
</g>
<g id="JEAN">
	<path class="st4" d="M438.27,600.7c-2.6,0.3-4,1.1-5.3,3.3c-2.2,3.9-5.1,5.3-8.9,4.6c-2.1-0.4-3.6-0.1-4.8,1
		c-1.2,1.1-2.9,1.5-5.1,1.1c-1.9-0.2-4.5,0.2-6.2,1c-3.6,1.9-6.7,1.1-13.6-3.4c-5.4-3.6-5.4-3.6-18-2c-6.9,1-12.6,2.1-12.8,2.6
		c-0.2,0.6-1.6,2.6-3.3,4.7c-2.9,3.7-2.9,3.7-0.4,6c2.6,2.4,3.3,6.2,1.4,8.1c-0.5,0.5-0.9,3.2-0.7,5.9c0.3,4.9,0.3,4.9,7.8,7.1
		c9,2.6,20.1,2.9,28.5,0.8c8.8-2.2,29.1-12.6,36.6-18.9c5.6-4.6,19.6-20.4,18.7-21.1C451.48,600.9,441.58,600.4,438.27,600.7z"/>
	<path class="st4" d="M417.88,635.9c-4.9,2.6-11.6,5.5-14.7,6.5c-5.8,1.8-5.8,1.8-5.8,8.3c0,5.7,0.2,6.4,1.5,5.3
		c0.8-0.7,1.2-1.6,0.9-2.1c-0.3-0.5,0.3-0.6,1.2-0.2c1.2,0.4,1.5,0.3,1-0.5c-0.4-0.7-0.3-1.2,0.3-1.2c0.5,0,3.9-2.3,7.5-5
		c3.6-2.8,6.6-4.6,6.6-4.1s-2.7,3.1-5.9,5.6c-12.6,9.9-14.1,12.6-15.1,27.7c-2.2,31.7-0.6,66.6,4.5,96.9c0.9,5.2,2,15.5,2.4,22.9
		c0.9,13.8,5.7,34.4,17.7,76c8.2,28.5,8.4,29,10.2,29c2.5,0,4.2,2,4.2,4.7c0,2.3,0,2.3,14.9,2.3c14.9,0,14.9,0,11.5-9.3
		c-1.9-5-5.2-15.3-7.5-22.7c-2.2-7.4-7.5-23.6-11.6-36c-7.2-21.5-7.6-23.1-8.3-34.5c-0.4-6.6-1.2-13.4-1.9-15
		c-4.8-11.7-6.6-60.3-3.1-83c3.1-20.1,3.7-38.9,1.6-55.4C426.98,628.8,428.27,630.6,417.88,635.9z M400.08,680
		c-0.3,8.2-1,15.7-1.7,16.7c-1,1.7-1.1,1.7-0.6-0.2c0.2-1.1,0.8-8.6,1.1-16.8c0.4-8.1,1-14.7,1.3-14.7
		C400.48,665,400.38,671.7,400.08,680z M425.27,796.7c0,1.2-13.7,7.8-14.5,7.1c-0.3-0.4,2.5-2.3,6.2-4.2
		C424.18,795.9,425.38,795.5,425.27,796.7z"/>
	<path class="st4" d="M388.88,758c1-7.9,1.9-27.7,2.5-53.3c0.9-35.3,1.2-41.3,2.7-44c1-1.8,1.7-3.8,1.6-4.5c0-0.6-0.1-3.4-0.2-6
		c-0.1-4.8-0.1-4.8-10.3-4.8c-6.9,0-12.3-0.6-16.3-1.8c-3.3-0.9-6.8-1.9-7.8-2.2c-0.9-0.3-1.9,0.1-2.1,0.8
		c-0.3,0.7-1.2,6.9-2.1,13.8c-2,15.2-6,37.3-8.1,45.5c-1.3,4.6-1.8,13.9-2.4,40.5c-0.7,34.5-0.7,34.5-5.5,50.5
		c-6.6,21.9-7.2,25.9-5.6,34.8c2.8,14.5,2.6,20.1-1.2,38.8c-3.6,17.3-6,34.1-7.3,49.4c-0.6,8.1-0.6,8.1,14,15.8
		c15.4,8.1,26.2,12,27.5,9.9c0.4-0.6,1.5-9.4,2.5-19.4c5-51.2,7.8-69.3,12-77.6c6.9-13.7,7.6-22.1,5-64.7
		C387.48,773.9,387.88,765.8,388.88,758z M372.38,817c-3.9,0-9.9-0.8-18-2.5c-0.8-0.2-1.8-0.4-2.2-0.4c-0.5-0.1-0.8-0.5-0.8-1
		s3.3-0.2,7.3,0.5c3.9,0.8,10,1.4,13.5,1.4s7.2-0.5,8.2-1c1.1-0.6,2.1-0.6,2.4-0.1C383.68,815.2,377.77,817,372.38,817z"/>
	<path class="st4" d="M454.98,551.9c-0.7,1.1,3.7,2.3,5.7,1.5c4.5-1.7,8,25.2,4.2,32.6c-1.8,3.5-1.8,3.5,0.3,1.6
		c3.4-2.9,4.5-8.1,3.9-16.7c-1-12.7-2.4-16.9-6.3-18.5C458.98,550.8,455.77,550.6,454.98,551.9z"/>
	<path class="st4" d="M421.48,903c5.3-2.1,5.3-2.1,2-13.6c-1.6-6-3.3-12.6-3.7-14.7c-0.5-2.9-0.9-3.5-1.6-2.5
		c-0.7,0.9-0.7,0.3-0.3-1.7c0.4-1.6,0.3-2.6-0.1-2.2c-0.9,0.9-2.4-4.7-10.9-39.4c-3.8-15.6-5.5-24.5-5.5-29c0-3.5-1.3-16.3-3-28.4
		c-1.6-12.1-3.3-24.9-3.7-28.5c-0.8-6.5-0.8-6.4-2.6,9.5c-2.3,21.1-2.3,20.4,2.3,33.8c2.2,6.3,4,12.8,4,14.4c0,1.5,0.9,6.6,2,11.3
		c1.5,6.6,2,12.3,2,25.5c0,21.5,0.8,26.2,7.7,46.8C416.88,904.7,416.98,904.8,421.48,903z"/>
</g>
<g id="TIZA">
	<path class="st5" d="M373.77,243c11.9,3.9,24-9.7,20.6-23.1c-2.4-9.4-7.3-12.1-18-10c-10.2,2.1-17.1,11.3-15.3,20.4
		C361.88,234.3,368.98,241.4,373.77,243z M380.38,213.5c6.2,3.2,6.9,10.8,1.6,16.1c-3.7,3.7-6.47,4.14-10.8,2
		c-4.25-2.1-5.03-6.58-4.98-8.34C366.45,214.34,372.61,209.49,380.38,213.5z"/>
	<path class="st5" d="M443.98,441.9c-0.3-1.9-1.5-5.3-2.6-7.4c-2.3-4.4-2.5-5.9-0.9-4.9c0.7,0.4,1,0.1,0.7-0.7
		c-0.3-0.8-1-1.3-1.5-1.2c-0.5,0.1-1.8-1.2-2.8-2.9c-1.6-2.8-1.6-3.1-0.1-2.5c1.4,0.6,1.5,0.3,0.6-1.4c-0.6-1.1-1.6-1.7-2.1-1.3
		c-0.6,0.3-0.9,0-0.8-0.7c0.8-3.9-7.3-18.8-10.8-20c-1-0.3-3.8-4.6-6.3-9.4c-5-9.8-5.5-10.2-8.8-7.9c-3.1,2.1-12.2,22-12.2,26.5
		c0,1.5,0.4,1.7,2.3,1c2.2-0.8,4.1-5.1,7.3-17.1c2.6-9.4,7-13.7,7-6.7c0,6.4,10.2,28.7,14.1,30.8c1.3,0.7,2.3,1.6,2.3,2.1
		c0,1.5-2.1,0.8-3.8-1.2c-1-1-3-2.2-4.6-2.6c-2.6-0.6-2.7-0.5-1.7,1.5c0.7,1.1,2.1,2.1,3.2,2.1c1.7,0,2,0.4,1.4,2.8
		c-0.5,2.4-0.2,3,2,4c1.4,0.6,2.5,1.9,2.5,2.7c0,1.3-0.4,1.4-2,0.5c-1.9-1-2-0.9-0.9,0.8c0.6,1,2.4,2.3,3.9,2.9
		c1.6,0.6,3.4,2.1,4.1,3.4c1.2,2.3,1.1,2.3-2.5-0.5c-4.2-3.2-5-3.1-3.3,0.4c0.9,1.9,2.3,2.6,5.2,3c3.1,0.4,4.3,1.1,5.3,3.2
		c0.7,1.6,2.2,3.3,3.3,3.8c1,0.6,1.9,1.7,1.9,2.6c0,1.1-0.9,0.7-3.5-1.3c-1.9-1.5-3.5-3.3-3.5-4c0-0.6-1.3-1.6-3-2.2
		c-3.5-1.2-3.8-0.4-1.1,3c1,1.3,2.2,3.5,2.6,4.8c0.4,1.4,1.6,3.8,2.6,5.5c1.1,1.7,1.9,3.8,1.9,4.6c0,0.8,1.5,4.6,3.4,8.5
		c1.9,3.8,4.1,8.7,5,10.8c2.7,6.3,1.8,10.1-1.6,7c-1.7-1.5-1.8-1.5-1.8,0.7c0,1.4,1.3,3.4,3.2,5c1.9,1.6,2.8,3.1,2.4,3.8
		c-0.5,0.9-1.3,0.6-2.6-1c-1.9-2.3-1.9-2.3-2,0.4c0,2.1,0.5,2.8,1.8,2.8c2.4,0,4.6,4.1,4,7.4c-0.3,1.5,0,3.1,0.8,3.7
		c0.8,0.6,1.4,1.8,1.4,2.7c0,1.3-0.3,1.3-1.9-0.2c-1-1-2.1-1.3-2.4-0.9c-0.9,1.5,0.6,3.1,3.6,3.8c2.8,0.7,2.8,0.7,2.2-6.1
		c-2-24.1-3.1-31.5-6.5-45.4C446.27,452.5,444.27,443.9,443.98,441.9z"/>
	<path class="st5" d="M404.28,471.2c-1-2.3-1.9-5.3-1.8-6.5c0-2.1,0.1-2.1,0.9-0.2c0.9,2.4,3.8,5,4.6,4.2c1-0.9-4-7.7-5.3-7.2
		c-0.7,0.2-1.3,0.3-1.3,0.2c0-0.1-0.9-2.7-2-5.7c-1.1-3-1.4-4.6-0.7-3.6c2.2,3.5,5.6,7.1,5.7,6.1c0-2-4.1-7.7-5.9-8.2
		c-1-0.3-2.6-2.1-3.4-4.1c-0.9-2.1-2-4.4-2.5-5.2c-1.9-3.4-8.2-15.8-8.2-16.3c0-0.3,0.8-0.8,1.8-1c0.9-0.2,0.6-0.3-0.6-0.2
		c-1.4,0.2-4.1-1.1-6.6-3c-4-3.1-4.6-3.2-9.4-2.4c-2.9,0.4-5.6,1.1-6.2,1.4c-0.5,0.3-3.8-0.7-7.2-2.4c-8.2-3.9-10.8-4.4-14.2-3.1
		c-2.4,0.9-3.3,0.7-6.6-2c-4.1-3.3-4.8-3.5-7-2c-1.8,1.2,0.2,3,3.3,3c1,0,1.6,0.4,1.3,0.9c-0.4,0.5,0.7,1.2,2.4,1.6
		c2.1,0.5,3,1.2,3,2.7c0,2,0,2-1.7,0c-1-1.2-3.1-2.4-4.7-2.8c-3.9-0.9-2.7,0.9,2.8,4.1c3.2,1.9,4.6,3.4,5.4,6.4
		c1.7,5.4,1.6,5.5-2.4,3.1c-1.9-1.2-3.7-2-4-1.8c-1.2,1.2,1.1,3.8,4.2,4.8c0.94,0.35,1.91,0.87,2.72,1.44
		c0.16-0.08,0.32-0.16,0.49-0.24c0.4-0.19,0.8-0.38,1.22-0.55c0.2-1.17,2.75-1.42,9.18-0.85c6,0.4,6.7,0.3,7.9-1.7
		c1.8-2.8,3.5-2.7,6.7,0.8c6.2,6.7,9.2,10.3,9.2,11.1c0,0.5,0.9,1.2,2.1,1.5c1.1,0.4,2.4,1.8,2.9,3.1s1.6,2.4,2.4,2.4
		c0.8,0,1.7,1.3,2.1,3c0.4,1.6,1.1,3.2,1.6,3.5c0.44,0.35,0.79,0.94,0.87,1.49c0,0.01,0.01,0.02,0.02,0.03
		c0.03,0.18,0.09,0.36,0.15,0.54c0.17,0.39,0.41,0.74,0.67,1.08c0.23,0.29,0.47,0.58,0.71,0.86c0.06,0.06,0.1,0.14,0.13,0.22
		c0,0.02,0.01,0.05,0.01,0.07c0.08,0.04,0.16,0.07,0.25,0.12c2.6,1.4,3.1,9.8,0.7,10.7c-0.8,0.3-1.7,1.5-2,2.7
		c-0.3,1.2-2.5,4.2-5,6.6c-4.2,4.1-4.7,4.3-6.3,2.9c-5.1-4.3-14.4-6.6-23.3-5.7c-5.7,0.5-9.8,0.5-12.5-0.3c-2.2-0.6-5.2-1-6.8-1
		c-1.5,0-2.5-0.3-2.2-0.8c0.3-0.5,0.2-2.7-0.1-5c-0.6-3.8-0.8-4-2.2-2.6c-1.4,1.3-1.4,2.3-0.5,5.8c1.4,5.1,0.5,6.3-5.8,7.3
		c-5,0.9-7-0.6-6.2-4.6c0.3-1.8,0.1-2.9-0.6-2.9c-0.6,0-1.1,0.9-1.1,2c0,2.2-1,2.6-2.7,0.9c-0.9-0.9-1.4-0.5-1.8,1.7
		c-0.4,1.6-0.9,3.6-1.1,4.5c-0.3,0.9,0.6,2.1,2,2.9c1.14,0.59,2.09,1.44,2.7,2.29c0.03-0.03,0.05-0.07,0.08-0.09
		c0.13-0.13,0.28-0.24,0.43-0.34c0.14-0.09,0.29-0.16,0.44-0.22c0.31-1.05,2.15-0.65,6.05,1.07c2.7,1.3,3.9,2.4,3.9,3.9
		c0,1.2,0.7,2.7,1.5,3.4c3.9,3.2-0.1,12.1-5.7,12.5c-1.3,0.1-2.1,0.4-1.8,0.7c0.79,0.79-2.03,3.73-3.64,3.79
		c-0.09,0.07-0.18,0.15-0.27,0.22c-0.29,0.24-0.57,0.48-0.86,0.71c-0.1,0.1-0.2,0.21-0.3,0.31c-0.26,0.24-0.53,0.47-0.82,0.66
		c-0.22,0.15-0.47,0.27-0.72,0.36c0.26,1.52,0.53,3.09,0.82,4.75c1.2,7.3,2.6,10.6,5.7,13.4c1.2,1.1,2.1,2.8,2.1,3.9
		c0,1,1.3,3.1,2.8,4.5c1.6,1.5,3.4,3.7,4,4.9c0.8,1.4,1.8,2,2.8,1.6c0.8-0.3,2.3,0.2,3.3,1.1c1.6,1.5,2.5,1.5,11.2-0.4
		c14.7-3.1,18.2-2.7,24,2.6c2.6,2.4,2.6,2.4,4.4,0.4c1-1.1,2.9-2,4.2-2c2.6,0,2.7,0.3,1.2,3.2c-1.8,3.4,1.2,1.7,3.8-2.1
		c2.3-3.3,2.3-3.3-0.2-5.3c-3.3-2.5-3.6-9.2-0.5-10.8c4.6-2.4,5.3-12,0.9-12c-3.5,0-1.8-3.3,2.9-5.6c2.3-1.2,5-3.2,6-4.4
		c1.7-2.2,1.9-2.2,5.7-0.5c2.2,0.9,5.1,1.9,6.5,2.1c1.4,0.3,2.7,0.9,2.8,1.5c0.2,0.5,1.2,0.9,2.3,0.9
		C413.78,516,410.18,484.2,404.28,471.2z"/>
	<path class="st5" d="M438.19,240.1c0.16-3.63,0.36-6.64,0.58-8.3c0.9-6.8,0.9-6.8-3.6-11.3c-5-5-7.8-5.6-13-2.9
		c-3.2,1.7-3.2,1.7,0.5,3.5c9.3,4.8,7.2,18.4-3,20.5c-2.7,0.5-3.7,0.1-6.3-2.4c-3-3-3-3-3-0.3c0,6.6,8.9,13.9,15.1,12.6
		c1.7-0.4,4.9-2.3,7.2-4.4c0.7-0.63,1.29-1.12,1.76-1.48c0.01-0.01,0.01-0.02,0.01-0.02c0.21-0.26,0.42-0.52,0.63-0.78
		c0.05-0.07,0.1-0.13,0.16-0.2c0.02-0.02,0.04-0.05,0.06-0.07c0.01-0.01,0.02-0.03,0.03-0.04c0.1-0.13,0.2-0.27,0.31-0.4
		c0.69-0.93,1.34-1.89,1.94-2.88C437.78,240.85,437.99,240.48,438.19,240.1z"/>
	<path class="st5" d="M409.27,443.7c6.7,4.6,13.1,1.3,13.1-6.6c0-8-9.6-13.8-15.7-9.6C401.58,431,402.98,439.5,409.27,443.7z
		 M406.38,430.6c1.4-3.8,1.7-3.2,1.2,2.7c-0.4,5-0.2,5.5,2.8,8c3.3,2.8,3.3,3.4-0.1,1.7C406.38,440.9,404.58,435.2,406.38,430.6z"/>
	<path class="st5" d="M433.77,508.5c4.8,3.2,10.4-1.5,9.2-7.7c-1.5-7.8-4.9-10.7-10.9-9.1c-6.9,1.8-5.4,16.2,2.2,20.3
		c2.3,1.2,7.7-0.4,8.5-2.6c0.5-1.3,0.3-1.3-1.6,0.1c-6.4,4.4-13.3-3.2-11.3-12.4c1.1-5.2,2-3.4,1.7,3.3
		C431.27,506.4,431.38,507,433.77,508.5z"/>
</g>
<g id="ROJO">
	<g>
		<path class="st6" d="M300.88,365.1c-1.1,0-3.3,0.6-5,1.4c-1.6,0.8-8.3,3-14.7,5c-6.5,1.9-11.8,3.9-11.8,4.4c0,1.1,14.7,7.8,19,8.5
			c7.7,1.4,26.6-4.5,21.8-6.8c-1-0.5-1-0.7,0-1.2c0.6-0.3,1.2-1.2,1.2-1.9c0-4.9-15.9-4.7-26.4,0.3c-7.6,3.5-10.4,3.7-3.5,0.1
			c11.1-5.6,21.7-7.4,26.9-4.4c3,1.7,5,1.9,5,0.5C313.38,369.6,303.58,365,300.88,365.1z"/>
		<path class="st6" d="M318.68,379.2c0.4-2.1,1.6-4.7,2.7-5.7c3.7-3.4,2.4-4.2-3.7-2.4c-5,1.4-6.3,11-1.7,11.7
			C317.77,383.1,318.18,382.5,318.68,379.2z"/>
		<path class="st6" d="M319.27,394c2.6,0,3-0.8,3.3-6.4c0.2-3.5,0.7-4.6,2-4.6c0.9,0,2-0.5,2.4-1.1c0.4-0.7,0.9-0.7,1.3-0.1
			c0.7,1.1,18.9,2.3,19.6,1.2c0.3-0.4-3.9-1.3-9.3-2c-5.3-0.7-11.4-2.1-13.4-3.1c-3.8-1.9-3.8-1.9-4.4,0.5c-0.3,1.4-0.4,3.1-0.1,3.8
			c0.2,0.7-0.4,3-1.4,5C316.88,392,316.88,394,319.27,394z"/>
		<path class="st6" d="M370.57,383.93c0.15-0.1,0.3-0.21,0.45-0.3c0.15-0.08,0.3-0.14,0.46-0.21c-1.02-0.28-2.05-0.42-3.1-0.42
			c-1,0-1.1-0.3-0.3-1.1c0.9-0.9,2.7-0.8,7.1,0.5c4.7,1.3,7,1.4,11.3,0.6c18.7-3.5,11.9-7.4-7.6-4.4c-4.9,0.7-13.6,1.7-19.2,2
			c-7.7,0.5-10.3,1-10.3,2c0,1.3,11.7,2.1,20,1.4C369.89,383.96,370.27,383.93,370.57,383.93z"/>
		<path class="st6" d="M302.58,384.5c-7.6,2-8.9,2.7-14.3,8.1c-7.3,7.3-7.3,7.4,0.5,7.4c8.1,0,12-1.7,17.7-7.7
			C315.77,382.4,315.18,381.1,302.58,384.5z"/>
		<path class="st6" d="M396.08,382.6c-0.3,0.4-3.7,1.4-7.6,2.3c-6.9,1.6-6.9,1.6-0.8,10.9c6.5,9.9,6.7,10,8.7,3.2
			C399.27,388.8,399.18,379.6,396.08,382.6z"/>
		<path class="st6" d="M307.88,664.8c-7.6,1.6-9.4,14-2.8,19.1c4.4,3.6,10.6,2.2,13.6-2.9c1.9-3.1,2.2-7,0.7-7c-0.5,0-1-0.6-1-1.4
			C318.38,668.6,312.08,664,307.88,664.8z"/>
	</g>
</g>
<g id="PIEL">
	<path class="st7" d="M544.38,204.2c-1.3-1.7-3.7-3.6-5.4-4.4c-1.7-0.7-6.1-4.1-9.8-7.5c-7.4-6.91-8.37-7.27-14.51-4.06
		c-0.1,0.1-0.21,0.2-0.3,0.3c-0.12,0.13-0.24,0.27-0.35,0.41c-0.06,0.07-0.12,0.15-0.18,0.22c-0.03,0.04-0.06,0.07-0.08,0.11
		c-0.01,0.02-0.03,0.04-0.04,0.05c0,0.01-0.01,0.02-0.02,0.02c-0.01,0.01-0.01,0.02-0.02,0.02c-0.01,0.02-0.03,0.04-0.04,0.05
		c-0.03,0.04-0.05,0.07-0.08,0.11c-0.05,0.07-0.1,0.13-0.15,0.2c-0.11,0.14-0.21,0.29-0.32,0.44c-0.38,0.52-0.76,1.05-1.15,1.56
		c-0.36,0.47-0.71,0.96-1.03,1.46c-0.17,0.77-0.66,2.08-1.52,3.9c-2.2,4.9-2.6,11-0.9,15.7c1.2,3.5,2.9,3.4,2.9,0
		c0-5.5,8.8-17.8,12.6-17.8c1.4,0,1.1,0.5-1.3,2.1c-9.6,6.2-12.1,26.2-3.3,27.1c2.4,0.3,2.5,0.1,2.6-5.6c0.1-5.5,0.3-6.1,3.8-9.4
		c3.8-3.4,3.8-3.4,12.3-2.7C546.58,207.2,546.58,207.2,544.38,204.2z"/>
	<path class="st7" d="M445.88,210c-0.3-3-0.5-6.3-0.5-7.2c0-3.3-24.8-14.1-60.3-26.2c-24.7-8.4-24.7-8.4-26.6-5.7
		c-1,1.4-6.9,11.8-13,23.1c-12.1,22.1-14.6,28.8-17.6,47c-2,12-2.2,12.5-5.8,10.9c-3.5-1.6-3.9-3.3-2.7-11.5
		c2.1-14.5,1.5-19.5-2.7-23.6c-8.2-7.8-15-7.9-20.3-0.2c-5.8,8.5-5.7,20.4,0.2,38.3c4.3,12.8,8,17.6,13.7,17.6c3.7,0,4.1,0.2,3.6,2
		c-0.3,1.1-0.8,8.1-1.2,15.5c-0.9,22.2,1.6,28.3,19.3,45.6c37.1,36.7,67.6,40,81.9,9c1.9-3.9,5.2-14.6,7.5-23.7
		c2.3-9,6.4-22.5,9.2-29.9c2.8-7.4,5.5-14.9,6.1-16.5c0.6-1.7,1.2-10.4,1.2-19.5c0-4.25,0.09-8.77,0.23-12.76
		c-0.25,0.39-0.5,0.79-0.76,1.17c-0.66,0.97-1.38,1.9-2.12,2.8c-5.49,9.38-17.98,9.18-23.95-0.61c-1.9-3.1-1.9-3.1-1.9-0.5
		c0,8.5,4.1,20,10.5,29.4c4.8,7.2,2.6,11.8-7,14.5c-6.1,1.7-16.7,0.1-20.1-3.1c-2.4-2.2-3.5-9.1-1.6-10.3c0.4-0.2,0.7,1.4,0.7,3.6
		c0,7.9,13.4,11.7,23.5,6.5c6-3,6.2-5.2,1.1-12.7c-14.2-21.3-10.6-52.4,6.7-58.1c4.7-1.5,9.7-0.4,12.2,2.9c1.1,1.5,2.9,3.8,4,5.2
		c1.8,2.5,1.8,2.5,2.9-0.3c3.6-9.4-2.3-17.1-14.2-18.6c-5.5-0.6-6.5-1.8-5.3-6.7c1.6-6.3,21.5,4.2,21.7,11.5c0,1.4,0.5,3.5,1,4.6
		C446.18,214.9,446.28,213.9,445.88,210z M311.38,244.7c-3.2,3.6-3.6,6.3-1.5,11.5c0.4,1.1,0.3,1.8-0.4,1.8c-3.8,0-3.9-9.9-0.2-13.9
		C313.38,239.7,315.28,240.2,311.38,244.7z M313.58,237c-1,0-2.8,0.7-4,1.6c-1.3,0.9-2.2,1.1-2.2,0.4c0-0.6,1.4-1.9,3.1-2.8
		c2.8-1.6,3-2,2.4-5.6c-2.3-14.9-12.7-15.4-16.5-0.9c-1,3.8-1,3.8-0.6,0.2c1.3-11.7,8.9-16.1,15-8.8c2.1,2.5,4.6,10.3,4.6,14.4
		C315.38,236.3,314.58,237,313.58,237z M408.78,315.3c-4.4,2.5-24.6-1.7-30.4-6.3c-1.8-1.5-0.7-1.2,3.9,0.9c3.6,1.7,8.9,3.5,12,4.2
		c3,0.6,7.9,0.9,10.9,0.7C408.98,314.5,410.08,314.6,408.78,315.3z M415.38,308c1.2-1.2,2.5-1.8,3-1.5c3.7,2.3-3.4,5.5-11.9,5.5
		c-12.6,0-31.9-6.2-41-13.1c-5.8-4.4-6.1-4.5-6.1-2.4c0,0.8-0.4,1.5-1,1.5c-1.6,0-1.2-4.2,0.7-6.2c2.2-2.5,4.6-2.4,3.8,0.2
		c-0.7,2.3,4.6,6.5,14.1,11.1C390.78,309.6,411.18,312.2,415.38,308z M385.28,243.6c-11,5.7-25.9-4.3-25.9-17.4
		c0-14.8,16.7-24.7,29.4-17.4C400.38,215.5,398.18,236.9,385.28,243.6z M407.98,192.2c-0.9,5.4-0.7,5.3-6.3,3.2
		c-7.1-2.8-27.5-2.6-35.5,0.3c-7.1,2.4-8,0.7-1.5-3c10.1-5.9,24.3-8.3,33.4-5.7c2.8,0.8,4.8,1.7,4.4,2s0,1.8,1,3.5
		c1.9,3,1.9,3,1.9-0.8c0-2.7,0.4-3.7,1.6-3.7C408.38,188,408.48,188.7,407.98,192.2z"/>
	<path class="st7" d="M535.58,207.7c-5.1-0.8-5.4-0.7-8.3,2.4c-3.3,3.6-4,9.9-1.4,13.6c1.5,2.1,1.4,2.3-1.2,2.9
		c-1.5,0.4-3.9,1.5-5.2,2.6c-2.9,2.2-7.1,2.4-7.1,0.3c0-2.5-3.6-8.8-6.5-11.5c-2.4-2.2-3.5-2.5-9.2-2.3c-8.4,0.3-8.4,0.3-2.7,6.6
		c3.4,3.7,5.6,7.5,7.2,11.9c2.8,8,6.2,13.4,13.6,21.5c6.2,6.8,7.8,10.2,9.5,21.3c2,13,1.4,12,7.4,12c5.6,0,14.8-2.3,18.3-4.5
		c1.9-1.2,2-1.9,1.3-6.2c-1.3-7.9-1-20.6,0.7-28.7c2.6-12.6,1.7-35.2-1.6-39.3c-1.6-2-3-3-4-2.6
		C544.28,208.6,541.78,208.5,535.58,207.7z M540.08,227.5c-1,0.4-2.9,0.3-4.3-0.3c-2-1-2.4-0.9-2.4,0.4c0,1.7-3.9,13.7-4.7,14.4
		c-1.2,1.1,0.7-9,2.3-12.4c1.8-3.6,1.8-3.6-1.9-7.1c-5.8-5.7-4.8-7.6,1.3-2.5c1.9,1.7,4.6,3,6,3.1c2.3,0,2.3,0.1,0.5,0.8
		c-1.8,0.8-1.6,1,1.5,1.9C541.28,226.6,541.58,226.9,540.08,227.5z"/>
	<path class="st7" d="M517.38,227.9c1.3-0.8,1.3-1,0-1.9c-2.1-1.4-3-1.2-3,0.4C514.38,228.4,515.68,229.1,517.38,227.9z"/>
	<path class="st7" d="M331.88,377c9.2,2.1,23.5,2.3,40.8,0.5c20.1-1.9,19.7-1.8,19.7-6c0-3.3,0-3.3-9.7-3.7
		c-15.4-0.6-30.7-9.5-51.6-29.9c-5.9-5.8-10.6-10-10.3-9.2c1.6,4.2,5.6,30.1,5.8,38C326.88,375.9,326.88,375.9,331.88,377z"/>
	<path class="st7" d="M436.48,599c9,0,5.5-26-4.7-34c-12.2-9.7-17.4-10.8-42.4-9c-5.8,0.4-15.9,1-22.5,1.4
		c-18.3,1.1-19.3,1.8-18.2,13.5c0.9,10.7,5.1,16.1,12.5,16.1c2.5,0,6.2,1.2,10.5,3.5c5.7,3,8.3,3.7,17.4,4.7
		c11.5,1.2,12.9,1.7,11.9,4.4c-0.6,1.5-0.8,1.6-2.4,0c-1-0.9-3.5-1.6-5.6-1.6c-3.7,0-3.7,0-1.9,3.1c2.1,3.6,9.7,8.9,12.8,8.9
		c2.9,0,4.9-2.4,7.4-9c2.2-5.6,6-11.5,6.1-9.2c0,0.7-0.8,2.9-1.9,5c-3.8,7.5-4.2,11-1.4,11.7c4.2,1,5.9-1.7,9.7-15.6
		c0.9-3.1,2.3-6.3,3.3-7c1.5-1.3,1.6-1.2,0.8,0.6c-0.4,1.1-1.8,5.7-3.1,10.3c-2.2,8.1-2.2,8.2-0.3,9.2c4.4,2.4,7-1.6,9.4-14
		c1.4-7.5,1.4-7.5,1.1-0.3C434.68,598.2,434.88,599,436.48,599z"/>
</g>
</svg>
